<?xml version="1.0" encoding="utf-8"?>
<!-- Generator: Adobe Illustrator 18.1.1, SVG Export Plug-In . SVG Version: 6.00 Build 0)  -->
<svg version="1.1" xmlns="http://www.w3.org/2000/svg" xmlns:xlink="http://www.w3.org/1999/xlink" x="0px" y="0px"
	 viewBox="0 0 1280 800" enable-background="new 0 0 1280 800" xml:space="preserve">
<g id="Layer_15" display="none">
</g>
<g id="_x31_1_Background_LAyer" display="none">
</g>
<g id="_x31_0_Bottom_Layer__x28_Body_x29_" display="none">
</g>
<g id="Side_Panel_Far_1_">
	<g id="Door_copy">
	</g>
	<g id="Window_copy">
	</g>
	<g>
		<g>
			<polygon id="Panel_4_" fill="#7A7A7A" points="142.8,720.8 147.6,721.7 514.2,507.4 510.9,379.2 503.3,378.4 131.5,568.5 			"/>
			<polygon id="Panel_5_" fill="#4C4C4C" points="147.6,721.7 514.2,507.4 510.9,379.2 137.1,569.1 			"/>
			<polygon id="Panel_3_" fill="#E5E5E5" points="131.5,568.5 503.3,378.4 510.9,379.2 136.9,569.3 			"/>
		</g>
		<path fill="#7A7A7A" d="M466.8,401.4l52.2-26.8l3.6-14.9l-3.5-0.5l-26,12c0-6.5,2.8-9.2,2.8-9.2l-2.6-1.1L158.9,525.7
			c0,0-25.1,28.1-25.1,43l3.1,0.4L466.8,401.4z"/>
		<path fill="#7A7A7A" d="M158.9,525.7c0,0-25.1,12.8-25.1,43l3.1,0.4c0,0,1.3-29.4,26.2-43L158.9,525.7z"/>
		<path fill="#FFFFFF" stroke="#000000" stroke-width="0.5" stroke-miterlimit="10" d="M133.8,568.1"/>
		<polygon fill="#CCCCCC" points="158.9,525.7 163,526.2 495.9,362 493.3,361 		"/>
		<polygon fill="#E5E5E5" points="493.1,373.2 523,359.7 519.6,359.2 493.1,371.2 		"/>
	</g>
</g>
<g id="Seats" display="none">
</g>
<g id="Roof" display="none">
</g>
<g id="Side_Panel_Near" display="none">
	<g id="Door" display="inline">
	</g>
	<g id="Window" display="inline">
	</g>
</g>
<g id="Top_Flap_Near" display="none">
</g>
<g id="Air_Conditioning_Unit" display="none">
</g>
<g id="exploding_x5F_roof" display="none">
</g>
<g id="Pop-up_Text" display="none">
</g>
<g id="Cannister_Headlight" display="none">
</g>
<g id="_x30_1_Front_Panel" display="none">
</g>
<g id="_x30_3_-_Front_Panel_Windows" display="none">
</g>
<g id="Branding" display="none">
</g>
<g id="_x30_1_Highlights" display="none">
</g>
<g id="Grid_x2C__Perspective_Guides" display="none">
</g>
</svg>
