<?xml version="1.0" encoding="utf-8"?>
<!-- Generator: Adobe Illustrator 18.1.1, SVG Export Plug-In . SVG Version: 6.00 Build 0)  -->
<svg version="1.1" id="Layer_1" xmlns="http://www.w3.org/2000/svg" xmlns:xlink="http://www.w3.org/1999/xlink" x="0px" y="0px"
	 viewBox="0 0 960 560" enable-background="new 0 0 960 560" xml:space="preserve">
<g id="Layer_15" display="none">
	<rect x="32" display="inline" fill="#E5E5E5" stroke="#000000" stroke-miterlimit="10" width="896" height="560"/>
</g>
<g id="_x31_1_Background_LAyer" display="none">
	<path display="inline" fill="#4C4C4C" d="M962-31.8c-90.3-60.9-389.1-68-489.3-70.7c-155.4-4.2-399-3.2-399-3.2v40.2
		c0,0,32.7,0.2,81.7,1.1c6.5,17.6,6.5,51.4,6.5,51.4l-23.1,9.4l14.7,1.1l2.1,14.7c67.2,0,300.3,24.2,300.3,24.2l17.9-12.6l21,3.1
		l2.1,25.2c72.5,8.4,164,41.4,184,48.9L-193,566.7V700h419c0,0,644.4-494.1,676.2-518.7C986.2,116.3,1022.1,8.8,962-31.8z"/>
	<path display="inline" fill="#4C4C4C" d="M1025.6-20.3c-90.3-60.9-389.1-68-489.3-70.7c-155.4-4.2-399-3.2-399-3.2v40.3
		c0,0,32.7,0.2,81.7,1c6.5,17.6,6.5,51.4,6.5,51.4l-23.1,9.4l14.7,1l2.1,14.7c67.2,0,300.3,24.2,300.3,24.2l17.9-12.6l21,3.2
		l2.1,25.2c72.5,8.4,164,41.4,184,48.9l-873.7,465.6v133.3h419c0,0,644.4-494.1,676.2-518.7C1049.7,127.8,1085.7,20.2,1025.6-20.3z"
		/>
	<path display="inline" fill="#E5E5E5" d="M489.5,16.5L202.9-4.8V-15h-23.1c0-28.1,1.3-43.3,1.8-48.9c91.1,1.7,220.6,5.1,310.2,11.9
		c4.1,20.4,4.1,67.5,4.1,67.5L489.5,16.5z"/>
	<path display="inline" fill="#E5E5E5" d="M740.1,69L535.7,30.2v-21L522,7.1l-1-56.6c146.3,14,329.7,58.7,329.7,58.7L740.1,69z"/>
</g>
<g id="_x31_0_Bottom_Layer__x28_Body_x29_" display="none">
	<path display="inline" fill="#FFFFFF" stroke="#000000" stroke-width="0.5" stroke-miterlimit="10" d="M200.5,416.7l-79.3-11.9
		c-10.3,26.4-4.9,79.1-4.9,79.1l76.3,13.5C192.5,497.5,190.9,447.3,200.5,416.7z"/>
	<path display="inline" fill="#FFFFFF" stroke="#000000" stroke-width="0.5" stroke-miterlimit="10" d="M243.9,481.1l-4-68.1
		c-21.5,5.4-35,18.9-35,82.8L243.9,481.1z"/>
	<path display="inline" fill="#FFFFFF" stroke="#000000" stroke-width="0.5" stroke-miterlimit="10" d="M151,500.7
		c-28-6.3-34.8-16.8-34.8-16.8l76.3,13.5C192.5,497.5,174.7,506,151,500.7z"/>
	<g display="inline" opacity="0.1">
		<path fill="#CCCCCC" d="M377.2,259.8l18.6-8.5l-2.7,10.1l9.2-4.8l3.9,0.4l3-8.1l2.4-1.1l4.1-8.3l20.6-9.5c1.8-3.3,2.9-4.9,8.3-7.8
			c5.4-2.9,152.4-75.8,152.4-75.8c0.7-0.3,3.4-1.4,8.8-1.1c59.5,3.9,53.6,3.4,59.5,3.9c7.2,0.7,8.2,8.4,10.7,21s3.5,39,3.5,39
			l-1.4,26.1l1.6,1.4l-0.2,6.8l-3.8,5.7l-1.5,21.1l-151.5,102l-0.3-7.6l0.1-10.9l-6.3,3.9L516,362l-7.7,4.7l-14.2,9.4l-9,5.2
			l-0.5-2.3l-5.6,3.5l-1.8,20.6l-138.9,93.5l-2.5-10l-0.4-12.5l-15.7,9.4l0.4,4.1l-10.9,6.1l-0.7-3.4l-9.8,6.4l-4-0.4v2.9l-7,4.6
			v-2.9l-13.3,8.8l0.1,9.6c0,0-21.2,11-45.4,22.8c-6.6,3.3-25.6,7.6-39.8,7.6c-36.3,0-58.1-12.8-66.5-18.5c-1.5-1-5.7-2.2-5.9-3.6
			c-0.6-3.2-1.1-4.1-1.3-6c-0.1-1.8,0.1-3.4,2-5.2c0,0-7.1-39.7-4.9-81.5s22.1-62.4,30.9-66.9c12.4-6.2,233.8-115.1,233.8-115.1
			l1.8,0.8C379.1,253.4,377.2,255.5,377.2,259.8z"/>
	</g>
</g>
<g id="Side_Panel_Far_1_">
	<g id="Door_copy">
	</g>
	<g id="Window_copy">
	</g>
	<g display="none">
		<g display="inline">
			<polygon id="Panel_4_" fill="#7A7A7A" points="132,504.6 135.3,505.2 391.9,355.2 389.6,265.4 384.3,264.9 124,397.9 			"/>
			<polygon id="Panel_5_" fill="#4C4C4C" points="135.3,505.2 391.9,355.2 389.6,265.4 128,398.4 			"/>
			<polygon id="Panel_3_" fill="#E5E5E5" points="124,397.9 384.3,264.9 389.6,265.4 127.8,398.5 			"/>
		</g>
		<path display="inline" fill="#7A7A7A" d="M358.8,281l36.5-18.8l2.5-10.4l-2.5-0.4l-18.2,8.4c0-4.5,2-6.4,2-6.4l-1.8-0.8L143.2,368
			c0,0-17.6,19.7-17.6,30.1l2.2,0.3L358.8,281z"/>
		<path display="inline" fill="#7A7A7A" d="M143.2,368c0,0-17.6,9-17.6,30.1l2.2,0.3c0,0,0.9-20.6,18.3-30.1L143.2,368z"/>
		<path display="inline" fill="#FFFFFF" stroke="#000000" stroke-width="0.5" stroke-miterlimit="10" d="M125.7,397.7"/>
		<polygon display="inline" fill="#CCCCCC" points="143.2,368 146.1,368.3 379.1,253.4 377.3,252.7 		"/>
		<polygon display="inline" fill="#E5E5E5" points="377.2,261.2 398.1,251.8 395.7,251.4 377.2,259.8 		"/>
	</g>
</g>
<g id="Roof">
	<polygon display="none" fill="#E5E5E5" points="406.6,254.7 483.1,264.6 483.1,269.5 255.6,394.9 169.7,379.4 169.7,374.5 	"/>
	<polygon display="none" fill="#262626" points="406.6,254.7 483.1,264.6 255.6,390 169.7,374.5 	"/>
	<polygon display="none" fill="#B2B2B2" points="255.6,390 255.6,394.9 169.7,379.4 169.7,374.5 	"/>
	<g display="none">
		<g display="inline">
			<g>
				<g>
					<polygon fill="#B2B2B2" points="407.5,255.5 172.7,373 176.8,373.8 410.7,255.8 					"/>
					<polygon fill="#B2B2B2" points="412.6,256.1 178.3,374 182.3,374.9 415.7,256.4 					"/>
					<polygon fill="#B2B2B2" points="417.6,256.7 183.8,375 187.9,375.9 420.8,257 					"/>
					<polygon fill="#B2B2B2" points="422.7,257.2 189.4,376 193.5,376.9 425.8,257.7 					"/>
					<polygon fill="#B2B2B2" points="427.7,257.9 195,377.1 199.1,377.9 430.9,258.2 					"/>
					<polygon fill="#B2B2B2" points="432.8,258.5 200.6,378.1 204.7,379 436,258.9 					"/>
					<polygon fill="#B2B2B2" points="437.8,259.1 206.2,379.1 210.3,380 441,259.5 					"/>
					<polygon fill="#B2B2B2" points="442.9,259.8 211.8,380.2 215.9,381.1 446,260.1 					"/>
					<polygon fill="#B2B2B2" points="447.9,260.4 217.4,381.2 221.5,382.1 451.2,260.8 					"/>
					<polygon fill="#B2B2B2" points="453,261 223.1,382.3 227.2,383.2 456.3,261.4 					"/>
					<polygon fill="#B2B2B2" points="458.2,261.7 228.7,383.4 232.8,384.3 461.4,262.1 					"/>
					<polygon fill="#B2B2B2" points="463.2,262.3 234.4,384.4 238.4,385.4 466.5,262.7 					"/>
					<polygon fill="#B2B2B2" points="468.3,263 240,385.6 244.1,386.5 471.6,263.3 					"/>
					<polygon fill="#B2B2B2" points="473.5,263.6 245.6,386.6 249.8,387.5 476.7,264 					"/>
					<polygon fill="#B2B2B2" points="478.6,264.3 251.3,387.7 255.4,388.6 481.8,264.7 					"/>
					<polygon fill="#B2B2B2" points="483.7,264.9 257,388.9 261.1,389.8 486.9,265.4 					"/>
				</g>
				<polygon fill="#7A7A7A" points="261.1,389.8 258.2,389.1 482.1,265.6 481.8,264.7 255.4,388.6 252.5,388 477,264.9 476.7,264 
					249.8,387.5 246.8,386.9 471.9,264.3 471.6,263.3 244.1,386.5 241.2,385.8 466.8,263.6 466.5,262.7 238.4,385.4 235.6,384.7 
					461.7,263 461.4,262.1 232.8,384.3 229.9,383.7 456.5,262.3 456.3,261.4 227.2,383.2 224.3,382.5 451.4,261.7 451.2,260.8 
					221.5,382.1 218.6,381.5 446.3,261 446,260.1 215.9,381.1 213,380.4 441.3,260.4 441,259.5 210.3,380 207.4,379.4 436.2,259.8 
					436,258.9 204.7,379 201.8,378.4 431.1,259.1 430.9,258.2 199.1,377.9 196.2,377.3 426.1,258.5 425.8,257.7 193.5,376.9 
					190.6,376.3 421.1,257.9 420.8,257 187.9,375.9 185.1,375.3 416,257.3 415.7,256.4 182.3,374.9 179.5,374.2 411,256.7 
					410.7,255.8 176.8,373.8 172.7,373 172.7,374.3 176.8,375.1 178.3,374.6 178.3,375.3 182.4,376.2 183.9,375.7 183.9,376.3 
					187.9,377.2 189.4,376.7 189.5,377.4 193.5,378.3 195,377.7 195,378.4 199.1,379.3 200.6,378.8 200.6,379.5 204.7,380.4 
					206.2,379.8 206.3,380.5 210.4,381.4 211.8,380.9 211.9,381.6 216,382.5 217.5,381.9 217.5,382.6 221.6,383.5 223.1,383 
					223.2,383.7 227.2,384.6 228.8,384.1 228.8,384.8 232.9,385.7 234.4,385.1 234.4,385.8 238.5,386.8 240,386.3 240.1,387 
					244.2,387.9 245.7,387.3 245.8,388 249.8,389 251.4,388.4 251.4,389.1 255.6,390.1 257,389.5 257.1,390.2 261.2,391.2 
					487.3,266.4 486.9,265.4 				"/>
			</g>
		</g>
	</g>
	<polygon display="none" fill="#B2B2B2" points="370.4,287.8 341.3,284.6 242.3,334.1 257.9,328.1 258.7,326.4 289.9,329.6 
		289.8,330.6 302.5,339.5 302.5,352.6 385.1,307.8 385.1,295.9 370.4,288.5 	"/>
	<polygon display="none" fill="#E5E5E5" points="289.9,329.6 370.4,287.8 341.3,284.6 258.7,326.4 	"/>
	<polygon display="none" fill="#CCCCCC" points="289.9,329.6 258.7,326.4 257.9,328.1 242.3,334.1 242.3,343.7 302.5,352.6 
		302.5,339.5 289.8,330.6 	"/>
	<ellipse display="none" fill="#7A7A7A" cx="281.9" cy="323.9" rx="10.7" ry="3"/>
	<polygon display="none" fill="#7A7A7A" points="265.6,342.4 225.5,337.4 185.6,356.4 185.6,374.4 225.7,381.4 265.6,360.1 	"/>
	
		<polygon display="none" fill="#7A7A7A" stroke="#B2B2B2" stroke-linecap="round" stroke-linejoin="round" stroke-miterlimit="10" points="
		225.5,337.4 225.5,355.3 227.4,355.6 227.4,339.3 262.6,343.6 262.6,359.7 265.6,360.1 265.6,342.4 	"/>
	
		<polygon display="none" fill="#B2B2B2" stroke="#7A7A7A" stroke-linecap="round" stroke-linejoin="round" stroke-miterlimit="10" points="
		260.3,359.3 260.3,355.3 225.6,373.5 225.6,377.7 	"/>
	
		<polygon display="none" fill="#B2B2B2" stroke="#7A7A7A" stroke-linecap="round" stroke-linejoin="round" stroke-miterlimit="10" points="
		225.7,375.1 260.1,356.6 263.4,357 263.4,347.7 225.7,367.3 	"/>
	
		<polygon display="none" fill="#B2B2B2" stroke="#7A7A7A" stroke-linecap="round" stroke-linejoin="round" stroke-miterlimit="10" points="
		225.7,367.3 263.4,347.6 263.4,343.5 225.7,363.2 	"/>
	<path display="none" fill="#7A7A7A" d="M239.4,362.3c0,0.4-0.1,0.7-0.1,0.8c0,0-0.1,0-0.2,0c-0.2,0-0.3-0.3-0.3-0.8
		s0.1-0.8,0.3-0.8c0.1,0,0.1,0,0.1,0C239.3,361.6,239.4,362,239.4,362.3z"/>
	<path display="none" fill="#7A7A7A" d="M239.4,365.8c0,0.4-0.1,0.7-0.1,0.8c0,0-0.1,0-0.2,0c-0.2,0-0.3-0.3-0.3-0.8
		s0.1-0.8,0.3-0.8c0.1,0,0.1,0,0.1,0C239.3,365.1,239.4,365.5,239.4,365.8z"/>
	<path display="none" fill="#7A7A7A" d="M239.4,358c0,0.4-0.1,0.7-0.1,0.8c0,0-0.1,0-0.2,0c-0.2,0-0.3-0.4-0.3-0.8
		c0-0.5,0.1-0.8,0.3-0.8c0.1,0,0.1,0,0.1,0C239.3,357.3,239.4,357.6,239.4,358z"/>
	<path display="none" fill="#7A7A7A" d="M246.6,358.6c0,0.4-0.1,0.7-0.1,0.8c0,0-0.1,0-0.2,0c-0.2,0-0.4-0.3-0.4-0.8
		s0.1-0.8,0.4-0.8c0.1,0,0.1,0,0.1,0C246.4,357.9,246.6,358.3,246.6,358.6z"/>
	<path display="none" fill="#7A7A7A" d="M246.6,362.1c0,0.4-0.1,0.7-0.1,0.8c0,0-0.1,0-0.2,0c-0.2,0-0.4-0.3-0.4-0.8
		s0.1-0.8,0.4-0.8c0.1,0,0.1,0,0.1,0C246.4,361.4,246.6,361.8,246.6,362.1z"/>
	<path display="none" fill="#7A7A7A" d="M246.6,354.3c0,0.4-0.1,0.7-0.1,0.8c0,0-0.1,0-0.2,0c-0.2,0-0.4-0.4-0.4-0.8
		c0-0.5,0.1-0.8,0.4-0.8c0.1,0,0.1,0,0.1,0C246.4,353.6,246.6,353.9,246.6,354.3z"/>
	<path display="none" fill="#7A7A7A" d="M261.7,350.7c0,0.4-0.1,0.7-0.1,0.8c0,0-0.1,0-0.2,0c-0.2,0-0.4-0.4-0.4-0.8
		c0-0.5,0.1-0.8,0.4-0.8c0.1,0,0.1,0,0.1,0C261.5,350,261.7,350.4,261.7,350.7z"/>
	<path display="none" fill="#7A7A7A" d="M261.7,354.1c0,0.3-0.1,0.7-0.1,0.8c0,0-0.1,0-0.2,0c-0.2,0-0.4-0.4-0.4-0.8
		c0-0.5,0.1-0.8,0.4-0.8c0.1,0,0.1,0,0.1,0C261.5,353.4,261.7,353.9,261.7,354.1z"/>
	<path display="none" fill="#7A7A7A" d="M261.7,346.4c0,0.4-0.1,0.7-0.1,0.8c0,0-0.1,0-0.2,0c-0.2,0-0.4-0.3-0.4-0.8
		s0.1-0.8,0.4-0.8c0.1,0,0.1,0,0.1,0C261.5,345.7,261.7,346.1,261.7,346.4z"/>
	<polygon display="none" fill="#CCCCCC" points="190.3,359.1 188.4,360 222.6,365.7 222.7,364.4 	"/>
	<polygon display="none" fill="#CCCCCC" points="189.8,363.5 188,364.5 190.4,364.8 192.4,363.9 	"/>
	<polygon display="none" fill="#CCCCCC" points="219.6,367.7 217.7,368.7 220.2,369 222.1,368.1 	"/>
	<polygon display="none" fill="#CCCCCC" points="196.8,369.9 191.8,372.5 193.1,372.6 198,370.2 	"/>
	<polygon display="none" fill="#CCCCCC" points="194.3,369.6 189.4,372 190.6,372.3 195.4,369.7 	"/>
	
		<polygon display="none" fill="#CCCCCC" stroke="#B2B2B2" stroke-linecap="round" stroke-linejoin="round" stroke-miterlimit="10" points="
		185.6,356.4 185.6,374.4 187.5,374.7 187.5,358.6 222.7,364.4 222.7,380.9 225.7,381.4 225.7,363.2 	"/>
	
		<polygon display="none" fill="#E5E5E5" stroke="#B2B2B2" stroke-linecap="round" stroke-linejoin="round" stroke-miterlimit="10" points="
		265.6,342.4 225.5,337.4 185.6,356.4 225.7,363.2 	"/>
	<path display="none" fill="#7A7A7A" d="M193.8,354.3l-4.4,2.2l36.6,5.4l4.3-2.2L193.8,354.3z M191.8,356.2l2.9-1.5l0.8,0.1
		l-2.9,1.5L191.8,356.2z M193.8,356.6l2.9-1.5l0.8,0.1l-2.9,1.5L193.8,356.6z M196,356.9l2.9-1.5l0.8,0.1l-2.9,1.5L196,356.9z
		 M197.9,357.2l2.9-1.5l0.8,0.1l-2.9,1.5L197.9,357.2z M200,357.4l2.9-1.5l0.8,0.1l-2.9,1.5L200,357.4z M202,357.8l2.9-1.5l0.8,0.1
		l-2.9,1.5L202,357.8z M204.1,358l2.9-1.5l0.8,0.1l-2.9,1.5L204.1,358z M206.2,358.3l2.9-1.5l0.8,0.1l-2.9,1.5L206.2,358.3z
		 M208.1,358.6l2.9-1.5l0.8,0.1l-2.9,1.5L208.1,358.6z M210.3,359l2.9-1.5l0.8,0.1l-2.9,1.5L210.3,359z M212.2,359.2l2.9-1.5
		l0.8,0.1l-2.9,1.5L212.2,359.2z M214.3,359.5l2.9-1.5l0.8,0.1l-2.9,1.5L214.3,359.5z M216.2,359.9l2.9-1.5l0.8,0.1L217,360
		L216.2,359.9z M218.3,360.1l2.9-1.5l0.8,0.1l-2.9,1.5L218.3,360.1z M220.4,360.4l2.9-1.5l0.8,0.1l-2.9,1.5L220.4,360.4z
		 M222.4,360.7l2.9-1.5l0.8,0.1l-2.9,1.5L222.4,360.7z M225.2,361.2l-0.8-0.1l2.9-1.5l0.8,0.1L225.2,361.2z"/>
	<path display="none" fill="#7A7A7A" d="M200.1,351l-4.3,2.2l36.5,5l4.3-2.2L200.1,351z M198.2,353.1l2.9-1.5l0.8,0.1l-2.9,1.5
		L198.2,353.1z M200.1,353.4l2.9-1.5l0.8,0.1l-2.9,1.5L200.1,353.4z M202.3,353.6l2.9-1.5l0.8,0.1l-2.9,1.5L202.3,353.6z
		 M204.3,353.9l2.9-1.5l0.8,0.1l-2.9,1.5L204.3,353.9z M206.3,354.2l2.9-1.5l0.8,0.1l-2.9,1.5L206.3,354.2z M208.3,354.5l2.9-1.5
		l0.8,0.1l-2.9,1.5L208.3,354.5z M210.4,354.8l2.9-1.5l0.8,0.1l-2.9,1.5L210.4,354.8z M212.5,355l2.9-1.5l0.8,0.1l-2.9,1.5
		L212.5,355z M214.3,355.3l2.9-1.5l0.8,0.1l-2.9,1.5L214.3,355.3z M216.5,355.6l2.9-1.5l0.8,0.1l-2.9,1.5L216.5,355.6z M218.4,355.8
		l2.9-1.5l0.8,0.1l-2.9,1.5L218.4,355.8z M220.6,356.1l2.9-1.5l0.8,0.1l-2.9,1.5L220.6,356.1z M222.5,356.4l2.9-1.5l0.8,0.1
		l-2.9,1.5L222.5,356.4z M224.5,356.6l2.9-1.5l0.8,0.1l-2.9,1.5L224.5,356.6z M226.7,356.9l2.9-1.5l0.8,0.1l-2.9,1.5L226.7,356.9z
		 M228.6,357.2l2.9-1.5l0.8,0.1l-2.9,1.5L228.6,357.2z M231.4,357.6l-0.8-0.1l2.9-1.5l0.8,0.1L231.4,357.6z"/>
	<path display="none" fill="#7A7A7A" d="M206.4,347.9l-4.3,2.2l36.3,5l4.2-2.2L206.4,347.9z M204.5,349.9l2.9-1.5l0.8,0.1l-2.9,1.5
		L204.5,349.9z M206.4,350.2l2.9-1.5l0.8,0.1l-2.9,1.5L206.4,350.2z M208.7,350.5l2.9-1.5l0.8,0.1l-2.9,1.5L208.7,350.5z
		 M210.6,350.8l2.9-1.5l0.8,0.1l-2.9,1.5L210.6,350.8z M212.6,351l2.9-1.5l0.8,0.1l-2.9,1.5L212.6,351z M214.6,351.3l2.9-1.5
		l0.8,0.1l-2.9,1.5L214.6,351.3z M216.6,351.5l2.9-1.5l0.8,0.1l-2.9,1.5L216.6,351.5z M218.7,351.8l2.9-1.5l0.8,0.1l-2.9,1.5
		L218.7,351.8z M220.6,352.1l2.9-1.5l0.8,0.1l-2.9,1.5L220.6,352.1z M222.8,352.4l2.9-1.5l0.8,0.1l-2.9,1.5L222.8,352.4z
		 M224.6,352.7l2.9-1.5l0.8,0.1l-2.9,1.5L224.6,352.7z M226.8,352.9l2.9-1.5l0.8,0.1l-2.9,1.5L226.8,352.9z M228.7,353.2l2.9-1.5
		l0.8,0.1l-2.9,1.5L228.7,353.2z M230.7,353.5l2.9-1.5l0.8,0.1l-2.9,1.5L230.7,353.5z M232.9,353.8l2.9-1.5l0.8,0.1l-2.9,1.5
		L232.9,353.8z M234.8,354.1l2.9-1.5l0.8,0.1l-2.9,1.5L234.8,354.1z M237.6,354.4l-0.8-0.1l2.9-1.5l0.8,0.1L237.6,354.4z"/>
	<path display="none" fill="#7A7A7A" d="M212.7,344.8l-4.3,2.2l36.1,4.8l4.2-2.2L212.7,344.8z M210.8,346.8l2.9-1.5l0.8,0.1
		l-2.9,1.5L210.8,346.8z M212.7,347.1l2.9-1.5l0.8,0.1l-2.9,1.5L212.7,347.1z M214.9,347.3l2.9-1.5l0.8,0.1l-2.9,1.5L214.9,347.3z
		 M216.8,347.6l2.9-1.5l0.8,0.1l-2.9,1.5L216.8,347.6z M218.8,347.8l2.9-1.5l0.8,0.1l-2.9,1.5L218.8,347.8z M220.9,348.1l2.9-1.5
		l0.8,0.1l-2.9,1.5L220.9,348.1z M222.9,348.3l2.9-1.5l0.8,0.1l-2.9,1.5L222.9,348.3z M224.9,348.6l2.9-1.5l0.8,0.1l-2.9,1.5
		L224.9,348.6z M226.9,348.9l2.9-1.5l0.8,0.1l-2.9,1.5L226.9,348.9z M229,349.2l2.9-1.5l0.8,0.1l-2.9,1.5L229,349.2z M230.9,349.4
		l2.9-1.5l0.8,0.1l-2.9,1.5L230.9,349.4z M233,349.6l2.9-1.5l0.8,0.1l-2.9,1.5L233,349.6z M234.9,349.9l2.9-1.5l0.8,0.1l-2.9,1.5
		L234.9,349.9z M236.9,350.2l2.9-1.5l0.8,0.1l-2.9,1.5L236.9,350.2z M239.1,350.5l2.9-1.5l0.8,0.1l-2.9,1.5L239.1,350.5z
		 M240.9,350.8l2.9-1.5l0.8,0.1l-2.9,1.5L240.9,350.8z M243.8,351.1L243,351l2.9-1.5l0.8,0.1L243.8,351.1z"/>
	<path display="none" fill="#7A7A7A" d="M219.2,341.5l-4.3,2.2l36,4.8l4.2-2.2L219.2,341.5z M217.3,343.5l2.9-1.5l0.8,0.1l-2.9,1.5
		L217.3,343.5z M219.2,343.8l2.9-1.5l0.8,0.1l-2.9,1.5L219.2,343.8z M221.4,344l2.9-1.5l0.8,0.1l-2.9,1.5L221.4,344z M223.3,344.3
		l2.9-1.5l0.8,0.1l-2.9,1.5L223.3,344.3z M225.3,344.5l2.9-1.5l0.8,0.1l-2.9,1.5L225.3,344.5z M227.4,344.8l2.9-1.5l0.8,0.1
		l-2.9,1.5L227.4,344.8z M229.3,345.1l2.9-1.5l0.8,0.1l-2.9,1.5L229.3,345.1z M231.4,345.3l2.9-1.5l0.8,0.1l-2.9,1.5L231.4,345.3z
		 M233.3,345.6l2.9-1.5l0.8,0.1l-2.9,1.5L233.3,345.6z M235.4,345.9l2.9-1.5l0.8,0.1l-2.9,1.5L235.4,345.9z M237.2,346.1l2.9-1.5
		l0.8,0.1l-2.9,1.5L237.2,346.1z M239.4,346.4l2.9-1.5l0.8,0.1l-2.9,1.5L239.4,346.4z M241.2,346.6l2.9-1.5l0.8,0.1l-2.9,1.5
		L241.2,346.6z M243.3,346.9l2.9-1.5l0.8,0.1l-2.9,1.5L243.3,346.9z M245.4,347.2l2.9-1.5l0.8,0.1l-2.9,1.5L245.4,347.2z
		 M247.3,347.5l2.9-1.5l0.8,0.1l-2.9,1.5L247.3,347.5z M250.1,347.8l-0.8-0.1l2.9-1.5l0.8,0.1L250.1,347.8z"/>
	<path display="none" fill="#7A7A7A" d="M225.3,338.5l-4.3,2.2l35.8,4.6l4.1-2.2L225.3,338.5z M223.3,340.5l2.9-1.5l0.8,0.1
		l-2.9,1.5L223.3,340.5z M225.3,340.8l2.9-1.5l0.8,0.1l-2.9,1.5L225.3,340.8z M227.4,341l2.9-1.5l0.8,0.1l-2.9,1.5L227.4,341z
		 M229.3,341.3l2.9-1.5l0.8,0.1l-2.9,1.5L229.3,341.3z M231.3,341.5l2.9-1.5l0.8,0.1l-2.9,1.5L231.3,341.5z M233.3,341.8l2.9-1.5
		l0.8,0.1l-2.9,1.5L233.3,341.8z M235.3,342l2.9-1.5l0.8,0.1l-2.9,1.5L235.3,342z M237.3,342.3l2.9-1.5l0.8,0.1l-2.9,1.5
		L237.3,342.3z M239.2,342.6l2.9-1.5l0.8,0.1l-2.9,1.5L239.2,342.6z M241.4,342.9l2.9-1.5l0.8,0.1l-2.9,1.5L241.4,342.9z
		 M243.2,343.1l2.9-1.5l0.8,0.1l-2.9,1.5L243.2,343.1z M245.3,343.4l2.9-1.5l0.8,0.1l-2.9,1.5L245.3,343.4z M247.2,343.6l2.9-1.5
		l0.8,0.1l-2.9,1.5L247.2,343.6z M249.1,343.8l2.9-1.5l0.8,0.1L250,344L249.1,343.8z M251.3,344.1l2.9-1.5l0.8,0.1l-2.9,1.5
		L251.3,344.1z M253.1,344.3l2.9-1.5l0.8,0.1l-2.9,1.5L253.1,344.3z M255.9,344.8l-0.8-0.1l2.9-1.5l0.8,0.1L255.9,344.8z"/>
	<g display="none">
		<polygon display="inline" fill="#E5E5E5" points="272.8,325.1 273.6,325.4 278.5,324.2 		"/>
		<path display="inline" fill="#E5E5E5" d="M291.6,323.8c0-0.2-0.1-0.4-0.3-0.6l-7.6,0.1l6.5-0.8c-0.3-0.1-0.7-0.3-1.1-0.4l-4.8,1
			l2.8-1.4c-0.8-0.1-1.8-0.2-2.7-0.3l-1.8,1.2l1.3-1.2c-0.6-0.1-1.3-0.1-2-0.1c-4.3,0-8,0.7-9.3,1.8l7.7,0.5c0,0-0.2,0.1-0.3,0.1
			h-7.8c0,0.1,0,0.1,0,0.1c0,0.1,0.1,0.3,0.1,0.4l7.8-0.5c-0.1,0.1-0.1,0.3,0.5,0.4L276,326c0.6,0.1,1.3,0.2,1.9,0.3l1.4-0.6
			l0.2,0.8c0.6,0.1,1.2,0.1,1.9,0.1l-0.1-1.1l0.8,1.1c1.4,0,2.7-0.1,3.9-0.2l-0.4-0.4c0,0,1.2,0.2,2.7,0.1c1.5-0.4,2.6-0.8,3.1-1.3
			c-4.1-0.3-7.2-0.5-7.2-0.5L291.6,323.8z M282.1,324c-0.8,0-1.5-0.1-1.5-0.4s0.6-0.4,1.5-0.4s1.5,0.1,1.5,0.4
			C283.6,323.8,282.9,324,282.1,324z"/>
	</g>
	<ellipse display="none" fill="#7A7A7A" cx="297.1" cy="316.1" rx="10.6" ry="3"/>
	<g display="none">
		<polygon display="inline" fill="#E5E5E5" points="306.3,317.3 305.5,317.6 300.6,316.5 		"/>
		<path display="inline" fill="#E5E5E5" d="M295.1,316.3c0,0-3,0.2-7.1,0.5c0.5,0.5,1.5,1,3.1,1.3c1.5,0.2,2.7-0.1,2.7-0.1l-0.4,0.4
			c1.2,0.1,2.5,0.2,3.9,0.2l0.8-1.1l-0.1,1.1c0.6,0,1.3,0,1.8-0.1l0.1-0.8l1.4,0.6c0.7-0.1,1.3-0.2,1.9-0.3l-4.5-1.8
			c0.6-0.1,0.6-0.2,0.5-0.3l7.6,0.5c0.1-0.1,0.1-0.3,0.1-0.4s0-0.1,0-0.1H299c-0.1-0.1-0.2-0.1-0.3-0.1l7.6-0.4
			c-1.3-1-4.9-1.8-9.2-1.8c-0.7,0-1.3,0-2,0.1l1.3,1.2l-1.8-1.2c-1,0.1-1.9,0.1-2.7,0.3l2.7,1.4l-4.8-1c-0.4,0.1-0.8,0.2-1.1,0.3
			l6.4,0.8l-7.6-0.1c-0.2,0.2-0.3,0.4-0.3,0.6L295.1,316.3z M295.7,315.9c0-0.2,0.6-0.3,1.5-0.3c0.8,0,1.5,0.1,1.5,0.3
			s-0.6,0.4-1.5,0.4C296.3,316.3,295.7,316.1,295.7,315.9z"/>
	</g>
	<g display="none">
		<polygon display="inline" fill="#CCCCCC" points="293.4,309.8 294.1,309.1 317.2,311.9 317.2,312.7 		"/>
		<g display="inline">
			<path fill="#CCCCCC" d="M294.3,309.5l22.6,2.7v0.1L294.3,309.5L294.3,309.5 M294,308.8l-1.4,1.3l25,2.9l-0.1-1.5L294,308.8
				L294,308.8z"/>
		</g>
	</g>
	<g display="none">
		<polygon display="inline" fill="#7A7A7A" points="317.7,313.5 327.5,308.5 326.3,307.4 302.6,304.6 294,308.8 317.5,311.6 		"/>
	</g>
	<g display="none">
		<polygon display="inline" fill="#7A7A7A" points="292,310.8 318.1,313.9 327.5,309.1 327.5,308.5 317.7,313.5 317.6,313 
			292.6,310.1 		"/>
	</g>
	<polygon display="none" fill="#CCCCCC" points="385.1,295.9 370.4,288.5 289.8,330.6 302.5,339.5 	"/>
	<polygon display="none" fill="#7A7A7A" points="304.4,338.6 312.3,334.4 301.1,327.5 293.2,331.7 	"/>
	<polygon display="none" fill="#7A7A7A" points="314.4,333.3 322.3,329.1 311.2,322.4 303.3,326.4 	"/>
	<polygon display="none" fill="#7A7A7A" points="323.7,328.4 331.6,324.2 320.5,317.4 312.6,321.4 	"/>
</g>
<g id="Side_Panel_Near">
	<g display="none">
		<path display="inline" fill="#E5E5E5" stroke="#000000" stroke-miterlimit="10" d="M500.9,366.8c-0.1-1.2,0.4-2.5,1-2.9
			s1.2,0.3,1.3,1.5c0.1,1.2-0.4,2.5-1.1,2.9C501.5,368.8,500.9,368.1,500.9,366.8z"/>
		<path display="inline" fill="#B2B2B2" d="M490.6,375.1c-0.4-6.9,2.4-14.1,6-16.2c3.7-2.1,7,1.7,7.4,8.5c0.3,6.9-2.4,14.1-6,16.2
			C494.2,385.7,490.9,381.9,490.6,375.1z"/>
		<path display="inline" fill="#B2B2B2" d="M498.1,368.4c-0.1-1.8,0.8-3.8,1.9-4.5c1.1-0.6,2.2,0.3,2.2,2.1c0.1,1.8-0.8,3.9-1.9,4.5
			C499.1,371.2,498.1,370.2,498.1,368.4z"/>
		<path display="inline" fill="#B2B2B2" d="M495.8,372.6c-0.2-4.2,0.9-8.3,2.5-9.3c1.6-0.9,3.1,1.8,3.4,6c0.2,4.2-0.9,8.3-2.5,9.3
			C497.5,379.5,496,376.8,495.8,372.6z"/>
		<path display="inline" fill="#B2B2B2" d="M492,374.8c-0.4-6.9,2.4-14.1,6-16.2c3.7-2.1,7,1.7,7.4,8.5c0.4,6.9-2.4,14.1-6,16.2
			S492.4,381.6,492,374.8z"/>
	</g>
	<g display="none">
		<path display="inline" fill="#B2B2B2" d="M473.4,385.5c-0.4-6.9,2.4-14.1,6-16.2s7,1.7,7.3,8.5c0.4,6.9-2.4,14.1-6,16.2
			C477.1,396.1,473.8,392.3,473.4,385.5z"/>
		<path display="inline" fill="#B2B2B2" d="M480.9,378.8c-0.1-1.8,0.8-3.9,1.9-4.5s2.2,0.3,2.2,2.1c0.1,1.8-0.8,3.9-1.9,4.5
			C482,381.6,481,380.7,480.9,378.8z"/>
		<path display="inline" fill="#B2B2B2" d="M478.7,383c-0.2-4.2,0.9-8.3,2.5-9.3c1.6-0.9,3.1,1.8,3.4,6c0.2,4.2-0.9,8.3-2.5,9.3
			C480.4,389.9,478.9,387.2,478.7,383z"/>
		<path display="inline" fill="#B2B2B2" d="M474.9,385.2c-0.4-6.9,2.4-14.1,6-16.2c3.7-2.1,7,1.7,7.4,8.5s-2.4,14.1-6,16.2
			C478.5,395.9,475.2,392.1,474.9,385.2z"/>
	</g>
	<g display="none">
		<path display="inline" fill="#E5E5E5" stroke="#000000" stroke-width="1.1735" stroke-miterlimit="10" d="M312.9,489.8
			c-0.1-1.4,0.5-2.9,1.3-3.4s1.4,0.3,1.5,1.8c0.1,1.4-0.5,2.9-1.3,3.4C313.7,492,313,491.2,312.9,489.8z"/>
		<path display="inline" fill="#B2B2B2" d="M300.9,499.4c-0.4-8,2.7-16.5,7.1-19s8.3,2,8.7,10c0.4,8-2.7,16.5-7.1,19
			C305.1,511.9,301.3,507.4,300.9,499.4z"/>
		<path display="inline" fill="#B2B2B2" d="M309.6,491.6c-0.1-2.2,0.9-4.5,2.2-5.2s2.5,0.4,2.7,2.5c0.1,2.2-0.9,4.5-2.2,5.2
			S309.8,493.8,309.6,491.6z"/>
		<path display="inline" fill="#B2B2B2" d="M307,496.6c-0.3-5,1-9.8,2.9-10.9s3.6,2,3.9,7s-1.1,9.8-2.9,10.9
			C309,504.6,307.2,501.5,307,496.6z"/>
		<path display="inline" fill="#B2B2B2" d="M302.5,499.1c-0.4-8.1,2.7-16.5,7.1-19c4.3-2.5,8.3,2,8.7,10c0.4,8-2.7,16.5-7.1,19
			C306.8,511.6,303,507.1,302.5,499.1z"/>
	</g>
	<g display="none">
		<path display="inline" fill="#B2B2B2" d="M280.8,511.6c-0.4-8,2.7-16.5,7.1-19c4.3-2.4,8.3,2,8.7,10c0.4,8-2.7,16.5-7.1,19
			C285.1,524.2,281.2,519.7,280.8,511.6z"/>
		<path display="inline" fill="#B2B2B2" d="M289.5,503.9c-0.1-2.2,0.9-4.5,2.2-5.2s2.5,0.4,2.7,2.5c0.1,2.2-0.9,4.5-2.2,5.2
			S289.7,506,289.5,503.9z"/>
		<path display="inline" fill="#B2B2B2" d="M286.9,508.8c-0.3-5,1.1-9.8,2.9-10.9c1.9-1,3.6,2,3.9,7s-1,9.8-2.9,10.9
			S287.1,513.7,286.9,508.8z"/>
		<path display="inline" fill="#B2B2B2" d="M282.5,511.4c-0.4-8.1,2.7-16.5,7.1-19c4.3-2.5,8.3,2,8.7,10c0.4,8-2.7,16.5-7.1,19
			S282.9,519.3,282.5,511.4z"/>
	</g>
	<g id="Door">
	</g>
	<g id="Window">
	</g>
	<g display="none">
		<polygon id="Panel_7_" display="inline" fill="#4C4C4C" points="246.3,525.3 251.6,526.3 497.8,365.5 491.9,276.2 487.2,271.5 
			239,415.3 		"/>
		<polygon id="Panel_6_" display="inline" fill="#B2B2B2" points="251.6,526.3 497.8,365.5 491.9,276.2 244.2,416.1 		"/>
		<polygon id="Panel_2_" display="inline" fill="#CCCCCC" points="244.2,416.1 491.9,276.2 491.9,276.2 487.2,271.5 239,415.3 		"/>
		<path display="inline" fill="#4C4C4C" d="M242.9,411.9l246.3-138.4l-1.4-9.3h-3.5l0,0l-3.9-5l-17.7,9.7c0,0-2.2-8.3-10.3-9.9
			L225.6,379.3v1.6c0,0,8.3,3.8,13.3,19.2l2.9,1.2v10.1L242.9,411.9z"/>
		<polygon display="inline" fill="#7A7A7A" points="439.2,287.2 381.8,318.8 381.8,320 439.2,288.4 		"/>
		<polygon display="inline" fill="#7A7A7A" points="444.5,285.5 482.7,264.4 482.2,263.5 444.5,284.3 		"/>
		<polygon display="inline" fill="#7A7A7A" points="315.3,356.6 376.4,323 376.4,321.7 315.3,355.3 		"/>
		<polygon display="inline" fill="#7A7A7A" points="309.9,358.3 245.5,393.7 245.5,395.1 309.9,359.6 		"/>
		<polygon display="inline" fill="#B2B2B2" points="240,399.2 242.9,400.8 242.9,411.9 489.2,273.8 487.8,264.2 484.3,264.2 		"/>
		<polygon display="inline" fill="#E5E5E5" points="244.2,416.1 491.9,276.2 489.2,273.6 242.9,411.9 		"/>
		<polygon display="inline" fill="#4C4C4C" points="244.2,416.1 242.9,411.9 241.8,411.5 242.9,415.9 		"/>
		<path display="inline" fill="#B2B2B2" d="M442.9,285.5l2.1-1.1v1.7l16.8-9.2v-1.7l2.8-1.5v1.7l14.7-8.1v-1.6l2.8-1.5v1.6l2.2-1.3
			l-3.9-5l-17.8,9.7c0,0-2.5-8.8-10.3-9.9L432.2,270c7.4,6.2,9.2,15.5,9.9,17.8l0.7-0.4L442.9,285.5L442.9,285.5z"/>
		<path display="inline" fill="#B2B2B2" d="M436.6,290.6v-1.8l2.8-1.5v1.8l2-1.2c-3.3-12.5-8.9-17.1-9.9-17.8l-62.3,33.1
			c6,4,10.1,15.8,10.9,18.4l4.1-2v-1.9l2.8-1.5v1.9l24.5-13.5v-1.8l2.8-1.5v1.8L436.6,290.6z"/>
		<path display="inline" fill="#B2B2B2" d="M346.3,340.5v-2l2.8-1.5v2l24.5-13.6v-2l2.8-1.5v2l2.8-1.5
			c-4.7-14.4-10.1-18.2-10.9-18.7L301.9,339c6.4,3.4,10.6,13.2,11.6,19.7l4.7-2.7v-2.1l2.8-1.5v2.1L346.3,340.5z"/>
		<path display="inline" fill="#B2B2B2" d="M303.6,364.1V362l2.8-1.5v2.2l6.6-3.6c-4.3-16.2-11.8-19.4-12-19.5l-75.5,39.9
			c5,2.7,10.9,7.8,14.5,19.9l5.5-3V394l2.8-1.5v2.3l27.6-15.3v-2.2l2.8-1.5v2.2L303.6,364.1z"/>
		<polygon display="inline" fill="#E5E5E5" points="487.8,264.2 242.9,400.8 240,399.2 484.3,264.2 		"/>
	</g>
	<polygon display="none" fill="#7A7A7A" points="419.7,379.3 304.4,452.9 305.9,476.9 420.1,404 	"/>
	<path display="none" fill="#CCCCCC" d="M419.2,401.2c-0.1,0.1-112.4,71.7-112.4,71.7c-0.6,0.4-1.3,1.3-1.2,2.2
		c0.1,0.8,0.6,1.4,1.3,1.1c0,0,111.4-71.3,112.2-71.8s1.2-0.8,1.2-1.7C420.4,401.8,419.8,400.9,419.2,401.2z"/>
	<path display="none" fill="#CCCCCC" d="M419.2,397c-0.1,0.1-112.6,71.8-112.6,71.8c-0.6,0.4-1.3,1.3-1.2,2.2c0.1,0.8,0.6,1.4,1.3,1
		c0,0,111.7-71.5,112.4-72c0.8-0.5,1.2-0.8,1.2-1.7C420.4,397.6,419.8,396.7,419.2,397z"/>
	<path display="none" fill="#CCCCCC" d="M419.2,392.8c-0.1,0.1-112.8,72-112.8,72c-0.6,0.4-1.3,1.3-1.2,2.2c0.1,0.8,0.6,1.4,1.3,1.1
		c0,0,111.9-71.6,112.6-72.1c0.8-0.5,1.2-0.8,1.2-1.7C420.4,393.4,419.8,392.5,419.2,392.8z"/>
	<path display="none" fill="#CCCCCC" d="M419.2,388.6c-0.1,0.1-113,72.1-113,72.1c-0.6,0.4-1.3,1.3-1.2,2.2c0.1,0.8,0.6,1.4,1.3,1.1
		c0,0,112.1-71.8,112.8-72.3c0.8-0.5,1.2-0.8,1.2-1.7C420.4,389.2,419.8,388.3,419.2,388.6z"/>
	<path display="none" fill="#CCCCCC" d="M397.1,342.4c0-1.3-1-2.7-2.2-2l-33.7,19.4c-1.3,0.8-2.2,2.4-2.2,3.6l2.7,42.5
		c0,1.3,1.2,2.9,2.5,2.1l33.5-20.4c1.3-0.8,2.2-2.4,2.2-3.6L397.1,342.4z M396.6,386.2L364.9,406c-1.1,0.7-1.9,0.4-1.9-0.8
		l-2.6-40.9c0-1.1,0.8-2.7,1.9-3.4l31.9-18.3c1-0.7,1.9-0.4,1.9,0.8l2.4,39.3C398.5,383.9,397.6,385.5,396.6,386.2z"/>
	<path display="none" fill="#CCCCCC" d="M419.2,384.4C419,384.5,306,456.7,306,456.7c-0.6,0.4-1.3,1.3-1.2,2.2
		c0.1,0.8,0.6,1.4,1.3,1c0,0,112.3-72,113.1-72.5c0.8-0.5,1.2-0.8,1.2-1.7C420.4,385,419.8,384.1,419.2,384.4z"/>
	<path display="none" fill="#CCCCCC" d="M419.2,380.2c-0.1,0.1-113.4,72.4-113.4,72.4c-0.6,0.4-1.3,1.3-1.2,2.2
		c0.1,0.8,0.6,1.4,1.3,1c0,0,112.5-72.1,113.2-72.6c0.8-0.5,1.2-0.8,1.2-1.7C420.4,380.8,419.8,379.9,419.2,380.2z"/>
	<polygon display="none" fill="#7A7A7A" points="495.7,333.2 444.2,365.1 445.6,389.2 497.2,357.4 	"/>
	<path display="none" fill="#CCCCCC" d="M496.9,354.1c-5.6,3.4,0.8-0.5-50.3,31.1c-0.6,0.4-1.3,1.3-1.2,2.2c0.1,0.8,0.6,1.4,1.3,1
		c0,0,49.4-30.7,50.2-31.3c0.8-0.5,1.2-0.8,1.2-1.7C498.2,354.6,497.6,353.7,496.9,354.1z"/>
	<path display="none" fill="#CCCCCC" d="M496.7,350.1c-0.1,0.1-50.3,31-50.3,31c-0.6,0.4-1.3,1.3-1.2,2.2c0.1,0.8,0.6,1.4,1.3,1
		c0,0,49.4-30.7,50.1-31.1c0.8-0.5,1.2-0.8,1.2-1.7C497.9,350.6,497.3,349.7,496.7,350.1z"/>
	<path display="none" fill="#CCCCCC" d="M496.7,345.9c-0.1,0.1-50.5,31.1-50.5,31.1c-0.6,0.4-1.3,1.3-1.2,2.2
		c0.1,0.8,0.6,1.4,1.3,1.1c0,0,49.6-30.8,50.3-31.3c0.8-0.5,1.2-0.8,1.2-1.7C497.9,346.4,497.3,345.5,496.7,345.9z"/>
	<path display="none" fill="#CCCCCC" d="M496.2,342c-0.1,0.1-50.2,31-50.2,31c-0.6,0.4-1.3,1.3-1.2,2.2c0.1,0.8,0.6,1.4,1.3,1.1
		c0,0,49.3-30.7,50.1-31.2c0.8-0.5,1.2-0.8,1.2-1.7C497.4,342.5,496.8,341.6,496.2,342z"/>
	<path display="none" fill="#CCCCCC" d="M495.8,338c-0.1,0.1-50,30.9-50,30.9c-0.6,0.4-1.3,1.3-1.2,2.2c0.1,0.8,0.6,1.4,1.3,1.1
		c0,0,49.1-30.6,49.9-31.1s1.2-0.8,1.2-1.7C497.1,338.5,496.5,337.7,495.8,338z"/>
	<path display="none" fill="#CCCCCC" d="M495.7,333.9c-0.1,0.1-50.1,31-50.1,31c-0.6,0.4-1.3,1.3-1.2,2.2c0.1,0.8,0.6,1.4,1.3,1.1
		c0,0,49.2-30.7,50-31.2s1.2-0.8,1.2-1.7C496.9,334.4,496.3,333.5,495.7,333.9z"/>
	<path display="none" fill="#262626" d="M398,341.5c0-1.2-1-2.7-2.2-2l-33.2,19.1c-1.2,0.8-2.2,2.4-2.2,3.6L363,404
		c0,1.2,1.2,2.9,2.5,2.1l33-20.2c1.2-0.8,2.2-2.4,2.2-3.6L398,341.5z M397.4,384.5L366.2,404c-1,0.7-1.8,0.4-1.8-0.8l-2.5-40.2
		c0-1.1,0.8-2.6,1.8-3.3l31.4-18c1-0.7,1.8-0.4,1.8,0.8l2.4,38.6C399.3,382.3,398.4,383.8,397.4,384.5z"/>
	<path display="none" fill="#CCCCCC" d="M354.4,367.1c0-1.3-1-2.7-2.2-2l-33.8,19.4c-1.3,0.8-2.2,2.4-2.2,3.6l2.8,44.2
		c0,1.3,1.2,2.9,2.5,2.1l33.5-20.6c1.3-0.8,2.2-2.4,2.2-3.6L354.4,367.1z M353.8,412.4l-31.7,20.1c-1.1,0.7-1.9,0.4-1.9-0.8
		l-2.6-42.6c0-1.1,0.8-2.7,1.9-3.4l31.9-18.3c1.1-0.7,1.9-0.4,1.9,0.8l2.5,40.8C355.7,410.1,354.8,411.7,353.8,412.4z"/>
	<path display="none" fill="#262626" d="M355.1,366.1c0-1.2-1-2.7-2.2-2l-33.2,19.1c-1.2,0.8-2.2,2.4-2.2,3.6l2.7,43.5
		c0,1.2,1.2,2.9,2.5,2.1l33-20.4c1.2-0.8,2.2-2.4,2.2-3.6L355.1,366.1z M354.6,410.7l-31.2,19.2c-1,0.7-1.8,0.4-1.8-0.8l-2.6-41.4
		c0-1.1,0.8-2.6,1.8-3.3l31.4-18c1.1-0.7,1.8-0.4,1.8,0.8l2.5,40.2C356.4,408.5,355.6,410,354.6,410.7z"/>
	<path display="none" fill="#B2B2B2" d="M633,206.6c0-1-0.8-2.2-1.8-1.6l-18.9,10.7c-1,0.6-1.8,1.9-1.8,2.9l2.2,33.9
		c0,1,1,2.3,2,1.7l18.7-11.6c1-0.6,1.8-1.9,1.8-2.9L633,206.6z M632.6,241.5l-17.3,11.1c-0.8,0.6-1.5,0.3-1.5-0.6l-2-32.6
		c0-0.9,0.7-2.1,1.5-2.7l17.4-9.8c0.8-0.6,1.5-0.3,1.5,0.6l2,31.4C634.1,239.8,633.4,240.9,632.6,241.5z"/>
	<path display="none" fill="#B2B2B2" d="M633.6,205.8c0-1-0.8-2.2-1.8-1.5l-18.4,10.5c-1,0.6-1.8,1.9-1.8,2.9l2.2,33.4
		c0,1,1,2.2,2,1.7l18.3-11.3c1-0.6,1.8-1.9,1.8-2.9L633.6,205.8z M633.3,240.1L616.4,251c-0.8,0.6-1.5,0.3-1.5-0.6l-2-32.1
		c0-0.9,0.6-2.1,1.5-2.6l16.9-9.6c0.8-0.6,1.5-0.3,1.5,0.6l2,30.9C634.8,238.4,634.1,239.6,633.3,240.1z"/>
	<path display="none" fill="#B2B2B2" d="M605.9,222c0-1-0.8-2.2-1.8-1.6l-19.7,11.4c-1,0.6-1.8,1.9-1.8,2.9l2.2,35.3
		c0,1,1,2.3,2,1.7l19.5-12.4c1-0.6,1.8-1.9,1.8-2.9L605.9,222z M605.4,258.2l-18,11.9c-0.8,0.6-1.5,0.3-1.5-0.6l-2.1-34.1
		c0-0.9,0.7-2.1,1.5-2.7l18.1-10.4c0.8-0.6,1.5-0.3,1.5,0.6l2,32.6C606.9,256.4,606.3,257.7,605.4,258.2z"/>
	<path display="none" fill="#B2B2B2" d="M606.5,221.3c0-1-0.8-2.2-1.8-1.5l-19.2,11.1c-1,0.6-1.8,1.9-1.8,2.9l2.2,34.8
		c0,1,1,2.2,2,1.7l19-12.1c1-0.6,1.8-1.9,1.8-2.9L606.5,221.3z M606.1,256.8L588.4,268c-0.8,0.6-1.5,0.3-1.5-0.6l-2-33
		c0-0.9,0.6-2.1,1.5-2.6l17.7-10.2c0.8-0.6,1.5-0.3,1.5,0.6l2,32.1C607.5,255.1,606.9,256.3,606.1,256.8z"/>
	<polygon display="none" fill="#B2B2B2" points="381.6,445.1 381.5,466.9 338.2,496.6 335.9,486.6 335.6,475.2 	"/>
	<polygon display="none" fill="#B2B2B2" points="430.9,412.9 432,433.6 383.6,465.7 383,444.1 	"/>
	<polygon display="none" fill="#B2B2B2" points="479.3,381.2 478.2,396.6 477.3,403.1 433.7,432.5 432,412.1 	"/>
	<polygon display="none" fill="#F6E8A2" points="484.7,378.6 498,369.9 498.3,373.4 485.2,381.3 	"/>
	<polygon display="none" fill="#F6E8A2" points="308.6,490.4 320,483.6 320.3,487.1 309.3,493.8 	"/>
	<polyline display="none" fill="#CCCCCC" points="516.1,362 498.3,373.4 498.2,355.5 516.1,345.9 516.1,362 	"/>
</g>
<g id="Top_Flap_Near">
</g>
<g id="Air_Conditioning_Unit">
</g>
<g id="exploding_x5F_roof">
	<path display="none" fill="#CCCCCC" d="M472.7,343.1l-11.3,6.5c-1.1,0.6-2.2-0.9-2.2-2l-2.7-40.9c0-1.1,0.9-2.6,2.1-3.3l11.3-6.6
		c1.1-0.6,2.1,0.8,2.1,2l2.8,41.1C474.8,341,473.9,342.4,472.7,343.1z"/>
	<path display="none" fill="#262626" d="M473.1,298.3c0-1.1-0.9-2.6-2.1-2l-11.3,6.6c-1.1,0.6-2.1,2.1-2.1,3.3l2.7,40.9
		c0,1.1,1.1,2.7,2.2,2l11.3-6.5c1.1-0.6,2.1-2.1,2.1-3.3L473.1,298.3z M472.9,341.5l-9.7,5.9c-1,0.6-1.8,0.2-1.8-0.8l-2.4-39.4
		c0-1.1,0.8-2.4,1.8-3l9.5-5.5c1-0.6,1.8-0.2,1.8,0.8l2.6,39.1C474.6,339.5,473.8,340.8,472.9,341.5z"/>
	<path display="none" fill="#CCCCCC" d="M535,304.8l-10.6,6.2c-1,0.6-2.2-0.8-2.2-2l-2.5-38.6c0-1.1,0.9-2.5,2-3.1l10.7-6.2
		c1-0.6,2,0.8,2,1.8l2.7,38.8C536.9,302.8,536.1,304.1,535,304.8z"/>
	<path display="none" fill="#B2B2B2" d="M535.3,262.5c0-1.1-0.9-2.5-2-1.8l-10.7,6.2c-1,0.6-2,2-2,3.1l2.4,38.6c0,1,1.1,2.6,2.2,2
		l10.6-6.2c1-0.6,2-2,2-3.1L535.3,262.5z M535.1,303.2l-9.1,5.5c-0.9,0.6-1.6,0.2-1.6-0.8l-2.3-37.2c0-1,0.8-2.2,1.6-2.8l9-5.2
		c0.9-0.6,1.6-0.2,1.6,0.8l2.5,36.9C536.7,301.4,536,302.6,535.1,303.2z"/>
	<path display="none" fill="#B2B2B2" d="M266.5,409.4c0,0,22.4-12.8,23.7-13.4c1.3-0.6,4.3-0.1,4.3,4.3c0,4.2,4.9,88.5,4.9,88.5
		l-31,20c0,0-5.6-84.8-5.9-89.6C262.2,411.5,266.5,409.4,266.5,409.4z"/>
	<path display="none" fill="#E5E5E5" d="M268.7,500.6c0,0,22.3-14.1,23.7-15.1s3.9-2,3.4-6.9s-5.5-82.8-5.5-82.8
		c0.8-0.4,4.3-0.6,4.3,4.3c0,4.3,3.1,59.3,4.4,80c0.4,7.4-1.8,9.7-4.2,11.2c-2,1.2-23.2,14.8-23.2,14.8s0.6-2.1,0.6-2.5
		s0.2-1.3-0.6-1.8C270.9,501.6,268.7,500.6,268.7,500.6z"/>
	<polygon display="none" fill="#262626" points="279.8,493.6 281.1,492.7 275.2,404.4 274,405.1 	"/>
	<path display="none" fill="#CCCCCC" d="M271.5,461.5c2.2-1.2,4.3-4.1,3.9-8.5c-0.7-10.9-2.9-44.9-2.9-44.9c0-0.8-0.2-1.4-0.6-1.8
		c-2.9,1.6-5.4,3.1-5.4,3.1s-4.4,2-3.9,9.8c0.1,2.4,1.6,23.7,2.9,45.8L271.5,461.5z"/>
	<path display="none" fill="#CCCCCC" d="M288.2,450.9c2.2-1.2,2.8-5.5,2.6-8.5l-2.9-43.3c0-0.8-0.1-1.3-0.6-1.7
		c-2.9,1.6-3,1.7-5.2,3c-2.5,1.4-5.2,2.6-5,7.2c0.1,2,1.5,22.3,2.7,41.5c0.2,3.1,2,4.1,4.1,3.5C285.3,452.2,288.2,450.9,288.2,450.9
		z"/>
	<path display="none" fill="#262626" d="M290,440.9l-2.7-40.8c-0.1-1-0.6-1.6-1.3-1.8c0,0-0.9,0.6-1.4,0.8l-3.6,2
		c-1.1,0.6-4.2,2.3-4,6.2c0.1,2.6,2.7,41.5,2.7,41.5c0.2,4.5,2.7,4.5,4,4c0.8-0.4,3.1-1.8,3.1-1.8
		C289.9,449.1,290.3,444.9,290,440.9z M286.1,401.9c0,0,2.6,38.4,2.7,41.5c0.2,3-0.6,4.7-1.7,5.4c-0.4,0.3-3,1.8-3.9,2.3
		c-1,0.6-1.8-0.5-1.9-2.4c-0.1-2-2.7-42.2-2.7-42.2c-0.2-2.7,1.2-4.8,2.4-5.4c1.1-0.6,2.6-1.5,3.4-2
		C285.2,398.6,286.1,399.3,286.1,401.9z"/>
	<g display="none">
		<path display="inline" fill="#262626" d="M274.6,451.6l-2.8-41.9c-0.1-1.2-1.1-2.7-2-2.2c0,0-1.1,0.6-2.8,1.5
			c0.4-0.2,1.1-0.6,2-1.1c0.7,0.3,1.4,1.1,1.5,2.2c0.1,1.8,2.5,37.2,2.7,41.6c0.3,4.3-2.2,6.7-2.9,7.2c-0.8,0.4-2.1,1.3-2.9,1.8
			c-1,0.7-1.8,0.3-2.2-0.1c-1.1-17.6-2.3-33.8-2.6-39.5c0.4,5.9,1.6,23.4,2.7,41.8c0.9,0.1,1.7,0,2.4-0.4l2.7-1.6
			C273.4,459.1,274.9,455.6,274.6,451.6z"/>
		<path display="inline" fill="#262626" d="M262.6,419.2c0-0.3,0-0.6,0-1C262.5,418.5,262.5,418.8,262.6,419.2z"/>
	</g>
	<path display="none" fill="#7A7A7A" d="M298.1,444.9l4.3-2.6c1.7,27.8,1.8,27.7,1.8,28.6c0,0.6-0.1,1.3-0.8,1.7
		c-0.7,0.4-3.4,2.1-3.4,2.1L298.1,444.9z"/>
	<path display="none" fill="#4C4C4C" d="M301.4,471.5c-0.3,0.1-1.4,0.8-1.6,1l0.1,2.2c0,0,2.7-1.8,3.4-2.1c0.7-0.4,0.8-1.1,0.8-1.7
		s-1.8-28.6-1.8-28.6l-2,1.2c0.3,4.3,1.6,26.1,1.6,26.7C301.9,470.8,301.6,471.4,301.4,471.5z"/>
	<polygon display="none" fill="none" stroke="#FFFFFF" stroke-miterlimit="10" points="261.7,406.3 299.9,384.7 306.4,484.2 
		268.5,508.8 	"/>
	<path display="none" fill="#B2B2B2" d="M420.9,321.1c0,0,15.5-8.8,16.6-9.3c1.1-0.6,3.9-0.1,3.9,3.8c0,3.7,4.3,78.5,4.3,78.5
		l-23.1,15.1c0,0-5-75.2-5.2-79.4C417.1,323,420.9,321.1,420.9,321.1z"/>
	<path display="none" fill="#E5E5E5" d="M422.9,402c0,0,15.3-9.9,16.6-10.8c1.3-0.9,3.4-1.7,2.9-6s-4.9-73.4-4.9-73.4
		c0.7-0.4,3.8-0.5,3.8,3.8c0,3.8,2.8,52.5,3.9,70.8c0.4,6.5-1.5,8.6-3.7,9.9c-1.8,1.1-16.2,10.4-16.2,10.4s0.5-1.9,0.6-2.2
		c0.1-0.4,0.1-1.2-0.6-1.5C424.8,402.9,422.9,402,422.9,402z"/>
	<polygon display="none" fill="#262626" points="430.1,397.3 431.2,396.6 426,318.3 424.9,318.9 	"/>
	<path display="none" fill="#CCCCCC" d="M422.8,368.9c2-1,3.8-3.6,3.5-7.6c-0.6-9.6-2.7-39.8-2.7-39.8c0-0.7-0.2-1.3-0.6-1.6
		c-2.6,1.4-2.2,1.2-2.2,1.2s-3.9,1.8-3.5,8.7c0.1,2.1,1.5,21,2.6,40.5L422.8,368.9z"/>
	<path display="none" fill="#CCCCCC" d="M435.8,360.6c2-1.1,2.5-4.9,2.3-7.6l-2.6-38.4c0-0.7-0.1-1.2-0.5-1.5
		c-2.6,1.4-0.9,0.5-2.9,1.6c-2.2,1.3-4.6,2.3-4.4,6.4c0.1,1.8,1.3,19.7,2.5,36.8c0.2,2.8,1.8,3.7,3.6,3.1
		C435,360.6,435.8,360.6,435.8,360.6z"/>
	<path display="none" fill="#262626" d="M437.4,351.7l-2.3-36.2c-0.1-0.8-0.6-1.4-1.1-1.6c0,0-0.8,0.5-1.3,0.7l-1.5,0.8
		c-1,0.6-3.7,2.1-3.5,5.5c0.1,2.2,2.5,36.8,2.5,36.8c0.2,4.1,2.4,4,3.6,3.6c0.8-0.3,1-0.6,1-0.6C437.3,359,437.6,355.3,437.4,351.7z
		 M433.9,317.2c0,0,2.2,34,2.5,36.8c0.1,2.7-0.5,4.1-1.5,4.8c-0.4,0.2-0.9,0.6-1.7,1c-0.9,0.5-1.5-0.4-1.7-2.2
		c-0.1-1.8-2.4-37.4-2.4-37.4c-0.1-2.4,1-4.2,2.1-4.8c1.1-0.6,0.6-0.3,1.3-0.7C433.2,314.3,433.9,314.8,433.9,317.2z"/>
	<g display="none">
		<path display="inline" fill="#262626" d="M425.5,360.1l-2.5-37.2c-0.1-1-0.3-2.8-1.2-2.3l-0.7,0.4c0.6,0.3,0.7,1.4,0.8,2.4
			c0.1,1.5,2.2,33,2.5,36.8s-1.9,5.9-2.6,6.4c-0.7,0.4,0.8-0.4,0.1-0.1c-1,0.6-1.5,0.2-2,0c-0.9-15.5-2-30-2.3-35
			c0.3,5.3,1.5,20.7,2.4,37c0.8,0.1,1.5,0,2.1-0.3l-0.3,0.1C424.4,366.8,425.8,363.7,425.5,360.1z"/>
		<path display="inline" fill="#262626" d="M417.4,329.8c0-0.3,0-0.6,0-0.8C417.4,329.3,417.4,329.6,417.4,329.8z"/>
	</g>
	<polygon display="none" fill="none" stroke="#FFFFFF" stroke-width="0.8861" stroke-miterlimit="10" points="416.6,318.4 
		443.5,303.3 449.3,391.5 422.7,409.1 	"/>
	<path display="none" fill="#B2B2B2" d="M548.2,248.6c0,0,13.8-7.8,14.8-8.3s3.4-0.1,3.4,3.4c0,3.3,3.8,69.9,3.8,69.9L549.7,327
		c0,0-4.4-66.9-4.6-70.7C544.8,250.2,548.2,248.6,548.2,248.6z"/>
	<path display="none" fill="#E5E5E5" d="M550,320.7c0,0,13.6-8.8,14.8-9.6c1.1-0.8,3-1.5,2.6-5.4c-0.4-3.8-4.3-65.3-4.3-65.3
		c0.6-0.4,3.4-0.4,3.4,3.4c0,3.4,2.5,46.8,3.5,63.1c0.3,5.8-1.4,7.7-3.4,8.8c-1.5,0.9-14.4,9.3-14.4,9.3s0.4-1.7,0.5-2
		s0.1-1.1-0.5-1.3C551.7,321.4,550,320.7,550,320.7z"/>
	<polygon display="none" fill="#262626" points="556.4,316.5 557.4,315.8 552.8,246.1 551.8,246.6 	"/>
	<path display="none" fill="#CCCCCC" d="M549.9,291.2c1.8-1,3.4-3.2,3.1-6.7c-0.6-8.5-2.4-35.5-2.4-35.5c0-0.6-0.2-1.1-0.5-1.4
		c-2.3,1.3-2,1.1-2,1.1s-3.4,1.6-3.2,7.8c0.1,1.9,1.3,18.7,2.3,36.1L549.9,291.2z"/>
	<path display="none" fill="#CCCCCC" d="M561.4,283.8c1.8-1,2.2-4.3,2-6.7l-2.2-34.2c0-0.6-0.1-1.1-0.4-1.3
		c-2.3,1.3-0.8,0.4-2.6,1.5c-1.9,1.1-4.1,2.1-3.9,5.7c0.1,1.6,1.1,17.6,2.2,32.8c0.1,2.5,1.6,3.3,3.2,2.7
		C560.8,283.8,561.4,283.8,561.4,283.8z"/>
	<path display="none" fill="#262626" d="M562.9,275.8l-2.1-32.2c-0.1-0.8-0.5-1.3-1.1-1.5c0,0-0.8,0.4-1.1,0.6l-1.3,0.7
		c-0.9,0.5-3.3,1.8-3.2,4.8c0.1,2,2.2,32.8,2.2,32.8c0.2,3.6,2.1,3.6,3.2,3.1c0.7-0.3,0.9-0.5,0.9-0.5
		C562.8,282.3,563.1,279,562.9,275.8z M559.8,245.1c0,0,2,30.3,2.2,32.8c0.1,2.4-0.4,3.7-1.3,4.2c-0.3,0.2-0.8,0.5-1.5,0.9
		c-0.8,0.4-1.4-0.3-1.5-2c-0.1-1.5-2.2-33.2-2.2-33.2c-0.1-2.1,1-3.7,1.9-4.3c0.9-0.5,0.5-0.2,1.1-0.6
		C559.1,242.5,559.8,243,559.8,245.1z"/>
	<g display="none">
		<path display="inline" fill="#262626" d="M552.3,283.3l-2.2-33.1c-0.1-0.9-0.3-2.5-1-2l-0.6,0.3c0.6,0.2,0.6,1.3,0.7,2.2
			c0.1,1.4,2,29.4,2.2,32.8s-1.7,5.3-2.3,5.7c-0.6,0.4,0.6-0.4,0.1-0.1c-0.8,0.6-1.4,0.2-1.8,0c-0.8-13.9-1.8-26.7-2-31.1
			c0.3,4.7,1.3,18.4,2.2,33c0.8,0.1,1.3,0,1.9-0.3l-0.3,0.1C551.3,289.3,552.5,286.5,552.3,283.3z"/>
		<path display="inline" fill="#262626" d="M545.1,256.3c0-0.3,0-0.5,0-0.8C545.1,255.8,545.1,256.1,545.1,256.3z"/>
	</g>
	<polygon display="none" fill="#B2B2B2" points="544.4,246.2 568.3,232.8 573.5,311.3 549.7,327 	"/>
	<path display="none" fill="#B2B2B2" d="M643.7,194.2c0,0,12.5-7.1,13.4-7.5s3.2-0.1,3.2,3.1c0,3,3.5,63.4,3.5,63.4l-18.7,12.2
		c0,0-4-60.8-4.2-64.2C640.5,195.7,643.7,194.2,643.7,194.2z"/>
	<path display="none" fill="#B2B2B2" d="M645.2,259.6c0,0,12.4-8,13.4-8.8s2.7-1.4,2.4-4.9s-4-59.3-4-59.3c0.6-0.3,3.1-0.3,3.1,3.1
		c0,3.1,2.2,42.4,3.2,57.3c0.3,5.2-1.3,7-3,8.1c-1.4,0.8-13,8.4-13,8.4s0.4-1.5,0.4-1.8s0.1-1-0.5-1.3
		C646.8,260.3,645.2,259.6,645.2,259.6z"/>
	<polygon display="none" fill="#B2B2B2" points="651.1,255.8 651.9,255.2 647.8,191.9 646.9,192.4 	"/>
	<path display="none" fill="#B2B2B2" d="M645.1,232.9c1.6-0.8,3-2.9,2.8-6.1c-0.5-7.8-2.1-32.2-2.1-32.2c0-0.6-0.1-1-0.4-1.3
		c-2.1,1.1-1.8,1-1.8,1s-3.2,1.5-2.8,7c0.1,1.7,1.2,17,2.1,32.8L645.1,232.9z"/>
	<path display="none" fill="#B2B2B2" d="M655.6,226.2c1.6-0.8,2-4,1.8-6.1l-2.1-31c0-0.6-0.1-1-0.3-1.2c-2.1,1.1-0.7,0.4-2.4,1.3
		c-1.8,1-3.8,1.9-3.6,5.2c0.1,1.5,1,16,2,29.8c0.1,2.2,1.5,2.9,2.9,2.5C655,226.2,655.6,226.2,655.6,226.2z"/>
	<path display="none" fill="#B2B2B2" d="M657,218.9l-1.9-29.3c-0.1-0.7-0.5-1.2-0.9-1.3c0,0-0.7,0.4-1,0.6l-1.2,0.6
		c-0.8,0.5-3,1.7-2.9,4.4c0.1,1.8,2,29.7,2,29.7c0.1,3.3,1.9,3.2,2.9,2.9c0.6-0.2,0.8-0.4,0.8-0.4
		C656.9,224.8,657.1,221.8,657,218.9z M654.2,191c0,0,1.8,27.5,2,29.7c0.1,2.2-0.4,3.4-1.3,3.8c-0.3,0.2-0.8,0.5-1.3,0.8
		c-0.7,0.4-1.3-0.3-1.3-1.8c-0.1-1.4-2-30.2-2-30.2c-0.1-2,0.8-3.4,1.7-3.8c0.8-0.5,0.4-0.2,1-0.6
		C653.5,188.7,654.2,189.1,654.2,191z"/>
	<g display="none">
		<path display="inline" fill="#B2B2B2" d="M647.3,225.8l-2-30c-0.1-0.8-0.2-2.2-1-1.9l-0.6,0.4c0.5,0.2,0.6,1.1,0.6,2
			c0.1,1.3,1.8,26.7,2,29.8s-1.5,4.8-2.1,5.2s0.6-0.4,0.1-0.1c-0.8,0.5-1.3,0.2-1.6,0c-0.8-12.6-1.7-24.2-1.9-28.3
			c0.2,4.3,1.2,16.7,2,30c0.7,0.1,1.2,0,1.7-0.2l-0.2,0.1C646.4,231.1,647.5,228.7,647.3,225.8z"/>
		<path display="inline" fill="#B2B2B2" d="M640.8,201.2c0-0.2,0-0.5,0-0.7C640.8,200.8,640.8,201,640.8,201.2z"/>
	</g>
	<polygon display="none" fill="#B2B2B2" points="640.2,192 661.9,179.8 666.5,251.1 645,265.4 	"/>
	<path display="none" fill="#B2B2B2" d="M538.2,214l-3.7-0.3l0.1-2.4l-5.4-0.4l-2.9,1.8l-0.1,2.2l-3.1,0.6v1.4l-12.3-1.3l-0.1-1.5
		l2.5-1.1l-0.3-2.2l-1.5-0.3l-0.9-5l-16.2-1.4l9.2-28.6c3.3-0.1,4.1-1.5,4.1-1.5l-1.2-5c2-0.3,0.8-2.3,0.8-2.3l-15.5-18.8l1.6-1.1
		l6.4,5.5l1.5,2.2l1.4-0.8l-2-3.2l-5.9-5.2l0.4-4.1l2.8,1.2l8.7,7.1l0.4,1.5l1.4-0.9l-0.6-2l-11.3-8.4l-37.9-2.9h-10.1l-9,1.1
		l-2.6,1.7l-2.5,0.6l-1,0.9h-2.8l-1.7,1.5l2.5-0.1l-6.1,5l-0.2,2.2h0.8l0.1-1.8l8.5-6.2l-3.4,3.1l-0.1,2.5h0.9l0.1-2l5.1-4.1
		l0.1,4.8l2-0.1l0.5-0.8h1l0.8,1.5h2.8l4.6,2.8l41.4,18l0.2,0.7l2.7,0.9l1.5,0.3c-1.3,0.8-1.8,4.2-1.8,4.2l1.8-0.2L472.3,228
		l-6.4-0.4v-2.9l-6.4-0.5l-8.5,4.3l-1.5,4.6l-5.5,5.5l-16.2-1.5l-6.7,3.4l-0.1,1.8l0.8,0.1l0.1,7.1c0,0,11.3,1.3,13.1,1.5
		c1.7,0.1,2.9-1.2,2.9-1.2s7.3-2.2,16.2,0.3c0.1,0-7.4,7.1-8.6,7.8c-1.3,0.6-9.9,0.4-9.9,0.4c-2,0.1-3.4,1.8-3.4,3.7
		c0,2,1.7,3.7,3.7,3.7c0.6,0,1.1-0.1,1.5-0.3l0,0l11.5-4.9c0,0,8.7-7.8,9.2-8.7s0.4-2.7,0-3.2s-1.6-1-4.1-1.2s-10.5-0.3-10.5-0.3
		l-0.4-2.3l40.9,2.8v4.2l18.3,1.5l-0.3-5.7l16.9-8.9c0.4-8.3-5.2-9.7-5.2-9.7l24.6-13.4L538.2,214z M442.8,139.6H439l1.5-1l2.4-0.3
		L442.8,139.6z M505.3,169.2c0,0,1.4,3.5,0.8,4.3s-1.3,0.8-2-0.6c-0.6-1.4-1.3-2.9-0.4-3.8l1-0.3L505.3,169.2z M445.6,138.9l2-0.6
		l40.2,2l1.8,1.3l2,0.2l-0.8,1.1c0,0,0,0-1.7-0.2s-37.8-2.9-37.8-2.9l-5.9,0.1L445.6,138.9z M484.7,150.8l-2.7,7.4l-32.5-16.4
		l34.8,2c0,0,0,0,1.5,1.7C484.1,148.3,484.7,150.8,484.7,150.8z M492.9,167.1l-44.3-19.2l-2.5-2.2l-0.2-2.2l1.3-0.8l45.7,22.9V167.1
		z M483.4,159l3.3-10.7l0.6,1.1l1.7-0.4l0.4-1.3l1.3,0.4l8.2,10.6c0,0-7.1-0.9-8.8-0.9C488.4,157.8,483.4,159,483.4,159l7.4-0.2
		l1.8,1l1.3,4.4L483.4,159z M493.4,159.4l6.8,0.8l3.6,5.2l-8.2-0.6L493.4,159.4z M488.5,203.3l-2.7,1.4l14.8-34.1
		c0,0,0.9,4.2,1.6,4.2l-9.5,28.9L488.5,203.3z"/>
	<polygon display="none" fill="#CCCCCC" points="421.1,240.4 437.2,241.8 442.8,238.3 442.8,240.4 437.4,243.6 421.1,242.3 	"/>
</g>
<g id="Cannister_Headlight" display="none">
	<g display="inline">
		<g>
			<path fill="#FFFFFF" stroke="#000000" stroke-width="0.5" stroke-miterlimit="10" d="M152.8,489.6c-0.1-0.6-0.8-1.2-1.3-1.2
				c-0.1,0-0.1,0-0.3,0.1c-0.1,0.1-11.6,6.4-12,6.6s-0.6,0.6-0.5,1.2s0.8,1.2,1.3,1.2c0.1,0,0.4,0,0.6-0.2
				c0.2-0.1,11.7-6.6,11.8-6.7C152.8,490.6,153,490.1,152.8,489.6z"/>
		</g>
		<g>
			<path fill="#FFFFFF" stroke="#000000" stroke-width="0.5" stroke-miterlimit="10" d="M160.3,481.6c-0.1-0.6-0.8-1.2-1.3-1.2
				c-0.1,0-0.1,0-0.3,0.1c-0.1,0.1-11.6,6.4-12,6.6s-0.6,0.6-0.5,1.2s0.7,1,1.3,1.2c0.1,0,0.3,0,0.6-0.2c0.2-0.1,11.7-6.6,11.8-6.6
				C160.2,482.5,160.4,482.1,160.3,481.6z"/>
		</g>
		<g>
			<path fill="#FFFFFF" stroke="#000000" stroke-width="0.5" stroke-miterlimit="10" d="M141,496.6c-0.3-1.1-1.3-2-2.2-2
				c-0.1,0-0.3,0-0.5,0.1c-0.1,0.1-1.8,1-2.4,1.4c-0.6,0.4-1,1.1-0.8,2c0.3,1.1,1.3,2,2.2,2c0.1,0,0.6-0.1,1-0.3
				c0.3-0.1,1.9-1.2,2-1.3C140.8,498.2,141.2,497.5,141,496.6z"/>
			<polygon fill="#FFFFFF" stroke="#000000" stroke-width="0.5" stroke-miterlimit="10" points="136.2,499 135.9,498.9 135.9,497 
				136.2,497.1 			"/>
			<polygon fill="#FFFFFF" stroke="#000000" stroke-width="0.5" stroke-miterlimit="10" points="137,499 136.7,499 136.7,497.1 
				137,497.2 			"/>
			<path fill="#FFFFFF" stroke="#000000" stroke-width="0.5" stroke-miterlimit="10" d="M138.5,498.1c0.3,1.1-0.3,2-1.3,2
				s-2-0.9-2.2-2c-0.3-1,0.3-2,1.3-2C137.2,496.2,138.3,497,138.5,498.1z"/>
			<polygon fill="#FFFFFF" stroke="#000000" stroke-width="0.5" stroke-miterlimit="10" points="136.2,499 136.2,497.1 136,497.1 
				136,498.9 			"/>
			<polygon fill="#FFFFFF" stroke="#000000" stroke-width="0.5" stroke-miterlimit="10" points="137,499 137,497.3 136.9,497.3 
				136.9,499 			"/>
			<g>
				<g>
					<polygon fill="#FFFFFF" points="135.5,499.1 135.5,497.5 136.3,497 136.3,497 136.3,498.6 					"/>
					<path d="M136.2,497.3v1.3l-0.4,0.3v-1.3L136.2,497.3 M136.2,496.9l-0.9,0.5v1.9l0.2,0.1l0.9-0.5V497L136.2,496.9L136.2,496.9z"
						/>
				</g>
				<g>
					<polygon fill="#FFFFFF" points="135.6,499.2 135.3,499.2 135.3,497.4 135.6,497.4 					"/>
					<polygon points="135.3,497.4 135.3,499.2 135.6,499.2 135.6,497.4 					"/>
				</g>
				<g>
					<polygon fill="#FFFFFF" points="135.6,497.4 136.5,496.9 136.2,496.9 135.3,497.4 					"/>
					<polygon points="136.2,496.9 135.3,497.4 135.6,497.4 136.5,496.9 					"/>
				</g>
				<g>
					<polygon fill="#FFFFFF" points="135.7,497.5 136.3,497.2 136.3,498.6 135.7,499 					"/>
					<path d="M136.2,497.5v1.1l-0.2,0.1v-1.1L136.2,497.5 M136.5,496.9l-0.9,0.5v1.9l0.9-0.5V496.9L136.5,496.9z"/>
				</g>
			</g>
			<g>
				<g>
					<polygon fill="#FFFFFF" points="136.2,499.2 136.2,497.6 137,497.2 137,497.2 137,498.8 136.3,499.2 					"/>
					<path d="M136.9,497.5v1.3l-0.4,0.3v-1.3L136.9,497.5 M137,497l-0.9,0.5v1.9l0.2,0.1l0.9-0.5v-1.9L137,497L137,497z"/>
				</g>
				<g>
					<polygon fill="#FFFFFF" points="136.3,499.4 136.1,499.4 136.1,497.6 136.3,497.6 					"/>
					<polygon points="136.1,497.6 136.1,499.4 136.3,499.4 136.3,497.6 					"/>
				</g>
				<g>
					<polygon fill="#FFFFFF" points="136.3,497.6 137.2,497.1 137,497 136.1,497.6 					"/>
					<polygon points="137,497 136.1,497.6 136.3,497.6 137.2,497.1 					"/>
				</g>
				<g>
					<polygon fill="#FFFFFF" points="136.5,497.7 137,497.4 137,498.8 136.5,499.1 					"/>
					<path d="M136.9,497.6v1.1l-0.2,0.1v-1L136.9,497.6 M137.2,497.1l-0.9,0.5v1.9l0.9-0.5V497.1L137.2,497.1z"/>
				</g>
			</g>
		</g>
		<path fill="#FFFFFF" stroke="#000000" stroke-width="0.5" stroke-miterlimit="10" d="M138.5,498.1c-0.3-1.1-1.3-2-2.2-2
			c-0.1,0-0.3,0-0.5,0.1c-0.1,0.1-1.8,1-2.4,1.4c-0.6,0.4-1,1-0.8,2c0.3,1.1,1.3,2,2.2,2c0.1,0,0.6-0.1,1.1-0.3
			c0.3-0.1,1.9-1.2,2-1.3C138.4,499.7,138.7,499,138.5,498.1z"/>
		<path fill="#FFFFFF" stroke="#000000" stroke-width="0.5" stroke-miterlimit="10" d="M137.5,500.6c0-2.7-2.6-5-5.2-4.3
			c-0.9,0.2-4.2,1.2-4.2,1.2l4.1,10c0,0,2.7-2.4,4.1-3.6C137.1,503.1,137.5,501.9,137.5,500.6z"/>
		<path fill="#B2B2B2" d="M133.7,503c0.6,2.1,0,3.9-1.3,4.9l-1.4,0.8c-0.3,0.1-0.8,0-1.1,0c-2.9,0-5.9-2.5-6.7-5.7
			c-0.5-1.8-0.1-3.6,0.8-4.7l1.5-0.9c0.4-0.1,0.9-0.1,1.5-0.1C129.9,497.4,132.9,499.9,133.7,503z"/>
		<path fill="#CCCCCC" d="M132.6,503.6c0.8,3.1-0.8,5.7-3.8,5.7c-2.9,0-5.9-2.5-6.7-5.7c-0.8-3.1,0.8-5.7,3.8-5.7
			C128.7,498,131.8,500.5,132.6,503.6z"/>
		<path fill="#E5E5E5" d="M131.2,503.6c0.6,2.4-0.6,4.3-2.7,4.3c-2.1,0-4.3-2-4.9-4.3c-0.6-2.4,0.6-4.3,2.7-4.3
			C128.4,499.2,130.6,501.2,131.2,503.6z"/>
		<path fill="#FFFFFF" d="M148.9,487.5l1.6,0.4c2.2,0.6,2.2,1.6,2.2,1.6l-2.6,1c0,0-0.2-1.1-2.5-1.1L148.9,487.5z"/>
		
			<path fill="none" stroke="#000000" stroke-width="0.5" stroke-linecap="round" stroke-linejoin="round" stroke-miterlimit="10" d="
			M150.2,490.6c0,0-0.2-1.1-2.5-1.1"/>
		<path fill="none" stroke="#000000" stroke-width="0.5" stroke-linecap="round" stroke-miterlimit="10" d="M150.6,488
			c2.2,0.5,2.2,1.7,2.2,1.7"/>
		
			<line fill="none" stroke="#000000" stroke-width="0.5" stroke-linecap="round" stroke-miterlimit="10" x1="148.9" y1="487.5" x2="150.6" y2="488"/>
	</g>
	<g display="inline">
		<g>
			<path fill="#FFFFFF" stroke="#000000" stroke-width="0.5347" stroke-miterlimit="10" d="M212.7,500.2c-0.2-0.6-0.8-1.2-1.5-1.2
				c-0.1,0-0.2,0-0.4,0.1c-0.1,0.1-13.3,6.4-13.7,6.6s-0.7,0.6-0.6,1.2c0.2,0.6,0.8,1.2,1.5,1.2c0.1,0,0.4,0,0.7-0.2
				c0.2-0.1,13.4-6.6,13.4-6.6C212.7,501.1,212.9,500.7,212.7,500.2z"/>
		</g>
		<g>
			<path fill="#FFFFFF" stroke="#000000" stroke-width="0.5347" stroke-miterlimit="10" d="M221.3,492.2c-0.2-0.6-0.8-1.2-1.5-1.2
				c-0.1,0-0.2,0-0.3,0.1s-13.3,6.4-13.7,6.6s-0.7,0.6-0.6,1.2c0.2,0.6,0.8,1.1,1.5,1.2c0.1,0,0.4,0,0.7-0.2
				c0.2-0.1,13.4-6.6,13.4-6.6C221.2,493.1,221.5,492.7,221.3,492.2z"/>
		</g>
		<g>
			<path fill="#FFFFFF" stroke="#000000" stroke-width="0.5347" stroke-miterlimit="10" d="M199.2,507.2c-0.3-1.1-1.5-2-2.5-2
				c-0.2,0-0.4,0-0.6,0.1c-0.2,0.1-2,1-2.8,1.4s-1.2,1-0.9,2c0.3,1.1,1.5,2,2.5,2c0.2,0,0.7-0.1,1.2-0.3c0.4-0.1,2.2-1.2,2.3-1.3
				C199,508.8,199.4,508.1,199.2,507.2z"/>
			<polygon fill="#FFFFFF" stroke="#000000" stroke-width="0.5347" stroke-miterlimit="10" points="193.7,509.5 193.4,509.5 
				193.4,507.6 193.7,507.6 			"/>
			<polygon fill="#FFFFFF" stroke="#000000" stroke-width="0.5347" stroke-miterlimit="10" points="194.6,509.6 194.3,509.6 
				194.3,507.7 194.6,507.8 			"/>
			<path fill="#FFFFFF" stroke="#000000" stroke-width="0.5347" stroke-miterlimit="10" d="M196.4,508.7c0.3,1-0.4,2-1.4,2
				c-1.1,0-2.2-0.9-2.5-2s0.3-2,1.4-2S196,507.6,196.4,508.7z"/>
			<polygon fill="#FFFFFF" stroke="#000000" stroke-width="0.5347" stroke-miterlimit="10" points="193.7,509.5 193.7,507.7 
				193.6,507.7 193.6,509.5 			"/>
			<polygon fill="#FFFFFF" stroke="#000000" stroke-width="0.5347" stroke-miterlimit="10" points="194.6,509.6 194.6,507.9 
				194.5,507.9 194.5,509.6 			"/>
			<g>
				<g>
					<polygon fill="#FFFFFF" points="192.9,509.6 192.9,508.1 193.8,507.6 193.8,507.6 193.8,509.2 193,509.7 					"/>
					<path d="M193.7,507.9v1.2l-0.6,0.3v-1.2L193.7,507.9 M193.8,507.4l-1.1,0.5v1.9l0.3,0.1l1.1-0.5v-1.9L193.8,507.4L193.8,507.4z
						"/>
				</g>
				<g>
					<polygon fill="#FFFFFF" points="193,509.8 192.7,509.8 192.7,507.9 193,508 					"/>
					<polygon points="192.7,507.9 192.7,509.8 193,509.8 193,508 					"/>
				</g>
				<g>
					<polygon fill="#FFFFFF" points="193,508 194.1,507.4 193.8,507.4 192.7,507.9 					"/>
					<polygon points="193.8,507.4 192.7,507.9 193,508 194.1,507.4 					"/>
				</g>
				<g>
					<polygon fill="#FFFFFF" points="193.2,508.1 193.8,507.8 193.8,509.2 193.2,509.5 					"/>
					<path d="M193.7,508.1v1l-0.3,0.1v-1.1H193.7 M194.1,507.4l-1.1,0.5v1.9l1.1-0.5V507.4L194.1,507.4z"/>
				</g>
			</g>
			<g>
				<g>
					<polygon fill="#FFFFFF" points="193.8,509.8 193.8,508.2 194.6,507.8 194.7,507.8 194.7,509.4 					"/>
					<path d="M194.5,508.1v1.2l-0.6,0.3v-1.2L194.5,508.1 M194.6,507.6l-1.1,0.5v1.9l0.3,0.1l1.1-0.5v-1.9L194.6,507.6L194.6,507.6z
						"/>
				</g>
				<g>
					<polygon fill="#FFFFFF" points="193.8,510 193.6,509.9 193.6,508.1 193.8,508.1 					"/>
					<polygon points="193.6,508.1 193.6,509.9 193.8,510 193.8,508.1 					"/>
				</g>
				<g>
					<polygon fill="#FFFFFF" points="193.8,508.1 194.9,507.6 194.6,507.6 193.6,508.1 					"/>
					<polygon points="194.6,507.6 193.6,508.1 193.8,508.1 194.9,507.6 					"/>
				</g>
				<g>
					<polygon fill="#FFFFFF" points="194.1,508.3 194.7,507.9 194.7,509.4 194.1,509.7 					"/>
					<path d="M194.5,508.3v1l-0.3,0.1v-1.1H194.5 M194.9,507.6l-1.1,0.5v1.9l1.1-0.5V507.6L194.9,507.6z"/>
				</g>
			</g>
		</g>
		<path fill="#FFFFFF" stroke="#000000" stroke-width="0.5347" stroke-miterlimit="10" d="M196.4,508.7c-0.3-1.1-1.5-2-2.5-2
			c-0.2,0-0.4,0-0.6,0.1c-0.2,0.1-2,1-2.8,1.4s-1.2,1.1-0.9,2c0.3,1.1,1.5,2,2.5,2c0.2,0,0.7-0.1,1.2-0.3c0.3-0.1,2.2-1.2,2.3-1.3
			C196.2,510.2,196.6,509.5,196.4,508.7z"/>
		<path fill="#FFFFFF" stroke="#000000" stroke-width="0.5347" stroke-miterlimit="10" d="M195.2,511.1c0-2.7-2.9-5-6-4.3
			c-1,0.2-4.8,1.2-4.8,1.2l4.8,10c0,0,3.2-2.4,4.8-3.6C194.8,513.7,195.2,512.5,195.2,511.1z"/>
		<path fill="#B2B2B2" d="M190.8,513.6c0.6,2.1,0,3.9-1.5,4.9l-1.5,0.8c-0.3,0.1-1,0-1.3,0c-3.3,0-6.8-2.5-7.7-5.7
			c-0.6-1.8-0.1-3.6,0.9-4.7l1.7-0.9c0.5-0.1,1.1-0.1,1.7-0.1C186.5,507.9,189.9,510.4,190.8,513.6z"/>
		<path fill="#CCCCCC" d="M189.6,514.2c0.9,3.2-1,5.7-4.3,5.7s-6.8-2.5-7.7-5.7c-0.9-3.1,1-5.7,4.3-5.7
			C185.2,508.5,188.7,511.1,189.6,514.2z"/>
		<path fill="#E5E5E5" d="M188,514.1c0.7,2.4-0.7,4.3-3.2,4.3s-5-2-5.6-4.3c-0.6-2.4,0.7-4.3,3.1-4.3S187.3,511.8,188,514.1z"/>
		<path fill="#FFFFFF" d="M208.3,498.2l1.8,0.4c2.6,0.6,2.5,1.6,2.5,1.6l-3,1c0,0-0.3-1-2.9-1L208.3,498.2z"/>
		
			<path fill="none" stroke="#000000" stroke-width="0.5347" stroke-linecap="round" stroke-linejoin="round" stroke-miterlimit="10" d="
			M209.7,501.1c0,0-0.3-1-2.9-1"/>
		<path fill="none" stroke="#000000" stroke-width="0.5347" stroke-linecap="round" stroke-miterlimit="10" d="M210.1,498.5
			c2.4,0.5,2.6,1.7,2.6,1.7"/>
		
			<line fill="none" stroke="#000000" stroke-width="0.5347" stroke-linecap="round" stroke-miterlimit="10" x1="208.3" y1="498.2" x2="210.1" y2="498.5"/>
	</g>
	<path display="inline" fill="#FFFFFF" stroke="#000000" stroke-width="0.5" stroke-miterlimit="10" d="M136,499.6
		c0.3,1.1-0.3,2-1.3,2s-2-0.9-2.2-2c-0.3-1,0.3-2,1.3-2S135.7,498.5,136,499.6z"/>
	<path display="inline" fill="#4C4C4C" d="M127.4,515.4c-0.5-2-2.3-3.8-4.1-4.1s-2.7,1.3-2.2,3.4c0.2,0.8,0.6,1.5,1.1,2.2
		c0.8,0.7,1.8,1.1,2.7,1.1c1.2,0,2.2-0.7,2.7-1.7C127.5,516,127.5,515.8,127.4,515.4z"/>
	<path display="inline" fill="#4C4C4C" d="M135.7,517c-0.5-2-2.3-3.9-4.1-4.1c-1.8-0.2-2.7,1.3-2.2,3.4c0.2,0.8,0.6,1.5,1.1,2.2
		c0.8,0.7,1.8,1.1,2.7,1c1.2,0,2.2-0.7,2.7-1.7C135.7,517.5,135.7,517.2,135.7,517z"/>
	<path display="inline" fill="#E5E5E5" d="M122.6,514.2c-0.4-1.5,0.4-2.7,1.8-2.7s2.8,1.2,3.2,2.7c0.4,1.5-0.4,2.7-1.8,2.7
		C124.5,517,123,515.8,122.6,514.2z"/>
	<path display="inline" fill="#F7AFAD" d="M130.5,516.2c-0.4-1.5,0.4-2.7,1.8-2.7c1.4,0,2.8,1.2,3.2,2.7s-0.4,2.7-1.8,2.7
		C132.3,518.8,130.9,517.6,130.5,516.2z"/>
	<path display="inline" fill="#4C4C4C" d="M191,526.9c-0.5-2-2.3-3.9-4.1-4.1c-1.8-0.2-2.7,1.3-2.2,3.4c0.2,0.8,0.6,1.5,1.1,2.2
		c0.8,0.7,1.8,1.1,2.7,1c1.2,0,2.2-0.7,2.7-1.7C191.1,527.5,191.1,527.2,191,526.9z"/>
	<path display="inline" fill="#4C4C4C" d="M182.9,525.4c-0.5-2-2.3-3.9-4.1-4.1c-1.8-0.2-2.7,1.3-2.2,3.4c0.2,0.8,0.6,1.5,1.1,2.2
		c0.8,0.7,1.8,1.1,2.7,1c1.2,0,2.2-0.7,2.7-1.7C183.1,526,183,525.7,182.9,525.4z"/>
	<path display="inline" fill="#E5E5E5" d="M186.2,525.7c-0.4-1.5,0.4-2.7,1.8-2.7c1.4,0,2.8,1.2,3.2,2.7s-0.4,2.7-1.8,2.7
		C188.1,528.4,186.6,527.2,186.2,525.7z"/>
	<path display="inline" fill="#F7AFAD" d="M177.8,524.6c-0.4-1.5,0.4-2.7,1.8-2.7c1.4,0,2.8,1.2,3.2,2.7s-0.4,2.7-1.8,2.7
		C179.6,527.3,178.2,526.1,177.8,524.6z"/>
</g>
<g id="_x30_1_Front_Panel">
	<path fill="#4C4C4C" d="M115.4,441.7c-0.8-0.1-3.6-0.6-3.6-0.6s-0.1-11.5-0.2-12.9s-1.2-2.1-2-2.6s-2.5-1.2-2.9-1.4
		s-3.4-0.1-3.4,4.8c0.1,4.9,0.2,7.2,0.5,9s3.9,5.3,6.2,5.7c2.4,0.4,5.2,0.8,5.2,0.8c0.8,0.1,1.5-0.6,1.5-1.5
		C116.7,442.4,116.1,441.8,115.4,441.7z"/>
	<path fill="#CCCCCC" d="M243.8,411.9c0,0-7-27.9-14-31.3l-4-0.9c-8.8-1.8-49.5-8.5-82.1-11.6c-12.8,7.5-29,29.3-30.9,66.9
		c-2.2,41.9,5.1,82.5,5.1,82.5s1.4,3.2,5.5,5.5c6.4,3.6,17.7,7.3,29.8,9.9c19.8,4.2,37.8,6.3,45.7,5.4c3.6-0.4,8.6-1.9,12.1-3.3
		c3.5-1.4,39.7-16.3,39.7-16.3L243.8,411.9z M125.2,518.8c-1.8-0.2-3.6-2-4.1-4.1s0.5-3.5,2.2-3.4c1.8,0.2,3.6,2,4.1,4.1
		S126.9,518.9,125.2,518.8z M121,503.6c-0.8-3.7,0.9-6.6,4-6.6c3.1,0,6.2,3,7.1,6.6c0.8,3.7-0.9,6.6-4,6.6
		C125.1,510.3,121.9,507.4,121,503.6z M133.2,520.3c-1.8-0.3-3.6-2.2-4.1-4.2s0.5-3.5,2.2-3.2s3.6,2.2,4.1,4.2
		C136,519.2,135,520.6,133.2,520.3z M180.5,529.3c-1.8-0.2-3.7-2-4.2-4.2c-0.5-2.1,0.6-3.7,2.4-3.5c1.8,0.2,3.7,2,4.2,4.2
		C183.3,527.9,182.3,529.4,180.5,529.3z M180.5,506.7c3.1,0,6.4,3.1,7.4,6.9c0.9,3.8-1,6.9-4.1,6.9s-6.4-3.1-7.3-6.9
		C175.4,509.7,177.2,506.7,180.5,506.7z M188.9,530.9c-1.8-0.3-3.7-2.4-4.2-4.5c-0.5-2.2,0.6-3.6,2.4-3.4c1.8,0.4,3.7,2.4,4.2,4.5
		C191.8,529.8,190.8,531.2,188.9,530.9z M192.5,497.5c0,0-17.9,8.6-41.5,3.3c-28-6.3-35-19-35-19s-4.3-52.8,5.9-79.2l78.5,14.2
		C190.9,447.3,192.5,497.5,192.5,497.5z"/>
	<path fill="#262626" d="M230,530.7v-2.5h-0.8l-0.1,0.1v-0.9c0,0-11.1,4.6-20.5,8.3c-3.7,1.5-6.8,2-9.7,2.4
		c-10.1,1.3-29.1-1.8-45.7-5.4c-9.4-2-24.1-6.4-29.8-9.9c-4.6-2.8-5.9-6.7-5.9-6.7s-3.6,0.8-3.2,2.9c0,0.1,0,0.1,0,0.1H114v1.5
		l0.8,0.6c0.1,0.5,0.2,1,0.3,1.5h-0.3v1.5l0.8,0.6c0.1,0.4,0.1,0.8,0.2,1.2h-0.2v1.5l0.6,0.4c0.1,0.6,0.2,1.1,0.2,1.1
		s3.2,4.8,5.4,6.1c2.3,1.3,18,6.9,32.8,11.5c14.3,4.6,24.8,6.2,29.9,7.1c10.3,1.9,23.5-2.2,27.7-4.1c4.2-1.9,17.2-7.6,17.2-7.6v-2
		l0.8-0.3v-2.5h-0.8l-0.1,0.1v-1.8l0.8-0.4v-2.4H229l-0.1,0.1V531L230,530.7z"/>
</g>
<g id="_x30_3_-_Front_Panel_Windows">
	<path fill="#4C4C4C" d="M140.4,395.4c0.2,0.3,0.3,0.7,0.1,1l-1,2.8c-0.2,0.7-1.1,1.1-1.8,1l-6.4-1.2c-0.2-0.1-0.3-0.1-0.5-0.2
		c0.1,0.2,0.4,0.4,0.8,0.5l6.4,1.2c0.8,0.1,1.5-0.4,1.8-1l1-2.8C141.1,396.2,140.8,395.7,140.4,395.4z"/>
	<path fill="#4C4C4C" d="M170.9,387.4c1.5,1.6,1.9,4.8,0.5,8.7c-1.8,5.2-5.3,8.9-9.3,9.2c-1.4,0.1-2.6-0.4-3.5-1.1
		c0.9,1,2.2,1.5,3.8,1.4c4.1-0.3,7.5-4,9.3-9.2C173.2,392.3,172.6,389,170.9,387.4z"/>
	<path fill="#4C4C4C" d="M196.2,405.4c0.2,0.3,0.3,0.7,0.1,1.1l-1,2.9c-0.2,0.7-1.1,1.2-1.8,1.1l-6.2-1.1c-0.1,0-0.4-0.1-0.5-0.2
		c0.1,0.2,0.4,0.4,0.7,0.4l6.2,1.1c0.7,0.1,1.5-0.4,1.8-1.1l1-2.9C196.8,406.1,196.6,405.6,196.2,405.4z"/>
	<path fill="#4C4C4C" d="M176.8,378.9c0,0.1,0,0.1,0,0.1c0,0.8-1.3,1.8-2.9,2.1c-1.3,0.3-2.3,0.1-2.7-0.4c0.1,0.7,1.4,1,2.9,0.8
		c1.6-0.4,2.9-1.3,2.9-2.1C177,379.3,176.9,379,176.8,378.9z"/>
	<path fill="#262626" d="M243.9,481.1l-4-68.1c-21.5,5.4-35,18.9-35,82.8L243.9,481.1z"/>
	<polygon fill="#CCCCCC" points="239.1,439.5 241.1,481.7 243,481 239.3,413.8 238.4,414.2 239.8,437.9 	"/>
	<path fill="#4C4C4C" d="M200.5,416.7L122,402.5c-10.3,26.4-5.9,79.2-5.9,79.2s7,12.7,35,19c23.7,5.3,41.5-3.3,41.5-3.3
		S190.9,447.3,200.5,416.7z"/>
	<path fill="#4C4C4C" d="M215.2,443.4l3.2,43.5l22-8.3l-0.9-16.8l-9.2,2.8l10.3-3.5l1.3,17.4l1.8,0.8l0.1,1.6L205,495.8
		c0,0-7.6-77.2,35-82.9l0.1,0.8c0,0-23,4.3-28.4,28.6l28.2-10.2v0.8l-28.4,10c0,0-2.1,7.6-2.1,8.1s0.3,5.9,0.4,6.6
		c0.1,0.6-0.3,0.6-0.6,0.6s-1,0.1-1,0.1c-2.4,14.2-2.2,35.1-2.2,35.1l36.4-14l-1.4-0.6l-23.9,9.2l-2.4-44.6l-3.1,1.2l0.1-0.4
		l27.6-10.2v0.3L215.2,443.4z"/>
	<polygon fill="#CCCCCC" points="232.3,484.5 228.4,485.9 228.4,485.4 232.3,483.9 	"/>
	<polygon fill="#E5E5E5" points="218.4,487.5 219.8,488 241.9,479.4 240.8,479 	"/>
	<polygon fill="#CCCCCC" points="238.2,439.7 237.5,440 237.5,436.7 238.2,436.5 	"/>
	<path fill="#E5E5E5" d="M171.4,396.1c-1.8,5.2-5.3,8.9-9.3,9.2c-4,0.4-6.3-3.7-4.6-9c1.9-6,6.4-9.6,10.4-10
		C171.5,386,173.5,390.2,171.4,396.1z"/>
	<path fill="#E5E5E5" d="M193.7,410.4l-6.2-1.1c-0.7-0.1-1.1-0.8-0.8-1.5l1-2.9c0.2-0.7,1.1-1.2,1.8-1.1l6.2,1.1
		c0.7,0.1,1.1,0.8,0.8,1.5l-1,2.9C195.2,410.1,194.4,410.5,193.7,410.4z"/>
	<path fill="#CCCCCC" d="M166.9,388.4c-2.9,0.2-6.5,3.8-7.8,8c-1.4,4.2-0.1,7.4,2.9,7.1c2.9-0.2,6.5-3.8,7.8-8
		C171.2,391.3,169.9,388.1,166.9,388.4z M168.8,395.6c-1.1,3.4-4,6.3-6.4,6.5s-3.5-2.4-2.4-5.8s4-6.3,6.4-6.5
		S169.9,392.1,168.8,395.6z"/>
	<path fill="#B2B2B2" d="M166.5,389.8c-1.8,0.1-3.7,1.7-5.1,3.8l6.1,4.9c0.6-0.8,1.1-1.8,1.4-2.9
		C169.9,392.1,168.8,389.5,166.5,389.8z"/>
	<path fill="#B2B2B2" d="M193,408.4l-3.6-0.6c-0.4-0.1-0.6-0.4-0.4-0.8l0.2-0.7c0.1-0.4,0.6-0.6,0.9-0.6l3.6,0.6
		c0.4,0.1,0.6,0.4,0.4,0.8l-0.2,0.7C193.8,408.2,193.3,408.5,193,408.4z"/>
	<path fill="#E5E5E5" d="M151,500.7c-28-6.3-35-19-35-19l76.5,15.8C192.5,497.5,174.7,506,151,500.7z"/>
	<path fill="#4C4C4C" d="M224.5,425c0,0-0.5,0.1-0.7,0.1c-0.2,0.1-0.6,0.3-0.7,1.5c-0.1,1.2-0.3,5.7-0.3,6.4c0,0.6,0,1.3,0.7,1.3
		s0.7,0,0.7,0s-1.2,3-1.5,3.8s-1,4.4-1,4.4s-1.1,0.1-1.7,0.1c-0.6,0.1-1.3,0.6-1.3,2.9c0,2.2,0.4,12.6,0.6,14.1s0.5,2,1.8,2
		s6.3,0.1,7.1,0s2.3-0.6,2.2-2.5s-0.6-13.4-0.7-14.6c-0.1-1.2-0.8-2.2-2-2.2s-2.7-0.1-2.7-0.1l0.1-3c0,0,1.1-2,1.3-2.4
		s0.2-0.9,0.2-1.3s0.1-1.1,0.1-1.1s0.4-0.2,0.6-0.3c0.2-0.1,0.7-0.3,0.6-1.1s0-3.8,0-3.8l-0.6-0.3c0,0,0.1-0.6-0.1-1.2
		c-0.1-0.6-0.8-0.4-0.8-0.4s-0.6-0.1-0.7,0.6h-0.8c0,0-0.1-1.9-0.1-2.2C225.1,425.5,224.9,424.8,224.5,425z"/>
	<path fill="#7A7A7A" d="M229.1,460l-2.9-2.7c0,0-0.2-6.3-0.2-6.6c0-0.3-0.2-0.4-0.7-0.4s-3,0.2-3,0.2s-2.4-3.1-2.5-3.6
		s-0.1-1.5-0.1-2s0.4-1.8,0.4-1.8s-1.3-0.1-1.3,2.3s0.4,12.8,0.6,14.1s0.4,2,1.8,2c1.4,0.1,5.5,0.1,7.1,0
		C229.7,461.6,229.1,460,229.1,460z"/>
	<path fill="#E5E5E5" d="M137.9,400l-6.4-1.2c-0.8-0.1-1.1-0.8-0.9-1.5l1-2.8c0.2-0.7,1.1-1.1,1.8-1l6.4,1.2
		c0.8,0.1,1.1,0.8,0.9,1.5l-1,2.8C139.4,399.7,138.6,400.2,137.9,400z"/>
	<path fill="#E5E5E5" d="M176.8,379.1c0,0.8-1.3,1.8-2.9,2.1s-2.9-0.1-2.9-0.9s1.3-1.8,2.9-2.1S176.8,378.3,176.8,379.1z"/>
	<path fill="#C1272D" d="M175.4,378.2c0-0.4-0.6-0.6-1.3-0.6c-0.8,0-1.3,0.3-1.3,0.6l-0.7,1.5c0.1,0.4,0.6,0.6,1.3,0.6
		s1.1-0.1,1.3-0.6L175.4,378.2z"/>
	<path fill="#CCCCCC" d="M137.1,398.4l-3.6-0.7c-0.4-0.1-0.6-0.4-0.5-0.8l0.2-0.6c0.1-0.4,0.6-0.6,0.9-0.6l3.6,0.7
		c0.3,0.1,0.6,0.4,0.5,0.8l-0.2,0.6C137.8,398.2,137.4,398.4,137.1,398.4z"/>
	<ellipse fill="#C1272D" cx="192.7" cy="407.4" rx="1.2" ry="0.9"/>
	<ellipse fill="#CCCCCC" cx="190.3" cy="407" rx="1.2" ry="0.9"/>
	<ellipse fill="#CCCCCC" cx="136.8" cy="397.2" rx="1.2" ry="0.9"/>
	<ellipse fill="#C1272D" cx="134.3" cy="396.8" rx="1.2" ry="0.9"/>
	<path fill="#262626" d="M122.4,402.5c-2.7,10.6-4.5,25.5-4.5,25.5s26.6,5.2,28.3,5.4c1.7,0.3,6.7-1.8,7.1-2.1
		c0.8-0.4,2.2-0.8,3.5-0.5c1.2,0.3,2,1.5,2.4,2.1c0.2,0.4,1.8,3.2,3.8,3.7c2,0.6,32.3,6.2,32.3,6.2c1.1-8.9,5.2-26.1,5.2-26.1
		L122.4,402.5z"/>
	<path fill="#FFFFFF" d="M243.9,481.1c0,0-8.3,11.1-24.7,17.1c-12.9,4.7-14.3-2.4-14.3-2.4L243.9,481.1z"/>
	<path fill="#4C4C4C" d="M117.2,480.4l75.3,15.5l0.6-33.6L192,462l-1.4,31.9c0,0-61-12.6-64.5-13.2c-3.4-0.6-6.7-1.8-6.7-5.8
		c0-3.9,0.1-43.7,0.1-43.7l32.2,6.3l-15.3,23.2l-5.6,11.3c0,0,0.2,0.2,0.6,0.5c0.1,0.1,10-15,10-15l14.1-19.4l37.7,7.2l-1.3,15.4
		l1.4,0.6l1.4-17.2l-77.1-14.7C117.6,429.3,115.3,451.7,117.2,480.4z"/>
	<path fill="#262626" d="M193.3,461.2l1.4-17.1l-77.1-14.7c0,0-2,19.6-0.3,51.1l75.3,15.5l0.6-33.6l-1.1-0.4l-1.4,31.9
		c0,0-58.7-12.1-64.5-13.2c-4.8-0.9-6.7-2.6-6.7-5.8c0-3.3,0.1-28.1,0.1-28.1l23.1,4.6l9.1-13.9l3.7,0.6l-10,13.9L193.3,461.2z"/>
	<path fill="#262626" d="M142.7,451.2l-6.2,9.4l-5.6,11.3c0,0,0.2,0.2,0.6,0.5c0.1,0.1,10-15,10-15l4.1-5.6L142.7,451.2z"/>
	<path fill="#E5E5E5" d="M139.2,456.8L139.2,456.8l17.2-23.5l0,0c0.1-0.1,0.1-0.3,0.1-0.5c0-0.6-0.4-1-1-1c-0.4,0-0.6,0.2-0.8,0.5
		l0,0L138.3,456l0,0c-0.1,0.1-0.1,0.2-0.1,0.4c0,0.1,0,0.2,0.1,0.3l-1.3,2.2v0.7h1.3l1.5-0.5c0,0,1.1-1.9,1.2-2s-0.1-0.3-0.1-0.4
		c-0.1-0.1-0.4-0.1-0.5,0.1c-0.1,0.1-0.8,1.4-0.8,1.4l-0.4-0.4c0,0,0-0.5,0-0.8C139,457,139.2,457,139.2,456.8z"/>
	<path fill="none" stroke="#4C4C4C" stroke-width="0.5" stroke-miterlimit="10" d="M185.1,435.7l-57.4-11c-2.3-0.4-3.9-2.7-3.6-4.9
		l1.3-8.2c0.4-2.2,2.5-3.7,4.8-3.3l57.4,10.5c2.3,0.4,3.9,2.7,3.6,4.9l-1.3,8.7C189.6,434.6,187.4,436.1,185.1,435.7z"/>
	<path fill="#4C4C4C" d="M129.8,423.1c-1.5-0.3-2.7-1.8-2.4-3.3l1.1-7.6c0.1-1.1,1.1-2,2.1-2.2l-0.4-0.1c-1.5-0.3-3,0.7-3.2,2.2
		l-1.1,7.6c-0.2,1.5,0.8,2.9,2.4,3.3l56.6,10.8c0.4,0.1,0.7,0.1,1.1,0L129.8,423.1z"/>
</g>
<g id="Branding">
	<g>
		<g>
			<path fill="#262626" d="M147.7,508.2c-0.4-3.5,1.8-5.8,4.8-5.2c3,0.6,5.8,3.9,6.2,7.4c0.4,3.5-1.8,5.8-4.8,5.2
				C150.9,515,148.1,511.7,147.7,508.2L147.7,508.2z"/>
			<g>
				<path fill="#E5E5E5" d="M154.4,505.8l-0.8,4.4l0.8,2.2c0.1-0.8,0.6-3.1,0.6-3.3c0.1,1.5,0.5,4.3,0.5,4.3l1.4,0.3l-0.9-7.6
					L154.4,505.8z"/>
				<path fill="#E5E5E5" d="M151.1,505.3l-1.7-0.4l0.9,7.6l1.4,0.3c0,0-0.4-2.8-0.5-4.3c0.1,0.2,1.8,4.6,1.8,4.6l1.3,0.2
					L151.1,505.3L151.1,505.3z"/>
			</g>
		</g>
	</g>
	<g display="none">
		<g display="inline">
			<path fill="#4C4C4C" d="M253.6,425.2c-0.2-3.3,1.1-6.9,2.9-8.1s3.5,0.5,3.7,3.7c0.2,3.3-1.1,6.9-2.9,8.1
				C255.4,430.1,253.8,428.5,253.6,425.2L253.6,425.2z"/>
			<g>
				<path fill="#E5E5E5" d="M257.7,418.9l-0.6,4.9l0.5,1.8c0.1-0.9,0.4-3.5,0.4-3.7c0.1,1.3,0.3,4,0.3,4l0.8-0.6l-0.5-7.1
					L257.7,418.9z"/>
				<path fill="#E5E5E5" d="M255.7,420.1l-1.1,0.7l0.5,7.1l0.8-0.6c0,0-0.1-2.7-0.3-4c0.1,0.2,1.1,3.5,1.1,3.5l0.8-0.5L255.7,420.1
					L255.7,420.1z"/>
			</g>
		</g>
	</g>
	<g display="none">
		<path display="inline" fill="#4C4C4C" d="M256.4,434.4l-0.1-1.8c0,0.1,0,0.1-0.1,0.4l-0.4,1.7l-0.3,0.2l-0.5-1.2
			c-0.1-0.1-0.1-0.1-0.1-0.4l0.1,1.8l-0.3,0.2l-0.1-2.4l0.4-0.3l0.6,1.4c0,0.1,0.1,0.1,0.1,0.1c0-0.1,0-0.1,0-0.2l0.4-2l0.4-0.3
			l0.1,2.4L256.4,434.4z"/>
		<path display="inline" fill="#4C4C4C" d="M258.1,433.4c-0.1,0.1-0.3,0.3-0.4,0.4c-0.4,0.2-0.7,0.1-0.7-0.5
			c-0.1-0.6,0.2-1.1,0.6-1.3c0.4-0.2,0.6,0,0.6,0.4v0.2l-0.9,0.6c0,0.1,0,0.2,0.1,0.2c0.1,0.1,0.2,0.1,0.3,0c0.1,0,0.1-0.1,0.1-0.1
			s0.1-0.1,0.2-0.3L258.1,433.4C258.2,433.3,258.1,433.3,258.1,433.4z M257.5,432.2c-0.1,0.1-0.3,0.3-0.3,0.6l0.5-0.3
			C257.8,432.2,257.7,432.2,257.5,432.2z"/>
		<path display="inline" fill="#4C4C4C" d="M259.1,432.7c-0.1,0.1-0.2,0.2-0.3,0.3c-0.2,0.1-0.3,0.1-0.3-0.2l-0.1-1l-0.2,0.1v-0.3
			l0.2-0.1l-0.1-0.5l0.3-0.2l0.1,0.5l0.3-0.1v0.4l-0.3,0.1l0.1,0.8c0,0.2,0,0.2,0.1,0.2s0.1-0.1,0.2-0.2l0.1,0.3
			C259.1,432.7,259.1,432.7,259.1,432.7z"/>
		<path display="inline" fill="#4C4C4C" d="M260.1,431c-0.1,0-0.1,0-0.1,0s-0.1,0.1-0.1,0.2c-0.1,0.1-0.1,0.3-0.1,0.4l0.1,0.8
			l-0.3,0.3l-0.1-1.7l0.3-0.2l0.1,0.4c0.1-0.4,0.2-0.5,0.3-0.6s0.1-0.1,0.2,0L260.1,431z"/>
		<path display="inline" fill="#4C4C4C" d="M261.1,431.7c-0.4,0.2-0.7,0-0.7-0.5c-0.1-0.5,0.2-1,0.6-1.3c0.4-0.2,0.7,0,0.7,0.5
			C261.7,430.9,261.5,431.5,261.1,431.7z M261,430.2c-0.1,0.1-0.3,0.4-0.3,0.8c0,0.3,0.2,0.5,0.4,0.4c0.1-0.1,0.3-0.4,0.3-0.8
			C261.3,430.3,261.2,430.1,261,430.2z"/>
	</g>
	<g display="none">
		<g display="inline">
			<path fill="#B2B2B2" d="M664.5,187.1c0-2.4,1-4.8,2.3-5.6c1.3-0.7,2.3,0.6,2.3,2.9c0,2.4-1,4.8-2.3,5.6S664.5,189.5,664.5,187.1
				L664.5,187.1z"/>
			<g>
				<path fill="#CCCCCC" d="M667.5,182.8l-0.6,3.5l0.3,1.3c0.1-0.6,0.4-2.5,0.5-2.6c0,1,0,2.9,0,2.9l0.6-0.3v-5.1L667.5,182.8z"/>
				<path fill="#CCCCCC" d="M666.1,183.6l-0.7,0.4v5.1l0.6-0.4c0,0,0-1.9,0-2.9c0,0.1,0.6,2.6,0.6,2.6l0.5-0.3L666.1,183.6
					L666.1,183.6z"/>
			</g>
		</g>
	</g>
	<g display="none">
		<path display="inline" fill="#B2B2B2" d="M666,194.1V193c0,0.1,0,0.1-0.1,0.3l-0.3,1.1l-0.2,0.1l-0.3-0.7c0-0.1,0-0.1-0.1-0.2v1.1
			l-0.2,0.1v-1.5l0.3-0.2l0.4,0.8c0,0.1,0,0.1,0,0.1c0-0.1,0-0.1,0-0.1l0.3-1.3l0.3-0.2v1.5L666,194.1z"/>
		<path display="inline" fill="#B2B2B2" d="M667.1,193.4c-0.1,0.1-0.2,0.2-0.3,0.3c-0.3,0.1-0.4,0.1-0.4-0.3s0.2-0.7,0.5-0.8
			c0.2-0.1,0.4,0,0.4,0.3v0.1l-0.6,0.3c0,0.1,0,0.1,0,0.1c0.1,0.1,0.1,0.1,0.2,0C667,193.5,667,193.4,667.1,193.4
			c0-0.1,0-0.1,0.1-0.2l0.1,0.1C667.2,193.4,667.1,193.4,667.1,193.4z M666.8,192.8c-0.1,0.1-0.2,0.2-0.2,0.3l0.4-0.2
			C667,192.8,666.9,192.7,666.8,192.8z"/>
		<path display="inline" fill="#B2B2B2" d="M667.8,193.1c-0.1,0.1-0.1,0.1-0.2,0.2c-0.1,0.1-0.2,0-0.2-0.1v-0.6l-0.1,0.1v-0.1
			l0.1-0.1v-0.4l0.2-0.1v0.3l0.2-0.1v0.2l-0.2,0.1v0.5c0,0.1,0,0.1,0.1,0.1l0.1-0.1L667.8,193.1C667.9,193,667.8,193,667.8,193.1z"
			/>
		<path display="inline" fill="#B2B2B2" d="M668.6,191.9L668.6,191.9c-0.1,0-0.1,0.1-0.2,0.1c-0.1,0.1-0.1,0.1-0.1,0.2v0.5l-0.2,0.1
			v-1.1l0.2-0.1v0.2c0.1-0.2,0.1-0.3,0.2-0.3c0.1,0,0.1,0,0.1,0V191.9z"/>
		<path display="inline" fill="#B2B2B2" d="M669.1,192.3c-0.3,0.1-0.5,0-0.5-0.3c0-0.4,0.2-0.7,0.5-0.8s0.5,0,0.5,0.3
			S669.4,192.1,669.1,192.3z M669.1,191.4c-0.1,0.1-0.2,0.3-0.2,0.5s0.1,0.3,0.2,0.2c0.1-0.1,0.2-0.3,0.2-0.5
			C669.4,191.4,669.3,191.3,669.1,191.4z"/>
	</g>
	<g display="none">
		<path display="inline" fill="#4C4C4C" d="M319.6,379l-0.1-3.4c0,0.2,0,0.3-0.1,0.7l-0.5,3l-0.4,0.2l-0.6-2.3
			c-0.1-0.2-0.1-0.3-0.1-0.7l0.1,3.4l-0.4,0.2l-0.1-4.6l0.6-0.3l0.8,2.9c0,0.1,0.1,0.1,0.1,0.4c0-0.2,0-0.3,0.1-0.4l0.6-3.6l0.6-0.3
			l0.1,4.5L319.6,379z"/>
		<path display="inline" fill="#4C4C4C" d="M321.7,377.6c-0.2,0.3-0.3,0.4-0.6,0.6c-0.5,0.3-0.8-0.1-0.9-1.1c0-1,0.4-2,0.8-2.2
			c0.4-0.3,0.8,0.2,0.8,1v0.4l-1.1,0.6c0,0.3,0,0.4,0.1,0.5c0.1,0.2,0.2,0.3,0.4,0.1c0.1-0.1,0.1-0.1,0.2-0.1
			c0.1-0.1,0.1-0.2,0.4-0.5l0.2,0.6C321.9,377.5,321.8,377.6,321.7,377.6z M321.1,375.5c-0.2,0.1-0.4,0.4-0.4,0.9l0.7-0.4
			C321.4,375.5,321.3,375.3,321.1,375.5z"/>
		<path display="inline" fill="#4C4C4C" d="M323.1,376.9c-0.1,0.2-0.3,0.4-0.4,0.4c-0.2,0.1-0.4,0-0.4-0.5l-0.1-2l-0.3,0.1v-0.5
			l0.3-0.2v-1l0.4-0.2v1l0.4-0.2v0.6l-0.4,0.2v1.4c0,0.4,0,0.4,0.1,0.4s0.1-0.1,0.2-0.3l0.1,0.5
			C323.3,376.7,323.2,376.8,323.1,376.9z"/>
		<path display="inline" fill="#4C4C4C" d="M324.5,374c-0.1-0.1-0.1-0.1-0.1,0s-0.1,0.1-0.2,0.4c-0.1,0.2-0.1,0.4-0.1,0.7l0.1,1.5
			l-0.4,0.3l-0.1-3.2l0.4-0.2l0.1,0.7c0.1-0.6,0.3-0.9,0.4-1s0.1,0,0.3,0.1L324.5,374z"/>
		<path display="inline" fill="#4C4C4C" d="M325.6,375.7c-0.5,0.3-0.9-0.2-0.9-1.2s0.3-1.9,0.8-2.2c0.5-0.3,0.9,0.2,0.9,1.2
			C326.5,374.5,326.1,375.4,325.6,375.7z M325.6,373c-0.2,0.1-0.4,0.7-0.4,1.3s0.2,0.9,0.4,0.8c0.2-0.1,0.4-0.7,0.4-1.3
			S325.8,372.9,325.6,373z"/>
		<path display="inline" fill="#4C4C4C" d="M328.8,373.8l-0.6-1.5l-0.2,0.1l0.1,1.8l-0.5,0.3l-0.1-4.5l0.8-0.5
			c0.4-0.2,0.6-0.2,0.7-0.1s0.2,0.4,0.2,0.8c0,0.3,0,0.6-0.1,0.9s-0.1,0.4-0.4,0.6l0.6,1.6L328.8,373.8z M328.2,370.3l-0.3,0.2v1.3
			l0.3-0.2c0.3-0.1,0.4-0.4,0.4-0.9C328.7,370.2,328.5,370.1,328.2,370.3z"/>
		<path display="inline" fill="#4C4C4C" d="M331,372.6L331,372.6c-0.3,0.2-0.4,0.1-0.4-0.1c-0.1,0.4-0.3,0.6-0.5,0.7
			c-0.3,0.1-0.5-0.1-0.6-0.6c0-0.1,0-0.2,0-0.4c0.1-0.3,0.1-0.6,0.4-0.8l0.5-0.6v-0.3c0-0.4-0.1-0.5-0.2-0.4s-0.2,0.3-0.2,0.4v0.1
			l-0.4,0.4c0-0.1,0-0.1,0-0.2c0-0.6,0.3-1,0.7-1.3c0.4-0.2,0.6,0,0.6,0.7v1.3c0,0.3,0,0.3,0.1,0.3V372.6z M330.4,371.4l-0.4,0.5
			c0,0.1,0,0.2,0,0.3c0,0.2,0.1,0.3,0.2,0.2c0.1,0,0.1-0.1,0.2-0.2c0-0.1,0.1-0.1,0.1-0.2L330.4,371.4z"/>
		<path display="inline" fill="#4C4C4C" d="M331.5,368.4c-0.1,0.1-0.3-0.1-0.3-0.4s0.1-0.6,0.2-0.7s0.3,0.1,0.3,0.4
			C331.8,368,331.7,368.3,331.5,368.4z M331.4,372.3l-0.1-3.2l0.4-0.3l0.1,3.2L331.4,372.3z"/>
		<path display="inline" fill="#4C4C4C" d="M332.3,371.8l-0.1-5l0.4-0.3l0.1,5L332.3,371.8z"/>
	</g>
	<g display="none">
		<path display="inline" fill="#B2B2B2" d="M622.3,206.5l-0.1-2.5c0,0.2,0,0.2-0.1,0.6l-0.4,2.3l-0.3,0.2l-0.4-1.8
			c-0.1-0.2-0.1-0.2-0.1-0.5l0.1,2.5l-0.4,0.2l-0.1-3.4l0.4-0.3l0.6,2.2c0,0.1,0,0.1,0.1,0.3c0-0.1,0-0.2,0-0.3l0.5-2.7l0.4-0.3
			l0.1,3.4L622.3,206.5z"/>
		<path display="inline" fill="#B2B2B2" d="M623.9,205.4c-0.1,0.2-0.3,0.4-0.4,0.4c-0.4,0.2-0.6-0.1-0.7-0.8c0-0.8,0.3-1.5,0.6-1.8
			c0.4-0.2,0.6,0.1,0.6,0.8v0.3l-0.9,0.5c0,0.2,0,0.3,0.1,0.3c0.1,0.1,0.2,0.2,0.3,0.1c0.1,0,0.1-0.1,0.1-0.1
			c0.1-0.1,0.1-0.1,0.3-0.3l0.1,0.4C624,205.3,624,205.4,623.9,205.4z M623.4,203.8c-0.1,0.1-0.3,0.3-0.3,0.7l0.5-0.3
			C623.7,203.8,623.6,203.6,623.4,203.8z"/>
		<path display="inline" fill="#B2B2B2" d="M625,204.8c-0.1,0.1-0.2,0.3-0.3,0.3c-0.2,0.1-0.3,0-0.3-0.3l-0.1-1.5l-0.2,0.1V203
			l0.2-0.1v-0.7l0.3-0.2v0.7l0.3-0.1v0.5l-0.3,0.1v1.1c0,0.3,0,0.4,0.1,0.3c0.1,0,0.1-0.1,0.2-0.3l0.1,0.4V204.8z"/>
		<path display="inline" fill="#B2B2B2" d="M626,202.6L626,202.6c-0.1,0-0.2,0.1-0.2,0.3c-0.1,0.2-0.1,0.4-0.1,0.5v1.1l-0.3,0.2
			l-0.1-2.4l0.3-0.1v0.6c0.1-0.5,0.2-0.7,0.3-0.8s0.1,0,0.2,0.1L626,202.6z"/>
		<path display="inline" fill="#B2B2B2" d="M626.9,203.9c-0.3,0.2-0.7-0.1-0.7-0.9c0-0.7,0.3-1.5,0.6-1.7c0.4-0.2,0.7,0.1,0.7,0.9
			C627.5,203,627.3,203.7,626.9,203.9z M626.8,201.9c-0.1,0.1-0.3,0.6-0.3,1s0.1,0.7,0.3,0.6c0.1-0.1,0.3-0.6,0.3-1
			C627.1,202,627,201.7,626.8,201.9z"/>
		<path display="inline" fill="#B2B2B2" d="M629.3,202.4l-0.5-1.1l-0.2,0.1v1.4l-0.3,0.2l-0.1-3.4l0.6-0.4c0.3-0.1,0.4-0.1,0.5,0
			s0.1,0.4,0.1,0.6c0,0.3,0,0.5-0.1,0.7s-0.1,0.3-0.3,0.5l0.5,1.2L629.3,202.4z M628.8,199.8l-0.2,0.1v1l0.2-0.1
			c0.2-0.1,0.4-0.4,0.4-0.7C629.2,199.7,629.1,199.6,628.8,199.8z"/>
		<path display="inline" fill="#B2B2B2" d="M630.9,201.5L630.9,201.5c-0.2,0.1-0.3,0.1-0.4,0c-0.1,0.3-0.2,0.4-0.3,0.5
			c-0.2,0.1-0.4-0.1-0.4-0.4c0-0.1,0-0.1,0-0.3c0.1-0.3,0.1-0.4,0.3-0.6l0.3-0.4v-0.2c0-0.3-0.1-0.4-0.1-0.3
			c-0.1,0.1-0.2,0.2-0.2,0.4c0,0,0,0,0,0.1l-0.4,0.4c0-0.1,0-0.1,0-0.1c0-0.4,0.2-0.8,0.6-1c0.4-0.2,0.5,0,0.5,0.5v1
			c0,0.2,0,0.3,0.1,0.2L630.9,201.5z M630.5,200.7l-0.4,0.4c0,0.1,0,0.1,0,0.2c0,0.1,0.1,0.2,0.1,0.1c0.1,0,0.1-0.1,0.1-0.1l0.1-0.1
			v-0.5H630.5z"/>
		<path display="inline" fill="#B2B2B2" d="M631.4,198.4c-0.1,0.1-0.2-0.1-0.2-0.3s0.1-0.5,0.2-0.6c0.1-0.1,0.2,0.1,0.2,0.3
			C631.5,198,631.5,198.3,631.4,198.4z M631.3,201.3l-0.1-2.5l0.3-0.2l0.1,2.5L631.3,201.3z"/>
		<path display="inline" fill="#B2B2B2" d="M632,201l-0.1-3.9l0.4-0.2l0.1,3.9L632,201z"/>
	</g>
	<g display="none">
		<path display="inline" fill="#CCCCCC" d="M377.7,337.5l-2.8,1.5c-2.3-5.3-6-11.2-6-11.2s2.8,7.6,4.1,12.3l-2.8,1.5
			c-3.4-12.7-9.3-24.4-9.3-24.4l3.3-1.8c7.1,8.1,10.1,15.9,10.1,15.9s-1-7.8-4.5-18.9l3.2-1.8c0,0,4.6,7.6,9.5,24.1l-2.9,1.6
			l-3.9-13.1C376,323.2,377.5,332.5,377.7,337.5z"/>
		<path display="inline" fill="#CCCCCC" d="M391,329.2c-0.6,1.3-1.3,2.2-2.2,2.7c-2.3,1.3-5.7-1.3-7.6-6.5c-2-5.5-1.8-11.2,0.5-12.5
			c2-1,5.1,2.1,6.8,6.8l0.7,1.9l-5.2,2.9c0.6,1.4,0.8,2,1.3,2.6c0.8,1,1.8,0.8,2.5,0.4c0.3-0.1,0.6-0.4,0.8-0.8
			c0.4-0.6,0.6-1.1,0.9-2.5l2,3.6C391.3,328.5,391.1,328.9,391,329.2z M383.5,317c-0.9,0.5-1.1,2.2-0.4,4.6l3.1-1.7
			C385.2,317.3,384.4,316.5,383.5,317z"/>
		<path display="inline" fill="#CCCCCC" d="M385.4,305.6l1.9-1.8c0,0,1.6,2.2,3,6.2l1.7-1l1.2,3.3l-1.7,1l2.7,7.7
			c0.7,2,1,2.5,1.3,2.2c0.2-0.1,0.4-0.6,0.7-1.7l1.8,2.9c-0.1,0.5-0.3,1-0.4,1.4c-0.4,1.1-0.8,1.8-1.3,2.1c-1.1,0.6-2-0.4-2.9-2.9
			l-3.9-10.7l-1.2,0.6l-1.3-3.3l1-0.5C387,308.7,385.4,305.6,385.4,305.6z"/>
		<path display="inline" fill="#CCCCCC" d="M399.7,311c-0.4-0.3-0.6-0.3-0.8-0.2c-0.4,0.2-0.5,0.8-0.5,1.8c0,1.2,0.1,2.3,0.6,3.6
			l2.8,7.9l-2,1.1l-6.2-17.3l1.8-1l1.5,3.8c-0.3-3.4-0.2-4.8,0.4-5c0.4-0.2,0.9,0,1.5,0.6L399.7,311z"/>
		<path display="inline" fill="#CCCCCC" d="M409.1,320.5c-2.2,1.3-5.3-1.8-7.2-6.9c-1.8-5.2-1.5-10,0.7-11.3s5.3,1.8,7.2,6.9
			C411.7,314.4,411.3,319.3,409.1,320.5z M403.8,305.8c-1,0.6-1,3.6,0.1,6.6c1.1,3.1,2.9,5.1,3.9,4.6s1-3.6-0.1-6.6
			C406.6,307.3,404.9,305.3,403.8,305.8z"/>
		<path display="inline" fill="#B2B2B2" d="M585.1,220.7l-2.3,1.3c-1.9-4.4-4.9-9.2-4.9-9.2s2.3,6.2,3.4,10.2l-2.3,1.3
			c-2.8-10.5-7.7-20.2-7.7-20.2l2.7-1.5c6,6.7,8.3,13.2,8.3,13.2s-0.8-6.4-3.7-15.6l2.7-1.5c0,0,3.8,6.2,7.9,19.9l-2.4,1.3
			l-3.1-10.9C583.7,208.9,584.9,216.6,585.1,220.7z"/>
		<path display="inline" fill="#B2B2B2" d="M596.1,213.8c-0.4,1.1-1,1.8-1.8,2.2c-2,1.1-4.7-1.1-6.3-5.4c-1.6-4.5-1.4-9.3,0.4-10.3
			c1.6-0.9,4.3,1.8,5.7,5.6l0.6,1.5l-4.3,2.4c0.5,1.2,0.7,1.7,1.1,2.2c0.6,0.9,1.5,0.7,2.1,0.3c0.3-0.1,0.5-0.3,0.7-0.7
			c0.3-0.5,0.5-0.9,0.8-2l1.6,3C596.3,213.3,596.2,213.6,596.1,213.8z M590,203.8c-0.8,0.4-0.8,1.8-0.3,3.8l2.5-1.4
			C591.4,204,590.7,203.3,590,203.8z"/>
		<path display="inline" fill="#B2B2B2" d="M591.4,194.3l1.5-1.5c0,0,1.3,1.8,2.5,5l1.4-0.8l1,2.7l-1.4,0.8l2.2,6.4
			c0.6,1.6,0.8,2,1,1.9s0.4-0.5,0.6-1.4l1.5,2.4c-0.1,0.4-0.2,0.8-0.3,1.2c-0.3,0.9-0.6,1.5-1.1,1.8c-0.8,0.5-1.6-0.3-2.4-2.4
			l-3.2-8.9l-1,0.6l-1.1-2.7l0.8-0.4C592.9,196.8,591.4,194.3,591.4,194.3z"/>
		<path display="inline" fill="#B2B2B2" d="M603.3,198.8c-0.3-0.2-0.5-0.3-0.6-0.1c-0.3,0.1-0.4,0.7-0.4,1.5c0,1,0.1,1.9,0.6,3
			l2.3,6.5l-1.7,0.9l-5.1-14.4l1.5-0.8l1.2,3.2c-0.2-2.8-0.1-3.9,0.3-4.2c0.4-0.2,0.8,0,1.3,0.5L603.3,198.8z"/>
		<path display="inline" fill="#B2B2B2" d="M611.1,206.6c-1.9,1.1-4.4-1.4-6-5.7c-1.5-4.3-1.3-8.3,0.6-9.3c1.9-1.1,4.4,1.5,6,5.7
			C613.2,201.6,613,205.7,611.1,206.6z M606.8,194.5c-0.8,0.5-0.8,2.9,0.1,5.5c0.9,2.5,2.4,4.3,3.2,3.8s0.8-2.9-0.1-5.5
			C609.1,195.7,607.6,194,606.8,194.5z"/>
		<path display="inline" fill="#CCCCCC" d="M409.1,291.3c0,0,2.1-1.3,2.8-1.7c1.6-0.9,4.1-1.3,5.2-0.4c1.4,1.1,2.9,3.1,3.6,5.4
			c0.7,1.9,0.8,2.7,0.8,4.2c0,1.4-1.3,3-1.3,3l6.2,8.6l-2.3,1.3l-6-8.4l-1,0.6l3.5,9.8l-2.5,1.3C411.7,296,409.1,291.3,409.1,291.3z
			 M414.8,292.9l-1.4,0.7l2.7,6.4l1.3-0.8c1.3-0.8,1.4-1.8,0.6-4.2C417.1,292.7,415.9,292.5,414.8,292.9z"/>
		<path display="inline" fill="#CCCCCC" d="M434.1,306.5l-0.4,0.2c-1,0.6-1.5,0.4-2.4-1c-0.2,1.9-0.6,2.9-1.5,3.4
			c-1.3,0.8-2.9-0.6-3.9-3.4c-0.2-0.6-0.4-1.2-0.5-1.8c-0.3-1.8-0.1-2.8,0.8-4.2l2.1-2.7l-0.4-1.1c-0.6-1.8-1.3-2.5-2-2.2
			c-0.6,0.4-0.8,1.3-0.6,2.2c0.1,0.1,0.1,0.2,0.3,0.7l-2,2c-0.4-0.8-0.5-0.9-0.7-1.4c-1.1-3-0.5-5.5,1.6-6.6c1.9-1,3.7,0.1,5,3.9
			l2,6.9c0.6,1.5,0.7,1.8,1.3,1.6L434.1,306.5z M429,299.9c0,0-0.8,1.5-1,2c-0.4,0.7-0.2,2-0.1,2.4c0.4,1.1,0.9,1.3,1.4,1.1
			c0.3-0.1,0.5-0.5,0.6-1c0.1-0.2,0.1-0.4,0.3-1L429,299.9z"/>
		<path display="inline" fill="#CCCCCC" d="M429.7,285.8c-0.6,0.3-1.6-0.6-2.2-2c-0.6-1.5-0.6-2.9,0.1-3.1c0.6-0.3,1.6,0.6,2.2,2
			C430.3,284.1,430.3,285.5,429.7,285.8z M429.7,288.3l2.2-1.2c0,0,1.9,4.3,5.8,17.1l-2.2,1.3C433,296.7,429.7,288.3,429.7,288.3z"
			/>
		<path display="inline" fill="#CCCCCC" d="M439.1,303.5c-4-16.1-8.5-23.9-8.5-23.9l2.4-1.3c0,0,3,3.6,8.6,23.8L439.1,303.5"/>
	</g>
	<g display="none">
		<path display="inline" fill="#4C4C4C" d="M251.9,397l0.3,0.8l0.1,5.6l-0.8,0.4v-5.3l0,0l-1.5,0.8l-0.3-1.1L251.9,397z"/>
		<path display="inline" fill="#4C4C4C" d="M254,402.4l-0.2-0.8l0.2-0.9c0.4-1.5,0.6-2.3,0.3-3c-0.1-0.5-0.4-0.8-0.8-0.6
			c-0.3,0.1-0.5,0.5-0.6,0.8l-0.5-0.8c0.1-0.4,0.5-0.9,0.9-1.1c0.8-0.4,1.4,0.1,1.8,1.2c0.3,1,0.1,2-0.1,2.9l-0.2,0.6l0,0l1.3-0.6
			l0.4,1.1L254,402.4z"/>
		<path display="inline" fill="#4C4C4C" d="M258.6,396.8c0.6,1.8,0.5,3.2-0.4,3.6s-1.7-0.7-2.2-2.3c-0.5-1.7-0.5-3.1,0.4-3.6
			S258.1,395.2,258.6,396.8z M256.8,397.7c0.4,1.3,0.8,1.8,1.1,1.7c0.3-0.1,0.3-0.9-0.1-2.2c-0.4-1.3-0.8-1.8-1.1-1.7
			C256.4,395.7,256.4,396.4,256.8,397.7z"/>
	</g>
	<polygon display="none" fill="#FFFFFF" points="249.3,404.8 244.4,407.5 243.4,403.4 248.3,400.8 	"/>
	<polygon display="none" fill="#7A7A7A" points="249.3,404.8 244.4,407.5 244.3,407 249.2,404.3 	"/>
	<polygon display="none" fill="#7A7A7A" points="249.1,404 244.2,406.6 244.1,406.1 248.9,403.5 	"/>
	<polygon display="none" fill="#7A7A7A" points="248.9,403.1 244,405.6 243.8,405.2 248.7,402.6 	"/>
	<polygon display="none" fill="#7A7A7A" points="248.6,402.1 243.8,404.8 243.6,404.3 248.5,401.7 	"/>
	<polygon display="none" fill="#7A7A7A" points="248.4,401.3 243.5,403.9 243.4,403.4 248.3,400.8 	"/>
	<polygon display="none" fill="#4C4C4C" points="243.4,403.4 245,402.5 245.6,404.6 243.9,405.5 	"/>
	<g opacity="0.59">
		<path fill="#FFFFFF" d="M170.7,480.5v0.5l-1.1,2.6l-0.7-0.1l1.1-2.4l0,0l-1.3-0.2v-0.6L170.7,480.5z"/>
		<path fill="#FFFFFF" d="M171,483.8v-0.5l0.3-0.3c0.6-0.5,0.9-0.8,0.9-1.2c0-0.3-0.1-0.5-0.4-0.6c-0.2-0.1-0.4,0.1-0.6,0.1
			l-0.2-0.6c0.2-0.1,0.5-0.2,0.9-0.1c0.6,0.1,1,0.6,1,1.2s-0.4,0.9-0.7,1.3l-0.3,0.2l0,0l1.1,0.2v0.6L171,483.8z"/>
		<path fill="#FFFFFF" d="M175.4,483c0,1-0.4,1.6-1.1,1.5s-1.1-0.9-1.1-1.9c0-0.9,0.4-1.6,1.1-1.5
			C175.1,481.2,175.4,482.1,175.4,483z M174,482.7c0,0.8,0.1,1.1,0.4,1.2c0.3,0.1,0.4-0.3,0.4-1s-0.1-1.1-0.4-1.2
			C174.1,481.7,174,481.9,174,482.7z"/>
		<path fill="#FFFFFF" d="M175.6,483.8c0-0.4,0.2-0.6,0.5-0.7l0,0c-0.3-0.2-0.4-0.5-0.4-0.8c0-0.6,0.4-0.8,1-0.8
			c0.6,0.1,0.9,0.6,0.9,1c0,0.3-0.1,0.6-0.4,0.6l0,0c0.3,0.1,0.5,0.5,0.5,0.9c0,0.6-0.4,0.9-1.1,0.8
			C176,484.8,175.6,484.3,175.6,483.8z M177,484c0-0.3-0.2-0.5-0.4-0.6c-0.2,0-0.4,0.2-0.4,0.4s0.1,0.5,0.4,0.6
			C176.9,484.4,177,484.3,177,484z M176.3,482.4c0,0.2,0.1,0.4,0.4,0.5c0.1,0,0.3-0.1,0.3-0.4s-0.1-0.4-0.3-0.5
			C176.4,482,176.3,482.2,176.3,482.4z"/>
	</g>
	<path fill="#FFFFFF" d="M243.8,489.2c-4.7,3-27.9,11.8-33.2,13c-0.5,0.1-0.7,0.7-0.6,1.2l0,0c0.1,0.5,0.7,0.6,1.2,0.6
		c5.3-1.3,28.5-9.9,33.2-13c0.4-0.3,0.7-0.7,0.6-1.2l0,0C244.7,489.2,244.2,488.9,243.8,489.2z"/>
	<path fill="#FFFFFF" d="M244,492.6c-4.7,3-36.8,14.4-42.1,15.5c-0.5,0.1-0.7,0.7-0.6,1.2l0,0c0.1,0.5,0.7,0.6,1.2,0.6
		c5.3-1.3,37.4-12.5,42.1-15.5c0.4-0.3,0.7-0.7,0.6-1.2l0,0C244.9,492.7,244.4,492.4,244,492.6z"/>
	<path fill="#FFFFFF" d="M244.8,506.3c-4.7,3-36.8,14.3-42.1,15.5c-0.5,0.1-0.7,0.7-0.6,1.2l0,0c0.1,0.5,0.7,0.6,1.2,0.6
		c5.3-1.3,37.4-12.5,42.1-15.5c0.4-0.3,0.7-0.7,0.6-1.2l0,0C245.8,506.4,245.3,506.2,244.8,506.3z"/>
	<path fill="#FFFFFF" d="M245.1,509.7c-4.7,3-28.3,11.5-33.7,12.8c-0.5,0.1-0.7,0.7-0.6,1.2l0,0c0.1,0.5,0.7,0.6,1.2,0.6
		c5.3-1.3,29-9.8,33.7-12.8c0.4-0.3,0.7-0.7,0.6-1.2l0,0C246.1,509.8,245.6,509.6,245.1,509.7z"/>
	<path fill="#FFFFFF" d="M245.3,496.6L245.3,496.6c-0.2-0.5-0.7-0.7-1.2-0.6c-4.7,3-36.8,14.4-42.1,15.5c-0.8,0.2-5,0.2-5,0.2
		c-0.5,0-0.8,0.4-0.8,0.8c0,0.4,0.4,0.8,0.8,0.8c0,0,4.8-0.1,5.5-0.2l0,0c0.1,0,0.1,0,0.1,0c5.3-1.3,37.4-12.5,42.1-15.5
		C245.2,497.5,245.5,497.1,245.3,496.6z"/>
	<path fill="#FFFFFF" d="M245.6,500L245.6,500c-0.2-0.5-0.7-0.7-1.2-0.6c-4.7,3-36.8,14.4-42.1,15.5c-0.8,0.2-7.6-0.1-7.6-0.1
		c-0.5,0-0.8,0.4-0.8,0.8l0,0c0,0.5,0.4,0.8,0.8,0.8c0,0,7.4,0.3,8.1,0.1l0,0c0.1,0,0.1,0,0.1,0c5.3-1.3,37.4-12.5,42.1-15.5
		C245.4,500.9,245.7,500.5,245.6,500z"/>
	<path fill="#FFFFFF" d="M245.8,503.4L245.8,503.4c-0.2-0.5-0.7-0.7-1.2-0.6c-4.7,3-36.8,14.3-42.1,15.5c-0.8,0.2-5.3,0.1-5.3,0.1
		c-0.5,0-0.8,0.4-0.8,0.8s0.4,0.8,0.8,0.8c0,0,5,0.1,5.8-0.1l0,0c0.1,0,0.1,0,0.1,0c5.3-1.3,37.4-12.5,42.1-15.5
		C245.7,504.4,246,503.9,245.8,503.4z"/>
</g>
<g id="_x30_1_Highlights">
	<path opacity="0.4" fill="#FFFFFF" enable-background="new    " d="M132.1,452.1l-6.6-1c0,0,0,13.4,0,14.3c0,0.8,0.8,1.1,1.5,0.6
		c0.6-0.4,3.3-2.2,3.8-2.5c0.5-0.4,1.4-1.3,1.4-2.5C132.1,460,132.1,452.1,132.1,452.1z"/>
	<path opacity="0.8" fill="#FFFFFF" enable-background="new    " d="M137,460L137,460c-0.2-0.1-0.3-0.4-0.1-0.6l18.9-27.9
		c0.1-0.2,0.4-0.3,0.6-0.1l0,0c0.2,0.1,0.3,0.4,0.1,0.6l-18.9,27.9C137.5,460,137.2,460.1,137,460z"/>
	<path display="none" opacity="0.8" fill="#FFFFFF" enable-background="new    " d="M397.4,384.5L366.2,404c-1,0.7-1.8,0.4-1.8-0.8
		l-2.5-40.2c0-1.1,0.8-2.6,1.8-3.3l31.4-18c1-0.7,1.8-0.4,1.8,0.8l2.4,38.6C399.3,382.3,398.4,383.8,397.4,384.5z"/>
	<path display="none" opacity="0.8" fill="#FFFFFF" enable-background="new    " d="M354.5,410.8l-31.1,19c-1,0.7-1.9,0.4-1.9-0.8
		l-2.7-41.4c0-1.2,0.8-2.7,1.9-3.4l31.1-18.2c1.1-0.7,1.9-0.3,1.9,0.8l2.6,40.2C356.3,408.2,355.5,410.1,354.5,410.8z"/>
	<path display="none" fill="#B2B2B2" d="M633.3,240.1L616.4,251c-0.8,0.6-1.5,0.3-1.5-0.6l-2-32.1c0-0.9,0.6-2.1,1.5-2.6l16.9-9.6
		c0.8-0.6,1.5-0.3,1.5,0.6l2,30.9C634.8,238.4,634.1,239.6,633.3,240.1z"/>
	<path display="none" fill="#B2B2B2" d="M606,256.9L588.5,268c-0.8,0.6-1.5,0.3-1.5-0.6l-2.2-33c0-0.9,0.7-2.2,1.5-2.7l17.6-10.4
		c0.8-0.6,1.5-0.3,1.5,0.6l2.1,32.1C607.5,254.9,606.8,256.3,606,256.9z"/>
	<path display="none" opacity="0.8" fill="#FFFFFF" enable-background="new    " d="M472.9,341.5l-9.7,5.9c-1,0.6-1.8,0.2-1.8-0.8
		l-2.4-39.4c0-1.1,0.8-2.4,1.8-3l9.5-5.5c1-0.6,1.8-0.2,1.8,0.8l2.6,39.1C474.6,339.5,473.8,340.8,472.9,341.5z"/>
	<path display="none" fill="#B2B2B2" d="M535.1,303.2l-9.1,5.5c-0.9,0.6-1.6,0.2-1.6-0.8l-2.3-37.2c0-1,0.8-2.2,1.6-2.8l9-5.2
		c0.9-0.6,1.6-0.2,1.6,0.8l2.5,36.9C536.7,301.4,536,302.6,535.1,303.2z"/>
</g>
<g id="Grid_x2C__Perspective_Guides" display="none">
	
		<line display="inline" opacity="0.34" fill="none" stroke="#3399FF" stroke-linecap="round" stroke-linejoin="round" stroke-miterlimit="10" enable-background="new    " x1="110" y1="443.8" x2="140.6" y2="448.5"/>
	
		<line display="inline" opacity="0.34" fill="none" stroke="#3399FF" stroke-linecap="round" stroke-linejoin="round" stroke-miterlimit="10" enable-background="new    " x1="111.8" y1="441.1" x2="142.5" y2="445.8"/>
	
		<polyline display="inline" opacity="0.4" fill="none" stroke="#3399FF" stroke-linecap="round" stroke-linejoin="round" stroke-miterlimit="10" enable-background="new    " points="
		483.1,264.6 -3342.8,-231.1 194.2,541.6 	"/>
	
		<polyline display="inline" opacity="0.34" fill="none" stroke="#3399FF" stroke-linecap="round" stroke-linejoin="round" stroke-miterlimit="10" enable-background="new    " points="
		419.1,241.5 1583.9,-341.6 335.5,474.2 	"/>
	
		<line id="Panel_1_" display="inline" opacity="0.5" fill="none" stroke="#3399FF" stroke-miterlimit="10" enable-background="new    " x1="491.9" y1="276.2" x2="499.2" y2="386.4"/>
</g>
</svg>
