<?xml version="1.0" encoding="utf-8"?>
<!-- Generator: Adobe Illustrator 18.1.1, SVG Export Plug-In . SVG Version: 6.00 Build 0)  -->
<svg version="1.1" id="Layer_1" xmlns="http://www.w3.org/2000/svg" xmlns:xlink="http://www.w3.org/1999/xlink" x="0px" y="0px"
	 viewBox="0 0 960 560" enable-background="new 0 0 960 560" xml:space="preserve">
<g id="Layer_15" display="none">
	<rect x="32" display="inline" fill="#E5E5E5" stroke="#000000" stroke-miterlimit="10" width="896" height="560"/>
</g>
<g id="_x31_1_Background_LAyer" display="none">
	<path display="inline" fill="#4C4C4C" d="M962-31.8c-90.3-60.9-389.1-68-489.3-70.7c-155.4-4.2-399-3.2-399-3.2v40.2
		c0,0,32.7,0.2,81.7,1.1c6.5,17.6,6.5,51.4,6.5,51.4l-23.1,9.4l14.7,1.1l2.1,14.7c67.2,0,300.3,24.2,300.3,24.2l17.9-12.6l21,3.1
		l2.1,25.2c72.5,8.4,164,41.4,184,48.9L-193,566.7v133.3h419c0,0,644.4-494.1,676.2-518.7C986.2,116.3,1022.1,8.8,962-31.8z"/>
	<path display="inline" fill="#4C4C4C" d="M1025.6-20.3c-90.3-60.9-389.1-68-489.3-70.7c-155.4-4.2-399-3.2-399-3.2v40.3
		c0,0,32.7,0.2,81.7,1c6.5,17.6,6.5,51.4,6.5,51.4l-23.1,9.4l14.7,1l2.1,14.7c67.2,0,300.3,24.2,300.3,24.2l17.9-12.6l21,3.2
		l2.1,25.2c72.5,8.4,164,41.4,184,48.9l-873.7,465.6v133.3h419c0,0,644.4-494.1,676.2-518.7C1049.7,127.8,1085.7,20.2,1025.6-20.3z"
		/>
	<path display="inline" fill="#E5E5E5" d="M489.5,16.5L202.9-4.8V-15h-23.1c0-28.1,1.3-43.3,1.8-48.9c91.1,1.7,220.6,5.1,310.2,11.9
		c4.1,20.4,4.1,67.5,4.1,67.5L489.5,16.5z"/>
	<path display="inline" fill="#E5E5E5" d="M740.1,69L535.7,30.2v-21l-13.7-2.1l-1-56.6C667.3-35.5,850.7,9.2,850.7,9.2L740.1,69z"/>
</g>
<g id="_x31_0_Bottom_Layer__x28_Body_x29_">
	<path display="none" fill="#FFFFFF" stroke="#000000" stroke-width="0.5" stroke-miterlimit="10" d="M200.5,416.7l-79.3-11.9
		c-10.3,26.4-4.9,79.1-4.9,79.1l76.3,13.5C192.5,497.5,190.9,447.3,200.5,416.7z"/>
	<path display="none" fill="#FFFFFF" stroke="#000000" stroke-width="0.5" stroke-miterlimit="10" d="M243.9,481.1l-4-68.1
		c-21.5,5.4-35,18.9-35,82.8L243.9,481.1z"/>
	<path display="none" fill="#FFFFFF" stroke="#000000" stroke-width="0.5" stroke-miterlimit="10" d="M151,500.7
		c-28-6.3-34.8-16.8-34.8-16.8l76.3,13.5C192.5,497.5,174.7,506,151,500.7z"/>
	<g opacity="0.1">
		<path fill="#CCCCCC" d="M377.2,259.8l18.6-8.5l-2.7,10.1l9.2-4.8l3.9,0.4l3-8.1l2.4-1.1l4.1-8.3l20.6-9.5c1.8-3.3,2.9-4.9,8.3-7.8
			c5.4-2.9,152.4-75.8,152.4-75.8c0.7-0.3,3.4-1.4,8.8-1.1c59.5,3.9,53.6,3.4,59.5,3.9c7.2,0.7,8.2,8.4,10.7,21
			c2.5,12.6,3.5,39,3.5,39l-1.4,26.1l1.6,1.4l-0.2,6.8l-3.8,5.7l-1.5,21.1l-151.5,102l-0.3-7.6l0.1-10.9l-6.3,3.9L516,362l-7.7,4.7
			l-14.2,9.4l-9,5.2l-0.5-2.3l-5.6,3.5l-1.8,20.6l-138.9,93.5l-2.5-10l-0.4-12.5l-15.7,9.4l0.4,4.1l-10.9,6.1l-0.7-3.4l-9.8,6.4
			l-4-0.4v2.9l-7,4.6v-2.9l-13.3,8.8l0.1,9.6c0,0-21.2,11-45.4,22.8c-6.6,3.3-25.6,7.6-39.8,7.6c-36.3,0-58.1-12.8-66.5-18.5
			c-1.5-1-5.7-2.2-5.9-3.6c-0.6-3.2-1.1-4.1-1.3-6c-0.1-1.8,0.1-3.4,2-5.2c0,0-7.1-39.7-4.9-81.5s22.1-62.4,30.9-66.9
			c12.4-6.2,233.8-115.1,233.8-115.1l1.8,0.8C379.1,253.4,377.2,255.5,377.2,259.8z"/>
	</g>
</g>
<g id="Side_Panel_Far_1_">
	<g id="Door_copy">
	</g>
	<g id="Window_copy">
	</g>
	<g display="none">
		<g display="inline">
			<polygon id="Panel_4_" fill="#7A7A7A" points="132,504.6 135.3,505.2 391.9,355.2 389.6,265.4 384.3,264.9 124,397.9 			"/>
			<polygon id="Panel_5_" fill="#4C4C4C" points="135.3,505.2 391.9,355.2 389.6,265.4 128,398.4 			"/>
			<polygon id="Panel_3_" fill="#E5E5E5" points="124,397.9 384.3,264.9 389.6,265.4 127.8,398.5 			"/>
		</g>
		<path display="inline" fill="#7A7A7A" d="M358.8,281l36.5-18.8l2.5-10.4l-2.5-0.4l-18.2,8.4c0-4.5,2-6.4,2-6.4l-1.8-0.8L143.2,368
			c0,0-17.6,19.7-17.6,30.1l2.2,0.3L358.8,281z"/>
		<path display="inline" fill="#7A7A7A" d="M143.2,368c0,0-17.6,9-17.6,30.1l2.2,0.3c0,0,0.9-20.6,18.3-30.1L143.2,368z"/>
		<path display="inline" fill="#FFFFFF" stroke="#000000" stroke-width="0.5" stroke-miterlimit="10" d="M125.7,397.7"/>
		<polygon display="inline" fill="#CCCCCC" points="143.2,368 146.1,368.3 379.1,253.4 377.3,252.7 		"/>
		<polygon display="inline" fill="#E5E5E5" points="377.2,261.2 398.1,251.8 395.7,251.4 377.2,259.8 		"/>
	</g>
</g>
<g id="Roof">
	<polygon display="none" fill="#E5E5E5" points="406.6,254.7 483.1,264.6 483.1,269.5 255.6,394.9 169.7,379.4 169.7,374.5 	"/>
	<polygon display="none" fill="#262626" points="406.6,254.7 483.1,264.6 255.6,390 169.7,374.5 	"/>
	<polygon display="none" fill="#B2B2B2" points="255.6,390 255.6,394.9 169.7,379.4 169.7,374.5 	"/>
	<g display="none">
		<g display="inline">
			<g>
				<g>
					<polygon fill="#B2B2B2" points="407.5,255.5 172.7,373 176.8,373.8 410.7,255.8 					"/>
					<polygon fill="#B2B2B2" points="412.6,256.1 178.3,374 182.3,374.9 415.7,256.4 					"/>
					<polygon fill="#B2B2B2" points="417.6,256.7 183.8,375 187.9,375.9 420.8,257 					"/>
					<polygon fill="#B2B2B2" points="422.7,257.2 189.4,376 193.5,376.9 425.8,257.7 					"/>
					<polygon fill="#B2B2B2" points="427.7,257.9 195,377.1 199.1,377.9 430.9,258.2 					"/>
					<polygon fill="#B2B2B2" points="432.8,258.5 200.6,378.1 204.7,379 436,258.9 					"/>
					<polygon fill="#B2B2B2" points="437.8,259.1 206.2,379.1 210.3,380 441,259.5 					"/>
					<polygon fill="#B2B2B2" points="442.9,259.8 211.8,380.2 215.9,381.1 446,260.1 					"/>
					<polygon fill="#B2B2B2" points="447.9,260.4 217.4,381.2 221.5,382.1 451.2,260.8 					"/>
					<polygon fill="#B2B2B2" points="453,261 223.1,382.3 227.2,383.2 456.3,261.4 					"/>
					<polygon fill="#B2B2B2" points="458.2,261.7 228.7,383.4 232.8,384.3 461.4,262.1 					"/>
					<polygon fill="#B2B2B2" points="463.2,262.3 234.4,384.4 238.4,385.4 466.5,262.7 					"/>
					<polygon fill="#B2B2B2" points="468.3,263 240,385.6 244.1,386.5 471.6,263.3 					"/>
					<polygon fill="#B2B2B2" points="473.5,263.6 245.6,386.6 249.8,387.5 476.7,264 					"/>
					<polygon fill="#B2B2B2" points="478.6,264.3 251.3,387.7 255.4,388.6 481.8,264.7 					"/>
					<polygon fill="#B2B2B2" points="483.7,264.9 257,388.9 261.1,389.8 486.9,265.4 					"/>
				</g>
				<polygon fill="#7A7A7A" points="261.1,389.8 258.2,389.1 482.1,265.6 481.8,264.7 255.4,388.6 252.5,388 477,264.9 476.7,264 
					249.8,387.5 246.8,386.9 471.9,264.3 471.6,263.3 244.1,386.5 241.2,385.8 466.8,263.6 466.5,262.7 238.4,385.4 235.6,384.7 
					461.7,263 461.4,262.1 232.8,384.3 229.9,383.7 456.5,262.3 456.3,261.4 227.2,383.2 224.3,382.5 451.4,261.7 451.2,260.8 
					221.5,382.1 218.6,381.5 446.3,261 446,260.1 215.9,381.1 213,380.4 441.3,260.4 441,259.5 210.3,380 207.4,379.4 436.2,259.8 
					436,258.9 204.7,379 201.8,378.4 431.1,259.1 430.9,258.2 199.1,377.9 196.2,377.3 426.1,258.5 425.8,257.7 193.5,376.9 
					190.6,376.3 421.1,257.9 420.8,257 187.9,375.9 185.1,375.3 416,257.3 415.7,256.4 182.3,374.9 179.5,374.2 411,256.7 
					410.7,255.8 176.8,373.8 172.7,373 172.7,374.3 176.8,375.1 178.3,374.6 178.3,375.3 182.4,376.2 183.9,375.7 183.9,376.3 
					187.9,377.2 189.4,376.7 189.5,377.4 193.5,378.3 195,377.7 195,378.4 199.1,379.3 200.6,378.8 200.6,379.5 204.7,380.4 
					206.2,379.8 206.3,380.5 210.4,381.4 211.8,380.9 211.9,381.6 216,382.5 217.5,381.9 217.5,382.6 221.6,383.5 223.1,383 
					223.2,383.7 227.2,384.6 228.8,384.1 228.8,384.8 232.9,385.7 234.4,385.1 234.4,385.8 238.5,386.8 240,386.3 240.1,387 
					244.2,387.9 245.7,387.3 245.8,388 249.8,389 251.4,388.4 251.4,389.1 255.6,390.1 257,389.5 257.1,390.2 261.2,391.2 
					487.3,266.4 486.9,265.4 				"/>
			</g>
		</g>
	</g>
	<polygon display="none" fill="#B2B2B2" points="370.4,287.8 341.3,284.6 242.3,334.1 257.9,328.1 258.7,326.4 289.9,329.6 
		289.8,330.6 302.5,339.5 302.5,352.6 385.1,307.8 385.1,295.9 370.4,288.5 	"/>
	<polygon display="none" fill="#E5E5E5" points="289.9,329.6 370.4,287.8 341.3,284.6 258.7,326.4 	"/>
	<polygon display="none" fill="#CCCCCC" points="289.9,329.6 258.7,326.4 257.9,328.1 242.3,334.1 242.3,343.7 302.5,352.6 
		302.5,339.5 289.8,330.6 	"/>
	<ellipse display="none" fill="#7A7A7A" cx="281.9" cy="323.9" rx="10.7" ry="3"/>
	<polygon display="none" fill="#7A7A7A" points="265.6,342.4 225.5,337.4 185.6,356.4 185.6,374.4 225.7,381.4 265.6,360.1 	"/>
	
		<polygon display="none" fill="#7A7A7A" stroke="#B2B2B2" stroke-linecap="round" stroke-linejoin="round" stroke-miterlimit="10" points="
		225.5,337.4 225.5,355.3 227.4,355.6 227.4,339.3 262.6,343.6 262.6,359.7 265.6,360.1 265.6,342.4 	"/>
	
		<polygon display="none" fill="#B2B2B2" stroke="#7A7A7A" stroke-linecap="round" stroke-linejoin="round" stroke-miterlimit="10" points="
		260.3,359.3 260.3,355.3 225.6,373.5 225.6,377.7 	"/>
	
		<polygon display="none" fill="#B2B2B2" stroke="#7A7A7A" stroke-linecap="round" stroke-linejoin="round" stroke-miterlimit="10" points="
		225.7,375.1 260.1,356.6 263.4,357 263.4,347.7 225.7,367.3 	"/>
	
		<polygon display="none" fill="#B2B2B2" stroke="#7A7A7A" stroke-linecap="round" stroke-linejoin="round" stroke-miterlimit="10" points="
		225.7,367.3 263.4,347.6 263.4,343.5 225.7,363.2 	"/>
	<path display="none" fill="#7A7A7A" d="M239.4,362.3c0,0.4-0.1,0.7-0.1,0.8c0,0-0.1,0-0.2,0c-0.2,0-0.3-0.3-0.3-0.8
		s0.1-0.8,0.3-0.8c0.1,0,0.1,0,0.1,0C239.3,361.6,239.4,362,239.4,362.3z"/>
	<path display="none" fill="#7A7A7A" d="M239.4,365.8c0,0.4-0.1,0.7-0.1,0.8c0,0-0.1,0-0.2,0c-0.2,0-0.3-0.3-0.3-0.8
		s0.1-0.8,0.3-0.8c0.1,0,0.1,0,0.1,0C239.3,365.1,239.4,365.5,239.4,365.8z"/>
	<path display="none" fill="#7A7A7A" d="M239.4,358c0,0.4-0.1,0.7-0.1,0.8c0,0-0.1,0-0.2,0c-0.2,0-0.3-0.4-0.3-0.8
		c0-0.5,0.1-0.8,0.3-0.8c0.1,0,0.1,0,0.1,0C239.3,357.3,239.4,357.6,239.4,358z"/>
	<path display="none" fill="#7A7A7A" d="M246.6,358.6c0,0.4-0.1,0.7-0.1,0.8c0,0-0.1,0-0.2,0c-0.2,0-0.4-0.3-0.4-0.8
		s0.1-0.8,0.4-0.8c0.1,0,0.1,0,0.1,0C246.4,357.9,246.6,358.3,246.6,358.6z"/>
	<path display="none" fill="#7A7A7A" d="M246.6,362.1c0,0.4-0.1,0.7-0.1,0.8c0,0-0.1,0-0.2,0c-0.2,0-0.4-0.3-0.4-0.8
		s0.1-0.8,0.4-0.8c0.1,0,0.1,0,0.1,0C246.4,361.4,246.6,361.8,246.6,362.1z"/>
	<path display="none" fill="#7A7A7A" d="M246.6,354.3c0,0.4-0.1,0.7-0.1,0.8c0,0-0.1,0-0.2,0c-0.2,0-0.4-0.4-0.4-0.8
		c0-0.5,0.1-0.8,0.4-0.8c0.1,0,0.1,0,0.1,0C246.4,353.6,246.6,353.9,246.6,354.3z"/>
	<path display="none" fill="#7A7A7A" d="M261.7,350.7c0,0.4-0.1,0.7-0.1,0.8c0,0-0.1,0-0.2,0c-0.2,0-0.4-0.4-0.4-0.8
		c0-0.5,0.1-0.8,0.4-0.8c0.1,0,0.1,0,0.1,0C261.5,350,261.7,350.4,261.7,350.7z"/>
	<path display="none" fill="#7A7A7A" d="M261.7,354.1c0,0.3-0.1,0.7-0.1,0.8c0,0-0.1,0-0.2,0c-0.2,0-0.4-0.4-0.4-0.8
		c0-0.5,0.1-0.8,0.4-0.8c0.1,0,0.1,0,0.1,0C261.5,353.4,261.7,353.9,261.7,354.1z"/>
	<path display="none" fill="#7A7A7A" d="M261.7,346.4c0,0.4-0.1,0.7-0.1,0.8c0,0-0.1,0-0.2,0c-0.2,0-0.4-0.3-0.4-0.8
		s0.1-0.8,0.4-0.8c0.1,0,0.1,0,0.1,0C261.5,345.7,261.7,346.1,261.7,346.4z"/>
	<polygon display="none" fill="#CCCCCC" points="190.3,359.1 188.4,360 222.6,365.7 222.7,364.4 	"/>
	<polygon display="none" fill="#CCCCCC" points="189.8,363.5 188,364.5 190.4,364.8 192.4,363.9 	"/>
	<polygon display="none" fill="#CCCCCC" points="219.6,367.7 217.7,368.7 220.2,369 222.1,368.1 	"/>
	<polygon display="none" fill="#CCCCCC" points="196.8,369.9 191.8,372.5 193.1,372.6 198,370.2 	"/>
	<polygon display="none" fill="#CCCCCC" points="194.3,369.6 189.4,372 190.6,372.3 195.4,369.7 	"/>
	
		<polygon display="none" fill="#CCCCCC" stroke="#B2B2B2" stroke-linecap="round" stroke-linejoin="round" stroke-miterlimit="10" points="
		185.6,356.4 185.6,374.4 187.5,374.7 187.5,358.6 222.7,364.4 222.7,380.9 225.7,381.4 225.7,363.2 	"/>
	
		<polygon display="none" fill="#E5E5E5" stroke="#B2B2B2" stroke-linecap="round" stroke-linejoin="round" stroke-miterlimit="10" points="
		265.6,342.4 225.5,337.4 185.6,356.4 225.7,363.2 	"/>
	<path display="none" fill="#7A7A7A" d="M193.8,354.3l-4.4,2.2l36.6,5.4l4.3-2.2L193.8,354.3z M191.8,356.2l2.9-1.5l0.8,0.1
		l-2.9,1.5L191.8,356.2z M193.8,356.6l2.9-1.5l0.8,0.1l-2.9,1.5L193.8,356.6z M196,356.9l2.9-1.5l0.8,0.1l-2.9,1.5L196,356.9z
		 M197.9,357.2l2.9-1.5l0.8,0.1l-2.9,1.5L197.9,357.2z M200,357.4l2.9-1.5l0.8,0.1l-2.9,1.5L200,357.4z M202,357.8l2.9-1.5l0.8,0.1
		l-2.9,1.5L202,357.8z M204.1,358l2.9-1.5l0.8,0.1l-2.9,1.5L204.1,358z M206.2,358.3l2.9-1.5l0.8,0.1l-2.9,1.5L206.2,358.3z
		 M208.1,358.6l2.9-1.5l0.8,0.1l-2.9,1.5L208.1,358.6z M210.3,359l2.9-1.5l0.8,0.1l-2.9,1.5L210.3,359z M212.2,359.2l2.9-1.5
		l0.8,0.1l-2.9,1.5L212.2,359.2z M214.3,359.5l2.9-1.5l0.8,0.1l-2.9,1.5L214.3,359.5z M216.2,359.9l2.9-1.5l0.8,0.1l-2.9,1.5
		L216.2,359.9z M218.3,360.1l2.9-1.5l0.8,0.1l-2.9,1.5L218.3,360.1z M220.4,360.4l2.9-1.5l0.8,0.1l-2.9,1.5L220.4,360.4z
		 M222.4,360.7l2.9-1.5l0.8,0.1l-2.9,1.5L222.4,360.7z M225.2,361.2l-0.8-0.1l2.9-1.5l0.8,0.1L225.2,361.2z"/>
	<path display="none" fill="#7A7A7A" d="M200.1,351l-4.3,2.2l36.5,5l4.3-2.2L200.1,351z M198.2,353.1l2.9-1.5l0.8,0.1l-2.9,1.5
		L198.2,353.1z M200.1,353.4l2.9-1.5l0.8,0.1l-2.9,1.5L200.1,353.4z M202.3,353.6l2.9-1.5l0.8,0.1l-2.9,1.5L202.3,353.6z
		 M204.3,353.9l2.9-1.5l0.8,0.1l-2.9,1.5L204.3,353.9z M206.3,354.2l2.9-1.5l0.8,0.1l-2.9,1.5L206.3,354.2z M208.3,354.5l2.9-1.5
		l0.8,0.1l-2.9,1.5L208.3,354.5z M210.4,354.8l2.9-1.5l0.8,0.1l-2.9,1.5L210.4,354.8z M212.5,355l2.9-1.5l0.8,0.1l-2.9,1.5
		L212.5,355z M214.3,355.3l2.9-1.5l0.8,0.1l-2.9,1.5L214.3,355.3z M216.5,355.6l2.9-1.5l0.8,0.1l-2.9,1.5L216.5,355.6z M218.4,355.8
		l2.9-1.5l0.8,0.1l-2.9,1.5L218.4,355.8z M220.6,356.1l2.9-1.5l0.8,0.1l-2.9,1.5L220.6,356.1z M222.5,356.4l2.9-1.5l0.8,0.1
		l-2.9,1.5L222.5,356.4z M224.5,356.6l2.9-1.5l0.8,0.1l-2.9,1.5L224.5,356.6z M226.7,356.9l2.9-1.5l0.8,0.1l-2.9,1.5L226.7,356.9z
		 M228.6,357.2l2.9-1.5l0.8,0.1l-2.9,1.5L228.6,357.2z M231.4,357.6l-0.8-0.1l2.9-1.5l0.8,0.1L231.4,357.6z"/>
	<path display="none" fill="#7A7A7A" d="M206.4,347.9l-4.3,2.2l36.3,5l4.2-2.2L206.4,347.9z M204.5,349.9l2.9-1.5l0.8,0.1l-2.9,1.5
		L204.5,349.9z M206.4,350.2l2.9-1.5l0.8,0.1l-2.9,1.5L206.4,350.2z M208.7,350.5l2.9-1.5l0.8,0.1l-2.9,1.5L208.7,350.5z
		 M210.6,350.8l2.9-1.5l0.8,0.1l-2.9,1.5L210.6,350.8z M212.6,351l2.9-1.5l0.8,0.1l-2.9,1.5L212.6,351z M214.6,351.3l2.9-1.5
		l0.8,0.1l-2.9,1.5L214.6,351.3z M216.6,351.5l2.9-1.5l0.8,0.1l-2.9,1.5L216.6,351.5z M218.7,351.8l2.9-1.5l0.8,0.1l-2.9,1.5
		L218.7,351.8z M220.6,352.1l2.9-1.5l0.8,0.1l-2.9,1.5L220.6,352.1z M222.8,352.4l2.9-1.5l0.8,0.1l-2.9,1.5L222.8,352.4z
		 M224.6,352.7l2.9-1.5l0.8,0.1l-2.9,1.5L224.6,352.7z M226.8,352.9l2.9-1.5l0.8,0.1l-2.9,1.5L226.8,352.9z M228.7,353.2l2.9-1.5
		l0.8,0.1l-2.9,1.5L228.7,353.2z M230.7,353.5l2.9-1.5l0.8,0.1l-2.9,1.5L230.7,353.5z M232.9,353.8l2.9-1.5l0.8,0.1l-2.9,1.5
		L232.9,353.8z M234.8,354.1l2.9-1.5l0.8,0.1l-2.9,1.5L234.8,354.1z M237.6,354.4l-0.8-0.1l2.9-1.5l0.8,0.1L237.6,354.4z"/>
	<path display="none" fill="#7A7A7A" d="M212.7,344.8l-4.3,2.2l36.1,4.8l4.2-2.2L212.7,344.8z M210.8,346.8l2.9-1.5l0.8,0.1
		l-2.9,1.5L210.8,346.8z M212.7,347.1l2.9-1.5l0.8,0.1l-2.9,1.5L212.7,347.1z M214.9,347.3l2.9-1.5l0.8,0.1l-2.9,1.5L214.9,347.3z
		 M216.8,347.6l2.9-1.5l0.8,0.1l-2.9,1.5L216.8,347.6z M218.8,347.8l2.9-1.5l0.8,0.1l-2.9,1.5L218.8,347.8z M220.9,348.1l2.9-1.5
		l0.8,0.1l-2.9,1.5L220.9,348.1z M222.9,348.3l2.9-1.5l0.8,0.1l-2.9,1.5L222.9,348.3z M224.9,348.6l2.9-1.5l0.8,0.1l-2.9,1.5
		L224.9,348.6z M226.9,348.9l2.9-1.5l0.8,0.1l-2.9,1.5L226.9,348.9z M229,349.2l2.9-1.5l0.8,0.1l-2.9,1.5L229,349.2z M230.9,349.4
		l2.9-1.5l0.8,0.1l-2.9,1.5L230.9,349.4z M233,349.6l2.9-1.5l0.8,0.1l-2.9,1.5L233,349.6z M234.9,349.9l2.9-1.5l0.8,0.1l-2.9,1.5
		L234.9,349.9z M236.9,350.2l2.9-1.5l0.8,0.1l-2.9,1.5L236.9,350.2z M239.1,350.5l2.9-1.5l0.8,0.1l-2.9,1.5L239.1,350.5z
		 M240.9,350.8l2.9-1.5l0.8,0.1l-2.9,1.5L240.9,350.8z M243.8,351.1l-0.8-0.1l2.9-1.5l0.8,0.1L243.8,351.1z"/>
	<path display="none" fill="#7A7A7A" d="M219.2,341.5l-4.3,2.2l36,4.8l4.2-2.2L219.2,341.5z M217.3,343.5l2.9-1.5l0.8,0.1l-2.9,1.5
		L217.3,343.5z M219.2,343.8l2.9-1.5l0.8,0.1l-2.9,1.5L219.2,343.8z M221.4,344l2.9-1.5l0.8,0.1l-2.9,1.5L221.4,344z M223.3,344.3
		l2.9-1.5l0.8,0.1l-2.9,1.5L223.3,344.3z M225.3,344.5l2.9-1.5l0.8,0.1l-2.9,1.5L225.3,344.5z M227.4,344.8l2.9-1.5l0.8,0.1
		l-2.9,1.5L227.4,344.8z M229.3,345.1l2.9-1.5l0.8,0.1l-2.9,1.5L229.3,345.1z M231.4,345.3l2.9-1.5l0.8,0.1l-2.9,1.5L231.4,345.3z
		 M233.3,345.6l2.9-1.5l0.8,0.1l-2.9,1.5L233.3,345.6z M235.4,345.9l2.9-1.5l0.8,0.1l-2.9,1.5L235.4,345.9z M237.2,346.1l2.9-1.5
		l0.8,0.1l-2.9,1.5L237.2,346.1z M239.4,346.4l2.9-1.5l0.8,0.1l-2.9,1.5L239.4,346.4z M241.2,346.6l2.9-1.5l0.8,0.1l-2.9,1.5
		L241.2,346.6z M243.3,346.9l2.9-1.5l0.8,0.1l-2.9,1.5L243.3,346.9z M245.4,347.2l2.9-1.5l0.8,0.1l-2.9,1.5L245.4,347.2z
		 M247.3,347.5l2.9-1.5l0.8,0.1l-2.9,1.5L247.3,347.5z M250.1,347.8l-0.8-0.1l2.9-1.5l0.8,0.1L250.1,347.8z"/>
	<path display="none" fill="#7A7A7A" d="M225.3,338.5l-4.3,2.2l35.8,4.6l4.1-2.2L225.3,338.5z M223.3,340.5l2.9-1.5l0.8,0.1
		l-2.9,1.5L223.3,340.5z M225.3,340.8l2.9-1.5l0.8,0.1l-2.9,1.5L225.3,340.8z M227.4,341l2.9-1.5l0.8,0.1l-2.9,1.5L227.4,341z
		 M229.3,341.3l2.9-1.5l0.8,0.1l-2.9,1.5L229.3,341.3z M231.3,341.5l2.9-1.5l0.8,0.1l-2.9,1.5L231.3,341.5z M233.3,341.8l2.9-1.5
		l0.8,0.1l-2.9,1.5L233.3,341.8z M235.3,342l2.9-1.5l0.8,0.1l-2.9,1.5L235.3,342z M237.3,342.3l2.9-1.5l0.8,0.1l-2.9,1.5
		L237.3,342.3z M239.2,342.6l2.9-1.5l0.8,0.1l-2.9,1.5L239.2,342.6z M241.4,342.9l2.9-1.5l0.8,0.1l-2.9,1.5L241.4,342.9z
		 M243.2,343.1l2.9-1.5l0.8,0.1l-2.9,1.5L243.2,343.1z M245.3,343.4l2.9-1.5l0.8,0.1l-2.9,1.5L245.3,343.4z M247.2,343.6l2.9-1.5
		l0.8,0.1l-2.9,1.5L247.2,343.6z M249.1,343.8l2.9-1.5l0.8,0.1L250,344L249.1,343.8z M251.3,344.1l2.9-1.5l0.8,0.1l-2.9,1.5
		L251.3,344.1z M253.1,344.3l2.9-1.5l0.8,0.1l-2.9,1.5L253.1,344.3z M255.9,344.8l-0.8-0.1l2.9-1.5l0.8,0.1L255.9,344.8z"/>
	<g display="none">
		<polygon display="inline" fill="#E5E5E5" points="272.8,325.1 273.6,325.4 278.5,324.2 		"/>
		<path display="inline" fill="#E5E5E5" d="M291.6,323.8c0-0.2-0.1-0.4-0.3-0.6l-7.6,0.1l6.5-0.8c-0.3-0.1-0.7-0.3-1.1-0.4l-4.8,1
			l2.8-1.4c-0.8-0.1-1.8-0.2-2.7-0.3l-1.8,1.2l1.3-1.2c-0.6-0.1-1.3-0.1-2-0.1c-4.3,0-8,0.7-9.3,1.8l7.7,0.5c0,0-0.2,0.1-0.3,0.1
			h-7.8c0,0.1,0,0.1,0,0.1c0,0.1,0.1,0.3,0.1,0.4l7.8-0.5c-0.1,0.1-0.1,0.3,0.5,0.4L276,326c0.6,0.1,1.3,0.2,1.9,0.3l1.4-0.6
			l0.2,0.8c0.6,0.1,1.2,0.1,1.9,0.1l-0.1-1.1l0.8,1.1c1.4,0,2.7-0.1,3.9-0.2l-0.4-0.4c0,0,1.2,0.2,2.7,0.1c1.5-0.4,2.6-0.8,3.1-1.3
			c-4.1-0.3-7.2-0.5-7.2-0.5L291.6,323.8z M282.1,324c-0.8,0-1.5-0.1-1.5-0.4s0.6-0.4,1.5-0.4s1.5,0.1,1.5,0.4
			C283.6,323.8,282.9,324,282.1,324z"/>
	</g>
	<ellipse display="none" fill="#7A7A7A" cx="297.1" cy="316.1" rx="10.6" ry="3"/>
	<g display="none">
		<polygon display="inline" fill="#E5E5E5" points="306.3,317.3 305.5,317.6 300.6,316.5 		"/>
		<path display="inline" fill="#E5E5E5" d="M295.1,316.3c0,0-3,0.2-7.1,0.5c0.5,0.5,1.5,1,3.1,1.3c1.5,0.2,2.7-0.1,2.7-0.1l-0.4,0.4
			c1.2,0.1,2.5,0.2,3.9,0.2l0.8-1.1l-0.1,1.1c0.6,0,1.3,0,1.8-0.1l0.1-0.8l1.4,0.6c0.7-0.1,1.3-0.2,1.9-0.3l-4.5-1.8
			c0.6-0.1,0.6-0.2,0.5-0.3l7.6,0.5c0.1-0.1,0.1-0.3,0.1-0.4c0-0.1,0-0.1,0-0.1H299c-0.1-0.1-0.2-0.1-0.3-0.1l7.6-0.4
			c-1.3-1-4.9-1.8-9.2-1.8c-0.7,0-1.3,0-2,0.1l1.3,1.2l-1.8-1.2c-1,0.1-1.9,0.1-2.7,0.3l2.7,1.4l-4.8-1c-0.4,0.1-0.8,0.2-1.1,0.3
			l6.4,0.8l-7.6-0.1c-0.2,0.2-0.3,0.4-0.3,0.6L295.1,316.3z M295.7,315.9c0-0.2,0.6-0.3,1.5-0.3c0.8,0,1.5,0.1,1.5,0.3
			s-0.6,0.4-1.5,0.4C296.3,316.3,295.7,316.1,295.7,315.9z"/>
	</g>
	<g display="none">
		<polygon display="inline" fill="#CCCCCC" points="293.4,309.8 294.1,309.1 317.2,311.9 317.2,312.7 		"/>
		<g display="inline">
			<path fill="#CCCCCC" d="M294.3,309.5l22.6,2.7v0.1L294.3,309.5L294.3,309.5 M294,308.8l-1.4,1.3l25,2.9l-0.1-1.5L294,308.8
				L294,308.8z"/>
		</g>
	</g>
	<g display="none">
		<polygon display="inline" fill="#7A7A7A" points="317.7,313.5 327.5,308.5 326.3,307.4 302.6,304.6 294,308.8 317.5,311.6 		"/>
	</g>
	<g display="none">
		<polygon display="inline" fill="#7A7A7A" points="292,310.8 318.1,313.9 327.5,309.1 327.5,308.5 317.7,313.5 317.6,313 
			292.6,310.1 		"/>
	</g>
	<polygon display="none" fill="#CCCCCC" points="385.1,295.9 370.4,288.5 289.8,330.6 302.5,339.5 	"/>
	<polygon display="none" fill="#7A7A7A" points="304.4,338.6 312.3,334.4 301.1,327.5 293.2,331.7 	"/>
	<polygon display="none" fill="#7A7A7A" points="314.4,333.3 322.3,329.1 311.2,322.4 303.3,326.4 	"/>
	<polygon display="none" fill="#7A7A7A" points="323.7,328.4 331.6,324.2 320.5,317.4 312.6,321.4 	"/>
</g>
<g id="Top_Flap_Near">
</g>
<g id="Air_Conditioning_Unit">
</g>
<g id="Cannister_Headlight">
	<g display="none">
		<g display="inline">
			<path fill="#FFFFFF" stroke="#000000" stroke-width="0.5" stroke-miterlimit="10" d="M152.8,489.6c-0.1-0.6-0.8-1.2-1.3-1.2
				c-0.1,0-0.1,0-0.3,0.1c-0.1,0.1-11.6,6.4-12,6.6c-0.4,0.2-0.6,0.6-0.5,1.2c0.1,0.6,0.8,1.2,1.3,1.2c0.1,0,0.4,0,0.6-0.2
				c0.2-0.1,11.7-6.6,11.8-6.7C152.8,490.6,153,490.1,152.8,489.6z"/>
		</g>
		<g display="inline">
			<path fill="#FFFFFF" stroke="#000000" stroke-width="0.5" stroke-miterlimit="10" d="M160.3,481.6c-0.1-0.6-0.8-1.2-1.3-1.2
				c-0.1,0-0.1,0-0.3,0.1c-0.1,0.1-11.6,6.4-12,6.6c-0.4,0.2-0.6,0.6-0.5,1.2c0.1,0.6,0.7,1,1.3,1.2c0.1,0,0.3,0,0.6-0.2
				c0.2-0.1,11.7-6.6,11.8-6.6C160.2,482.5,160.4,482.1,160.3,481.6z"/>
		</g>
		<g display="inline">
			<path fill="#FFFFFF" stroke="#000000" stroke-width="0.5" stroke-miterlimit="10" d="M141,496.6c-0.3-1.1-1.3-2-2.2-2
				c-0.1,0-0.3,0-0.5,0.1c-0.1,0.1-1.8,1-2.4,1.4c-0.6,0.4-1,1.1-0.8,2c0.3,1.1,1.3,2,2.2,2c0.1,0,0.6-0.1,1-0.3
				c0.3-0.1,1.9-1.2,2-1.3C140.8,498.2,141.2,497.5,141,496.6z"/>
			<polygon fill="#FFFFFF" stroke="#000000" stroke-width="0.5" stroke-miterlimit="10" points="136.2,499 135.9,498.9 135.9,497 
				136.2,497.1 			"/>
			<polygon fill="#FFFFFF" stroke="#000000" stroke-width="0.5" stroke-miterlimit="10" points="137,499 136.7,499 136.7,497.1 
				137,497.2 			"/>
			<path fill="#FFFFFF" stroke="#000000" stroke-width="0.5" stroke-miterlimit="10" d="M138.5,498.1c0.3,1.1-0.3,2-1.3,2
				c-1,0-2-0.9-2.2-2c-0.3-1,0.3-2,1.3-2C137.2,496.2,138.3,497,138.5,498.1z"/>
			<polygon fill="#FFFFFF" stroke="#000000" stroke-width="0.5" stroke-miterlimit="10" points="136.2,499 136.2,497.1 136,497.1 
				136,498.9 			"/>
			<polygon fill="#FFFFFF" stroke="#000000" stroke-width="0.5" stroke-miterlimit="10" points="137,499 137,497.3 136.9,497.3 
				136.9,499 			"/>
			<g>
				<g>
					<polygon fill="#FFFFFF" points="135.5,499.1 135.5,497.5 136.3,497 136.3,497 136.3,498.6 					"/>
					<path d="M136.2,497.3v1.3l-0.4,0.3v-1.3L136.2,497.3 M136.2,496.9l-0.9,0.5v1.9l0.2,0.1l0.9-0.5v-1.9L136.2,496.9L136.2,496.9z
						"/>
				</g>
				<g>
					<polygon fill="#FFFFFF" points="135.6,499.2 135.3,499.2 135.3,497.4 135.6,497.4 					"/>
					<polygon points="135.3,497.4 135.3,499.2 135.6,499.2 135.6,497.4 					"/>
				</g>
				<g>
					<polygon fill="#FFFFFF" points="135.6,497.4 136.5,496.9 136.2,496.9 135.3,497.4 					"/>
					<polygon points="136.2,496.9 135.3,497.4 135.6,497.4 136.5,496.9 					"/>
				</g>
				<g>
					<polygon fill="#FFFFFF" points="135.7,497.5 136.3,497.2 136.3,498.6 135.7,499 					"/>
					<path d="M136.2,497.5v1.1l-0.2,0.1v-1.1L136.2,497.5 M136.5,496.9l-0.9,0.5v1.9l0.9-0.5V496.9L136.5,496.9z"/>
				</g>
			</g>
			<g>
				<g>
					<polygon fill="#FFFFFF" points="136.2,499.2 136.2,497.6 137,497.2 137,497.2 137,498.8 136.3,499.2 					"/>
					<path d="M136.9,497.5v1.3l-0.4,0.3v-1.3L136.9,497.5 M137,497l-0.9,0.5v1.9l0.2,0.1l0.9-0.5v-1.9L137,497L137,497z"/>
				</g>
				<g>
					<polygon fill="#FFFFFF" points="136.3,499.4 136.1,499.4 136.1,497.6 136.3,497.6 					"/>
					<polygon points="136.1,497.6 136.1,499.4 136.3,499.4 136.3,497.6 					"/>
				</g>
				<g>
					<polygon fill="#FFFFFF" points="136.3,497.6 137.2,497.1 137,497 136.1,497.6 					"/>
					<polygon points="137,497 136.1,497.6 136.3,497.6 137.2,497.1 					"/>
				</g>
				<g>
					<polygon fill="#FFFFFF" points="136.5,497.7 137,497.4 137,498.8 136.5,499.1 					"/>
					<path d="M136.9,497.6v1.1l-0.2,0.1v-1L136.9,497.6 M137.2,497.1l-0.9,0.5v1.9l0.9-0.5V497.1L137.2,497.1z"/>
				</g>
			</g>
		</g>
		<path display="inline" fill="#FFFFFF" stroke="#000000" stroke-width="0.5" stroke-miterlimit="10" d="M138.5,498.1
			c-0.3-1.1-1.3-2-2.2-2c-0.1,0-0.3,0-0.5,0.1c-0.1,0.1-1.8,1-2.4,1.4c-0.6,0.4-1,1-0.8,2c0.3,1.1,1.3,2,2.2,2
			c0.1,0,0.6-0.1,1.1-0.3c0.3-0.1,1.9-1.2,2-1.3C138.4,499.7,138.7,499,138.5,498.1z"/>
		<path display="inline" fill="#FFFFFF" stroke="#000000" stroke-width="0.5" stroke-miterlimit="10" d="M137.5,500.6
			c0-2.7-2.6-5-5.2-4.3c-0.9,0.2-4.2,1.2-4.2,1.2l4.1,10c0,0,2.7-2.4,4.1-3.6C137.1,503.1,137.5,501.9,137.5,500.6z"/>
		<path display="inline" fill="#B2B2B2" d="M133.7,503c0.6,2.1,0,3.9-1.3,4.9l-1.4,0.8c-0.3,0.1-0.8,0-1.1,0c-2.9,0-5.9-2.5-6.7-5.7
			c-0.5-1.8-0.1-3.6,0.8-4.7l1.5-0.9c0.4-0.1,0.9-0.1,1.5-0.1C129.9,497.4,132.9,499.9,133.7,503z"/>
		<path display="inline" fill="#CCCCCC" d="M132.6,503.6c0.8,3.1-0.8,5.7-3.8,5.7c-2.9,0-5.9-2.5-6.7-5.7c-0.8-3.1,0.8-5.7,3.8-5.7
			C128.7,498,131.8,500.5,132.6,503.6z"/>
		<path display="inline" fill="#E5E5E5" d="M131.2,503.6c0.6,2.4-0.6,4.3-2.7,4.3c-2.1,0-4.3-2-4.9-4.3c-0.6-2.4,0.6-4.3,2.7-4.3
			C128.4,499.2,130.6,501.2,131.2,503.6z"/>
		<path display="inline" fill="#FFFFFF" d="M148.9,487.5l1.6,0.4c2.2,0.6,2.2,1.6,2.2,1.6l-2.6,1c0,0-0.2-1.1-2.5-1.1L148.9,487.5z"
			/>
		
			<path display="inline" fill="none" stroke="#000000" stroke-width="0.5" stroke-linecap="round" stroke-linejoin="round" stroke-miterlimit="10" d="
			M150.2,490.6c0,0-0.2-1.1-2.5-1.1"/>
		<path display="inline" fill="none" stroke="#000000" stroke-width="0.5" stroke-linecap="round" stroke-miterlimit="10" d="
			M150.6,488c2.2,0.5,2.2,1.7,2.2,1.7"/>
		
			<line display="inline" fill="none" stroke="#000000" stroke-width="0.5" stroke-linecap="round" stroke-miterlimit="10" x1="148.9" y1="487.5" x2="150.6" y2="488"/>
	</g>
	<g display="none">
		<g display="inline">
			<path fill="#FFFFFF" stroke="#000000" stroke-width="0.5347" stroke-miterlimit="10" d="M212.7,500.2c-0.2-0.6-0.8-1.2-1.5-1.2
				c-0.1,0-0.2,0-0.4,0.1c-0.1,0.1-13.3,6.4-13.7,6.6c-0.4,0.2-0.7,0.6-0.6,1.2c0.2,0.6,0.8,1.2,1.5,1.2c0.1,0,0.4,0,0.7-0.2
				c0.2-0.1,13.4-6.6,13.4-6.6C212.7,501.1,212.9,500.7,212.7,500.2z"/>
		</g>
		<g display="inline">
			<path fill="#FFFFFF" stroke="#000000" stroke-width="0.5347" stroke-miterlimit="10" d="M221.3,492.2c-0.2-0.6-0.8-1.2-1.5-1.2
				c-0.1,0-0.2,0-0.3,0.1c-0.1,0.1-13.3,6.4-13.7,6.6c-0.4,0.2-0.7,0.6-0.6,1.2c0.2,0.6,0.8,1.1,1.5,1.2c0.1,0,0.4,0,0.7-0.2
				c0.2-0.1,13.4-6.6,13.4-6.6C221.2,493.1,221.5,492.7,221.3,492.2z"/>
		</g>
		<g display="inline">
			<path fill="#FFFFFF" stroke="#000000" stroke-width="0.5347" stroke-miterlimit="10" d="M199.2,507.2c-0.3-1.1-1.5-2-2.5-2
				c-0.2,0-0.4,0-0.6,0.1c-0.2,0.1-2,1-2.8,1.4s-1.2,1-0.9,2c0.3,1.1,1.5,2,2.5,2c0.2,0,0.7-0.1,1.2-0.3c0.4-0.1,2.2-1.2,2.3-1.3
				C199,508.8,199.4,508.1,199.2,507.2z"/>
			<polygon fill="#FFFFFF" stroke="#000000" stroke-width="0.5347" stroke-miterlimit="10" points="193.7,509.5 193.4,509.5 
				193.4,507.6 193.7,507.6 			"/>
			<polygon fill="#FFFFFF" stroke="#000000" stroke-width="0.5347" stroke-miterlimit="10" points="194.6,509.6 194.3,509.6 
				194.3,507.7 194.6,507.8 			"/>
			<path fill="#FFFFFF" stroke="#000000" stroke-width="0.5347" stroke-miterlimit="10" d="M196.4,508.7c0.3,1-0.4,2-1.4,2
				c-1.1,0-2.2-0.9-2.5-2s0.3-2,1.4-2S196,507.6,196.4,508.7z"/>
			<polygon fill="#FFFFFF" stroke="#000000" stroke-width="0.5347" stroke-miterlimit="10" points="193.7,509.5 193.7,507.7 
				193.6,507.7 193.6,509.5 			"/>
			<polygon fill="#FFFFFF" stroke="#000000" stroke-width="0.5347" stroke-miterlimit="10" points="194.6,509.6 194.6,507.9 
				194.5,507.9 194.5,509.6 			"/>
			<g>
				<g>
					<polygon fill="#FFFFFF" points="192.9,509.6 192.9,508.1 193.8,507.6 193.8,507.6 193.8,509.2 193,509.7 					"/>
					<path d="M193.7,507.9v1.2l-0.6,0.3v-1.2L193.7,507.9 M193.8,507.4l-1.1,0.5v1.9l0.3,0.1l1.1-0.5v-1.9L193.8,507.4L193.8,507.4z
						"/>
				</g>
				<g>
					<polygon fill="#FFFFFF" points="193,509.8 192.7,509.8 192.7,507.9 193,508 					"/>
					<polygon points="192.7,507.9 192.7,509.8 193,509.8 193,508 					"/>
				</g>
				<g>
					<polygon fill="#FFFFFF" points="193,508 194.1,507.4 193.8,507.4 192.7,507.9 					"/>
					<polygon points="193.8,507.4 192.7,507.9 193,508 194.1,507.4 					"/>
				</g>
				<g>
					<polygon fill="#FFFFFF" points="193.2,508.1 193.8,507.8 193.8,509.2 193.2,509.5 					"/>
					<path d="M193.7,508.1v1l-0.3,0.1v-1.1L193.7,508.1 M194.1,507.4l-1.1,0.5v1.9l1.1-0.5V507.4L194.1,507.4z"/>
				</g>
			</g>
			<g>
				<g>
					<polygon fill="#FFFFFF" points="193.8,509.8 193.8,508.2 194.6,507.8 194.7,507.8 194.7,509.4 193.8,509.8 					"/>
					<path d="M194.5,508.1v1.2l-0.6,0.3v-1.2L194.5,508.1 M194.6,507.6l-1.1,0.5v1.9l0.3,0.1l1.1-0.5v-1.9L194.6,507.6L194.6,507.6z
						"/>
				</g>
				<g>
					<polygon fill="#FFFFFF" points="193.8,510 193.6,509.9 193.6,508.1 193.8,508.1 					"/>
					<polygon points="193.6,508.1 193.6,509.9 193.8,510 193.8,508.1 					"/>
				</g>
				<g>
					<polygon fill="#FFFFFF" points="193.8,508.1 194.9,507.6 194.6,507.6 193.6,508.1 					"/>
					<polygon points="194.6,507.6 193.6,508.1 193.8,508.1 194.9,507.6 					"/>
				</g>
				<g>
					<polygon fill="#FFFFFF" points="194.1,508.3 194.7,507.9 194.7,509.4 194.1,509.7 					"/>
					<path d="M194.5,508.3v1l-0.3,0.1v-1.1L194.5,508.3 M194.9,507.6l-1.1,0.5v1.9l1.1-0.5V507.6L194.9,507.6z"/>
				</g>
			</g>
		</g>
		<path display="inline" fill="#FFFFFF" stroke="#000000" stroke-width="0.5347" stroke-miterlimit="10" d="M196.4,508.7
			c-0.3-1.1-1.5-2-2.5-2c-0.2,0-0.4,0-0.6,0.1c-0.2,0.1-2,1-2.8,1.4s-1.2,1.1-0.9,2c0.3,1.1,1.5,2,2.5,2c0.2,0,0.7-0.1,1.2-0.3
			c0.3-0.1,2.2-1.2,2.3-1.3C196.2,510.2,196.6,509.5,196.4,508.7z"/>
		<path display="inline" fill="#FFFFFF" stroke="#000000" stroke-width="0.5347" stroke-miterlimit="10" d="M195.2,511.1
			c0-2.7-2.9-5-6-4.3c-1,0.2-4.8,1.2-4.8,1.2l4.8,10c0,0,3.2-2.4,4.8-3.6C194.8,513.7,195.2,512.5,195.2,511.1z"/>
		<path display="inline" fill="#B2B2B2" d="M190.8,513.6c0.6,2.1,0,3.9-1.5,4.9l-1.5,0.8c-0.3,0.1-1,0-1.3,0c-3.3,0-6.8-2.5-7.7-5.7
			c-0.6-1.8-0.1-3.6,0.9-4.7l1.7-0.9c0.5-0.1,1.1-0.1,1.7-0.1C186.5,507.9,189.9,510.4,190.8,513.6z"/>
		<path display="inline" fill="#CCCCCC" d="M189.6,514.2c0.9,3.2-1,5.7-4.3,5.7s-6.8-2.5-7.7-5.7c-0.9-3.1,1-5.7,4.3-5.7
			C185.2,508.5,188.7,511.1,189.6,514.2z"/>
		<path display="inline" fill="#E5E5E5" d="M188,514.1c0.7,2.4-0.7,4.3-3.2,4.3s-5-2-5.6-4.3c-0.6-2.4,0.7-4.3,3.1-4.3
			S187.3,511.8,188,514.1z"/>
		<path display="inline" fill="#FFFFFF" d="M208.3,498.2l1.8,0.4c2.6,0.6,2.5,1.6,2.5,1.6l-3,1c0,0-0.3-1-2.9-1L208.3,498.2z"/>
		
			<path display="inline" fill="none" stroke="#000000" stroke-width="0.5347" stroke-linecap="round" stroke-linejoin="round" stroke-miterlimit="10" d="
			M209.7,501.1c0,0-0.3-1-2.9-1"/>
		<path display="inline" fill="none" stroke="#000000" stroke-width="0.5347" stroke-linecap="round" stroke-miterlimit="10" d="
			M210.1,498.5c2.4,0.5,2.6,1.7,2.6,1.7"/>
		
			<line display="inline" fill="none" stroke="#000000" stroke-width="0.5347" stroke-linecap="round" stroke-miterlimit="10" x1="208.3" y1="498.2" x2="210.1" y2="498.5"/>
	</g>
	<path display="none" fill="#FFFFFF" stroke="#000000" stroke-width="0.5" stroke-miterlimit="10" d="M136,499.6
		c0.3,1.1-0.3,2-1.3,2c-1,0-2-0.9-2.2-2c-0.3-1,0.3-2,1.3-2C134.8,497.6,135.7,498.5,136,499.6z"/>
	<path display="none" fill="#4C4C4C" d="M127.4,515.4c-0.5-2-2.3-3.8-4.1-4.1s-2.7,1.3-2.2,3.4c0.2,0.8,0.6,1.5,1.1,2.2
		c0.8,0.7,1.8,1.1,2.7,1.1c1.2,0,2.2-0.7,2.7-1.7C127.5,516,127.5,515.8,127.4,515.4z"/>
	<path display="none" fill="#4C4C4C" d="M135.7,517c-0.5-2-2.3-3.9-4.1-4.1c-1.8-0.2-2.7,1.3-2.2,3.4c0.2,0.8,0.6,1.5,1.1,2.2
		c0.8,0.7,1.8,1.1,2.7,1c1.2,0,2.2-0.7,2.7-1.7C135.7,517.5,135.7,517.2,135.7,517z"/>
	<path display="none" fill="#E5E5E5" d="M122.6,514.2c-0.4-1.5,0.4-2.7,1.8-2.7c1.4,0,2.8,1.2,3.2,2.7c0.4,1.5-0.4,2.7-1.8,2.7
		C124.5,517,123,515.8,122.6,514.2z"/>
	<path display="none" fill="#F7AFAD" d="M130.5,516.2c-0.4-1.5,0.4-2.7,1.8-2.7c1.4,0,2.8,1.2,3.2,2.7c0.4,1.5-0.4,2.7-1.8,2.7
		C132.3,518.8,130.9,517.6,130.5,516.2z"/>
	<path display="none" fill="#4C4C4C" d="M191,526.9c-0.5-2-2.3-3.9-4.1-4.1c-1.8-0.2-2.7,1.3-2.2,3.4c0.2,0.8,0.6,1.5,1.1,2.2
		c0.8,0.7,1.8,1.1,2.7,1c1.2,0,2.2-0.7,2.7-1.7C191.1,527.5,191.1,527.2,191,526.9z"/>
	<path display="none" fill="#4C4C4C" d="M182.9,525.4c-0.5-2-2.3-3.9-4.1-4.1c-1.8-0.2-2.7,1.3-2.2,3.4c0.2,0.8,0.6,1.5,1.1,2.2
		c0.8,0.7,1.8,1.1,2.7,1c1.2,0,2.2-0.7,2.7-1.7C183.1,526,183,525.7,182.9,525.4z"/>
	<path display="none" fill="#E5E5E5" d="M186.2,525.7c-0.4-1.5,0.4-2.7,1.8-2.7c1.4,0,2.8,1.2,3.2,2.7c0.4,1.5-0.4,2.7-1.8,2.7
		C188.1,528.4,186.6,527.2,186.2,525.7z"/>
	<path display="none" fill="#F7AFAD" d="M177.8,524.6c-0.4-1.5,0.4-2.7,1.8-2.7c1.4,0,2.8,1.2,3.2,2.7c0.4,1.5-0.4,2.7-1.8,2.7
		C179.6,527.3,178.2,526.1,177.8,524.6z"/>
</g>
<g id="_x30_1_Front_Panel">
	<path display="none" fill="#4C4C4C" d="M115.4,441.7c-0.8-0.1-3.6-0.6-3.6-0.6s-0.1-11.5-0.2-12.9c-0.1-1.4-1.2-2.1-2-2.6
		c-0.8-0.5-2.5-1.2-2.9-1.4s-3.4-0.1-3.4,4.8c0.1,4.9,0.2,7.2,0.5,9c0.3,1.8,3.9,5.3,6.2,5.7c2.4,0.4,5.2,0.8,5.2,0.8
		c0.8,0.1,1.5-0.6,1.5-1.5C116.7,442.4,116.1,441.8,115.4,441.7z"/>
	<path display="none" fill="#CCCCCC" d="M243.8,411.9c0,0-7-27.9-14-31.3l-4-0.9c-8.8-1.8-49.5-8.5-82.1-11.6
		c-12.8,7.5-29,29.3-30.9,66.9c-2.2,41.9,5.1,82.5,5.1,82.5s1.4,3.2,5.5,5.5c6.4,3.6,17.7,7.3,29.8,9.9c19.8,4.2,37.8,6.3,45.7,5.4
		c3.6-0.4,8.6-1.9,12.1-3.3c3.5-1.4,39.7-16.3,39.7-16.3L243.8,411.9z M125.2,518.8c-1.8-0.2-3.6-2-4.1-4.1s0.5-3.5,2.2-3.4
		c1.8,0.2,3.6,2,4.1,4.1S126.9,518.9,125.2,518.8z M121,503.6c-0.8-3.7,0.9-6.6,4-6.6s6.2,3,7.1,6.6c0.8,3.7-0.9,6.6-4,6.6
		C125.1,510.3,121.9,507.4,121,503.6z M133.2,520.3c-1.8-0.3-3.6-2.2-4.1-4.2c-0.5-2,0.5-3.5,2.2-3.2s3.6,2.2,4.1,4.2
		C136,519.2,135,520.6,133.2,520.3z M180.5,529.3c-1.8-0.2-3.7-2-4.2-4.2c-0.5-2.1,0.6-3.7,2.4-3.5c1.8,0.2,3.7,2,4.2,4.2
		C183.3,527.9,182.3,529.4,180.5,529.3z M180.5,506.7c3.1,0,6.4,3.1,7.4,6.9c0.9,3.8-1,6.9-4.1,6.9c-3.1,0-6.4-3.1-7.3-6.9
		C175.4,509.7,177.2,506.7,180.5,506.7z M188.9,530.9c-1.8-0.3-3.7-2.4-4.2-4.5c-0.5-2.2,0.6-3.6,2.4-3.4c1.8,0.4,3.7,2.4,4.2,4.5
		C191.8,529.8,190.8,531.2,188.9,530.9z M192.5,497.5c0,0-17.9,8.6-41.5,3.3c-28-6.3-35-19-35-19s-4.3-52.8,5.9-79.2l78.5,14.2
		C190.9,447.3,192.5,497.5,192.5,497.5z"/>
	<path display="none" fill="#262626" d="M230,530.7v-2.5h-0.8l-0.1,0.1v-0.9c0,0-11.1,4.6-20.5,8.3c-3.7,1.5-6.8,2-9.7,2.4
		c-10.1,1.3-29.1-1.8-45.7-5.4c-9.4-2-24.1-6.4-29.8-9.9c-4.6-2.8-5.9-6.7-5.9-6.7s-3.6,0.8-3.2,2.9c0,0.1,0,0.1,0,0.1H114v1.5
		l0.8,0.6c0.1,0.5,0.2,1,0.3,1.5h-0.3v1.5l0.8,0.6c0.1,0.4,0.1,0.8,0.2,1.2h-0.2v1.5l0.6,0.4c0.1,0.6,0.2,1.1,0.2,1.1
		s3.2,4.8,5.4,6.1c2.3,1.3,18,6.9,32.8,11.5c14.3,4.6,24.8,6.2,29.9,7.1c10.3,1.9,23.5-2.2,27.7-4.1c4.2-1.9,17.2-7.6,17.2-7.6V540
		l0.8-0.3v-2.5h-0.8l-0.1,0.1v-1.8l0.8-0.4v-2.4H229l-0.1,0.1v-1.8L230,530.7z"/>
</g>
<g id="_x30_3_-_Front_Panel_Windows">
	<path display="none" fill="#4C4C4C" d="M140.4,395.4c0.2,0.3,0.3,0.7,0.1,1l-1,2.8c-0.2,0.7-1.1,1.1-1.8,1l-6.4-1.2
		c-0.2-0.1-0.3-0.1-0.5-0.2c0.1,0.2,0.4,0.4,0.8,0.5l6.4,1.2c0.8,0.1,1.5-0.4,1.8-1l1-2.8C141.1,396.2,140.8,395.7,140.4,395.4z"/>
	<path display="none" fill="#4C4C4C" d="M170.9,387.4c1.5,1.6,1.9,4.8,0.5,8.7c-1.8,5.2-5.3,8.9-9.3,9.2c-1.4,0.1-2.6-0.4-3.5-1.1
		c0.9,1,2.2,1.5,3.8,1.4c4.1-0.3,7.5-4,9.3-9.2C173.2,392.3,172.6,389,170.9,387.4z"/>
	<path display="none" fill="#4C4C4C" d="M196.2,405.4c0.2,0.3,0.3,0.7,0.1,1.1l-1,2.9c-0.2,0.7-1.1,1.2-1.8,1.1l-6.2-1.1
		c-0.1,0-0.4-0.1-0.5-0.2c0.1,0.2,0.4,0.4,0.7,0.4l6.2,1.1c0.7,0.1,1.5-0.4,1.8-1.1l1-2.9C196.8,406.1,196.6,405.6,196.2,405.4z"/>
	<path display="none" fill="#4C4C4C" d="M176.8,378.9c0,0.1,0,0.1,0,0.1c0,0.8-1.3,1.8-2.9,2.1c-1.3,0.3-2.3,0.1-2.7-0.4
		c0.1,0.7,1.4,1,2.9,0.8c1.6-0.4,2.9-1.3,2.9-2.1C177,379.3,176.9,379,176.8,378.9z"/>
	<path display="none" fill="#262626" d="M243.9,481.1l-4-68.1c-21.5,5.4-35,18.9-35,82.8L243.9,481.1z"/>
	<polygon display="none" fill="#CCCCCC" points="239.1,439.5 241.1,481.7 243,481 239.3,413.8 238.4,414.2 239.8,437.9 	"/>
	<path display="none" fill="#4C4C4C" d="M200.5,416.7l-78.5-14.2c-10.3,26.4-5.9,79.2-5.9,79.2s7,12.7,35,19
		c23.7,5.3,41.5-3.3,41.5-3.3S190.9,447.3,200.5,416.7z"/>
	<path display="none" fill="#4C4C4C" d="M215.2,443.4l3.2,43.5l22-8.3l-0.9-16.8l-9.2,2.8l10.3-3.5l1.3,17.4l1.8,0.8l0.1,1.6
		l-38.8,14.9c0,0-7.6-77.2,35-82.9l0.1,0.8c0,0-23,4.3-28.4,28.6l28.2-10.2v0.8l-28.4,10c0,0-2.1,7.6-2.1,8.1s0.3,5.9,0.4,6.6
		c0.1,0.6-0.3,0.6-0.6,0.6c-0.3,0-1,0.1-1,0.1c-2.4,14.2-2.2,35.1-2.2,35.1l36.4-14l-1.4-0.6l-23.9,9.2l-2.4-44.6l-3.1,1.2l0.1-0.4
		l27.6-10.2v0.3L215.2,443.4z"/>
	<polygon display="none" fill="#CCCCCC" points="232.3,484.5 228.4,485.9 228.4,485.4 232.3,483.9 	"/>
	<polygon display="none" fill="#E5E5E5" points="218.4,487.5 219.8,488 241.9,479.4 240.8,479 	"/>
	<polygon display="none" fill="#CCCCCC" points="238.2,439.7 237.5,440 237.5,436.7 238.2,436.5 	"/>
	<path display="none" fill="#E5E5E5" d="M171.4,396.1c-1.8,5.2-5.3,8.9-9.3,9.2c-4,0.4-6.3-3.7-4.6-9c1.9-6,6.4-9.6,10.4-10
		C171.5,386,173.5,390.2,171.4,396.1z"/>
	<path display="none" fill="#E5E5E5" d="M193.7,410.4l-6.2-1.1c-0.7-0.1-1.1-0.8-0.8-1.5l1-2.9c0.2-0.7,1.1-1.2,1.8-1.1l6.2,1.1
		c0.7,0.1,1.1,0.8,0.8,1.5l-1,2.9C195.2,410.1,194.4,410.5,193.7,410.4z"/>
	<path display="none" fill="#CCCCCC" d="M166.9,388.4c-2.9,0.2-6.5,3.8-7.8,8c-1.4,4.2-0.1,7.4,2.9,7.1c2.9-0.2,6.5-3.8,7.8-8
		C171.2,391.3,169.9,388.1,166.9,388.4z M168.8,395.6c-1.1,3.4-4,6.3-6.4,6.5s-3.5-2.4-2.4-5.8c1.1-3.4,4-6.3,6.4-6.5
		S169.9,392.1,168.8,395.6z"/>
	<path display="none" fill="#B2B2B2" d="M166.5,389.8c-1.8,0.1-3.7,1.7-5.1,3.8l6.1,4.9c0.6-0.8,1.1-1.8,1.4-2.9
		C169.9,392.1,168.8,389.5,166.5,389.8z"/>
	<path display="none" fill="#B2B2B2" d="M193,408.4l-3.6-0.6c-0.4-0.1-0.6-0.4-0.4-0.8l0.2-0.7c0.1-0.4,0.6-0.6,0.9-0.6l3.6,0.6
		c0.4,0.1,0.6,0.4,0.4,0.8l-0.2,0.7C193.8,408.2,193.3,408.5,193,408.4z"/>
	<path display="none" fill="#E5E5E5" d="M151,500.7c-28-6.3-35-19-35-19l76.5,15.8C192.5,497.5,174.7,506,151,500.7z"/>
	<path display="none" fill="#4C4C4C" d="M224.5,425c0,0-0.5,0.1-0.7,0.1c-0.2,0.1-0.6,0.3-0.7,1.5c-0.1,1.2-0.3,5.7-0.3,6.4
		c0,0.6,0,1.3,0.7,1.3s0.7,0,0.7,0s-1.2,3-1.5,3.8c-0.3,0.8-1,4.4-1,4.4s-1.1,0.1-1.7,0.1c-0.6,0.1-1.3,0.6-1.3,2.9
		c0,2.2,0.4,12.6,0.6,14.1s0.5,2,1.8,2c1.3,0,6.3,0.1,7.1,0c0.8-0.1,2.3-0.6,2.2-2.5c-0.1-1.9-0.6-13.4-0.7-14.6
		c-0.1-1.2-0.8-2.2-2-2.2s-2.7-0.1-2.7-0.1l0.1-3c0,0,1.1-2,1.3-2.4s0.2-0.9,0.2-1.3c0-0.4,0.1-1.1,0.1-1.1s0.4-0.2,0.6-0.3
		c0.2-0.1,0.7-0.3,0.6-1.1s0-3.8,0-3.8l-0.6-0.3c0,0,0.1-0.6-0.1-1.2c-0.1-0.6-0.8-0.4-0.8-0.4s-0.6-0.1-0.7,0.6h-0.8
		c0,0-0.1-1.9-0.1-2.2C225.1,425.5,224.9,424.8,224.5,425z"/>
	<path display="none" fill="#7A7A7A" d="M229.1,460l-2.9-2.7c0,0-0.2-6.3-0.2-6.6c0-0.3-0.2-0.4-0.7-0.4s-3,0.2-3,0.2
		s-2.4-3.1-2.5-3.6c-0.1-0.5-0.1-1.5-0.1-2s0.4-1.8,0.4-1.8s-1.3-0.1-1.3,2.3s0.4,12.8,0.6,14.1s0.4,2,1.8,2c1.4,0.1,5.5,0.1,7.1,0
		C229.7,461.6,229.1,460,229.1,460z"/>
	<path display="none" fill="#E5E5E5" d="M137.9,400l-6.4-1.2c-0.8-0.1-1.1-0.8-0.9-1.5l1-2.8c0.2-0.7,1.1-1.1,1.8-1l6.4,1.2
		c0.8,0.1,1.1,0.8,0.9,1.5l-1,2.8C139.4,399.7,138.6,400.2,137.9,400z"/>
	<path display="none" fill="#E5E5E5" d="M176.8,379.1c0,0.8-1.3,1.8-2.9,2.1s-2.9-0.1-2.9-0.9c0-0.8,1.3-1.8,2.9-2.1
		S176.8,378.3,176.8,379.1z"/>
	<path display="none" fill="#C1272D" d="M175.4,378.2c0-0.4-0.6-0.6-1.3-0.6c-0.8,0-1.3,0.3-1.3,0.6l-0.7,1.5
		c0.1,0.4,0.6,0.6,1.3,0.6s1.1-0.1,1.3-0.6L175.4,378.2z"/>
	<path display="none" fill="#CCCCCC" d="M137.1,398.4l-3.6-0.7c-0.4-0.1-0.6-0.4-0.5-0.8l0.2-0.6c0.1-0.4,0.6-0.6,0.9-0.6l3.6,0.7
		c0.3,0.1,0.6,0.4,0.5,0.8l-0.2,0.6C137.8,398.2,137.4,398.4,137.1,398.4z"/>
	<ellipse display="none" fill="#C1272D" cx="192.7" cy="407.4" rx="1.2" ry="0.9"/>
	<ellipse display="none" fill="#CCCCCC" cx="190.3" cy="407" rx="1.2" ry="0.9"/>
	<ellipse display="none" fill="#CCCCCC" cx="136.8" cy="397.2" rx="1.2" ry="0.9"/>
	<ellipse display="none" fill="#C1272D" cx="134.3" cy="396.8" rx="1.2" ry="0.9"/>
	<path display="none" fill="#262626" d="M122.4,402.5c-2.7,10.6-4.5,25.5-4.5,25.5s26.6,5.2,28.3,5.4c1.7,0.3,6.7-1.8,7.1-2.1
		c0.8-0.4,2.2-0.8,3.5-0.5c1.2,0.3,2,1.5,2.4,2.1c0.2,0.4,1.8,3.2,3.8,3.7c2,0.6,32.3,6.2,32.3,6.2c1.1-8.9,5.2-26.1,5.2-26.1
		L122.4,402.5z"/>
	<path display="none" fill="#FFFFFF" d="M243.9,481.1c0,0-8.3,11.1-24.7,17.1c-12.9,4.7-14.3-2.4-14.3-2.4L243.9,481.1z"/>
	<path display="none" fill="#4C4C4C" d="M117.2,480.4l75.3,15.5l0.6-33.6L192,462l-1.4,31.9c0,0-61-12.6-64.5-13.2
		c-3.4-0.6-6.7-1.8-6.7-5.8c0-3.9,0.1-43.7,0.1-43.7l32.2,6.3l-15.3,23.2l-5.6,11.3c0,0,0.2,0.2,0.6,0.5c0.1,0.1,10-15,10-15
		l14.1-19.4l37.7,7.2l-1.3,15.4l1.4,0.6l1.4-17.2l-77.1-14.7C117.6,429.3,115.3,451.7,117.2,480.4z"/>
	<path display="none" fill="#262626" d="M193.3,461.2l1.4-17.1l-77.1-14.7c0,0-2,19.6-0.3,51.1l75.3,15.5l0.6-33.6l-1.1-0.4
		l-1.4,31.9c0,0-58.7-12.1-64.5-13.2c-4.8-0.9-6.7-2.6-6.7-5.8c0-3.3,0.1-28.1,0.1-28.1l23.1,4.6l9.1-13.9l3.7,0.6l-10,13.9
		L193.3,461.2z"/>
	<path display="none" fill="#262626" d="M142.7,451.2l-6.2,9.4l-5.6,11.3c0,0,0.2,0.2,0.6,0.5c0.1,0.1,10-15,10-15l4.1-5.6
		L142.7,451.2z"/>
	<path display="none" fill="#E5E5E5" d="M139.2,456.8L139.2,456.8l17.2-23.5l0,0c0.1-0.1,0.1-0.3,0.1-0.5c0-0.6-0.4-1-1-1
		c-0.4,0-0.6,0.2-0.8,0.5l0,0L138.3,456l0,0c-0.1,0.1-0.1,0.2-0.1,0.4c0,0.1,0,0.2,0.1,0.3l-1.3,2.2v0.7h1.3l1.5-0.5
		c0,0,1.1-1.9,1.2-2s-0.1-0.3-0.1-0.4c-0.1-0.1-0.4-0.1-0.5,0.1c-0.1,0.1-0.8,1.4-0.8,1.4s-0.4-0.4-0.4-0.4s0-0.5,0-0.8
		C139,457,139.2,457,139.2,456.8z"/>
	<path display="none" fill="none" stroke="#4C4C4C" stroke-width="0.5" stroke-miterlimit="10" d="M185.1,435.7l-57.4-11
		c-2.3-0.4-3.9-2.7-3.6-4.9l1.3-8.2c0.4-2.2,2.5-3.7,4.8-3.3l57.4,10.5c2.3,0.4,3.9,2.7,3.6,4.9l-1.3,8.7
		C189.6,434.6,187.4,436.1,185.1,435.7z"/>
	<path display="none" fill="#4C4C4C" d="M129.8,423.1c-1.5-0.3-2.7-1.8-2.4-3.3l1.1-7.6c0.1-1.1,1.1-2,2.1-2.2l-0.4-0.1
		c-1.5-0.3-3,0.7-3.2,2.2l-1.1,7.6c-0.2,1.5,0.8,2.9,2.4,3.3l56.6,10.8c0.4,0.1,0.7,0.1,1.1,0L129.8,423.1z"/>
</g>
<g id="Grid_x2C__Perspective_Guides" display="none">
	
		<line display="inline" opacity="0.34" fill="none" stroke="#3399FF" stroke-linecap="round" stroke-linejoin="round" stroke-miterlimit="10" enable-background="new    " x1="110" y1="443.8" x2="140.6" y2="448.5"/>
	
		<line display="inline" opacity="0.34" fill="none" stroke="#3399FF" stroke-linecap="round" stroke-linejoin="round" stroke-miterlimit="10" enable-background="new    " x1="111.8" y1="441.1" x2="142.5" y2="445.8"/>
	
		<polyline display="inline" opacity="0.4" fill="none" stroke="#3399FF" stroke-linecap="round" stroke-linejoin="round" stroke-miterlimit="10" enable-background="new    " points="
		483.1,264.6 -3342.8,-231.1 194.2,541.6 	"/>
	
		<polyline display="inline" opacity="0.34" fill="none" stroke="#3399FF" stroke-linecap="round" stroke-linejoin="round" stroke-miterlimit="10" enable-background="new    " points="
		419.1,241.5 1583.9,-341.6 335.5,474.2 	"/>
	
		<line id="Panel_1_" display="inline" opacity="0.5" fill="none" stroke="#3399FF" stroke-miterlimit="10" enable-background="new    " x1="491.9" y1="276.2" x2="499.2" y2="386.4"/>
</g>
</svg>
