<?xml version="1.0" encoding="utf-8"?>
<!-- Generator: Adobe Illustrator 18.1.1, SVG Export Plug-In . SVG Version: 6.00 Build 0)  -->
<svg version="1.1" xmlns="http://www.w3.org/2000/svg" xmlns:xlink="http://www.w3.org/1999/xlink" x="0px" y="0px"
	 viewBox="0 0 1920 1112" enable-background="new 0 0 1920 1112" xml:space="preserve">
<g id="Layer_05">
	<g id="_x31_0_Bottom_Layer__x28_Body_x29_">
		<g>
			<path fill="#4C4C4C" d="M845,324.4l48.2-22.1l-7.1,26.3l23.9-12.3l10.1,1.1l7.8-20.8l6.2-2.7l10.5-21.4l53.2-24.4
				c4.6-8.5,7.6-12.7,21.5-20.3c13.9-7.6,394.1-195.9,394.1-195.9c1.8-0.7,8.8-3.7,22.8-2.7c153.8,10.1,138.5,8.7,153.8,10.1
				c18.7,1.8,21.2,21.7,27.7,54.4c6.5,32.7,9,100.8,9,100.8l-3.7,67.5l4.2,3.7l-0.5,17.5l-9.7,14.7l-3.8,54.5l-391.7,263.4
				l-0.7-19.8l0.2-28.1l-16.3,10.1l-0.5,10.6l-19.9,12.2l-36.7,24.2l-23.3,13.4l-1.2-6l-14.5,9l-4.7,53.4l-359.7,242L738,911
				l-0.9-32.2l-40.6,24.4l0.9,10.5l-28.1,15.7l-1.8-8.8L642.2,937l-10.1-1.1v7.6L614,955.3v-7.6l-34.6,22.6l0.2,24.8
				c0,0-54.9,28.4-117.3,59c-17.2,8.5-66.2,19.8-103,19.8c-93.8,0-150.3-33.2-172-48c-3.8-2.5-14.7-5.8-15.4-9.4
				c-1.4-8.1-2.9-10.6-3.2-15.6c-0.4-4.7,0.4-8.8,5.1-13.6c0,0-18.3-102.6-12.7-210.9c5.6-108.3,57.2-161.4,79.8-172.9
				c32-15.9,604.6-297.6,604.6-297.6l4.7,2C850.1,307.8,845,313.1,845,324.4z"/>
		</g>
	</g>
	<g id="exploding_x5F_roof">
		<g>
			<path fill="#262626" d="M1279.3,315.4c0-0.7,0-1.2,0-2C1279.3,314.1,1279.3,314.7,1279.3,315.4z"/>
		</g>
		<path fill="#4C4C4C" d="M1261.5,205.9l-9.6-0.7l0.2-6.3l-13.9-0.9l-7.6,4.6l-0.2,5.8l-8,1.6v3.7l-31.6-3.4l-0.4-4l6.3-2.9
			l-0.7-5.8l-3.8-0.7l-2.3-13.1L1148,180l23.9-74c8.5-0.2,10.5-4,10.5-4l-3-12.9c5.3-0.7,2.1-6,2.1-6l-40.2-48.7l4.2-2.7l16.6,14.1
			l4,5.8l3.7-2.1l-5.3-8.3l-15.2-13.6l1.1-10.5l7.2,3l22.4,18.3l1.1,4l3.7-2.3l-1.6-5.3L1153.9,13l-98.2-7.4h-26.1l-23.1,2.9
			l-6.7,4.4l-6.5,1.4l-2.7,2.7h-7.2l-4.4,4l6.5-0.4l-15.7,13.1l-0.5,5.6h2l0.4-4.6l21.9-16.1l-8.7,8.1l-0.2,6.3h2.3l0.2-5.1
			l13.2-10.6l0.2,12.5l5.1-0.2l1.2-2.1h2.5l2.1,4h7.2l12,7.2L1138,85.1l0.5,1.8l6.9,2.3l4,0.7c-3.2,2.1-4.6,10.9-4.6,10.9l4.7-0.5
			l-57.9,141.6l-16.6-1.1v-7.4l-16.6-1.2l-21.9,11.1l-4.2,12l-14.3,14.3l-41.8-3.8l-17.3,8.7l-0.2,4.7l2,0.4l0.2,18.5
			c0,0,29.3,3.4,33.9,3.8c4.4,0.4,7.4-3,7.4-3s19-5.6,41.8,0.9c0.2,0-19,18.5-22.3,20.1c-3.2,1.6-25.7,1.1-25.7,1.1
			c-5.1,0.4-8.8,4.6-8.8,9.6c0,5.3,4.4,9.6,9.6,9.6c1.4,0,2.7-0.4,3.8-0.9l0,0l29.7-12.7c0,0,22.4-20.1,23.7-22.4
			c1.2-2.3,1.1-6.9,0-8.3c-1.1-1.4-4.2-2.5-10.6-3c-6.5-0.5-27.2-0.7-27.2-0.7l-0.9-6l105.8,7.2V304l47.5,3.8l-0.7-14.8l43.6-23
			c1.1-22.3-13.4-25.7-13.4-25.7l63.6-34.6L1261.5,205.9z M1014.8,13.4h-9.9l4-2.5l6.2-0.9L1014.8,13.4z M1176.4,89.9
			c0,0,3.7,9,2.1,11.1c-1.6,2.1-3.4,2.1-5.1-1.6c-1.6-3.7-3.4-7.6-1.1-9.7l2.7-0.7L1176.4,89.9z M1021.9,11.6l5.3-1.6l103.9,5.3
			l4.7,3.2l5.3,0.5l-2,2.7c0,0,0,0-4.4-0.5s-97.8-7.4-97.8-7.4l-15.2,0.2L1021.9,11.6z M1123.1,42.6l-6.9,19.2L1032,19.2l89.9,5.3
			c0,0,0,0,3.8,4.4C1121.5,36,1123.1,42.6,1123.1,42.6z M1144.4,84.6L1029.8,35l-6.3-5.8l-0.5-5.8l3.2-2.1l118.2,59.2v4.1H1144.4z
			 M1119.8,63.7l8.5-27.7l1.6,2.7l4.4-1.1l1.1-3.2l3.2,1.1l21.2,27.4c0,0-18.5-2.3-22.8-2.3C1132.6,60.4,1119.8,63.7,1119.8,63.7
			l19.2-0.5l4.7,2.5l3.4,11.4L1119.8,63.7z M1145.7,64.6l17.5,2.1l9.4,13.6l-21.2-1.4L1145.7,64.6z M1133,178.3l-6.9,3.7l38.2-88.1
			c0,0,2.3,10.9,4.2,10.9l-24.6,74.7L1133,178.3z"/>
	</g>
	<g id="Pop-up_Text">
	</g>
	<polygon fill="#B2B2B2" points="467.8,638.2 467.8,648.9 280.5,615.1 280.5,604.4 	"/>
</g>
<g id="Layer_04">
	<g>
		<g>
			<polygon id="Panel_13_" fill="#7A7A7A" points="205.1,964.4 214,966 892.1,569.6 885.9,332.5 871.8,331 184.2,682.7 			"/>
			<polygon id="Panel_12_" fill="#4C4C4C" points="214,966 892.1,569.6 885.9,332.5 194.6,683.8 			"/>
			<polygon id="Panel_11_" fill="#E5E5E5" points="184.2,682.7 871.8,331 885.9,332.5 194.1,684.1 			"/>
		</g>
		<path fill="#7A7A7A" d="M804.4,373.7l96.5-49.6l6.6-27.5l-6.4-0.9L853,317.8c0-12,5.2-17,5.2-17l-4.8-2L234.8,603.5
			c0,0-46.5,52-46.5,79.6l5.7,0.8L804.4,373.7z"/>
		<path fill="#7A7A7A" d="M234.8,603.5c0,0-46.5,23.7-46.5,79.6l5.7,0.8c0,0,2.4-54.3,48.5-79.6L234.8,603.5z"/>
		<path fill="#FFFFFF" stroke="#000000" stroke-width="0.9248" stroke-miterlimit="10" d="M188.4,682"/>
		<polygon fill="#CCCCCC" points="234.8,603.5 242.5,604.3 858.2,300.8 853.4,298.8 		"/>
		<polygon fill="#E5E5E5" points="852.9,321.4 908.4,296.4 902,295.5 853,317.8 		"/>
	</g>
	<polygon fill="#4C4C4C" points="797.6,343.3 964.4,364.8 468.4,638.2 281.1,604.4 	"/>
	<g>
		<g>
			<g>
				<g>
					<polygon fill="#B2B2B2" points="797.6,348.6 285.8,604.6 294.5,606.5 804.5,349.3 					"/>
					<polygon fill="#B2B2B2" points="808.6,349.8 297.9,606.8 306.7,608.7 815.5,350.6 					"/>
					<polygon fill="#B2B2B2" points="819.5,351.1 310,609.1 318.8,611 826.5,351.9 					"/>
					<polygon fill="#B2B2B2" points="830.5,352.5 322.2,611.3 331,613.2 837.5,353.2 					"/>
					<polygon fill="#B2B2B2" points="841.5,353.8 334.4,613.6 343.2,615.5 848.5,354.6 					"/>
					<polygon fill="#B2B2B2" points="852.5,355.1 346.5,615.8 355.4,617.7 859.5,355.9 					"/>
					<polygon fill="#B2B2B2" points="863.6,356.5 358.8,618.1 367.6,620 870.5,357.3 					"/>
					<polygon fill="#B2B2B2" points="874.6,357.8 371,620.4 379.8,622.3 881.6,358.7 					"/>
					<polygon fill="#B2B2B2" points="885.7,359.2 383.2,622.7 392.1,624.6 892.7,360 					"/>
					<polygon fill="#B2B2B2" points="896.8,360.6 395.5,625 404.4,627 903.8,361.4 					"/>
					<polygon fill="#B2B2B2" points="907.9,362 407.8,627.3 416.7,629.3 914.9,362.9 					"/>
					<polygon fill="#B2B2B2" points="919,363.4 420.1,629.7 429,631.7 926,364.3 					"/>
					<polygon fill="#B2B2B2" points="930.1,364.9 432.4,632 441.3,634 937.2,365.7 					"/>
					<polygon fill="#B2B2B2" points="941.3,366.3 444.7,634.4 453.6,636.4 948.3,367.2 					"/>
					<polygon fill="#B2B2B2" points="952.5,367.8 457,636.8 466,638.8 959.5,368.6 					"/>
					<polygon fill="#B2B2B2" points="963.6,369.2 469.4,639.2 478.4,641.2 970.7,370.1 					"/>
				</g>
				<polygon fill="#7A7A7A" points="478.4,641.2 472.1,639.8 960.1,370.7 959.5,368.6 466,638.8 459.7,637.4 949,369.2 948.3,367.2 
					453.6,636.4 447.3,635 937.8,367.7 937.2,365.7 441.3,634 435,632.6 926.6,366.3 926,364.3 429,631.7 422.7,630.3 915.5,364.9 
					914.9,362.9 416.7,629.3 410.4,627.9 904.4,363.4 903.8,361.4 404.4,627 398.1,625.6 893.3,362 892.7,360 392.1,624.6 
					385.9,623.3 882.2,360.6 881.6,358.7 379.8,622.3 373.6,621 871.1,359.3 870.5,357.3 367.6,620 361.4,618.7 860,357.9 
					859.5,355.9 355.4,617.7 349.2,616.4 849,356.5 848.5,354.6 343.2,615.5 337,614.1 838,355.2 837.5,353.2 331,613.2 
					324.8,611.9 827,353.9 826.5,351.9 318.8,611 312.6,609.6 816,352.5 815.5,350.6 306.7,608.7 300.5,607.4 805,351.2 
					804.5,349.3 294.5,606.5 285.8,604.6 285.8,607.5 294.5,609.4 297.9,608.3 297.9,609.7 306.7,611.6 310,610.5 310.1,611.9 
					318.9,613.9 322.2,612.8 322.2,614.2 331.1,616.2 334.4,615 334.4,616.5 343.3,618.4 346.6,617.3 346.6,618.7 355.5,620.7 
					358.8,619.6 358.9,621 367.7,623 371,621.9 371.1,623.3 380,625.3 383.3,624.2 383.4,625.7 392.3,627.7 395.6,626.5 395.7,628 
					404.6,630 407.9,628.8 407.9,630.3 416.9,632.4 420.2,631.2 420.3,632.7 429.2,634.7 432.5,633.6 432.6,635.1 441.5,637.1 
					444.8,635.9 444.9,637.4 453.9,639.5 457.2,638.3 457.3,639.8 466.3,641.9 469.5,640.7 469.7,642.3 478.7,644.4 971.4,372.2 
					970.7,370.1 				"/>
			</g>
		</g>
	</g>
</g>
<g id="Layer_03">
	<g>
		<polygon fill="#B2B2B2" points="716.6,419 653.3,412 437.5,520 471.4,506.8 473.2,503.2 541,510.1 541,512.4 568.7,531.7 
			568.7,560.2 748.8,462.5 748.8,436.6 716.6,420.5 		"/>
		<polygon fill="#E5E5E5" points="541,510.1 716.6,419 653.3,412 473.2,503.2 		"/>
		<polygon fill="#CCCCCC" points="541,510.1 473.2,503.2 471.4,506.8 437.5,520 437.5,540.8 568.7,560.2 568.7,531.7 541,512.4 		
			"/>
		<ellipse fill="#7A7A7A" cx="523.7" cy="497.6" rx="23.4" ry="6.6"/>
		<polygon fill="#7A7A7A" points="488.1,538 400.8,527.1 313.8,568.5 313.9,607.9 401.1,622.8 488.2,576.6 		"/>
		
			<polygon fill="#7A7A7A" stroke="#B2B2B2" stroke-width="1.5258" stroke-linecap="round" stroke-linejoin="round" stroke-miterlimit="10" points="
			400.8,527.1 400.8,566.1 404.8,566.7 404.8,531.2 481.8,540.6 481.8,575.7 488.1,576.6 488.1,538 		"/>
		
			<polygon fill="#B2B2B2" stroke="#7A7A7A" stroke-width="1.5258" stroke-linecap="round" stroke-linejoin="round" stroke-miterlimit="10" points="
			476.8,574.8 476.8,566.1 400.9,605.8 400.9,615 		"/>
		
			<polygon fill="#B2B2B2" stroke="#7A7A7A" stroke-width="1.5258" stroke-linecap="round" stroke-linejoin="round" stroke-miterlimit="10" points="
			401.1,609.1 476.2,569.1 483.3,569.8 483.3,549.5 401.1,592.2 		"/>
		
			<polygon fill="#B2B2B2" stroke="#7A7A7A" stroke-width="1.5258" stroke-linecap="round" stroke-linejoin="round" stroke-miterlimit="10" points="
			401.1,592.2 483.3,549.4 483.3,540.4 401.1,583.2 		"/>
		<path fill="#7A7A7A" d="M431.2,581.4c0,0.8-0.1,1.5-0.4,1.8c0,0-0.3,0-0.4,0c-0.4,0-0.8-0.8-0.8-1.8s0.4-1.8,0.8-1.8
			c0.1,0,0.3,0,0.3,0C430.9,579.9,431.2,580.7,431.2,581.4z"/>
		<path fill="#7A7A7A" d="M431.2,589.1c0,0.8-0.1,1.5-0.4,1.8c0,0-0.3,0-0.4,0c-0.4,0-0.8-0.8-0.8-1.8c0-1,0.4-1.8,0.8-1.8
			c0.1,0,0.3,0,0.3,0C430.9,587.5,431.2,588.4,431.2,589.1z"/>
		<path fill="#7A7A7A" d="M431.2,571.9c0,0.8-0.1,1.5-0.4,1.8c0,0-0.3,0-0.4,0c-0.4,0-0.8-0.8-0.8-1.8c0-1,0.4-1.8,0.8-1.8
			c0.1,0,0.3,0,0.3,0C430.9,570.4,431.2,571.2,431.2,571.9z"/>
		<path fill="#7A7A7A" d="M446.6,573.3c0,0.7-0.1,1.5-0.4,1.8c0,0-0.3,0-0.4,0c-0.4,0-0.8-0.8-0.8-1.8c0-1,0.4-1.8,0.8-1.8
			c0.1,0,0.3,0,0.3,0C446.4,571.8,446.6,572.6,446.6,573.3z"/>
		<path fill="#7A7A7A" d="M446.6,580.9c0,0.7-0.1,1.5-0.4,1.8c0,0-0.3,0-0.4,0c-0.4,0-0.8-0.8-0.8-1.8c0-1,0.4-1.8,0.8-1.8
			c0.1,0,0.3,0,0.3,0C446.4,579.4,446.6,580.2,446.6,580.9z"/>
		<path fill="#7A7A7A" d="M446.6,563.9c0,0.7-0.1,1.5-0.4,1.8c0,0-0.3,0-0.4,0c-0.4,0-0.8-0.8-0.8-1.8c0-1,0.4-1.8,0.8-1.8
			c0.1,0,0.3,0,0.3,0C446.4,562.3,446.6,563.2,446.6,563.9z"/>
		<path fill="#7A7A7A" d="M479.6,556.1c0,0.7-0.1,1.5-0.4,1.8c0,0-0.3,0-0.4,0c-0.4,0-0.8-0.8-0.8-1.8c0-1,0.4-1.8,0.8-1.8
			c0.1,0,0.3,0,0.3,0C479.3,554.5,479.6,555.3,479.6,556.1z"/>
		<path fill="#7A7A7A" d="M479.6,563.6c0,0.7-0.1,1.5-0.4,1.8c0,0-0.3,0-0.4,0c-0.4,0-0.8-0.8-0.8-1.8c0-1,0.4-1.8,0.8-1.8
			c0.1,0,0.3,0,0.3,0C479.3,562.1,479.6,562.9,479.6,563.6z"/>
		<path fill="#7A7A7A" d="M479.6,546.7c0,0.7-0.1,1.5-0.4,1.8c0,0-0.3,0-0.4,0c-0.4,0-0.8-0.8-0.8-1.8c0-1,0.4-1.8,0.8-1.8
			c0.1,0,0.3,0,0.3,0C479.3,545.2,479.6,546,479.6,546.7z"/>
		<polygon fill="#CCCCCC" points="324,574.4 319.9,576.4 394.5,588.8 394.7,585.8 		"/>
		<polygon fill="#CCCCCC" points="323.1,584.1 319,586.1 324.3,586.9 328.6,584.9 		"/>
		<polygon fill="#CCCCCC" points="387.9,593.2 383.9,595.3 389.2,596 393.5,594 		"/>
		<polygon fill="#CCCCCC" points="338.1,598.1 327.3,603.5 330,603.9 340.7,598.4 		"/>
		<polygon fill="#CCCCCC" points="332.7,597.3 322,602.7 324.6,603.1 335.3,597.6 		"/>
		
			<polygon fill="#CCCCCC" stroke="#B2B2B2" stroke-width="1.5258" stroke-linecap="round" stroke-linejoin="round" stroke-miterlimit="10" points="
			313.8,568.5 313.9,607.9 318.1,608.5 318.1,573.3 394.7,585.8 394.7,621.9 401.1,622.8 401.1,583.2 		"/>
		
			<polygon fill="#E5E5E5" stroke="#B2B2B2" stroke-width="1.5258" stroke-linecap="round" stroke-linejoin="round" stroke-miterlimit="10" points="
			488.1,538 400.8,527.1 313.8,568.5 401.1,583.2 		"/>
		<path fill="#7A7A7A" d="M331.7,563.8l-9.6,4.8l79.9,11.8l9.3-4.8L331.7,563.8z M327.3,568.2l6.3-3.1l1.9,0.3l-6.3,3.1L327.3,568.2
			z M331.7,568.9l6.3-3.1l1.9,0.3l-6.3,3.1L331.7,568.9z M336.5,569.5l6.3-3.1l1.9,0.3l-6.3,3.1L336.5,569.5z M340.7,570.2l6.3-3.1
			l1.9,0.3l-6.3,3.1L340.7,570.2z M345.2,570.8l6.3-3.1l1.9,0.3l-6.3,3.1L345.2,570.8z M349.7,571.5l6.3-3.1l1.9,0.3l-6.3,3.1
			L349.7,571.5z M354,572.1l6.3-3.1l1.9,0.3l-6.3,3.1L354,572.1z M358.6,572.7l6.3-3.1l1.9,0.3l-6.3,3.1L358.6,572.7z M362.9,573.4
			l6.3-3.1l1.9,0.3l-6.3,3.1L362.9,573.4z M367.6,574.1l6.3-3.1l1.9,0.3l-6.3,3.1L367.6,574.1z M371.7,574.7l6.3-3.1l1.9,0.3
			l-6.3,3.1L371.7,574.7z M376.4,575.3l6.3-3.1l1.9,0.3l-6.3,3.1L376.4,575.3z M380.5,576l6.3-3.1l1.9,0.3l-6.3,3.1L380.5,576z
			 M385,576.7l6.3-3.1l1.9,0.3l-6.3,3.1L385,576.7z M389.8,577.4l6.3-3.1l1.9,0.3l-6.3,3.1L389.8,577.4z M394,578l6.3-3.1l1.9,0.3
			l-6.3,3.1L394,578z M400.2,579l-1.9-0.3l6.3-3.1l1.9,0.3L400.2,579z"/>
		<path fill="#7A7A7A" d="M345.5,556.9l-9.5,4.8l79.5,10.8l9.2-4.9L345.5,556.9z M341.2,561.3l6.3-3.2l1.9,0.3l-6.3,3.2L341.2,561.3
			z M345.5,562l6.3-3.2l1.9,0.3l-6.3,3.2L345.5,562z M350.3,562.5l6.3-3.2l1.9,0.3l-6.3,3.2L350.3,562.5z M354.5,563.2l6.3-3.2
			l1.9,0.3l-6.3,3.2L354.5,563.2z M359,563.7l6.3-3.2l1.9,0.3l-6.3,3.2L359,563.7z M363.4,564.3l6.3-3.2l1.9,0.3l-6.3,3.2
			L363.4,564.3z M367.8,564.9l6.3-3.2l1.9,0.3l-6.3,3.2L367.8,564.9z M372.3,565.4l6.3-3.2l1.9,0.3l-6.3,3.2L372.3,565.4z
			 M376.6,566.1l6.3-3.2l1.9,0.3l-6.3,3.2L376.6,566.1z M381.3,566.7l6.3-3.2l1.9,0.3l-6.3,3.2L381.3,566.7z M385.3,567.3l6.3-3.2
			l1.9,0.3l-6.3,3.2L385.3,567.3z M390.1,567.9l6.3-3.2l1.9,0.3l-6.3,3.2L390.1,567.9z M394.1,568.5l6.3-3.2l1.9,0.3l-6.3,3.2
			L394.1,568.5z M398.6,569.1l6.3-3.2l1.9,0.3l-6.3,3.2L398.6,569.1z M403.3,569.7l6.3-3.2l1.9,0.3l-6.3,3.2L403.3,569.7z
			 M407.5,570.3l6.3-3.2l1.9,0.3l-6.3,3.2L407.5,570.3z M413.7,571.2l-1.9-0.3l6.3-3.2l1.9,0.3L413.7,571.2z"/>
		<path fill="#7A7A7A" d="M359.3,550l-9.5,4.8l79.1,10.8l9.2-4.8L359.3,550z M355,554.4l6.3-3.2l1.9,0.3l-6.3,3.2L355,554.4z
			 M359.3,555l6.3-3.2l1.9,0.3l-6.3,3.2L359.3,555z M364.1,555.6l6.3-3.2l1.9,0.3l-6.3,3.2L364.1,555.6z M368.2,556.2l6.3-3.2
			l1.9,0.3l-6.3,3.2L368.2,556.2z M372.7,556.7l6.3-3.2l1.9,0.3l-6.3,3.2L372.7,556.7z M377.1,557.4l6.3-3.2l1.9,0.3l-6.3,3.2
			L377.1,557.4z M381.4,557.9l6.3-3.2l1.9,0.3l-6.3,3.2L381.4,557.9z M386,558.5l6.3-3.2l1.9,0.3l-6.3,3.2L386,558.5z M390.2,559.2
			l6.3-3.2l1.9,0.3l-6.3,3.2L390.2,559.2z M394.9,559.8l6.3-3.2l1.9,0.3l-6.3,3.2L394.9,559.8z M398.9,560.4l6.3-3.2l1.9,0.3
			l-6.3,3.2L398.9,560.4z M403.6,560.9l6.3-3.2l1.9,0.3l-6.3,3.2L403.6,560.9z M407.7,561.6l6.3-3.2l1.9,0.3l-6.3,3.2L407.7,561.6z
			 M412.2,562.1l6.3-3.2l1.9,0.3l-6.3,3.2L412.2,562.1z M416.8,562.8l6.3-3.2l1.9,0.3l-6.3,3.2L416.8,562.8z M421,563.3l6.3-3.2
			l1.9,0.3l-6.3,3.2L421,563.3z M427.2,564.2l-1.9-0.3l6.3-3.2l1.9,0.3L427.2,564.2z"/>
		<path fill="#7A7A7A" d="M373,543.1l-9.4,4.8l78.8,10.4l9.2-4.9L373,543.1z M368.7,547.5l6.2-3.2l1.8,0.2l-6.2,3.2L368.7,547.5z
			 M373,548.2l6.2-3.2l1.8,0.2l-6.2,3.2L373,548.2z M377.7,548.7l6.2-3.2l1.8,0.2l-6.2,3.2L377.7,548.7z M381.9,549.3l6.2-3.2
			l1.8,0.2l-6.2,3.2L381.9,549.3z M386.3,549.8l6.2-3.2l1.8,0.2l-6.2,3.2L386.3,549.8z M390.7,550.4l6.2-3.2l1.8,0.2l-6.2,3.2
			L390.7,550.4z M395,551l6.2-3.2l1.8,0.2l-6.2,3.2L395,551z M399.5,551.5l6.2-3.2l1.8,0.2l-6.2,3.2L399.5,551.5z M403.7,552.1
			l6.2-3.2l1.8,0.2l-6.2,3.2L403.7,552.1z M408.4,552.7l6.2-3.2l1.8,0.2l-6.2,3.2L408.4,552.7z M412.5,553.3l6.2-3.2l1.8,0.2
			l-6.2,3.2L412.5,553.3z M417.1,553.8l6.2-3.2l1.8,0.2l-6.2,3.2L417.1,553.8z M421.2,554.5l6.2-3.2l1.8,0.2l-6.2,3.2L421.2,554.5z
			 M425.6,555l6.2-3.2l1.8,0.2l-6.2,3.2L425.6,555z M430.3,555.6l6.2-3.2l1.8,0.2l-6.2,3.2L430.3,555.6z M434.4,556.2l6.2-3.2
			l1.8,0.2l-6.2,3.2L434.4,556.2z M440.5,557.1l-1.8-0.2l6.2-3.2l1.8,0.2L440.5,557.1z"/>
		<path fill="#7A7A7A" d="M387.2,536.1l-9.4,4.8l78.4,10.3l9.1-4.8L387.2,536.1z M382.9,540.4l6.2-3.2l1.8,0.2l-6.2,3.2L382.9,540.4
			z M387.2,541l6.2-3.2l1.8,0.2l-6.2,3.2L387.2,541z M391.9,541.6l6.2-3.2l1.8,0.2l-6.2,3.2L391.9,541.6z M396,542.2l6.2-3.2
			l1.8,0.2l-6.2,3.2L396,542.2z M400.4,542.7l6.2-3.2l1.8,0.2l-6.2,3.2L400.4,542.7z M404.8,543.3l6.2-3.2l1.8,0.2l-6.2,3.2
			L404.8,543.3z M409.1,543.8l6.2-3.2l1.8,0.2l-6.2,3.2L409.1,543.8z M413.6,544.4l6.2-3.2l1.8,0.2l-6.2,3.2L413.6,544.4z
			 M417.8,545l6.2-3.2l1.8,0.2l-6.2,3.2L417.8,545z M422.4,545.6l6.2-3.2l1.8,0.2l-6.2,3.2L422.4,545.6z M426.4,546.1l6.2-3.2
			l1.8,0.2l-6.2,3.2L426.4,546.1z M431.1,546.7l6.2-3.2l1.8,0.2l-6.2,3.2L431.1,546.7z M435.1,547.3l6.2-3.2l1.8,0.2l-6.2,3.2
			L435.1,547.3z M439.5,547.8l6.2-3.2l1.8,0.2l-6.2,3.2L439.5,547.8z M444.2,548.5l6.2-3.2l1.8,0.2l-6.2,3.2L444.2,548.5z
			 M448.3,549l6.2-3.2l1.8,0.2l-6.2,3.2L448.3,549z M454.4,549.9l-1.8-0.2l6.2-3.2l1.8,0.2L454.4,549.9z"/>
		<path fill="#7A7A7A" d="M400.2,529.5l-9.3,4.8l78,10.1l9.1-4.8L400.2,529.5z M396,533.9l6.2-3.2l1.8,0.2l-6.2,3.2L396,533.9z
			 M400.2,534.5l6.2-3.2l1.8,0.2l-6.2,3.2L400.2,534.5z M404.9,535l6.2-3.2l1.8,0.2l-6.2,3.2L404.9,535z M409,535.6l6.2-3.2l1.8,0.2
			l-6.2,3.2L409,535.6z M413.4,536.1l6.2-3.2l1.8,0.2l-6.2,3.2L413.4,536.1z M417.8,536.7l6.2-3.2l1.8,0.2l-6.2,3.2L417.8,536.7z
			 M422.1,537.2l6.2-3.2l1.8,0.2l-6.2,3.2L422.1,537.2z M426.5,537.7l6.2-3.2l1.8,0.2l-6.2,3.2L426.5,537.7z M430.7,538.3l6.2-3.2
			l1.8,0.2l-6.2,3.2L430.7,538.3z M435.3,538.9l6.2-3.2l1.8,0.2l-6.2,3.2L435.3,538.9z M439.3,539.5l6.2-3.2l1.8,0.2l-6.2,3.2
			L439.3,539.5z M444,540l6.2-3.2l1.8,0.2l-6.2,3.2L444,540z M448,540.6l6.2-3.2l1.8,0.2l-6.2,3.2L448,540.6z M452.4,541.1l6.2-3.2
			l1.8,0.2l-6.2,3.2L452.4,541.1z M457,541.7l6.2-3.2l1.8,0.2l-6.2,3.2L457,541.7z M461.1,542.3l6.2-3.2l1.8,0.2l-6.2,3.2
			L461.1,542.3z M467.2,543.1l-1.8-0.2l6.2-3.2l1.8,0.2L467.2,543.1z"/>
		<g>
			<polygon fill="#E5E5E5" points="503.9,500.3 505.6,500.9 516.4,498.3 			"/>
			<path fill="#E5E5E5" d="M545,497.4c0-0.4-0.3-0.8-0.7-1.2l-16.6,0.3l14.1-1.8c-0.7-0.3-1.5-0.6-2.5-0.8l-10.5,2.1l6.1-3.1
				c-1.8-0.3-3.8-0.5-5.9-0.6l-3.8,2.6l3-2.6c-1.4-0.1-2.9-0.1-4.4-0.1c-9.5,0-17.5,1.6-20.2,3.8l16.8,1c-0.1,0-0.4,0.1-0.6,0.3
				l-17.1,0c0,0.1-0.1,0.2-0.1,0.3c0,0.3,0.1,0.6,0.3,0.8l16.9-1.1c-0.2,0.3-0.2,0.6,1,0.8l-9.9,3.9c1.3,0.3,2.7,0.5,4.2,0.6
				l3.1-1.4l0.4,1.7c1.3,0.1,2.7,0.1,4,0.2l-0.2-2.5l1.7,2.5c3,0,5.9-0.2,8.5-0.5l-1-0.9c0,0,2.7,0.5,5.9,0.1
				c3.3-0.7,5.7-1.7,6.7-2.8c-9-0.6-15.7-1-15.7-1L545,497.4z M524.1,497.9c-1.8,0-3.2-0.4-3.2-0.8c0-0.5,1.4-0.8,3.2-0.8
				c1.8,0,3.2,0.4,3.2,0.8C527.3,497.6,525.9,497.9,524.1,497.9z"/>
		</g>
		<ellipse fill="#7A7A7A" cx="556.9" cy="480.6" rx="23.1" ry="6.5"/>
		<g>
			<polygon fill="#E5E5E5" points="576.9,483.3 575.2,484 564.5,481.4 			"/>
			<path fill="#E5E5E5" d="M552.4,481c0,0-6.6,0.4-15.5,1c1.1,1.1,3.4,2.1,6.7,2.8c3.2,0.4,5.9-0.1,5.9-0.1l-0.9,0.9
				c2.6,0.3,5.4,0.5,8.4,0.5l1.7-2.5l-0.2,2.4c1.4,0,2.7-0.1,4-0.2l0.4-1.7l3.1,1.4c1.5-0.2,2.9-0.4,4.1-0.6l-9.8-3.8
				c1.2-0.2,1.3-0.5,1-0.7l16.7,1.1c0.2-0.3,0.3-0.5,0.3-0.8c0-0.1,0-0.2-0.1-0.3l-16.9,0c-0.2-0.2-0.5-0.3-0.6-0.3l16.6-1
				c-2.7-2.2-10.6-3.8-20-3.8c-1.5,0-3,0-4.4,0.1l2.9,2.6l-3.7-2.5c-2.1,0.1-4.1,0.4-5.8,0.6l6,3l-10.4-2.1
				c-0.9,0.3-1.7,0.5-2.4,0.8l14,1.7l-16.4-0.3c-0.4,0.4-0.6,0.8-0.7,1.2L552.4,481z M553.7,480.2c0-0.4,1.4-0.8,3.1-0.8
				c1.7,0,3.1,0.4,3.1,0.8c0,0.4-1.4,0.8-3.1,0.8C555.1,481,553.7,480.7,553.7,480.2z"/>
		</g>
		<g>
			<polygon fill="#CCCCCC" points="548.8,467 550.4,465.5 600.6,471.5 600.8,473.2 			"/>
			<g>
				<path fill="#CCCCCC" d="M550.7,466.3l49.2,5.8l0,0.2l-49.4-5.8L550.7,466.3 M550.2,464.7l-3.1,2.9l54.5,6.5l-0.3-3.3
					L550.2,464.7L550.2,464.7z"/>
			</g>
		</g>
		<g>
			<polygon fill="#7A7A7A" points="601.8,475.1 623,464.1 620.4,461.6 568.9,455.6 550.2,464.7 601.3,470.8 			"/>
		</g>
		<g>
			<polygon fill="#7A7A7A" points="545.9,469.2 602.6,476 623,465.4 623,464.1 601.8,475.1 601.6,474.1 547.1,467.6 			"/>
		</g>
		<polygon fill="#CCCCCC" points="748.8,436.6 716.6,420.5 541,512.4 568.7,531.7 		"/>
		<polygon fill="#7A7A7A" points="572.7,529.6 589.9,520.5 565.8,505.6 548.5,514.5 		"/>
		<polygon fill="#7A7A7A" points="594.5,518.2 611.8,509.1 587.6,494.2 570.4,503.1 		"/>
		<polygon fill="#7A7A7A" points="614.8,507.5 632.1,498.4 607.9,483.5 590.7,492.4 		"/>
	</g>
</g>
<g id="Layer_02">
	<g id="Side_Panel_Near_1_">
		<g>
			<path fill="#B2B2B2" d="M1098,646.6c-0.9-17.7,6.2-36.4,15.6-41.8c9.4-5.5,18.1,4.4,19,22.1c0.9,17.7-6.2,36.4-15.6,41.8
				C1107.6,674.1,1099.1,664.1,1098,646.6z"/>
			<path fill="#B2B2B2" d="M1117.4,629.4c-0.2-4.7,2-9.9,4.9-11.6c2.9-1.6,5.6,0.7,5.8,5.5c0.2,4.7-2,9.9-4.9,11.6
				C1120.3,636.6,1117.8,634.1,1117.4,629.4z"/>
			<path fill="#B2B2B2" d="M1111.6,640.3c-0.5-10.8,2.3-21.5,6.5-24c4.2-2.3,8,4.6,8.7,15.4c0.5,10.8-2.3,21.5-6.5,24
				C1116.2,658,1112.1,651.1,1111.6,640.3z"/>
			<path fill="#B2B2B2" d="M1101.9,645.8c-0.9-17.7,6.2-36.4,15.6-41.8c9.6-5.5,18.1,4.4,19,22.1c0.8,17.7-6.2,36.4-15.6,41.8
				C1111.4,673.3,1102.8,663.6,1101.9,645.8z"/>
		</g>
		<g>
			<path fill="#E5E5E5" stroke="#000000" stroke-width="0.7592" stroke-miterlimit="10" d="M683,916.2c-0.2-3.6,1.2-7.6,3.2-8.7
				c2-1.1,3.6,0.9,4,4.7c0.2,3.6-1.2,7.6-3.2,8.7C685.1,922,683.2,919.9,683,916.2z"/>
			<path fill="#B2B2B2" d="M651.9,941.1c-1.1-20.8,7.1-42.7,18.2-49.3c11.3-6.5,21.4,5.3,22.4,25.9c1.1,20.8-7.1,42.7-18.2,49.3
				C663,973.4,653,961.9,651.9,941.1z"/>
			<path fill="#B2B2B2" d="M674.5,920.9c-0.4-5.6,2.3-11.6,5.8-13.6c3.4-2,6.5,0.9,6.9,6.5c0.4,5.6-2.3,11.6-5.8,13.6
				C678,929.4,674.9,926.6,674.5,920.9z"/>
			<path fill="#B2B2B2" d="M667.6,933.8c-0.7-12.9,2.7-25.3,7.6-28.2c4.9-2.7,9.4,5.3,10.1,18.1c0.7,12.9-2.7,25.3-7.6,28.2
				C672.9,954.7,668.3,946.5,667.6,933.8z"/>
			<path fill="#B2B2B2" d="M656.3,940.3c-1.1-20.8,7.1-42.7,18.2-49.3s21.4,5.3,22.4,25.9c1.1,20.8-7.1,42.7-18.2,49.3
				C667.3,972.5,657.3,961,656.3,940.3z"/>
		</g>
		<g>
			<path fill="#B2B2B2" d="M600,972.7c-1.1-20.8,7.1-42.7,18.2-49.3c11.3-6.3,21.4,5.3,22.4,25.9c1.1,20.8-7.1,42.7-18.2,49.3
				C611.2,1005.2,601,993.5,600,972.7z"/>
			<path fill="#B2B2B2" d="M622.6,952.6c-0.4-5.6,2.3-11.6,5.8-13.6c3.4-2,6.5,0.9,6.9,6.5c0.4,5.6-2.3,11.6-5.8,13.6
				C626.1,961.2,622.9,958.2,622.6,952.6z"/>
			<path fill="#B2B2B2" d="M615.7,965.3c-0.7-12.9,2.7-25.3,7.6-28.2c4.9-2.7,9.4,5.3,10.1,18.1s-2.7,25.3-7.6,28.2
				C621,986.3,616.4,978.2,615.7,965.3z"/>
			<path fill="#B2B2B2" d="M604.3,972c-1.1-20.8,7.1-42.7,18.2-49.3c11.3-6.3,21.4,5.3,22.4,25.9c1.1,20.8-7.1,42.7-18.2,49.3
				C615.5,1004.4,605.4,992.6,604.3,972z"/>
		</g>
		<g id="Door_1_">
		</g>
		<g id="Window_1_">
		</g>
		<g>
			<polygon id="Panel_4_" fill="#4C4C4C" points="510.8,1008.2 524.5,1010.7 1161,594.9 1145.9,364.1 1133.7,351.7 491.9,723.7 			
				"/>
			<polygon id="Panel_3_" fill="#B2B2B2" points="524.5,1010.7 1161,594.9 1145.9,364.1 505.5,725.8 			"/>
			<polygon id="Panel_2_" fill="#CCCCCC" points="505.5,725.8 1145.9,364.1 1145.9,364.1 1133.7,351.7 491.9,723.7 			"/>
			<path fill="#4C4C4C" d="M502.1,715L1139,357.2l-3.6-24h-9l0,0l-10.1-13.1l-45.8,24.9c0,0-5.6-21.5-26.6-25.5L457.2,630.4v4.2
				c0,0,21.5,9.7,34.4,49.8l7.6,3v26.1L502.1,715z"/>
			<polygon fill="#7A7A7A" points="1009.5,392.5 861.2,474.1 861.2,477.3 1009.5,395.5 			"/>
			<polygon fill="#7A7A7A" points="1023.3,387.9 1122.1,333.5 1120.6,331.4 1023.3,384.9 			"/>
			<polygon fill="#7A7A7A" points="689.2,572 847.2,485 847.2,481.7 689.2,568.6 			"/>
			<polygon fill="#7A7A7A" points="675.2,576.2 508.8,667.7 508.8,671.4 675.2,579.6 			"/>
			<polygon fill="#B2B2B2" points="494.7,682 502.1,686 502.1,715 1139,357.7 1135.3,333.1 1126.3,333.1 			"/>
			<polygon fill="#E5E5E5" points="505.5,725.8 1145.9,364.1 1139,357.2 502.1,715 			"/>
			<polygon fill="#4C4C4C" points="505.5,725.8 502.1,715 499.1,713.8 502.1,725.3 			"/>
			<path fill="#B2B2B2" d="M1019.1,387.9l5.5-2.9v4.4l43.4-23.9v-4.4l7.2-4v4.4l38-21v-4.2l7.2-4v4.2l5.8-3.2l-10.1-13.1l-45.9,25.1
				c0,0-6.3-22.6-26.6-25.7l-51.9,27.7c19,15.9,23.7,40,25.7,46.1l1.8-1.1L1019.1,387.9L1019.1,387.9z"/>
			<path fill="#B2B2B2" d="M1002.8,401.3v-4.5l7.2-4v4.6l5.1-3c-8.5-32.2-23-44.3-25.7-45.9l-161.1,85.6
				c15.4,10.3,26.1,40.9,28.1,47.5l10.5-5.3v-4.9l7.2-4v4.9l63.4-35v-4.7l7.2-4v4.7L1002.8,401.3z"/>
			<path fill="#B2B2B2" d="M769.3,530.4v-5.3l7.2-4v5.3l63.4-35.1v-5.1l7.2-4v5.1l7.2-4c-12.2-37.1-26.1-47-28.2-48.4l-171.5,91.2
				c16.6,8.7,27.5,34.2,30,51l12.2-6.9v-5.5l7.2-4v5.5L769.3,530.4z"/>
			<path fill="#B2B2B2" d="M659,591.4v-5.6l7.2-4v5.6l17.2-9.4c-11.1-42-30.6-50.1-30.9-50.5L457.4,630.6
				c13.1,6.9,28.2,20.1,37.5,51.6l14.1-7.8v-6l7.2-4v6l71.3-39.4v-5.8l7.2-4v5.8L659,591.4z"/>
			<polygon fill="#E5E5E5" points="1135.3,333.1 502.1,686 494.7,682 1126.3,333.1 			"/>
		</g>
		<polygon fill="#7A7A7A" points="958.8,630.4 660.9,820.8 664.9,883 960.3,694.5 		"/>
		<path fill="#CCCCCC" d="M957.8,687.3c-0.4,0.2-290.5,185.3-290.5,185.3c-1.6,1.1-3.2,3.2-3,5.6c0.4,2.1,1.6,3.6,3.4,2.7
			c0,0,288.1-184.4,290.2-185.7c2-1.2,3-2.1,3-4.4C961,688.7,959.4,686.4,957.8,687.3z"/>
		<path fill="#CCCCCC" d="M957.8,676.5c-0.4,0.2-291,185.7-291,185.7c-1.6,1.1-3.2,3.2-3,5.6c0.4,2.1,1.6,3.6,3.4,2.7
			c0,0,288.6-184.8,290.7-186c2-1.2,3-2.1,3-4.4C961,677.9,959.4,675.6,957.8,676.5z"/>
		<path fill="#CCCCCC" d="M957.8,665.6c-0.4,0.2-291.6,186-291.6,186c-1.6,1.1-3.2,3.2-3,5.6c0.4,2.1,1.6,3.6,3.4,2.7
			c0,0,289.2-185.1,291.2-186.4c1.9-1.3,3-2.1,3-4.4C961,667,959.4,664.7,957.8,665.6z"/>
		<path fill="#CCCCCC" d="M957.8,654.8c-0.4,0.2-292.1,186.4-292.1,186.4c-1.6,1.1-3.2,3.2-3,5.6c0.4,2.1,1.6,3.6,3.4,2.7
			c0,0,289.8-185.5,291.8-187c2-1.2,3-2.1,3-4.4C961,656.2,959.4,653.9,957.8,654.8z"/>
		<path fill="#CCCCCC" d="M900.7,535.2c0-3.2-2.5-7.1-5.8-5.1l-87.2,50.1c-3.2,2-5.8,6.2-5.8,9.4l7.1,109.9c0,3.2,3,7.4,6.3,5.5
			l86.7-52.8c3.2-2,5.8-6.2,5.8-9.4L900.7,535.2z M899.5,648.4l-82.1,51.2c-2.7,1.8-4.9,0.9-4.9-2l-6.7-105.7c0-2.9,2.1-6.9,4.9-8.7
			l82.3-47.2c2.7-1.8,4.9-0.9,4.9,2l6.3,101.5C904.4,642.6,902,646.6,899.5,648.4z"/>
		<path fill="#CCCCCC" d="M957.8,643.8c-0.4,0.4-292.5,187-292.5,187c-1.6,1.1-3.2,3.2-3,5.6c0.4,2.1,1.6,3.6,3.4,2.7
			c0,0,290.3-186,292.3-187.4c2-1.2,3-2.1,3-4.4C961,645.3,959.4,643,957.8,643.8z"/>
		<path fill="#CCCCCC" d="M957.8,633c-0.4,0.2-293.2,187.2-293.2,187.2c-1.6,1.1-3.2,3.2-3,5.6c0.4,2.1,1.6,3.6,3.4,2.7
			c0,0,290.9-186.4,292.7-187.7c2-1.2,3-2.1,3-4.4C961,634.5,959.4,632.1,957.8,633z"/>
		<polygon fill="#7A7A7A" points="1155.6,511.4 1022.4,593.9 1026.2,656.2 1159.5,573.9 		"/>
		<path fill="#CCCCCC" d="M1158.8,565.6c-14.5,8.8,2-1.2-130.2,80.4c-1.6,1.1-3.2,3.2-3,5.6c0.4,2.1,1.6,3.6,3.4,2.7
			c0,0,127.7-79.5,129.8-80.9c2-1.2,3-2.1,3-4.4C1162.1,566.8,1160.5,564.4,1158.8,565.6z"/>
		<path fill="#CCCCCC" d="M1158.1,555.2c-0.4,0.2-130,80.2-130,80.2c-1.6,1.1-3.2,3.2-3,5.6c0.4,2.1,1.6,3.6,3.4,2.7
			c0,0,127.6-79.3,129.6-80.5c2-1.2,3-2.1,3-4.4C1161.2,556.4,1159.8,554.1,1158.1,555.2z"/>
		<path fill="#CCCCCC" d="M1158.1,544.4c-0.4,0.2-130.5,80.5-130.5,80.5c-1.6,1.1-3.2,3.2-3,5.6c0.4,2.1,1.6,3.6,3.4,2.7
			c0,0,128.1-79.6,130.2-80.9c2-1.2,3-2.1,3-4.4C1161.2,545.6,1159.8,543.2,1158.1,544.4z"/>
		<path fill="#CCCCCC" d="M1156.8,534.2c-0.4,0.2-129.8,80.2-129.8,80.2c-1.6,1.1-3.2,3.2-3,5.6c0.4,2.1,1.6,3.6,3.4,2.7
			c0,0,127.4-79.5,129.4-80.7c2-1.2,3-2.1,3-4.4C1160.2,535.4,1158.4,533.1,1156.8,534.2z"/>
		<path fill="#CCCCCC" d="M1155.9,523.9c-0.4,0.2-129.4,80-129.4,80c-1.6,1.1-3.2,3.2-3,5.6c0.4,2.1,1.6,3.6,3.4,2.7
			c0,0,127-79.1,129.1-80.4c2-1.2,3-2.1,3-4.4C1159.2,525.1,1157.7,523,1155.9,523.9z"/>
		<path fill="#CCCCCC" d="M1155.6,513.2c-0.4,0.2-129.6,80.2-129.6,80.2c-1.6,1.1-3.2,3.2-3,5.6c0.4,2.1,1.6,3.6,3.4,2.7
			c0,0,127.2-79.3,129.3-80.7c2-1.2,3-2.1,3-4.4C1158.6,514.5,1157.2,512.1,1155.6,513.2z"/>
		<path fill="#262626" d="M902.9,532.9c0-3-2.5-7.1-5.8-5.1l-85.8,49.5c-3,2-5.8,6.2-5.8,9.2l7.1,108.1c0,3,3,7.4,6.3,5.5l85.5-52.1
			c3-2,5.8-6.2,5.8-9.2L902.9,532.9z M901.5,644l-80.7,50.5c-2.7,1.8-4.7,0.9-4.7-2l-6.5-103.9c0-2.9,2.1-6.7,4.7-8.5l81.1-46.5
			c2.7-1.8,4.7-0.9,4.7,2l6.3,99.9C906.4,638.4,904.2,642.2,901.5,644z"/>
		<path fill="#CCCCCC" d="M790.2,599c0-3.2-2.5-7.1-5.8-5.1L697.2,644c-3.2,2-5.8,6.2-5.8,9.4l7.2,114.4c0,3.2,3,7.4,6.3,5.5
			l86.5-53.4c3.2-2,5.8-6.2,5.8-9.4L790.2,599z M788.7,716.1l-82,51.9c-2.7,1.8-4.9,0.9-4.9-2l-6.7-110.2c0-2.9,2.1-6.9,4.9-8.7
			l82.3-47.2c2.7-1.8,4.9-0.9,4.9,2l6.3,105.5C793.7,710.3,791.4,714.3,788.7,716.1z"/>
		<path fill="#262626" d="M792.1,596.5c0-3-2.5-7.1-5.8-5.1l-85.8,49.4c-3,2-5.8,6.2-5.8,9.2l7.1,112.5c0,3,3,7.4,6.3,5.5l85.3-52.6
			c3-2,5.8-6.2,5.8-9.2L792.1,596.5z M790.9,711.7l-80.7,49.6c-2.7,1.8-4.7,0.9-4.7-2l-6.8-107c0-2.9,2.1-6.7,4.7-8.5l81.1-46.5
			c2.7-1.8,4.7-0.9,4.7,2l6.3,103.9C795.6,706.2,793.4,709.9,790.9,711.7z"/>
		<polygon fill="#B2B2B2" points="860.6,800.6 860.4,857 748.5,934 742.4,908.1 741.6,878.4 		"/>
		<polygon fill="#B2B2B2" points="988.2,717.3 991,771.1 865.8,854 864.2,798.2 		"/>
		<polygon fill="#B2B2B2" points="1113.2,635.5 1110.4,675.4 1107.9,692 995.4,768 991,715.4 		"/>
		<polygon fill="#F6E8A2" points="1127.2,628.8 1161.6,606.4 1162.5,615.4 1128.4,635.7 		"/>
		<polygon fill="#F6E8A2" points="672,917.7 701.3,900.3 702.2,909.3 673.8,926.6 		"/>
	</g>
	<g id="exploding_x5F_roof_1_">
		<path fill="#CCCCCC" d="M1096.2,536.9l-29.1,16.8c-2.9,1.6-5.8-2.3-5.8-5.3l-6.9-105.8c0-2.9,2.3-6.7,5.5-8.5l29.3-17
			c2.9-1.6,5.5,2,5.5,5.1l7.2,106.3C1101.7,531.5,1099.3,535.2,1096.2,536.9z"/>
		<path fill="#262626" d="M1097.1,421.3c0-2.9-2.3-6.7-5.5-5.1l-29.3,17c-2.9,1.6-5.5,5.5-5.5,8.5l6.9,105.8c0,2.9,2.9,7.1,5.8,5.3
			l29.1-16.8c2.9-1.6,5.5-5.5,5.5-8.5L1097.1,421.3z M1096.6,532.7l-24.9,15.2c-2.5,1.6-4.6,0.5-4.6-2.1l-6.3-101.9
			c0-2.7,2-6.2,4.6-7.8l24.6-14.3c2.5-1.6,4.6-0.5,4.6,2.1l6.7,101.2C1101.2,527.6,1099.1,531.1,1096.6,532.7z"/>
		<path fill="#B2B2B2" d="M563,708.3c0,0,57.9-33.2,61.1-34.8s11.3-0.2,11.3,11.1c0,10.8,12.7,228.9,12.7,228.9L568,965.3
			c0,0-14.5-219.4-15.2-231.7C551.9,713.8,563,708.3,563,708.3z"/>
		<path fill="#E5E5E5" d="M568.9,944.3c0,0,57.6-36.4,61.1-39.1c3.6-2.7,9.9-5.1,8.7-17.7s-14.3-214.1-14.3-214.1
			c2-1.1,11.3-1.4,11.3,11.1c0,11.1,8.1,153.3,11.4,206.8c1.1,19-4.6,25.1-10.8,29c-5.1,3-59.9,38.2-59.9,38.2s1.4-5.5,1.6-6.3
			c0.2-0.9,0.5-3.4-1.6-4.6C574.5,946.9,568.9,944.3,568.9,944.3z"/>
		<polygon fill="#262626" points="597.5,926 600.7,923.8 585.7,695.4 582.4,697.3 		"/>
		<path fill="#CCCCCC" d="M576.1,843.1c5.8-3,11.1-10.6,10.1-22.1c-1.8-28.1-7.6-116.2-7.6-116.2c0-2-0.5-3.6-1.6-4.7
			c-7.4,4.2-13.9,8-13.9,8s-11.4,5.3-10.1,25.3c0.4,6.2,4.2,61.3,7.6,118.3L576.1,843.1z"/>
		<path fill="#CCCCCC" d="M619.2,815.8c5.8-3,7.2-14.3,6.7-22.1l-7.4-111.8c0-2-0.4-3.4-1.4-4.4c-7.4,4.2-7.8,4.4-13.6,7.8
			c-6.3,3.6-13.6,6.7-12.9,18.7c0.4,5.3,3.8,57.7,7.1,107.4c0.5,8.1,5.3,10.6,10.5,9C611.8,819,619.2,815.8,619.2,815.8z"/>
		<path fill="#262626" d="M623.8,789.7l-6.9-105.5c-0.2-2.5-1.6-4.2-3.4-4.7c0,0-2.3,1.4-3.6,2.1l-9.4,5.3
			c-2.9,1.6-10.8,6-10.3,15.9c0.4,6.7,7.1,107.4,7.1,107.4c0.5,11.8,6.9,11.6,10.3,10.3c2.1-0.9,8-4.7,8-4.7
			C623.6,811.1,624.5,800.3,623.8,789.7z M613.7,688.9c0,0,6.7,99.4,7.1,107.4c0.5,7.8-1.4,12.2-4.4,13.9c-1.1,0.7-7.8,4.7-9.9,6
			c-2.5,1.4-4.6-1.2-4.9-6.3c-0.4-5.1-7.1-109.1-7.1-109.1c-0.5-7.1,3-12.3,6.2-13.9c2.9-1.6,6.7-3.8,8.8-5.1
			C611.4,680.6,613.7,682.2,613.7,688.9z"/>
		<g>
			<path fill="#262626" d="M584,817.4L576.8,709c-0.2-3-2.7-7.1-5.1-5.6c0,0-2.9,1.6-7.2,4c1.1-0.5,2.9-1.6,5.1-2.9
				c1.8,0.7,3.6,2.9,3.8,5.8c0.2,4.6,6.3,96.3,7.1,107.5c0.7,11.3-5.6,17.3-7.4,18.7c-2,1.1-5.5,3.2-7.4,4.6
				c-2.7,1.8-4.6,0.7-5.8-0.2c-2.7-45.4-6-87.4-6.7-102.3c0.9,15.4,4.2,60.4,7.1,108.1c2.3,0.2,4.4,0,6.2-0.9l6.9-4.2
				C580.7,837,584.8,827.9,584,817.4z"/>
			<path fill="#262626" d="M552.9,733.6c0-0.9,0-1.6,0-2.5C552.8,732,552.8,732.7,552.9,733.6z"/>
		</g>
		<path fill="#7A7A7A" d="M644.6,800.3l11.1-6.7c4.4,71.9,4.6,71.5,4.6,74c0,1.6-0.4,3.2-2.1,4.4c-1.8,1.1-8.7,5.5-8.7,5.5
			L644.6,800.3z"/>
		<path fill="#4C4C4C" d="M653.1,869c-0.7,0.4-3.6,2.1-4.2,2.5l0.4,5.8c0,0,6.9-4.6,8.7-5.5c1.8-1.1,2.1-2.7,2.1-4.4s-4.6-74-4.6-74
			l-5.1,3c0.7,11.1,4.2,67.5,4.2,68.9C654.7,867.2,653.9,868.7,653.1,869z"/>
		<polygon fill="none" stroke="#FFFFFF" stroke-width="0.647" stroke-miterlimit="10" points="550.5,700.3 649.4,644.6 666.2,901.7 
			568,965.3 		"/>
		<path fill="#B2B2B2" d="M962.3,480.1c0,0,40-22.6,42.9-24s9.9-0.2,9.9,9.7c0,9.6,11.3,202.9,11.3,202.9l-59.7,39.1
			c0,0-12.9-194.4-13.4-205.2C952.3,485,962.3,480.1,962.3,480.1z"/>
		<path fill="#E5E5E5" d="M967.3,689.3c0,0,39.6-25.5,42.9-27.9c3.2-2.3,8.8-4.4,7.6-15.6c-1.2-11.3-12.7-189.7-12.7-189.7
			c1.8-0.9,9.9-1.2,9.9,9.7c0,9.7,7.2,135.8,10.1,183.2c1.1,16.8-4,22.3-9.6,25.7c-4.6,2.7-41.8,27-41.8,27s1.2-4.9,1.4-5.6
			c0.2-0.9,0.4-3-1.4-4C972.4,691.5,967.3,689.3,967.3,689.3z"/>
		<polygon fill="#262626" points="986,677.2 988.9,675.4 975.5,472.9 972.6,474.5 		"/>
		<path fill="#CCCCCC" d="M967.2,603.7c5.3-2.7,9.7-9.4,9-19.6c-1.6-24.8-6.9-103-6.9-103c0-1.8-0.5-3.2-1.4-4.2
			c-6.7,3.6-5.6,3-5.6,3s-10.1,4.7-9,22.4c0.4,5.5,3.8,54.3,6.7,104.8L967.2,603.7z"/>
		<path fill="#CCCCCC" d="M1000.7,582.4c5.3-2.7,6.3-12.7,6-19.6l-6.7-99.2c0-1.8-0.4-3-1.2-3.8c-6.7,3.6-2.3,1.2-7.6,4.2
			c-5.6,3.2-12,6-11.4,16.4c0.4,4.6,3.2,51,6.3,95c0.5,7.2,4.7,9.6,9.2,8C998.7,582.4,1000.7,582.4,1000.7,582.4z"/>
		<path fill="#262626" d="M1004.8,559.2l-6-93.6c-0.2-2.1-1.4-3.6-2.9-4.2c0,0-2.1,1.2-3.2,1.8l-3.8,2c-2.7,1.4-9.6,5.5-9,14.1
			c0.4,5.8,6.3,95,6.3,95c0.5,10.5,6.2,10.3,9.2,9.2c2-0.7,2.5-1.4,2.5-1.4C1004.6,578,1005.5,568.6,1004.8,559.2z M995.9,469.9
			c0,0,5.8,88,6.3,95c0.4,6.9-1.2,10.6-4,12.3c-1.1,0.5-2.3,1.4-4.4,2.5c-2.3,1.2-4-1.1-4.4-5.6c-0.2-4.6-6.2-96.6-6.2-96.6
			c-0.4-6.2,2.7-10.8,5.5-12.3c2.7-1.4,1.4-0.7,3.2-1.8C994,462.5,995.9,463.8,995.9,469.9z"/>
		<g>
			<path fill="#262626" d="M974.2,580.9l-6.5-96.1c-0.2-2.7-0.7-7.2-3-6l-1.8,1.1c1.6,0.7,1.8,3.6,2,6.2c0.2,4,5.6,85.3,6.3,95.2
				s-4.9,15.4-6.7,16.4c-1.8,1.1,2-1.1,0.2-0.2c-2.5,1.4-4,0.5-5.1,0c-2.3-40.1-5.3-77.5-6-90.5c0.7,13.8,3.8,53.5,6.3,95.7
				c2.1,0.2,3.8,0,5.5-0.7l-0.7,0.4C971.2,598.3,974.8,590.3,974.2,580.9z"/>
			<path fill="#262626" d="M953.2,502.7c0-0.7,0-1.4,0-2.1C953.2,501.3,953.2,502,953.2,502.7z"/>
		</g>
		<polygon fill="none" stroke="#FFFFFF" stroke-width="0.5733" stroke-miterlimit="10" points="951.2,473.2 1020.8,434.2 
			1035.6,662.2 966.8,707.8 		"/>
	</g>
	<g id="Branding_2_">
		<g>
			<g>
				<path fill="#4C4C4C" d="M529.5,749.2c-0.5-8.5,2.9-17.7,7.6-20.8c4.7-3,9,1.2,9.6,9.6c0.5,8.5-2.9,17.7-7.6,20.8
					C534.4,762,530.2,757.7,529.5,749.2L529.5,749.2z"/>
				<g>
					<path fill="#E5E5E5" d="M540.2,732.9l-1.4,12.7l1.2,4.6c0.2-2.3,1.1-9,1.1-9.6c0.2,3.4,0.7,10.3,0.7,10.3l2.1-1.4l-1.2-18.2
						L540.2,732.9z"/>
					<path fill="#E5E5E5" d="M535.1,736.2l-2.7,1.8l1.2,18.2l2.1-1.4c0,0-0.4-6.9-0.7-10.3c0.2,0.5,2.7,9,2.7,9l2-1.2L535.1,736.2
						L535.1,736.2z"/>
				</g>
			</g>
		</g>
		<g>
			<path fill="#4C4C4C" d="M536.9,772.9l-0.2-4.6c0,0.4,0,0.4-0.2,1.1l-0.9,4.4l-0.9,0.5l-1.2-3c-0.2-0.4-0.2-0.4-0.2-0.9l0.4,4.6
				l-0.9,0.5l-0.4-6.2l1.1-0.7l1.6,3.6c0,0.2,0.2,0.2,0.2,0.4c0-0.4,0-0.4,0-0.5l1.1-5.3l1.1-0.7l0.4,6.2L536.9,772.9z"/>
			<path fill="#4C4C4C" d="M541.3,770.3c-0.4,0.4-0.7,0.7-1.1,0.9c-1.1,0.5-1.8,0.2-1.8-1.2c-0.2-1.4,0.5-2.9,1.6-3.4
				c0.9-0.5,1.4,0,1.6,1.1v0.5l-2.3,1.4c0,0.4,0,0.5,0.2,0.5c0.2,0.2,0.5,0.2,0.7,0c0.2,0,0.2-0.2,0.4-0.4c0.2-0.2,0.4-0.4,0.5-0.7
				l0.4,0.7C541.5,770.1,541.3,770.1,541.3,770.3z M539.9,767.5c-0.4,0.2-0.7,0.7-0.7,1.4l1.2-0.7
				C540.6,767.5,540.2,767.3,539.9,767.5z"/>
			<path fill="#4C4C4C" d="M543.8,768.7c-0.2,0.4-0.5,0.5-0.7,0.7c-0.5,0.4-0.7,0.2-0.7-0.5l-0.2-2.7l-0.5,0.4v-0.7l0.5-0.4
				l-0.2-1.2l0.9-0.5l0.2,1.2l0.7-0.4v0.9l-0.7,0.4l0.2,2c0,0.5,0,0.5,0.2,0.5c0.2,0,0.2-0.2,0.5-0.5l0.4,0.7
				C544,768.5,544,768.7,543.8,768.7z"/>
			<path fill="#4C4C4C" d="M546.6,764.3c-0.2,0-0.2,0-0.4,0c-0.2,0-0.4,0.4-0.4,0.5c-0.2,0.4-0.2,0.7-0.2,0.9l0.2,2l-0.9,0.5
				l-0.4-4.4l0.7-0.5l0.2,0.9c0.4-0.9,0.5-1.2,0.7-1.4c0.2-0.2,0.4-0.2,0.5,0L546.6,764.3z"/>
			<path fill="#4C4C4C" d="M549.1,766c-0.9,0.5-1.8,0-1.8-1.2c-0.2-1.2,0.5-2.7,1.6-3.2c0.9-0.5,1.8,0,1.8,1.2
				C550.7,764.1,550,765.5,549.1,766z M548.7,762.2c-0.4,0.2-0.7,1.1-0.7,2c0,0.7,0.5,1.2,0.9,0.9c0.4-0.2,0.7-1.1,0.7-2
				C549.6,762.4,549.3,762,548.7,762.2z"/>
		</g>
		<g>
			<path fill="#4C4C4C" d="M700.3,629.9l-0.2-8.7c0,0.5,0,0.7-0.2,1.8l-1.2,7.8l-1.1,0.5l-1.4-6c-0.2-0.5-0.2-0.7-0.4-1.8l0.2,8.7
				l-1.1,0.5l-0.4-11.8l1.4-0.9l2,7.4c0,0.4,0.2,0.4,0.2,0.9c0-0.5,0-0.7,0.2-0.9l1.6-9.4l1.4-0.9l0.4,11.8L700.3,629.9z"/>
			<path fill="#4C4C4C" d="M705.9,626.3c-0.5,0.7-0.9,1.1-1.4,1.4c-1.2,0.7-2.1-0.4-2.3-2.9c0-2.5,0.9-5.1,2.1-5.8
				c1.1-0.7,2,0.5,2,2.7v0.9l-2.9,1.6c0,0.7,0,0.9,0.2,1.2c0.2,0.5,0.5,0.7,1.1,0.4c0.2-0.2,0.4-0.2,0.5-0.4
				c0.2-0.4,0.4-0.5,0.9-1.2l0.5,1.4C706.2,626,706.1,626.3,705.9,626.3z M704.2,620.7c-0.5,0.4-0.9,1.1-0.9,2.3l1.8-1.1
				C705.1,620.7,704.7,620.3,704.2,620.7z"/>
			<path fill="#4C4C4C" d="M709.5,624.4c-0.4,0.5-0.7,0.9-0.9,1.1c-0.5,0.4-0.9,0-0.9-1.2l-0.2-5.1l-0.7,0.4v-1.2l0.7-0.5v-2.5
				l1.1-0.5v2.5l0.9-0.5v1.6l-0.9,0.5v3.6c0,0.9,0,1.1,0.2,1.1s0.4-0.4,0.5-0.9l0.4,1.2C709.8,624,709.6,624.2,709.5,624.4z"/>
			<path fill="#4C4C4C" d="M712.8,616.9c-0.2-0.2-0.2-0.2-0.4,0c-0.2,0.2-0.4,0.4-0.5,0.9c-0.2,0.5-0.4,1.1-0.4,1.8l0.2,3.8
				l-1.1,0.7l-0.2-8.3l1.1-0.5l0.2,1.8c0.4-1.6,0.7-2.3,1.1-2.5c0.2-0.2,0.4,0,0.7,0.2L712.8,616.9z"/>
			<path fill="#4C4C4C" d="M715.8,621.2c-1.2,0.7-2.3-0.5-2.3-3s0.9-4.9,2.1-5.6s2.3,0.5,2.3,3C718.1,618.2,717.2,620.5,715.8,621.2
				z M715.8,614.2c-0.5,0.4-1.1,1.8-1.1,3.2c0,1.4,0.5,2.3,1.1,2c0.5-0.4,1.1-1.8,1.1-3.2C716.9,614.9,716.3,614,715.8,614.2z"/>
			<path fill="#4C4C4C" d="M724.1,616.3l-1.6-3.8L722,613l0.2,4.7l-1.2,0.7l-0.4-11.8l2.1-1.2c0.9-0.5,1.4-0.5,1.8-0.2
				c0.4,0.4,0.5,1.1,0.5,2.1c0,0.9,0,1.6-0.4,2.3c-0.2,0.7-0.4,1.1-0.9,1.6l1.6,4.2L724.1,616.3z M722.7,607.3l-0.7,0.5v3.2l0.7-0.5
				c0.7-0.4,1.1-1.1,1.1-2.3C723.8,607.1,723.4,606.8,722.7,607.3z"/>
			<path fill="#4C4C4C" d="M729.8,613.3l-0.2,0.2c-0.5,0.4-0.7,0.2-0.9-0.4c-0.4,0.9-0.7,1.4-1.2,1.8c-0.7,0.4-1.2-0.2-1.4-1.4
				c0-0.4,0-0.5,0-0.9c0.2-0.9,0.4-1.4,1.1-2.1l1.2-1.4v-0.7c0-0.9-0.2-1.2-0.5-0.9c-0.4,0.2-0.5,0.7-0.5,1.1v0.2l-1.1,1.1
				c0-0.2,0-0.4,0-0.5c0-1.4,0.7-2.7,1.8-3.4c1.1-0.5,1.6,0,1.6,1.8v3.4c0,0.7,0,0.9,0.4,0.7L729.8,613.3z M728.3,610.2l-1.1,1.2
				c0,0.4,0,0.5,0,0.7c0,0.5,0.2,0.7,0.5,0.5c0.2,0,0.4-0.4,0.5-0.5c0-0.2,0.2-0.2,0.4-0.5L728.3,610.2z"/>
			<path fill="#4C4C4C" d="M731.2,602.5c-0.4,0.2-0.7-0.2-0.7-1.1c0-0.7,0.2-1.6,0.5-1.8c0.3-0.2,0.7,0.2,0.7,1.1
				C731.9,601.3,731.5,602.3,731.2,602.5z M730.8,612.6l-0.2-8.3l1.1-0.7l0.2,8.3L730.8,612.6z"/>
			<path fill="#4C4C4C" d="M733.1,611.1l-0.4-13.1l1.1-0.7l0.4,13.1L733.1,611.1z"/>
		</g>
		<g>
			<path fill="#CCCCCC" d="M850.6,522.5l-7.2,4c-6-13.8-15.4-29-15.4-29s7.2,19.6,10.5,31.8l-7.2,3.8c-8.7-32.7-24-63.2-24-63.2
				l8.5-4.7c18.4,21.1,25.9,41.2,25.9,41.2s-2.5-20.1-11.6-48.9l8.3-4.6c0,0,12,19.6,24.6,62.2l-7.4,4.2l-9.9-33.9
				C846.1,485.5,850.1,509.6,850.6,522.5z"/>
			<path fill="#CCCCCC" d="M884.8,501.1c-1.4,3.2-3.2,5.6-5.6,6.9c-6,3.4-14.7-3.2-19.6-16.8c-5.1-14.1-4.6-29,1.2-32.2
				c5.1-2.7,13.2,5.5,17.5,17.5l1.8,4.9l-13.4,7.4c1.4,3.6,2.1,5.1,3.2,6.7c2,2.7,4.6,2.1,6.5,1.1c0.7-0.4,1.4-1.1,2.1-2.1
				c0.9-1.4,1.4-2.7,2.3-6.3l5.1,9.4C885.7,499.2,885.2,500.4,884.8,501.1z M865.6,469.5c-2.3,1.2-2.7,5.6-0.9,12l8-4.4
				C870,470.4,868,468.3,865.6,469.5z"/>
			<path fill="#CCCCCC" d="M870.4,440l4.9-4.7c0,0,4.2,5.6,7.8,15.9l4.4-2.5l3,8.5l-4.4,2.5l7.1,19.9c1.8,5.1,2.5,6.3,3.2,5.8
				c0.5-0.4,1.1-1.4,1.8-4.4l4.7,7.4c-0.4,1.2-0.7,2.5-1.1,3.6c-0.9,2.7-2,4.7-3.4,5.5c-2.7,1.4-5.1-0.9-7.4-7.4l-9.9-27.7l-3,1.6
				l-3.4-8.5l2.5-1.2C874.7,448,870.4,440,870.4,440z"/>
			<path fill="#CCCCCC" d="M907.4,454c-0.9-0.7-1.4-0.7-2-0.5c-0.9,0.5-1.2,2.1-1.2,4.7c0,3,0.4,6,1.6,9.2l7.2,20.5l-5.3,2.9
				l-15.9-44.7l4.6-2.5l3.8,9.7c-0.7-8.7-0.5-12.3,1.1-13.1c1.1-0.5,2.3,0,4,1.6L907.4,454z"/>
			<path fill="#CCCCCC" d="M931.7,478.7c-5.8,3.2-13.8-4.6-18.7-17.9c-4.7-13.4-4-25.9,1.8-29.1c5.8-3.2,13.8,4.6,18.7,17.7
				C938.4,462.7,937.5,475.4,931.7,478.7z M918.2,440.6c-2.5,1.4-2.5,9.2,0.4,17c2.9,8,7.4,13.2,9.9,11.8s2.5-9.2-0.4-17.2
				C925.4,444.4,920.9,439.1,918.2,440.6z"/>
			<path fill="#CCCCCC" d="M931.7,402.9c0,0,5.5-3.2,7.2-4.4c4.2-2.3,10.5-3.2,13.6-0.9c3.6,2.7,7.4,8,9.4,13.9
				c1.8,4.9,2,7.1,2,10.8c0,3.6-3.2,7.8-3.2,7.8l16.1,22.3l-6,3.4l-15.6-21.7l-2.7,1.4l9,25.3l-6.3,3.2
				C938.4,415.3,931.7,402.9,931.7,402.9z M946.5,407.2l-3.6,1.8l6.9,16.6l3.2-2c3.4-2,3.6-4.6,1.4-10.8
				C952.5,406.8,949.3,406.1,946.5,407.2z"/>
			<path fill="#CCCCCC" d="M996.5,442.3l-1.1,0.5c-2.5,1.4-3.8,0.9-6.2-2.5c-0.5,4.9-1.6,7.4-3.8,8.7c-3.4,2-7.6-1.6-10.1-8.8
				c-0.5-1.4-0.9-3-1.2-4.7c-0.7-4.6-0.4-7.2,2-10.8l5.5-6.9l-0.9-2.9c-1.6-4.7-3.2-6.5-5.1-5.6c-1.6,0.9-2.1,3.4-1.4,5.6
				c0.2,0.4,0.2,0.5,0.9,1.8l-5.1,5.1c-1.1-2-1.2-2.3-1.8-3.6c-2.9-7.8-1.2-14.1,4.2-17.2c4.9-2.7,9.6,0.4,13.1,10.1l5.3,17.9
				c1.4,4,1.8,4.6,3.4,4.2L996.5,442.3z M983.1,425.2c0,0-2,3.8-2.5,5.3c-0.9,1.8-0.5,5.1-0.2,6.2c1.1,2.9,2.3,3.4,3.6,2.7
				c0.7-0.4,1.2-1.2,1.6-2.5c0.2-0.5,0.4-1.1,0.7-2.7L983.1,425.2z"/>
			<path fill="#CCCCCC" d="M985,388.8c-1.6,0.7-4.2-1.6-5.8-5.3c-1.4-3.8-1.4-7.4,0.2-8.1c1.6-0.7,4.2,1.6,5.6,5.3
				C986.6,384.4,986.6,387.9,985,388.8z M985,395.3l5.8-3c0,0,4.9,11.3,15,44.2l-5.6,3.2C993.4,417.1,985,395.3,985,395.3z"/>
			<path fill="#CCCCCC" d="M1009.4,434.7c-10.3-41.7-21.9-61.7-21.9-61.7l6.2-3.4c0,0,7.8,9.4,22.3,61.5L1009.4,434.7"/>
		</g>
		<g>
			<path fill="#4C4C4C" d="M525.2,676.3l0.7,2.1l0.2,14.5L524,694v-13.8l0,0l-4,2l-0.9-2.9L525.2,676.3z"/>
			<path fill="#4C4C4C" d="M530.9,690.4l-0.5-2.1l0.5-2.3c1.1-3.8,1.4-6,0.9-7.8c-0.4-1.2-1.1-2-2.1-1.4c-0.7,0.4-1.2,1.2-1.4,2.1
				l-1.2-2.1c0.4-1.1,1.2-2.3,2.3-2.9c2-1.1,3.6,0.4,4.6,3c0.7,2.5,0.4,5.1-0.4,7.6L533,686l0,0l3.2-1.6l0.9,2.9L530.9,690.4z"/>
			<path fill="#4C4C4C" d="M542.6,675.9c1.4,4.6,1.2,8.3-1.1,9.4c-2.3,1.1-4.4-1.8-5.6-6c-1.2-4.4-1.2-8.1,1.1-9.4
				C539.4,668.7,541.3,671.7,542.6,675.9z M538.1,678.3c1.1,3.4,2,4.7,2.7,4.4c0.7-0.4,0.7-2.3-0.4-5.6c-0.9-3.2-2-4.7-2.7-4.4
				C536.9,673,536.9,674.8,538.1,678.3z"/>
		</g>
		<polygon fill="#FFFFFF" points="518.5,696.5 506,703.6 503.3,692.9 516,686.2 		"/>
		<polygon fill="#7A7A7A" points="518.5,696.5 506,703.4 505.7,702.1 518.3,695.2 		"/>
		<polygon fill="#7A7A7A" points="518,694.4 505.3,701.1 505.1,699.8 517.6,693.1 		"/>
		<polygon fill="#7A7A7A" points="517.5,692 504.8,698.7 504.4,697.5 517.1,690.8 		"/>
		<polygon fill="#7A7A7A" points="516.9,689.6 504.2,696.5 503.9,695.2 516.6,688.4 		"/>
		<polygon fill="#7A7A7A" points="516.2,687.5 503.7,694.2 503.3,692.9 516,686.2 		"/>
		<polygon fill="#4C4C4C" points="503.3,692.9 507.4,690.6 509,696 504.6,698.4 		"/>
	</g>
	<g id="_x30_1_Highlights_2_">
		<path opacity="0.8" fill="#FFFFFF" enable-background="new    " d="M901.5,644l-80.7,50.5c-2.7,1.8-4.7,0.9-4.7-2l-6.5-103.9
			c0-2.9,2.1-6.7,4.7-8.5l81.1-46.5c2.7-1.8,4.7-0.9,4.7,2l6.3,99.9C906.4,638.4,904.2,642.2,901.5,644z"/>
		<path opacity="0.8" fill="#FFFFFF" enable-background="new    " d="M790.5,712l-80.4,49.3c-2.7,1.8-4.9,0.9-4.9-2.1l-7.1-107
			c0-3,2.1-6.9,4.9-8.7l80.5-47c2.7-1.8,4.9-0.9,4.9,2.1l6.7,103.9C795.3,705.4,793,710.1,790.5,712z"/>
		<path opacity="0.8" fill="#FFFFFF" enable-background="new    " d="M1096.6,532.7l-24.9,15.2c-2.5,1.6-4.6,0.5-4.6-2.1l-6.3-101.9
			c0-2.7,2-6.2,4.6-7.8l24.6-14.3c2.5-1.6,4.6-0.5,4.6,2.1l6.7,101.2C1101.2,527.6,1099.1,531.1,1096.6,532.7z"/>
	</g>
</g>
<g id="Layer_01">
	<g id="_x31_0_Bottom_Layer__x28_Body_x29__1_">
		<path fill="#FFFFFF" stroke="#000000" stroke-width="0.2342" stroke-miterlimit="10" d="M381.8,737.5l-213.7-32
			c-27.7,71.1-13.2,213.1-13.2,213.1l205.6,36.5C360.4,955.2,355.9,820,381.8,737.5z"/>
		<path fill="#FFFFFF" stroke="#000000" stroke-width="0.2342" stroke-miterlimit="10" d="M498.8,911.1L488,727.6
			c-57.9,14.5-94.3,50.9-94.3,223.1L498.8,911.1z"/>
		<path fill="#FFFFFF" stroke="#000000" stroke-width="0.2342" stroke-miterlimit="10" d="M248.5,963.9
			c-75.4-17-93.7-45.2-93.7-45.2l205.6,36.5C360.4,955.2,312.2,978.2,248.5,963.9z"/>
	</g>
	<g id="Cannister_Headlight_1_">
		<g>
			<g>
				<path fill="#FFFFFF" stroke="#000000" stroke-width="0.2342" stroke-miterlimit="10" d="M253.4,934.1c-0.4-1.7-2.1-3.2-3.6-3.2
					c-0.2,0-0.4,0-0.8,0.2c-0.2,0.2-31.3,17.3-32.2,18c-1,0.5-1.7,1.7-1.3,3.2c0.4,1.7,2.1,3.2,3.6,3.2c0.2,0,1,0,1.7-0.5
					c0.5-0.2,31.5-17.7,31.7-18C253.2,936.5,253.8,935.4,253.4,934.1z"/>
			</g>
			<g>
				<path fill="#FFFFFF" stroke="#000000" stroke-width="0.2342" stroke-miterlimit="10" d="M273.5,912.4c-0.4-1.7-2.1-3.2-3.6-3.2
					c-0.2,0-0.4,0-0.8,0.2c-0.2,0.2-31.3,17.3-32.2,18c-1.1,0.5-1.7,1.7-1.3,3.2c0.4,1.7,1.9,2.9,3.6,3.2c0.2,0,1,0,1.7-0.5
					c0.5-0.2,31.5-17.7,31.7-18C273.4,914.8,274,913.7,273.5,912.4z"/>
			</g>
			<g>
				<path fill="#FFFFFF" stroke="#000000" stroke-width="0.2342" stroke-miterlimit="10" d="M221.6,952.9c-0.8-3-3.4-5.3-6-5.3
					c-0.4,0-0.8,0-1.3,0.2c-0.4,0.2-4.8,2.7-6.6,3.8c-1.7,1.1-2.7,2.9-2.1,5.3c0.8,3,3.4,5.3,6,5.3c0.4,0,1.7-0.2,2.9-0.8
					c0.8-0.4,5.1-3.2,5.5-3.4C221.1,957.1,222.1,955.2,221.6,952.9z"/>
				<polygon fill="#FFFFFF" stroke="#000000" stroke-width="0.2342" stroke-miterlimit="10" points="208.5,959.2 207.9,959 
					207.9,953.9 208.5,954.1 				"/>
				<polygon fill="#FFFFFF" stroke="#000000" stroke-width="0.2342" stroke-miterlimit="10" points="210.8,959.4 210.1,959.4 
					210.1,954.3 210.8,954.4 				"/>
				<path fill="#FFFFFF" stroke="#000000" stroke-width="0.2342" stroke-miterlimit="10" d="M214.7,956.9c0.8,2.9-0.8,5.3-3.4,5.3
					c-2.7,0-5.3-2.4-6-5.3c-0.8-2.9,0.8-5.3,3.4-5.3C211.3,951.7,214.2,953.9,214.7,956.9z"/>
				<polygon fill="#FFFFFF" stroke="#000000" stroke-width="0.2342" stroke-miterlimit="10" points="208.5,959.2 208.5,954.3 
					208.2,954.3 208.2,959 				"/>
				<polygon fill="#FFFFFF" stroke="#000000" stroke-width="0.2342" stroke-miterlimit="10" points="210.8,959.4 210.8,954.6 
					210.4,954.6 210.4,959.4 				"/>
				<g>
					<g>
						<polygon fill="#FFFFFF" points="206.8,959.5 206.8,955.2 208.9,953.9 208.9,953.9 208.9,958.2 						"/>
						<path d="M208.5,954.6v3.4l-1.1,0.8v-3.4L208.5,954.6 M208.7,953.5l-2.4,1.3v5.1l0.5,0.2l2.4-1.3v-5.1L208.7,953.5L208.7,953.5
							z"/>
					</g>
					<g>
						<polygon fill="#FFFFFF" points="207,959.9 206.3,959.9 206.3,954.8 207,955 						"/>
						<polygon points="206.3,954.8 206.3,959.9 207,959.9 207,955 						"/>
					</g>
					<g>
						<polygon fill="#FFFFFF" points="207,955 209.4,953.5 208.7,953.5 206.3,954.8 						"/>
						<polygon points="208.7,953.5 206.3,954.8 207,955 209.4,953.5 						"/>
					</g>
					<g>
						<polygon fill="#FFFFFF" points="207.4,955.2 208.9,954.4 208.9,958.2 207.4,959.2 						"/>
						<path d="M208.5,955.2v2.9l-0.5,0.4v-2.9L208.5,955.2 M209.4,953.5l-2.4,1.3v5.1l2.4-1.3V953.5L209.4,953.5z"/>
					</g>
				</g>
				<g>
					<g>
						<polygon fill="#FFFFFF" points="208.7,959.9 208.7,955.6 210.8,954.4 210.8,954.4 210.8,958.7 208.9,959.9 						"/>
						<path d="M210.4,955.2v3.4l-1.1,0.8v-3.6L210.4,955.2 M210.8,953.9l-2.4,1.3v5.1l0.5,0.2l2.4-1.3v-5.1L210.8,953.9L210.8,953.9
							z"/>
					</g>
					<g>
						<polygon fill="#FFFFFF" points="208.9,960.4 208.4,960.3 208.4,955.4 208.9,955.4 						"/>
						<polygon points="208.4,955.4 208.4,960.3 208.9,960.4 208.9,955.4 						"/>
					</g>
					<g>
						<polygon fill="#FFFFFF" points="208.9,955.4 211.3,954.1 210.8,953.9 208.4,955.4 						"/>
						<polygon points="210.8,953.9 208.4,955.4 208.9,955.4 211.3,954.1 						"/>
					</g>
					<g>
						<polygon fill="#FFFFFF" points="209.4,955.8 210.8,954.8 210.8,958.7 209.4,959.5 						"/>
						<path d="M210.4,955.6v2.9l-0.5,0.4V956L210.4,955.6 M211.3,954.1l-2.4,1.3v5.1l2.4-1.3V954.1L211.3,954.1z"/>
					</g>
				</g>
			</g>
			<path fill="#FFFFFF" stroke="#000000" stroke-width="0.2342" stroke-miterlimit="10" d="M214.7,956.9c-0.8-3-3.4-5.3-6-5.3
				c-0.4,0-0.8,0-1.3,0.2c-0.4,0.2-4.8,2.7-6.6,3.8c-1.7,1.1-2.7,2.9-2.1,5.3c0.8,3,3.4,5.3,6,5.3c0.4,0,1.7-0.2,2.9-0.8
				c0.8-0.4,5.1-3.2,5.5-3.4C214.6,961.1,215.3,959.2,214.7,956.9z"/>
			<path fill="#FFFFFF" stroke="#000000" stroke-width="0.2342" stroke-miterlimit="10" d="M212.1,963.5c0-7.2-7-13.4-14.2-11.7
				c-2.4,0.5-11.3,3.2-11.3,3.2l11.1,27c0,0,7.4-6.5,11.1-9.8C211.1,970.2,212.1,967.1,212.1,963.5z"/>
			<path fill="#B2B2B2" d="M201.9,970c1.5,5.7,0,10.6-3.4,13.2l-3.8,2.2c-0.8,0.2-2.2,0-3,0c-7.7,0-15.8-6.8-18.1-15.3
				c-1.3-4.8-0.2-9.8,2.2-12.7l3.9-2.4c1.1-0.2,2.4-0.4,3.9-0.4C191.6,954.8,199.7,961.6,201.9,970z"/>
			<path fill="#CCCCCC" d="M198.8,971.9c2.2,8.5-2.2,15.3-10.1,15.3c-7.7,0-15.8-6.8-18.1-15.3c-2.2-8.5,2.2-15.3,10.1-15.3
				C188.5,956.5,196.6,963.3,198.8,971.9z"/>
			<path fill="#E5E5E5" d="M195.1,971.6c1.7,6.5-1.7,11.7-7.4,11.7s-11.7-5.3-13.2-11.7c-1.5-6.5,1.7-11.7,7.4-11.7
				S193.5,965.2,195.1,971.6z"/>
			<path fill="#FFFFFF" d="M242.8,928.4l4.3,1.1c6,1.5,6,4.3,6,4.3l-7,2.7c0,0-0.5-2.9-6.8-2.9L242.8,928.4z"/>
			
				<path fill="none" stroke="#000000" stroke-width="0.2342" stroke-linecap="round" stroke-linejoin="round" stroke-miterlimit="10" d="
				M246.3,936.5c0,0-0.5-2.9-6.8-2.9"/>
			<path fill="none" stroke="#000000" stroke-width="0.2342" stroke-linecap="round" stroke-miterlimit="10" d="M247.3,929.6
				c5.8,1.3,6,4.6,6,4.6"/>
			
				<line fill="none" stroke="#000000" stroke-width="0.2342" stroke-linecap="round" stroke-miterlimit="10" x1="242.8" y1="928.4" x2="247.3" y2="929.6"/>
		</g>
		<g>
			<g>
				<path fill="#FFFFFF" stroke="#000000" stroke-width="0.2504" stroke-miterlimit="10" d="M414.8,962.5c-0.5-1.7-2.2-3.2-4.1-3.2
					c-0.4,0-0.5,0-1,0.2c-0.4,0.2-35.8,17.3-37,18c-1.1,0.5-1.9,1.7-1.5,3.2c0.5,1.7,2.2,3.2,4.1,3.2c0.4,0,1.1,0,1.9-0.5
					c0.5-0.2,36-17.7,36.2-18C414.7,965,415.2,963.9,414.8,962.5z"/>
			</g>
			<g>
				<path fill="#FFFFFF" stroke="#000000" stroke-width="0.2504" stroke-miterlimit="10" d="M438,940.9c-0.5-1.7-2.2-3.2-4.1-3.2
					c-0.4,0-0.5,0-1,0.2c-0.4,0.2-35.8,17.3-37,18c-1.1,0.5-1.9,1.7-1.5,3.2c0.5,1.7,2.1,2.9,4.1,3.2c0.4,0,1.1,0,1.9-0.5
					c0.5-0.2,36-17.7,36.2-18C437.6,943.3,438.4,942.1,438,940.9z"/>
			</g>
			<g>
				<path fill="#FFFFFF" stroke="#000000" stroke-width="0.2504" stroke-miterlimit="10" d="M378.2,981.5c-0.8-3-3.9-5.3-6.8-5.3
					c-0.5,0-1,0-1.5,0.2c-0.5,0.2-5.5,2.7-7.5,3.8c-2.1,1.1-3.2,2.9-2.4,5.3c0.8,3,3.9,5.3,6.8,5.3c0.5,0,1.9-0.2,3.2-0.8
					c1-0.4,5.8-3.2,6.2-3.4C377.9,985.6,379,983.7,378.2,981.5z"/>
				<polygon fill="#FFFFFF" stroke="#000000" stroke-width="0.2504" stroke-miterlimit="10" points="363.5,987.6 362.8,987.5 
					362.8,982.5 363.5,982.5 				"/>
				<polygon fill="#FFFFFF" stroke="#000000" stroke-width="0.2504" stroke-miterlimit="10" points="366,987.8 365.2,987.8 
					365.2,982.7 366,982.9 				"/>
				<path fill="#FFFFFF" stroke="#000000" stroke-width="0.2504" stroke-miterlimit="10" d="M370.7,985.4c0.8,2.9-1,5.3-3.8,5.3
					c-2.9,0-6-2.4-6.8-5.3c-0.8-2.9,1-5.3,3.8-5.3C366.7,980.1,369.8,982.5,370.7,985.4z"/>
				<polygon fill="#FFFFFF" stroke="#000000" stroke-width="0.2504" stroke-miterlimit="10" points="363.5,987.6 363.5,982.7 
					363.1,982.7 363.1,987.5 				"/>
				<polygon fill="#FFFFFF" stroke="#000000" stroke-width="0.2504" stroke-miterlimit="10" points="366,987.8 366,983.1 
					365.7,983.1 365.7,987.8 				"/>
				<g>
					<g>
						<polygon fill="#FFFFFF" points="361.4,987.8 361.4,983.7 363.9,982.5 363.9,982.5 363.9,986.7 361.6,988 						"/>
						<path d="M363.5,983.3v3.2l-1.5,0.8V984L363.5,983.3 M363.8,982l-2.9,1.3v5.1l0.8,0.2l2.9-1.3v-5.1L363.8,982L363.8,982z"/>
					</g>
					<g>
						<polygon fill="#FFFFFF" points="361.6,988.4 360.9,988.4 360.9,983.3 361.6,983.5 						"/>
						<polygon points="360.9,983.3 360.9,988.4 361.6,988.4 361.6,983.5 						"/>
					</g>
					<g>
						<polygon fill="#FFFFFF" points="361.6,983.5 364.5,982 363.8,982 360.9,983.3 						"/>
						<polygon points="363.8,982 360.9,983.3 361.6,983.5 364.5,982 						"/>
					</g>
					<g>
						<polygon fill="#FFFFFF" points="362.2,983.7 363.9,982.9 363.9,986.7 362.2,987.6 						"/>
						<path d="M363.5,983.7v2.9l-0.8,0.4v-2.9L363.5,983.7 M364.5,982l-2.9,1.3v5.1l2.9-1.3V982L364.5,982z"/>
					</g>
				</g>
				<g>
					<g>
						<polygon fill="#FFFFFF" points="363.8,988.4 363.8,984.1 366,982.9 366.2,982.9 366.2,987.3 363.9,988.4 						"/>
						<path d="M365.7,983.7v3.2l-1.5,0.8v-3.2L365.7,983.7 M366,982.3l-2.9,1.3v5.1l0.8,0.2l2.9-1.3v-5.1L366,982.3L366,982.3z"/>
					</g>
					<g>
						<polygon fill="#FFFFFF" points="363.9,989 363.1,988.7 363.1,983.9 363.9,983.9 						"/>
						<polygon points="363.1,983.9 363.1,988.7 363.9,989 363.9,983.9 						"/>
					</g>
					<g>
						<polygon fill="#FFFFFF" points="363.9,983.9 366.7,982.5 366,982.3 363.1,983.9 						"/>
						<polygon points="366,982.3 363.1,983.9 363.9,983.9 366.7,982.5 						"/>
					</g>
					<g>
						<polygon fill="#FFFFFF" points="364.5,984.2 366.2,983.3 366.2,987.3 364.5,988.2 						"/>
						<path d="M365.7,984.2v2.9l-0.8,0.4v-2.9L365.7,984.2 M366.7,982.5l-2.9,1.3v5.1l2.9-1.3V982.5L366.7,982.5z"/>
					</g>
				</g>
			</g>
			<path fill="#FFFFFF" stroke="#000000" stroke-width="0.2504" stroke-miterlimit="10" d="M370.7,985.4c-0.8-3-3.9-5.3-6.8-5.3
				c-0.5,0-1,0-1.5,0.2c-0.5,0.2-5.5,2.7-7.5,3.8c-2.1,1.1-3.2,2.9-2.4,5.3c0.8,3,3.9,5.3,6.8,5.3c0.5,0,1.9-0.2,3.2-0.8
				c1-0.4,5.8-3.2,6.2-3.4C370.3,989.5,371.3,987.6,370.7,985.4z"/>
			<path fill="#FFFFFF" stroke="#000000" stroke-width="0.2504" stroke-miterlimit="10" d="M367.7,992c0-7.2-7.9-13.4-16.3-11.7
				c-2.9,0.5-13,3.2-13,3.2l12.8,27c0,0,8.5-6.5,12.8-9.8C366.5,998.8,367.7,995.5,367.7,992z"/>
			<path fill="#B2B2B2" d="M355.8,998.6c1.7,5.7,0,10.6-3.9,13.2l-4.1,2.2c-0.8,0.2-2.7,0-3.4,0c-8.9,0-18.3-6.8-20.7-15.3
				c-1.5-4.8-0.2-9.8,2.4-12.7l4.6-2.4c1.3-0.2,2.9-0.4,4.6-0.4C344.1,983.3,353.3,990.1,355.8,998.6z"/>
			<path fill="#CCCCCC" d="M352.4,1000.2c2.4,8.5-2.7,15.3-11.5,15.3s-18.3-6.8-20.7-15.3c-2.4-8.5,2.7-15.3,11.5-15.3
				C340.7,984.9,349.9,991.8,352.4,1000.2z"/>
			<path fill="#E5E5E5" d="M348,1000c1.9,6.5-1.9,11.7-8.5,11.7c-6.6,0-13.4-5.3-15.1-11.7c-1.9-6.5,1.9-11.7,8.5-11.7
				C339.6,988.4,346.2,993.7,348,1000z"/>
			<path fill="#FFFFFF" d="M402.7,957.1l4.8,1.1c7,1.5,6.8,4.3,6.8,4.3l-8.1,2.7c0,0-0.8-2.9-7.7-2.9L402.7,957.1z"/>
			
				<path fill="none" stroke="#000000" stroke-width="0.2504" stroke-linecap="round" stroke-linejoin="round" stroke-miterlimit="10" d="
				M406.5,965c0,0-0.8-2.9-7.7-2.9"/>
			<path fill="none" stroke="#000000" stroke-width="0.2504" stroke-linecap="round" stroke-miterlimit="10" d="M407.8,958
				c6.6,1.3,7,4.6,7,4.6"/>
			
				<line fill="none" stroke="#000000" stroke-width="0.2504" stroke-linecap="round" stroke-miterlimit="10" x1="402.7" y1="957.1" x2="407.8" y2="958"/>
		</g>
		<path fill="#FFFFFF" stroke="#000000" stroke-width="0.2342" stroke-miterlimit="10" d="M208.2,960.9c0.8,2.9-0.8,5.3-3.4,5.3
			s-5.3-2.4-6-5.3c-0.8-2.9,0.8-5.3,3.4-5.3C204.7,955.6,207.4,957.8,208.2,960.9z"/>
		<path fill="#4C4C4C" d="M184.9,1003.4c-1.3-5.5-6.2-10.4-11-11c-4.8-0.6-7.4,3.6-6,9.1c0.5,2.1,1.5,4.1,2.9,5.8
			c2.1,1.9,4.8,3,7.4,2.9c3.2,0,5.8-1.9,7.2-4.6C185.3,1005.1,185.1,1004.4,184.9,1003.4z"/>
		<path fill="#4C4C4C" d="M207.2,1007.7c-1.3-5.5-6.2-10.4-11-11c-4.8-0.5-7.4,3.6-6,9.1c0.5,2.1,1.5,4.1,2.9,5.8
			c2.1,1.9,4.8,3,7.4,2.9c3.2,0,5.8-1.9,7.2-4.6C207.4,1009.1,207.4,1008.4,207.2,1007.7z"/>
		<path fill="#E5E5E5" d="M171.9,1000.2c-1.1-3.9,1.1-7.2,4.8-7.2c3.8,0,7.5,3.2,8.7,7.2c1.1,3.9-1.1,7.2-4.8,7.2
			C177,1007.5,173.1,1004.4,171.9,1000.2z"/>
		<path fill="#F7AFAD" d="M193.2,1005.6c-1.1-3.9,1.1-7.2,4.8-7.2s7.5,3.2,8.7,7.2c1.1,4-1.1,7.2-4.8,7.2
			C198.1,1012.7,194.4,1009.6,193.2,1005.6z"/>
		<path fill="#4C4C4C" d="M356.3,1034.4c-1.3-5.5-6.2-10.4-11-11c-4.8-0.5-7.4,3.6-6,9.1c0.5,2.1,1.5,4.1,2.9,5.8
			c2.1,1.9,4.8,3,7.4,2.9c3.2,0,5.8-1.9,7.2-4.6C356.6,1035.8,356.6,1035.1,356.3,1034.4z"/>
		<path fill="#4C4C4C" d="M334.5,1030.5c-1.3-5.5-6.2-10.4-11-11c-4.8-0.5-7.4,3.6-6,9.1c0.5,2.1,1.5,4.1,2.9,5.8
			c2.1,1.9,4.8,3,7.4,2.9c3.2,0,5.8-1.9,7.2-4.6C334.9,1031.9,334.7,1031.2,334.5,1030.5z"/>
		<path fill="#E5E5E5" d="M343.4,1031.2c-1.1-3.9,1.1-7.2,4.8-7.2c3.8,0,7.5,3.2,8.7,7.2c1.1,3.9-1.1,7.2-4.8,7.2
			S344.5,1035.1,343.4,1031.2z"/>
		<path fill="#F7AFAD" d="M320.7,1028.4c-1.1-3.9,1.1-7.2,4.8-7.2c3.6,0,7.5,3.2,8.7,7.2c1.1,3.9-1.1,7.2-4.8,7.2
			C325.8,1035.6,321.7,1032.4,320.7,1028.4z"/>
	</g>
	<g id="_x30_1_Front_Panel_1_">
		<path fill="#4C4C4C" d="M152.7,804.9c-2.2-0.4-9.8-1.5-9.8-1.5s-0.4-30.9-0.5-34.7c-0.1-3.7-3.2-5.7-5.5-7
			c-2.2-1.3-6.6-3.2-7.9-3.8c-1.4-0.6-9.2-0.2-9.1,13c0.1,13.2,0.5,19.4,1.3,24.3c0.8,4.8,10.6,14.4,16.8,15.3
			c6.6,1.1,13.9,2.1,14.2,2.2c2.2,0.4,3.9-1.7,3.9-3.9C156.1,806.9,154.6,805.2,152.7,804.9z"/>
		<path fill="#CCCCCC" d="M498.3,724.5c0,0-18.9-75-37.7-84.3l-10.8-2.4c-23.8-4.8-133.3-23-221.2-31.3
			c-34.6,20.2-78.1,78.8-83.1,180.1c-5.8,112.8,13.7,222.1,13.7,222.1s3.8,8.5,14.9,14.9c17.1,9.8,47.7,19.6,80.2,26.6
			c53.3,11.3,101.8,17,123.2,14.5c9.6-1.1,23.2-5.1,32.7-8.9c9.4-3.8,106.9-43.9,106.9-43.9L498.3,724.5z M178.9,1012.5
			c-4.8-0.5-9.6-5.5-11-11c-1.3-5.5,1.3-9.4,6-9.1c4.8,0.5,9.6,5.5,11,11C186.3,1008.9,183.6,1012.9,178.9,1012.5z M167.8,971.9
			c-2.2-10,2.4-18,10.8-18s16.8,8.1,19,18c2.2,10-2.4,18-10.8,18C178.7,989.7,170,981.8,167.8,971.9z M200.7,1016.6
			c-4.8-0.8-9.6-5.8-11-11.3c-1.3-5.5,1.3-9.4,6-8.7c4.8,0.8,9.6,5.8,11,11.3C208.2,1013.7,205.3,1017.5,200.7,1016.6z
			 M327.8,1040.8c-4.8-0.5-10-5.5-11.3-11.3c-1.3-5.7,1.5-10,6.5-9.4c4.8,0.5,10,5.5,11.3,11.3
			C335.7,1037,332.8,1041.1,327.8,1040.8z M327.8,979.9c8.5,0,17.3,8.4,19.8,18.7c2.4,10.4-2.7,18.7-11.1,18.7
			c-8.5,0-17.3-8.4-19.8-18.7C314.3,988.2,319.2,979.9,327.8,979.9z M350.6,1045.2c-4.8-1-10-6.5-11.3-12c-1.3-5.8,1.5-9.8,6.5-9.1
			c4.8,1,10,6.5,11.3,12C358.5,1042.1,355.6,1046.1,350.6,1045.2z M360.4,955.2c0,0-48.3,23.2-111.9,8.9
			c-75.4-17-94.3-51.3-94.3-51.3s-11.6-142.3,16.1-213.4l211.6,38.2C355.9,820,360.4,955.2,360.4,955.2z"/>
		<path fill="#262626" d="M461.4,1044.7v-6.6h-2.2l-0.2,0.2v-2.4c0,0-29.8,12.5-55.2,22.3c-10,3.9-18.3,5.5-26,6.5
			c-27.1,3.6-78.3-4.8-123.2-14.5c-25.2-5.5-64.8-17.3-80.2-26.6c-12.5-7.5-15.8-18.1-15.8-18.1s-9.6,2.2-8.7,7.9c0,0.2,0,0.4,0,0.4
			h-1.1v3.9l2.1,1.5c0.2,1.3,0.5,2.7,0.8,3.9h-1v3.9l2.1,1.5c0.2,1.1,0.4,2.1,0.5,3.2h-0.5v3.9l1.5,1.1c0.4,1.7,0.5,2.9,0.5,2.9
			s8.5,13,14.5,16.4c6.2,3.6,48.5,18.5,88.2,31.2c38.5,12.3,67,16.8,80.5,19.2c27.7,5.1,63.2-5.8,74.5-11
			c11.3-5.1,46.4-20.6,46.4-20.6v-5.1l2.2-1v-6.6h-2.2l-0.2,0.2v-4.8l2.2-1v-6.6h-2.2l-0.2,0.2v-4.8L461.4,1044.7z"/>
	</g>
	<path fill="#4C4C4C" d="M220,680.3c0.5,0.8,0.8,1.9,0.4,2.9l-2.7,7.5c-0.5,1.9-2.9,3-4.8,2.7l-17.1-3.2c-0.5-0.2-1-0.4-1.3-0.5
		c0.4,0.5,1.1,1.1,2.1,1.3l17.1,3.2c2.1,0.4,4.1-1,4.8-2.7l2.7-7.5C221.7,682.3,221.1,681,220,680.3z"/>
	<path fill="#4C4C4C" d="M302.3,658.7c3.9,4.3,5.1,12.8,1.3,23.3c-4.8,14.2-14.4,24-25.1,24.9c-3.8,0.4-7-1-9.4-3
		c2.4,2.7,5.8,4.1,10.1,3.8c11-0.8,20.2-10.8,25.1-24.9C308.3,671.7,306.8,662.9,302.3,658.7z"/>
	<path fill="#4C4C4C" d="M370.3,707c0.5,0.8,0.8,1.9,0.4,3l-2.7,7.9c-0.5,1.9-2.9,3.2-4.8,2.9l-16.6-3c-0.4,0-1-0.2-1.3-0.5
		c0.4,0.5,1.1,1.1,1.9,1.1l16.6,3c1.9,0.4,3.9-1,4.8-2.9l2.7-7.9C372,709.1,371.5,707.7,370.3,707z"/>
	<path fill="#4C4C4C" d="M317.9,635.7c0,0.2,0,0.2,0,0.4c0,2.2-3.6,4.8-7.9,5.7c-3.4,0.8-6.2,0.2-7.4-1.1c0.4,1.9,3.8,2.9,7.7,2.1
		c4.3-1,7.9-3.4,7.9-5.7C318.5,636.7,318.2,636.1,317.9,635.7z"/>
	<path fill="#262626" d="M498.8,911.1L488,727.6c-57.9,14.5-94.3,50.9-94.3,223.1L498.8,911.1z"/>
	<polygon fill="#CCCCCC" points="485.9,798.9 491.2,912.8 496.3,910.7 486.3,729.8 483.9,730.8 487.5,794.6 	"/>
	<path fill="#4C4C4C" d="M381.8,737.5l-211.6-38.2c-27.7,71.1-16.1,213.3-16.1,213.3s18.9,34.3,94.3,51.3
		c63.7,14.4,111.9-8.9,111.9-8.9S355.9,820,381.8,737.5z"/>
	<path fill="#4C4C4C" d="M421.4,809.6l8.5,117.1l59.3-22.3l-2.4-45.2l-24.9,7.5l27.7-9.4l3.6,46.9l4.8,2.1l0.2,4.3L393.7,951
		c0,0-20.6-208,94.3-223.3l0.2,2.2c0,0-61.9,11.5-76.6,77.1l76-27.4v2.2l-76.4,27c0,0-5.7,20.6-5.7,21.7c0,1.1,0.8,16.1,1.1,17.7
		c0.4,1.7-0.8,1.7-1.7,1.7c-1,0-2.9,0.2-2.9,0.2c-6.5,38.2-6,94.5-6,94.5l98-37.7l-3.8-1.7l-64.3,24.7l-6.5-120.1l-8.4,3.2l0.2-1
		l74.5-27.6v1L421.4,809.6z"/>
	<polygon fill="#CCCCCC" points="467.4,920.1 457,924.1 457,922.6 467.4,918.6 	"/>
	<polygon fill="#E5E5E5" points="430.1,928.4 433.9,929.6 493.1,906.5 490.4,905.4 	"/>
	<polygon fill="#CCCCCC" points="483.5,799.6 481.6,800.4 481.6,791.5 483.5,791 	"/>
	<path fill="#E5E5E5" d="M303.5,682.2c-4.8,14.2-14.4,24-25.1,24.9c-11,0.8-17-10-12.5-24.3c5.1-16.3,17.1-25.9,27.9-27
		C303.8,654.8,309.2,666.3,303.5,682.2z"/>
	<path fill="#E5E5E5" d="M363.5,720.6l-16.6-3c-1.9-0.4-3-2.2-2.2-4.1l2.7-7.9c0.5-1.9,2.9-3.2,4.8-2.9l16.6,3
		c1.9,0.4,3,2.2,2.2,4.1l-2.7,7.9C367.5,719.7,365.4,720.9,363.5,720.6z"/>
	<path fill="#CCCCCC" d="M291.3,661.1c-7.9,0.5-17.5,10.1-21.1,21.5c-3.8,11.3-0.2,20,7.7,19.2c7.9-0.5,17.5-10.1,21.1-21.5
		C302.8,669.1,299.4,660.4,291.3,661.1z M296.3,680.6c-3,9.2-10.8,17-17.3,17.5c-6.6,0.5-9.4-6.6-6.5-15.6c3-9.2,10.8-17,17.3-17.5
		C296.6,664.4,299.4,671.4,296.3,680.6z"/>
	<path fill="#B2B2B2" d="M290.1,665c-4.8,0.4-10,4.6-13.7,10.1l16.4,13.2c1.5-2.2,2.9-4.8,3.8-7.7
		C299.4,671.4,296.6,664.4,290.1,665z"/>
	<path fill="#B2B2B2" d="M361.6,715.3l-9.6-1.7c-1-0.2-1.5-1.1-1.1-2.2l0.5-1.9c0.4-1,1.5-1.7,2.4-1.5l9.6,1.7
		c1,0.2,1.5,1.1,1.1,2.2l-0.5,1.9C363.8,714.7,362.6,715.6,361.6,715.3z"/>
	<path fill="#E5E5E5" d="M248.5,963.9c-75.4-17-94.3-51.3-94.3-51.3L360.3,955C360.4,955.2,312.2,978.2,248.5,963.9z"/>
	<path fill="#4C4C4C" d="M446.5,760c0,0-1.3,0.2-1.9,0.4c-0.6,0.2-1.5,1-1.9,4.1s-1,15.4-1,17.1s0,3.4,1.9,3.4s1.9,0,1.9,0
		s-3.2,8.1-3.9,10.1c-0.8,2.1-2.7,11.8-2.7,11.8s-3,0.2-4.6,0.4c-1.5,0.2-3.6,1.7-3.6,7.7c0,6,1,33.9,1.5,38.1
		c0.5,4.2,1.3,5.5,4.8,5.5c3.6,0,17,0.2,19,0c2.1-0.2,6.2-1.7,6-6.8c-0.2-5.1-1.5-36-1.9-39.2c-0.4-3.2-2.2-5.8-5.3-5.8
		s-7.2-0.2-7.2-0.2l0.4-8.1c0,0,2.9-5.5,3.4-6.6s0.5-2.4,0.5-3.6c0-1.2,0.2-2.9,0.2-2.9s1.1-0.5,1.7-1c0.5-0.4,1.9-0.8,1.7-2.9
		c-0.2-2.1,0-10.1,0-10.1l-1.5-0.8c0,0,0.2-1.7-0.2-3.2c-0.4-1.5-2.1-1.1-2.1-1.1s-1.7-0.4-1.9,1.5H448c0,0-0.2-5.1-0.2-6
		C448,761.2,447.6,759.4,446.5,760z"/>
	<path fill="#7A7A7A" d="M458.9,854.2l-7.9-7.4c0,0-0.5-17-0.5-17.7c0-0.8-0.5-1-1.9-1c-1.4,0-8.1,0.5-8.1,0.5s-6.5-8.4-6.8-9.6
		c-0.4-1.3-0.4-4.1-0.4-5.5c0-1.4,1.1-4.8,1.1-4.8s-3.6-0.2-3.6,6.2c0,6.5,1.1,34.6,1.5,38.1c0.4,3.6,1.1,5.3,4.8,5.5
		c3.8,0.2,14.9,0.2,19,0C460.4,858.5,458.9,854.2,458.9,854.2z"/>
	<path fill="#E5E5E5" d="M213.2,692.8l-17.1-3.2c-2.1-0.4-3-2.2-2.4-4.1l2.7-7.5c0.5-1.9,2.9-3,4.8-2.7l17.1,3.2
		c2.1,0.4,3,2.2,2.4,4.1l-2.7,7.5C217.3,691.8,215.1,693,213.2,692.8z"/>
	<path fill="#E5E5E5" d="M318.1,636.3c0,2.2-3.6,4.8-7.9,5.7c-4.3,1-7.9-0.2-7.9-2.4c0-2.2,3.6-4.8,7.9-5.7
		C314.5,633,318.1,634,318.1,636.3z"/>
	<path fill="#C1272D" d="M313.9,633.9c0-1-1.5-1.7-3.6-1.7c-2.1,0-3.6,0.8-3.6,1.7l-1.9,3.9c0.2,1,1.7,1.5,3.6,1.5s2.9-0.2,3.6-1.7
		L313.9,633.9z"/>
	<path fill="#CCCCCC" d="M211,688.2l-9.8-1.9c-1-0.2-1.5-1.1-1.3-2.1l0.5-1.9c0.4-1,1.5-1.7,2.4-1.5l9.8,1.9c1,0.2,1.5,1.1,1.3,2.1
		l-0.5,1.7C213,687.8,212,688.3,211,688.2z"/>
	<ellipse fill="#C1272D" cx="360.9" cy="712.5" rx="3.2" ry="2.4"/>
	<ellipse fill="#CCCCCC" cx="354.4" cy="711.3" rx="3.2" ry="2.4"/>
	<ellipse fill="#CCCCCC" cx="210.3" cy="684.9" rx="3.2" ry="2.4"/>
	<ellipse fill="#C1272D" cx="203.8" cy="683.9" rx="3.2" ry="2.4"/>
	<path fill="#262626" d="M171.6,699.3c-7.2,28.6-12.3,68.9-12.3,68.9s71.6,13.9,76.2,14.5c4.6,0.8,18-4.8,19-5.7
		c2.1-1.1,6-2.1,9.4-1.3c3.2,0.8,5.5,3.9,6.5,5.7c0.5,1,4.8,8.5,10.1,10c5.5,1.5,87.1,16.8,87.1,16.8c2.9-24,14.2-70.4,14.2-70.4
		L171.6,699.3z"/>
	<path fill="#FFFFFF" d="M498.8,911.1c0,0-22.3,30-66.6,46.1c-34.8,12.7-38.5-6.5-38.5-6.5L498.8,911.1z"/>
	<path fill="#4C4C4C" d="M157.4,909.2L360.4,951l1.5-90.5l-2.9-1l-3.8,85.8c0,0-164.5-33.9-173.7-35.6c-9.2-1.7-18-4.8-18-15.6
		c0-10.4,0.2-117.7,0.2-117.7l86.7,17l-41.1,62.4l-15.1,30.5c0,0,0.5,0.5,1.5,1.3c0.4,0.4,27-40.4,27-40.4l37.9-52.4L362,814.3
		l-3.4,41.5l3.8,1.5l3.8-46.2l-207.8-39.6C158.5,771.5,152.4,831.9,157.4,909.2z"/>
	<path fill="#262626" d="M362.6,857.3l3.8-46.2l-207.8-39.6c0,0-5.3,52.8-1,137.7l202.8,41.8l1.5-90.5l-2.9-1l-3.8,85.8
		c0,0-158.3-32.7-173.7-35.6c-13-2.4-18-7-18-15.6c0-8.9,0.2-75.6,0.2-75.6l62.2,12.3l24.5-37.3l10,1.5l-27,37.3L362.6,857.3z"/>
	<path fill="#262626" d="M226.1,830.5l-16.6,25.2l-15.1,30.5c0,0,0.5,0.5,1.5,1.3c0.4,0.4,27-40.4,27-40.4l11-15.1L226.1,830.5z"/>
	<path fill="#E5E5E5" d="M216.8,845.6L216.8,845.6l46.2-63.4l0,0c0.2-0.4,0.4-0.8,0.4-1.3c0-1.5-1.1-2.7-2.7-2.7
		c-1,0-1.7,0.5-2.2,1.3l0,0l-44.4,63.9l0,0c-0.2,0.2-0.4,0.5-0.4,1c0,0.2,0,0.5,0.2,0.8l-3.6,6v1.9h3.2l4.1-1.3c0,0,3-5.1,3.2-5.3
		c0.1-0.2-0.2-0.8-0.4-1c-0.2-0.2-1.1-0.2-1.3,0.2c-0.2,0.4-2.2,3.8-2.2,3.8s-1-1.1-1.1-1.1c-0.2,0,0-1.3,0-2.1
		C216.3,846.2,216.6,846,216.8,845.6z"/>
	<path fill="none" stroke="#4C4C4C" stroke-width="0.2342" stroke-miterlimit="10" d="M340.3,788.6l-154.6-29.6
		c-6.2-1.1-10.6-7.2-9.8-13.2l3.4-22.1c1-6,6.6-10,12.8-8.9l154.6,28.3c6.2,1.1,10.6,7.2,9.8,13.2l-3.4,23.3
		C352.4,785.8,346.5,789.8,340.3,788.6z"/>
	<g id="Branding_1_">
		<g>
			<g>
				<path fill="#262626" d="M239.6,984.1c-1.1-9.4,4.8-15.6,12.8-14.2c8.1,1.5,15.6,10.4,16.8,19.8c1.1,9.4-4.8,15.6-12.8,14.2
					C248.3,1002.4,240.8,993.5,239.6,984.1L239.6,984.1z"/>
				<g>
					<path fill="#E5E5E5" d="M257.6,977.7l-2.2,11.8l2.2,6c0.4-2.1,1.7-8.5,1.7-8.9c0.4,3.9,1.3,11.5,1.3,11.5l3.8,0.8l-2.4-20.4
						L257.6,977.7z"/>
					<path fill="#E5E5E5" d="M248.9,976.2l-4.6-1l2.4,20.4l3.8,0.8c0,0-1-7.5-1.3-11.5c0.2,0.5,4.8,12.3,4.8,12.3l3.4,0.5
						L248.9,976.2L248.9,976.2z"/>
				</g>
			</g>
		</g>
		<g opacity="0.59">
			<path fill="#FFFFFF" d="M301.5,909.4v1.3l-3,7l-1.9-0.4l3-6.5l0,0l-3.4-0.5v-1.7L301.5,909.4z"/>
			<path fill="#FFFFFF" d="M302.4,918.4v-1.3l1-0.8c1.7-1.3,2.4-2.2,2.4-3.2c0-0.8-0.4-1.3-1.1-1.5c-0.5-0.2-1.1,0.2-1.5,0.4
				l-0.5-1.5c0.5-0.4,1.3-0.5,2.4-0.4c1.7,0.4,2.7,1.7,2.7,3.2c0,1.5-1,2.4-1.9,3.4l-0.8,0.5l0,0l2.9,0.5v1.7L302.4,918.4z"/>
			<path fill="#FFFFFF" d="M314.1,916.2c0,2.7-1,4.3-2.9,3.9s-2.9-2.4-2.9-5.1c0-2.4,1-4.3,2.9-3.9
				C313.4,911.4,314.1,913.7,314.1,916.2z M310.3,915.4c0,2.1,0.4,3,1.1,3.2s1-0.8,1-2.9c0-1.9-0.4-3-1.1-3.2
				C310.7,912.6,310.3,913.3,310.3,915.4z"/>
			<path fill="#FFFFFF" d="M314.8,918.4c0-1.1,0.5-1.7,1.3-1.9l0,0c-0.8-0.5-1.1-1.3-1.1-2.1c0-1.5,1.1-2.2,2.7-2.1
				c1.7,0.4,2.4,1.7,2.4,2.7c0,0.8-0.4,1.5-1.1,1.7l0,0c0.8,0.4,1.3,1.3,1.3,2.4c0,1.5-1.1,2.4-2.9,2.1
				C315.8,920.9,314.8,919.6,314.8,918.4z M318.6,919c0-0.8-0.5-1.3-1.1-1.7c-0.5,0-1,0.5-1,1.1c0,0.5,0.4,1.3,1.1,1.5
				C318.2,920,318.6,919.6,318.6,919z M316.7,914.5c0,0.5,0.4,1.1,1.1,1.3c0.4,0,0.8-0.4,0.8-1s-0.2-1.1-1-1.3
				C316.9,913.5,316.7,913.9,316.7,914.5z"/>
		</g>
		<path fill="#FFFFFF" d="M498.3,932.7c-12.7,8.1-75,31.7-89.4,34.8c-1.3,0.4-1.9,1.9-1.5,3.2l0,0c0.4,1.3,1.9,1.7,3.2,1.5
			c14.4-3.4,76.8-26.7,89.4-34.8c1.1-0.8,1.9-1.9,1.5-3.2l0,0C501,933,499.7,932.2,498.3,932.7z"/>
		<path fill="#FFFFFF" d="M499,942c-12.7,8.1-99,38.6-113.3,41.8c-1.3,0.4-1.9,1.9-1.5,3.2l0,0c0.4,1.3,1.9,1.7,3.2,1.5
			c14.4-3.4,100.7-33.8,113.3-41.8c1.1-0.8,1.9-1.9,1.5-3.2l0,0C501.6,942.1,500.2,941.4,499,942z"/>
		<path fill="#FFFFFF" d="M501.2,978.9c-12.7,8.1-99,38.6-113.3,41.8c-1.3,0.4-1.9,1.9-1.5,3.2l0,0c0.4,1.3,1.9,1.7,3.2,1.5
			c14.4-3.4,100.7-33.8,113.3-41.8c1.1-0.8,1.9-1.9,1.5-3.2l0,0C504,979.1,502.6,978.6,501.2,978.9z"/>
		<path fill="#FFFFFF" d="M502,988.2c-12.7,8.1-76.2,31.2-90.8,34.6c-1.3,0.4-1.9,1.9-1.5,3.2l0,0c0.4,1.3,1.9,1.7,3.2,1.5
			c14.4-3.4,78.1-26.4,90.8-34.6c1.1-0.8,1.9-1.9,1.5-3.2l0,0C504.8,988.4,503.3,987.8,502,988.2z"/>
		<path fill="#FFFFFF" d="M502.6,952.7L502.6,952.7c-0.5-1.3-1.9-1.9-3.2-1.5c-12.7,8.1-99,38.6-113.3,41.8
			c-2.1,0.5-13.6,0.5-13.6,0.5c-1.3,0-2.2,1.1-2.2,2.2c0,1.1,1.1,2.2,2.2,2.2c0,0,12.8-0.2,14.9-0.5l0,0c0.2,0,0.2,0,0.4,0
			c14.4-3.4,100.7-33.8,113.3-41.8C502.3,955.2,503.1,954.1,502.6,952.7z"/>
		<path fill="#FFFFFF" d="M503.3,962L503.3,962c-0.5-1.3-1.9-1.9-3.2-1.5c-12.7,8.1-99,38.6-113.3,41.8c-2.1,0.5-20.6-0.2-20.6-0.2
			c-1.3,0-2.2,1.1-2.2,2.2l0,0c0,1.3,1.1,2.2,2.2,2.2c0,0,19.8,0.8,21.9,0.2l0,0c0.2,0,0.2,0,0.4,0c14.4-3.4,100.7-33.8,113.3-41.8
			C502.9,964.4,503.6,963.3,503.3,962z"/>
		<path fill="#FFFFFF" d="M503.9,971.2L503.9,971.2c-0.5-1.3-1.9-1.9-3.2-1.5c-12.7,8.1-99,38.6-113.3,41.8
			c-2.1,0.5-14.4,0.2-14.4,0.2c-1.3,0-2.2,1.1-2.2,2.2c0,1.1,1.1,2.2,2.2,2.2c0,0,13.6,0.2,15.6-0.2l0,0c0.2,0,0.2,0,0.4,0
			c14.4-3.4,100.7-33.8,113.3-41.8C503.6,973.6,504.4,972.6,503.9,971.2z"/>
	</g>
	<g id="_x30_1_Highlights_1_">
		<path opacity="0.4" fill="#FFFFFF" enable-background="new    " d="M197.6,833l-18-2.9c0,0,0,36.2,0,38.5c0,2.2,2.2,2.9,3.9,1.7
			c1.7-1.1,8.9-5.8,10.1-6.8c1.3-1,3.8-3.6,3.8-6.6C197.6,854.2,197.6,833,197.6,833z"/>
		<path opacity="0.8" fill="#FFFFFF" enable-background="new    " d="M210.8,854.2L210.8,854.2c-0.5-0.4-0.8-1.1-0.4-1.7l50.9-75
			c0.4-0.5,1.1-0.8,1.7-0.4l0,0c0.5,0.4,0.8,1.1,0.4,1.7l-50.9,75C212.1,854.2,211.3,854.5,210.8,854.2z"/>
	</g>
	<g>
		<path fill="#FCB813" d="M215.2,732.9c0,0.8,0.6,1.5,1.4,1.7s1.4-0.4,1.4-1.1c0-0.8-0.6-1.5-1.4-1.7
			C215.8,731.6,215.2,732.1,215.2,732.9z"/>
		<path fill="#FCB813" d="M214.8,732c0.8,0.1,1.4-0.4,1.4-1.1c0-0.8-0.6-1.5-1.4-1.7c-0.8-0.1-1.4,0.4-1.4,1.1
			C213.4,731.1,214,731.9,214.8,732z"/>
		<path fill="#FCB813" d="M212,731.8c0.8,0.1,1.4-0.4,1.4-1.1c0-0.8-0.6-1.5-1.4-1.7c-0.8-0.1-1.4,0.4-1.4,1.1
			C210.6,730.9,211.2,731.6,212,731.8z"/>
		<path fill="#FCB813" d="M210.6,733.9c0.8,0.1,1.4-0.4,1.4-1.1c0-0.8-0.6-1.5-1.4-1.7c-0.8-0.1-1.4,0.4-1.4,1.1
			C209.2,733,209.8,733.8,210.6,733.9z"/>
		<path fill="#FCB813" d="M210.8,733.9c-0.8-0.1-1.4,0.4-1.4,1.1c0,0.8,0.6,1.5,1.4,1.7c0.8,0.1,1.4-0.4,1.4-1.1
			C212.2,734.8,211.5,734.1,210.8,733.9z"/>
		<path fill="#FCB813" d="M213,738.9c0.8,0.1,1.4-0.4,1.4-1.1c0-0.8-0.6-1.5-1.4-1.7c-0.8-0.1-1.4,0.4-1.4,1.1
			C211.6,738,212.2,738.8,213,738.9z"/>
		<path fill="#FCB813" d="M215.6,740.6c0.8,0.1,1.4-0.4,1.4-1.1c0-0.8-0.6-1.5-1.4-1.7s-1.4,0.4-1.4,1.1
			C214.2,739.7,214.8,740.4,215.6,740.6z"/>
		<path fill="#FCB813" d="M216.8,740.6c-0.8-0.1-1.4,0.4-1.4,1.1c0,0.8,0.6,1.5,1.4,1.7s1.4-0.4,1.4-1.1
			C218.2,741.5,217.5,740.7,216.8,740.6z"/>
		<path fill="#FCB813" d="M216.6,743.4c-0.8-0.1-1.4,0.4-1.4,1.1c0,0.8,0.6,1.5,1.4,1.7c0.8,0.1,1.4-0.4,1.4-1.1
			C218,744.2,217.4,743.5,216.6,743.4z"/>
		<path fill="#FCB813" d="M214.5,744.9c-0.8-0.1-1.4,0.4-1.4,1.1c0,0.8,0.6,1.5,1.4,1.7c0.8,0.1,1.4-0.4,1.4-1.1
			C215.9,745.7,215.3,745,214.5,744.9z"/>
		<path fill="#FCB813" d="M211.8,744.1c-0.8-0.1-1.4,0.4-1.4,1.1c0,0.8,0.6,1.5,1.4,1.7c0.8,0.1,1.4-0.4,1.4-1.1
			C213.2,745,212.5,744.2,211.8,744.1z"/>
		<path fill="#FCB813" d="M211.8,743c0-0.8-0.6-1.5-1.4-1.7c-0.8-0.1-1.4,0.4-1.4,1.1c0,0.8,0.6,1.5,1.4,1.7
			C211.2,744.3,211.8,743.8,211.8,743z"/>
		<path fill="#FCB813" d="M333.9,752c-0.8-0.1-1.4,0.4-1.4,1.1c0,0.8,0.6,1.5,1.4,1.7c0.8,0.1,1.4-0.4,1.4-1.1
			C335.3,752.9,334.6,752.1,333.9,752z"/>
		<path fill="#FCB813" d="M333.9,756.9c-0.8-0.1-1.4,0.3-1.4,1.1c0,0.7,0.6,1.4,1.4,1.6c0.8,0.1,1.4-0.3,1.4-1.1
			C335.3,757.7,334.6,757,333.9,756.9z"/>
		<path fill="#FCB813" d="M333.9,759.5c-0.8-0.1-1.4,0.3-1.4,1.1s0.6,1.4,1.4,1.6c0.8,0.1,1.4-0.3,1.4-1.1
			C335.3,760.4,334.6,759.7,333.9,759.5z"/>
		<path fill="#FCB813" d="M333.9,762.2c-0.8-0.1-1.4,0.3-1.4,1.1c0,0.7,0.6,1.4,1.4,1.6s1.4-0.3,1.4-1.1S334.6,762.3,333.9,762.2z"
			/>
		<path fill="#FCB813" d="M335.3,766.4c0-0.7-0.6-1.4-1.4-1.6s-1.4,0.3-1.4,1.1c0,0.7,0.6,1.4,1.3,1.5c-0.7-0.1-1.3,0.4-1.3,1.1
			c0,0.7,0.6,1.4,1.4,1.6s1.4-0.3,1.4-1.1c0-0.7-0.6-1.4-1.3-1.5C334.7,767.5,335.3,767.1,335.3,766.4z"/>
		<path fill="#FCB813" d="M221.7,730.8c-0.8-0.1-1.4,0.4-1.4,1.1c0,0.8,0.6,1.5,1.4,1.7s1.4-0.4,1.4-1.1
			C223.1,731.7,222.5,730.9,221.7,730.8z"/>
		<path fill="#FCB813" d="M221.7,735.7c-0.8-0.1-1.4,0.3-1.4,1.1c0,0.7,0.6,1.4,1.4,1.6c0.8,0.1,1.4-0.3,1.4-1.1
			S222.5,735.8,221.7,735.7z"/>
		<path fill="#FCB813" d="M221.7,738.3c-0.8-0.1-1.4,0.3-1.4,1.1c0,0.7,0.6,1.4,1.4,1.6c0.8,0.1,1.4-0.3,1.4-1.1
			C223.1,739.2,222.5,738.5,221.7,738.3z"/>
		<path fill="#FCB813" d="M221.7,741c-0.8-0.1-1.4,0.3-1.4,1.1s0.6,1.4,1.4,1.6s1.4-0.3,1.4-1.1C223.1,741.8,222.5,741.1,221.7,741z
			"/>
		<path fill="#FCB813" d="M223.1,745.2c0-0.7-0.6-1.4-1.4-1.6s-1.4,0.3-1.4,1.1c0,0.7,0.6,1.4,1.3,1.5c-0.7-0.1-1.3,0.4-1.3,1.1
			c0,0.7,0.6,1.4,1.4,1.6s1.4-0.3,1.4-1.1c0-0.7-0.6-1.4-1.3-1.5C222.5,746.3,223.1,745.9,223.1,745.2z"/>
		<path fill="#FCB813" d="M236.9,738.3c-0.8-0.1-1.4,0.3-1.4,1.1c0,0.7,0.6,1.5,1.4,1.6s1.4-0.3,1.4-1.1
			C238.3,739.1,237.6,738.4,236.9,738.3z"/>
		<path fill="#FCB813" d="M236.9,741c-0.8-0.1-1.4,0.3-1.4,1.1c0,0.7,0.6,1.5,1.4,1.6s1.4-0.3,1.4-1.1
			C238.3,741.8,237.6,741.1,236.9,741z"/>
		<path fill="#FCB813" d="M236.9,743.7c-0.8-0.1-1.4,0.3-1.4,1.1c0,0.7,0.6,1.5,1.4,1.6s1.4-0.3,1.4-1.1
			C238.3,744.5,237.6,743.8,236.9,743.7z"/>
		<path fill="#FCB813" d="M238.3,748c0-0.7-0.6-1.5-1.4-1.6c-0.8-0.1-1.4,0.3-1.4,1.1c0,0.7,0.6,1.4,1.3,1.6
			c-0.7-0.1-1.3,0.4-1.3,1.1c0,0.7,0.6,1.5,1.4,1.6s1.4-0.3,1.4-1.1c0-0.7-0.6-1.4-1.3-1.6C237.7,749.1,238.3,748.7,238.3,748z"/>
		<path fill="#FCB813" d="M266.4,743.9c0.7,0.1,1.3-0.4,1.3-1.1c0-0.7-0.6-1.4-1.3-1.6c0.7,0.1,1.3-0.4,1.3-1.1
			c0-0.7-0.6-1.5-1.4-1.6c-0.8-0.1-1.4,0.3-1.4,1.1c0,0.7,0.6,1.4,1.3,1.6c-0.7-0.1-1.3,0.4-1.3,1.1c0,0.7,0.6,1.4,1.3,1.6
			c-0.7-0.1-1.3,0.4-1.3,1.1c0,0.7,0.6,1.5,1.4,1.6c0.8,0.1,1.4-0.3,1.4-1.1C267.7,744.7,267.1,744,266.4,743.9z"/>
		<path fill="#FCB813" d="M270.2,744.6c0-0.7-0.6-1.5-1.4-1.6c-0.8-0.1-1.4,0.3-1.4,1.1c0,0.7,0.6,1.5,1.4,1.6
			C269.5,745.9,270.2,745.4,270.2,744.6z"/>
		<path fill="#FCB813" d="M270.8,751.6c-0.8-0.1-1.4,0.3-1.4,1.1c0,0.7,0.6,1.5,1.4,1.6s1.4-0.3,1.4-1.1
			C272.2,752.5,271.5,751.8,270.8,751.6z"/>
		<path fill="#FCB813" d="M272.1,746.4c-0.7-0.1-1.2,0.2-1.3,0.8c-0.1-0.6-0.7-1.2-1.3-1.3c-0.8-0.1-1.4,0.3-1.4,1.1
			c0,0.7,0.6,1.5,1.4,1.6c0.7,0.1,1.2-0.2,1.3-0.8c0.1,0.6,0.7,1.2,1.3,1.3c0.8,0.1,1.4-0.3,1.4-1.1
			C273.5,747.3,272.9,746.5,272.1,746.4z"/>
		<path fill="#FCB813" d="M272.8,743.8c-0.8-0.1-1.4,0.3-1.4,1.1c0,0.7,0.6,1.5,1.4,1.6s1.4-0.3,1.4-1.1
			C274.2,744.6,273.6,743.9,272.8,743.8z"/>
		<path fill="#FCB813" d="M271.4,749c-0.2,0-0.5,0-0.7,0.1c-0.2-0.1-0.4-0.3-0.7-0.3c-0.8-0.1-1.4,0.3-1.4,1.1
			c0,0.7,0.6,1.5,1.4,1.6c0.2,0,0.5,0,0.7-0.1c0.2,0.1,0.4,0.3,0.7,0.3c0.8,0.1,1.4-0.3,1.4-1.1C272.8,749.9,272.2,749.2,271.4,749z
			"/>
		<path fill="#FCB813" d="M325.7,766c-0.1,0-0.2,0-0.3,0c-0.1,0-0.2-0.1-0.3-0.1c-0.8-0.2-1.4,0.3-1.4,1c0,0.7,0.6,1.5,1.4,1.6
			c0.1,0,0.3,0,0.4,0c0.1,0.1,0.2,0.1,0.4,0.1c0.8,0.1,1.4-0.4,1.4-1.1C327.1,766.8,326.5,766.1,325.7,766z"/>
		<path fill="#FCB813" d="M326.9,760.8c-0.8-0.1-1.4,0.4-1.4,1.1c0,0.7,0.7,1.5,1.4,1.6c0.8,0.1,1.4-0.4,1.4-1.1
			C328.3,761.6,327.6,760.9,326.9,760.8z"/>
		<path fill="#FCB813" d="M327.5,758.1c-0.8-0.1-1.4,0.4-1.4,1.1c0,0.7,0.7,1.5,1.4,1.6c0.8,0.1,1.4-0.4,1.4-1.1
			C328.9,759,328.2,758.3,327.5,758.1z"/>
		<path fill="#FCB813" d="M328,755.5c-0.8-0.1-1.4,0.4-1.4,1.1c0,0.7,0.7,1.5,1.4,1.6c0.8,0.1,1.4-0.4,1.4-1.1
			C329.4,756.4,328.8,755.7,328,755.5z"/>
		<path fill="#FCB813" d="M328.6,752.9c-0.8-0.1-1.4,0.4-1.4,1.1c0,0.7,0.7,1.5,1.4,1.6c0.8,0.1,1.4-0.4,1.4-1.1
			C330,753.8,329.4,753.1,328.6,752.9z"/>
		<path fill="#FCB813" d="M329.2,750.3c-0.8-0.1-1.4,0.4-1.4,1.1c0,0.7,0.7,1.5,1.4,1.6c0.8,0.1,1.4-0.4,1.4-1.1
			C330.6,751.1,329.9,750.4,329.2,750.3z"/>
		<path fill="#FCB813" d="M326.3,763.4c-0.4-0.1-0.7,0-0.9,0.2c-0.2-0.3-0.5-0.5-0.9-0.5c-0.8-0.2-1.4,0.3-1.4,1
			c0,0.7,0.6,1.5,1.4,1.6c0.4,0.1,0.7,0,1-0.2c0.3,0.3,0.6,0.5,1,0.5c0.8,0.1,1.4-0.4,1.4-1.1C327.7,764.2,327.1,763.5,326.3,763.4z
			"/>
		<path fill="#FCB813" d="M325.3,761.8c0-0.7-0.6-1.5-1.4-1.6c-0.8-0.2-1.4,0.3-1.4,1c0,0.7,0.6,1.5,1.4,1.6
			C324.6,763,325.3,762.6,325.3,761.8z"/>
		<path fill="#FCB813" d="M324.7,759c0-0.7-0.6-1.5-1.4-1.6c-0.8-0.2-1.4,0.3-1.4,1c0,0.7,0.6,1.5,1.4,1.6
			C324.1,760.2,324.7,759.7,324.7,759z"/>
		<path fill="#FCB813" d="M324.1,756.2c0-0.7-0.6-1.5-1.4-1.6c-0.8-0.2-1.4,0.3-1.4,1c0,0.7,0.6,1.5,1.4,1.6
			C323.5,757.4,324.1,756.9,324.1,756.2z"/>
		<path fill="#FCB813" d="M323.6,753.3c0-0.7-0.6-1.5-1.4-1.6c-0.8-0.2-1.4,0.3-1.4,1c0,0.7,0.6,1.5,1.4,1.6
			C322.9,754.6,323.6,754.1,323.6,753.3z"/>
		<path fill="#FCB813" d="M323,750.5c0-0.7-0.6-1.5-1.4-1.6c-0.8-0.2-1.4,0.3-1.4,1c0,0.7,0.6,1.5,1.4,1.6
			C322.3,751.7,323,751.3,323,750.5z"/>
		<path fill="#FCB813" d="M266.3,746.5c-0.8-0.1-1.4,0.3-1.4,1.1c0,0.7,0.6,1.5,1.4,1.6c0.8,0.1,1.4-0.3,1.4-1.1
			C267.7,747.4,267.1,746.7,266.3,746.5z"/>
		<path fill="#FCB813" d="M266.3,749.2c-0.8-0.1-1.4,0.3-1.4,1.1c0,0.7,0.6,1.5,1.4,1.6c0.8,0.1,1.4-0.3,1.4-1.1
			C267.7,750.1,267.1,749.4,266.3,749.2z"/>
		<path fill="#FCB813" d="M267.7,753.5c0-0.7-0.6-1.5-1.4-1.6c-0.8-0.1-1.4,0.3-1.4,1.1c0,0.7,0.6,1.4,1.3,1.6
			c-0.7-0.1-1.3,0.4-1.3,1.1c0,0.7,0.6,1.5,1.4,1.6c0.8,0.1,1.4-0.3,1.4-1.1c0-0.7-0.6-1.4-1.3-1.6
			C267.1,754.7,267.7,754.2,267.7,753.5z"/>
		<path fill="#FCB813" d="M276.9,741.8c0-0.7-0.6-1.5-1.4-1.6c-0.8-0.1-1.4,0.3-1.4,1.1c0,0.7,0.6,1.4,1.3,1.6
			c-0.7-0.1-1.3,0.4-1.3,1.1c0,0.7,0.6,1.4,1.3,1.6c-0.7-0.1-1.3,0.4-1.3,1.1c0,0.7,0.6,1.5,1.4,1.6s1.4-0.3,1.4-1.1
			c0-0.7-0.6-1.4-1.3-1.6c0.7,0.1,1.3-0.4,1.3-1.1c0-0.7-0.6-1.4-1.3-1.6C276.3,743,276.9,742.5,276.9,741.8z"/>
		<path fill="#FCB813" d="M275.5,748.2c-0.8-0.1-1.4,0.3-1.4,1.1c0,0.7,0.6,1.5,1.4,1.6s1.4-0.3,1.4-1.1
			C276.9,749.1,276.2,748.4,275.5,748.2z"/>
		<path fill="#FCB813" d="M275.5,750.9c-0.8-0.1-1.4,0.3-1.4,1.1c0,0.7,0.6,1.5,1.4,1.6s1.4-0.3,1.4-1.1
			C276.9,751.8,276.2,751.1,275.5,750.9z"/>
		<path fill="#FCB813" d="M276.9,755.3c0-0.7-0.6-1.5-1.4-1.6s-1.4,0.3-1.4,1.1c0,0.7,0.6,1.4,1.3,1.6c-0.7-0.1-1.3,0.4-1.3,1.1
			c0,0.7,0.6,1.5,1.4,1.6c0.8,0.1,1.4-0.3,1.4-1.1c0-0.7-0.6-1.4-1.3-1.6C276.3,756.4,276.9,756,276.9,755.3z"/>
		<path fill="#FCB813" d="M297.3,745.7c0-0.7-0.6-1.5-1.4-1.6c-0.8-0.1-1.4,0.3-1.4,1.1c0,0.7,0.6,1.4,1.3,1.6
			c-0.7-0.1-1.3,0.4-1.3,1.1c0,0.7,0.6,1.4,1.3,1.6c-0.7-0.1-1.3,0.4-1.3,1.1c0,0.7,0.6,1.5,1.4,1.6c0.8,0.1,1.4-0.3,1.4-1.1
			c0-0.7-0.6-1.4-1.3-1.6c0.7,0.1,1.3-0.4,1.3-1.1c0-0.7-0.6-1.4-1.3-1.6C296.7,746.9,297.3,746.4,297.3,745.7z"/>
		<path fill="#FCB813" d="M295.9,752.1c-0.8-0.1-1.4,0.3-1.4,1.1c0,0.7,0.6,1.5,1.4,1.6c0.8,0.1,1.4-0.3,1.4-1.1
			C297.3,753,296.6,752.3,295.9,752.1z"/>
		<path fill="#FCB813" d="M295.9,754.8c-0.8-0.1-1.4,0.3-1.4,1.1c0,0.7,0.6,1.5,1.4,1.6c0.8,0.1,1.4-0.3,1.4-1.1
			C297.3,755.7,296.6,754.9,295.9,754.8z"/>
		<path fill="#FCB813" d="M297.3,759.1c0-0.7-0.6-1.5-1.4-1.6c-0.8-0.1-1.4,0.3-1.4,1.1c0,0.7,0.6,1.4,1.3,1.6
			c-0.7-0.1-1.3,0.4-1.3,1.1c0,0.7,0.6,1.5,1.4,1.6c0.8,0.1,1.4-0.3,1.4-1.1c0-0.7-0.6-1.4-1.3-1.6
			C296.7,760.3,297.3,759.8,297.3,759.1z"/>
		<path fill="#FCB813" d="M293,759.8c-0.8-0.1-1.4,0.3-1.4,1.1c0,0.7,0.6,1.5,1.4,1.6c0.8,0.1,1.4-0.3,1.4-1.1
			C294.4,760.7,293.8,760,293,759.8z"/>
		<path fill="#FCB813" d="M292.1,759.4c0-0.7-0.6-1.5-1.4-1.6c-0.8-0.1-1.4,0.3-1.4,1.1c0,0.7,0.6,1.5,1.4,1.6
			C291.5,760.6,292.1,760.2,292.1,759.4z"/>
		<path fill="#FCB813" d="M290.5,757.8c0.8,0.1,1.4-0.3,1.4-1.1c0-0.7-0.6-1.5-1.4-1.6c-0.8-0.1-1.4,0.3-1.4,1.1
			C289.1,756.9,289.7,757.6,290.5,757.8z"/>
		<path fill="#FCB813" d="M290.6,755.1c0.8,0.1,1.4-0.3,1.4-1.1c0-0.7-0.6-1.5-1.4-1.6s-1.4,0.3-1.4,1.1
			C289.2,754.2,289.8,754.9,290.6,755.1z"/>
		<path fill="#FCB813" d="M290.8,752.4c0.8,0.1,1.4-0.3,1.4-1.1c0-0.7-0.6-1.5-1.4-1.6c-0.8-0.1-1.4,0.3-1.4,1.1
			C289.4,751.5,290,752.3,290.8,752.4z"/>
		<path fill="#FCB813" d="M293,751.1c0.8,0.1,1.4-0.3,1.4-1.1c0-0.7-0.6-1.5-1.4-1.6c-0.8-0.1-1.4,0.3-1.4,1.1
			C291.6,750.3,292.2,751,293,751.1z"/>
		<path fill="#FCB813" d="M310.3,763.1c-0.8-0.1-1.4,0.3-1.4,1.1c0,0.7,0.6,1.5,1.4,1.6s1.4-0.3,1.4-1.1
			C311.7,764,311,763.2,310.3,763.1z"/>
		<path fill="#FCB813" d="M309.4,762.7c0-0.7-0.6-1.5-1.4-1.6s-1.4,0.3-1.4,1.1c0,0.7,0.6,1.5,1.4,1.6S309.4,763.4,309.4,762.7z"/>
		<path fill="#FCB813" d="M307.8,761c0.8,0.1,1.4-0.3,1.4-1.1c0-0.7-0.6-1.5-1.4-1.6c-0.8-0.1-1.4,0.3-1.4,1.1
			C306.4,760.2,307,760.9,307.8,761z"/>
		<path fill="#FCB813" d="M307.8,758.3c0.8,0.1,1.4-0.3,1.4-1.1c0-0.7-0.6-1.5-1.4-1.6c-0.8-0.1-1.4,0.3-1.4,1.1
			C306.4,757.5,307.1,758.2,307.8,758.3z"/>
		<path fill="#FCB813" d="M308,755.7c0.8,0.1,1.4-0.3,1.4-1.1c0-0.7-0.6-1.5-1.4-1.6c-0.8-0.1-1.4,0.3-1.4,1.1
			C306.6,754.8,307.3,755.5,308,755.7z"/>
		<path fill="#FCB813" d="M310.2,754.4c0.5,0.1,1-0.1,1.2-0.5c-0.1,0.1-0.1,0.3-0.1,0.5c0,0.7,0.6,1.5,1.4,1.6
			c0.8,0.1,1.4-0.3,1.4-1.1c0-0.7-0.6-1.5-1.4-1.6c-0.5-0.1-1,0.1-1.2,0.5c0.1-0.1,0.1-0.3,0.1-0.5c0-0.7-0.6-1.5-1.4-1.6
			s-1.4,0.3-1.4,1.1C308.8,753.5,309.5,754.2,310.2,754.4z"/>
		<path fill="#FCB813" d="M313.3,756.1c-0.8-0.1-1.4,0.3-1.4,1.1c0,0.7,0.6,1.5,1.4,1.6c0.8,0.1,1.4-0.3,1.4-1.1
			C314.7,756.9,314,756.2,313.3,756.1z"/>
		<path fill="#FCB813" d="M309.3,758.4c0,0.7,0.6,1.5,1.4,1.6s1.4-0.3,1.4-1.1c0-0.7-0.6-1.5-1.4-1.6
			C310,757.2,309.3,757.7,309.3,758.4z"/>
		<path fill="#FCB813" d="M312.9,762.5c-0.8-0.1-1.4,0.3-1.4,1.1c0,0.7,0.6,1.5,1.4,1.6s1.4-0.3,1.4-1.1
			C314.3,763.4,313.6,762.7,312.9,762.5z"/>
		<path fill="#FCB813" d="M340.3,753.8c0-0.7-0.6-1.5-1.4-1.6s-1.4,0.3-1.4,1.1c0,0.7,0.6,1.4,1.3,1.6c-0.7-0.1-1.3,0.4-1.3,1.1
			c0,0.7,0.6,1.4,1.3,1.6c-0.7-0.1-1.3,0.4-1.3,1.1c0,0.7,0.6,1.5,1.4,1.6c0.8,0.1,1.4-0.3,1.4-1.1c0-0.7-0.6-1.4-1.3-1.6
			c0.7,0.1,1.3-0.4,1.3-1.1c0-0.7-0.6-1.4-1.3-1.6C339.7,755,340.3,754.5,340.3,753.8z"/>
		<path fill="#FCB813" d="M338.9,760.2c-0.8-0.1-1.4,0.3-1.4,1.1c0,0.7,0.6,1.5,1.4,1.6c0.8,0.1,1.4-0.3,1.4-1.1
			C340.3,761.1,339.7,760.4,338.9,760.2z"/>
		<path fill="#FCB813" d="M338.9,762.9c-0.8-0.1-1.4,0.3-1.4,1.1c0,0.7,0.6,1.5,1.4,1.6c0.8,0.1,1.4-0.3,1.4-1.1
			C340.3,763.8,339.7,763.1,338.9,762.9z"/>
		<path fill="#FCB813" d="M340.3,767.3c0-0.7-0.6-1.5-1.4-1.6c-0.8-0.1-1.4,0.3-1.4,1.1c0,0.7,0.6,1.4,1.3,1.6
			c-0.7-0.1-1.3,0.4-1.3,1.1c0,0.7,0.6,1.5,1.4,1.6c0.8,0.1,1.4-0.3,1.4-1.1c0-0.7-0.6-1.4-1.3-1.6
			C339.8,768.4,340.3,768,340.3,767.3z"/>
		<path fill="#FCB813" d="M346.4,755c0-0.7-0.6-1.5-1.4-1.6s-1.4,0.3-1.4,1.1c0,0.7,0.6,1.4,1.3,1.6c-0.7-0.1-1.3,0.4-1.3,1.1
			c0,0.7,0.6,1.4,1.3,1.6c-0.7-0.1-1.3,0.4-1.3,1.1c0,0.7,0.6,1.5,1.4,1.6c0.8,0.1,1.4-0.3,1.4-1.1c0-0.7-0.6-1.4-1.3-1.6
			c0.7,0.1,1.3-0.4,1.3-1.1c0-0.7-0.6-1.4-1.3-1.6C345.8,756.2,346.4,755.7,346.4,755z"/>
		<path fill="#FCB813" d="M345.1,761.4c-0.8-0.1-1.4,0.3-1.4,1.1c0,0.7,0.6,1.5,1.4,1.6c0.8,0.1,1.4-0.3,1.4-1.1
			C346.4,762.3,345.8,761.5,345.1,761.4z"/>
		<path fill="#FCB813" d="M345.1,764.1c-0.8-0.1-1.4,0.3-1.4,1.1c0,0.7,0.6,1.5,1.4,1.6s1.4-0.3,1.4-1.1
			C346.4,765,345.8,764.2,345.1,764.1z"/>
		<path fill="#FCB813" d="M346.4,768.4c0-0.7-0.6-1.5-1.4-1.6s-1.4,0.3-1.4,1.1c0,0.7,0.6,1.4,1.3,1.6c-0.7-0.1-1.3,0.4-1.3,1.1
			c0,0.7,0.6,1.5,1.4,1.6c0.8,0.1,1.4-0.3,1.4-1.1c0-0.7-0.6-1.4-1.3-1.6C345.9,769.6,346.4,769.1,346.4,768.4z"/>
		<path fill="#FCB813" d="M285.9,750.2c-0.8-0.1-1.4,0.3-1.4,1.1c0,0.7,0.6,1.5,1.4,1.6c0.8,0.1,1.4-0.3,1.4-1.1
			C287.3,751.1,286.6,750.4,285.9,750.2z"/>
		<path fill="#FCB813" d="M284.9,750.2c0.8,0.1,1.4-0.3,1.4-1.1c0-0.7-0.6-1.5-1.4-1.6s-1.4,0.3-1.4,1.1
			C283.5,749.3,284.1,750,284.9,750.2z"/>
		<path fill="#FCB813" d="M282.1,749.4c0.8,0.1,1.4-0.3,1.4-1.1c0-0.7-0.6-1.5-1.4-1.6c-0.8-0.1-1.4,0.3-1.4,1.1
			C280.7,748.5,281.3,749.3,282.1,749.4z"/>
		<path fill="#FCB813" d="M280.5,751.3c0.8,0.1,1.4-0.3,1.4-1.1c0-0.7-0.6-1.5-1.4-1.6c-0.8-0.1-1.4,0.3-1.4,1.1
			C279.1,750.4,279.8,751.2,280.5,751.3z"/>
		<path fill="#FCB813" d="M279.4,754.3c0,0.7,0.6,1.5,1.4,1.6c0.8,0.1,1.4-0.3,1.4-1.1c0-0.7-0.6-1.5-1.4-1.6
			C280,753.1,279.4,753.6,279.4,754.3z"/>
		<path fill="#FCB813" d="M282.1,757.5c0-0.7-0.6-1.5-1.4-1.6c-0.8-0.1-1.4,0.3-1.4,1.1c0,0.7,0.6,1.5,1.4,1.6
			C281.4,758.8,282.1,758.3,282.1,757.5z"/>
		<path fill="#FCB813" d="M283,757.8c-0.8-0.1-1.4,0.3-1.4,1.1c0,0.7,0.6,1.5,1.4,1.6c0.8,0.1,1.4-0.3,1.4-1.1
			C284.4,758.7,283.8,758,283,757.8z"/>
		<path fill="#FCB813" d="M285.9,752.9c-0.7-0.1-1.3,0.3-1.4,0.9c0-0.7-0.6-1.5-1.4-1.6c-0.8-0.1-1.4,0.3-1.4,1.1
			c0,0.7,0.6,1.5,1.4,1.6c0.7,0.1,1.3-0.3,1.4-0.9c0,0.7,0.6,1.5,1.4,1.6c0.8,0.1,1.4-0.3,1.4-1.1
			C287.3,753.8,286.6,753.1,285.9,752.9z"/>
		<path fill="#FCB813" d="M287.3,757.2c0-0.7-0.6-1.5-1.4-1.6c-0.8-0.1-1.4,0.3-1.4,1.1c0,0.7,0.6,1.4,1.3,1.6
			c-0.7-0.1-1.3,0.4-1.3,1.1c0,0.7,0.6,1.5,1.4,1.6c0.8,0.1,1.4-0.3,1.4-1.1c0-0.7-0.6-1.4-1.3-1.6
			C286.7,758.4,287.3,757.9,287.3,757.2z"/>
		<path fill="#FCB813" d="M256.5,744.7c-0.8-0.1-1.4,0.3-1.4,1.1c0,0.7,0.6,1.5,1.4,1.6c0.8,0.1,1.4-0.3,1.4-1.1
			C257.9,745.5,257.3,744.8,256.5,744.7z"/>
		<path fill="#FCB813" d="M255.6,744.6c0.8,0.1,1.4-0.3,1.4-1.1c0-0.7-0.6-1.5-1.4-1.6c-0.8-0.1-1.4,0.3-1.4,1.1
			C254.2,743.7,254.8,744.5,255.6,744.6z"/>
		<path fill="#FCB813" d="M252.8,743.9c0.8,0.1,1.4-0.3,1.4-1.1c0-0.7-0.6-1.5-1.4-1.6s-1.4,0.3-1.4,1.1
			C251.4,743,252,743.7,252.8,743.9z"/>
		<path fill="#FCB813" d="M251.2,745.8c0.8,0.1,1.4-0.3,1.4-1.1c0-0.7-0.6-1.5-1.4-1.6c-0.8-0.1-1.4,0.3-1.4,1.1
			C249.8,744.9,250.4,745.6,251.2,745.8z"/>
		<path fill="#FCB813" d="M250,748.8c0,0.7,0.6,1.5,1.4,1.6c0.8,0.1,1.4-0.3,1.4-1.1c0-0.7-0.6-1.5-1.4-1.6
			C250.7,747.5,250,748,250,748.8z"/>
		<path fill="#FCB813" d="M252.7,752c0-0.7-0.6-1.5-1.4-1.6s-1.4,0.3-1.4,1.1c0,0.7,0.6,1.5,1.4,1.6S252.7,752.7,252.7,752z"/>
		<path fill="#FCB813" d="M253.7,752.3c-0.8-0.1-1.4,0.3-1.4,1.1c0,0.7,0.6,1.5,1.4,1.6c0.8,0.1,1.4-0.3,1.4-1.1
			C255,753.2,254.4,752.4,253.7,752.3z"/>
		<path fill="#FCB813" d="M256.5,747.4c-0.7-0.1-1.3,0.3-1.4,0.9c0-0.7-0.6-1.5-1.4-1.6c-0.8-0.1-1.4,0.3-1.4,1.1
			c0,0.7,0.6,1.5,1.4,1.6c0.7,0.1,1.3-0.3,1.4-0.9c0,0.7,0.6,1.5,1.4,1.6c0.8,0.1,1.4-0.3,1.4-1.1
			C257.9,748.2,257.3,747.5,256.5,747.4z"/>
		<path fill="#FCB813" d="M257.9,751.7c0-0.7-0.6-1.5-1.4-1.6c-0.8-0.1-1.4,0.3-1.4,1.1c0,0.7,0.6,1.4,1.3,1.6
			c-0.7-0.1-1.3,0.4-1.3,1.1c0,0.7,0.6,1.5,1.4,1.6c0.8,0.1,1.4-0.3,1.4-1.1c0-0.7-0.6-1.4-1.3-1.6
			C257.3,752.9,257.9,752.4,257.9,751.7z"/>
		<path fill="#FCB813" d="M354.5,764.5c0,0.7,0.6,1.5,1.4,1.6s1.4-0.3,1.4-1.1c0-0.7-0.6-1.5-1.4-1.6
			C355.2,763.3,354.5,763.8,354.5,764.5z"/>
		<path fill="#FCB813" d="M355,763.4c0.8,0.1,1.4-0.3,1.4-1.1c0-0.7-0.6-1.5-1.4-1.6c-0.8-0.1-1.4,0.3-1.4,1.1
			C353.6,762.5,354.2,763.2,355,763.4z"/>
		<path fill="#FCB813" d="M352.2,762.6c0.8,0.1,1.4-0.3,1.4-1.1c0-0.7-0.6-1.5-1.4-1.6c-0.8-0.1-1.4,0.3-1.4,1.1
			C350.8,761.8,351.4,762.5,352.2,762.6z"/>
		<path fill="#FCB813" d="M350.6,764.5c0.8,0.1,1.4-0.3,1.4-1.1c0-0.7-0.6-1.5-1.4-1.6s-1.4,0.3-1.4,1.1
			C349.2,763.7,349.8,764.4,350.6,764.5z"/>
		<path fill="#FCB813" d="M349.5,767.6c0,0.7,0.6,1.5,1.4,1.6s1.4-0.3,1.4-1.1c0-0.7-0.6-1.5-1.4-1.6S349.5,766.8,349.5,767.6z"/>
		<path fill="#FCB813" d="M352.1,770.8c0-0.7-0.6-1.5-1.4-1.6s-1.4,0.3-1.4,1.1c0,0.7,0.6,1.5,1.4,1.6S352.1,771.5,352.1,770.8z"/>
		<path fill="#FCB813" d="M353.1,771.1c-0.8-0.1-1.4,0.3-1.4,1.1c0,0.7,0.6,1.5,1.4,1.6c0.8,0.1,1.4-0.3,1.4-1.1
			C354.5,771.9,353.8,771.2,353.1,771.1z"/>
		<path fill="#FCB813" d="M355.9,766.2c-0.7-0.1-1.3,0.3-1.4,0.9c0-0.7-0.6-1.5-1.4-1.6c-0.8-0.1-1.4,0.3-1.4,1.1
			c0,0.7,0.6,1.5,1.4,1.6c0.7,0.1,1.3-0.3,1.4-0.9c0,0.7,0.6,1.5,1.4,1.6c0.8,0.1,1.4-0.3,1.4-1.1
			C357.3,767,356.7,766.3,355.9,766.2z"/>
		<path fill="#FCB813" d="M357.3,770.5c0-0.7-0.6-1.5-1.4-1.6c-0.8-0.1-1.4,0.3-1.4,1.1c0,0.7,0.6,1.4,1.3,1.6
			c-0.7-0.1-1.3,0.4-1.3,1.1c0,0.7,0.6,1.5,1.4,1.6s1.4-0.3,1.4-1.1c0-0.7-0.6-1.4-1.3-1.6C356.7,771.6,357.3,771.2,357.3,770.5z"/>
		<path fill="#FCB813" d="M231.7,746.7c-0.8-0.1-1.4,0.4-1.4,1.1s0.6,1.5,1.4,1.7s1.4-0.4,1.4-1.1
			C233.1,747.6,232.5,746.9,231.7,746.7z"/>
		<path fill="#FCB813" d="M229.4,747.9c-0.8-0.1-1.4,0.4-1.4,1.1c0,0.8,0.6,1.5,1.4,1.7c0.8,0.1,1.4-0.4,1.4-1.1
			S230.2,748,229.4,747.9z"/>
		<path fill="#FCB813" d="M228.4,747.7c0-0.8-0.6-1.5-1.4-1.7s-1.4,0.4-1.4,1.1c0,0.8,0.6,1.5,1.4,1.7S228.4,748.5,228.4,747.7z"/>
		<path fill="#FCB813" d="M228,744.9c0-0.8-0.6-1.5-1.4-1.7c-0.8-0.1-1.4,0.4-1.4,1.1c0,0.8,0.6,1.5,1.4,1.7
			C227.4,746.2,228,745.7,228,744.9z"/>
		<path fill="#FCB813" d="M226.6,743.2c0.8,0.1,1.4-0.4,1.4-1.1c0-0.8-0.6-1.5-1.4-1.7c-0.8-0.1-1.4,0.4-1.4,1.1
			C225.2,742.3,225.9,743.1,226.6,743.2z"/>
		<path fill="#FCB813" d="M226.9,740.5c0.8,0.1,1.4-0.4,1.4-1.1c0-0.3-0.1-0.6-0.3-0.9c0.2,0.3,0.6,0.5,0.9,0.5
			c0.8,0.1,1.4-0.4,1.4-1.1c0-0.8-0.6-1.5-1.4-1.7s-1.4,0.4-1.4,1.1c0,0.3,0.1,0.6,0.3,0.9c-0.2-0.3-0.6-0.5-0.9-0.5
			c-0.8-0.1-1.4,0.4-1.4,1.1C225.5,739.6,226.1,740.4,226.9,740.5z"/>
		<path fill="#FCB813" d="M231.4,740.7c0.8,0.1,1.4-0.4,1.4-1.1c0-0.8-0.6-1.5-1.4-1.7c-0.8-0.1-1.4,0.4-1.4,1.1
			C230,739.8,230.7,740.6,231.4,740.7z"/>
		<path fill="#FCB813" d="M232,740.8c-0.8-0.1-1.4,0.4-1.4,1.1c0,0.8,0.6,1.5,1.4,1.7s1.4-0.4,1.4-1.1
			C233.4,741.7,232.7,741,232,740.8z"/>
		<path fill="#FCB813" d="M227.9,743c0,0.8,0.6,1.5,1.4,1.7c0.8,0.1,1.4-0.4,1.4-1.1c0-0.8-0.6-1.5-1.4-1.7
			C228.5,741.7,227.9,742.2,227.9,743z"/>
		<path fill="#FCB813" d="M239.9,738.7c-0.8-0.1-1.4,0.4-1.4,1.1c0,0.8,0.6,1.5,1.4,1.7s1.4-0.4,1.4-1.1
			C241.2,739.6,240.6,738.9,239.9,738.7z"/>
		<path fill="#FCB813" d="M244.4,739.7c-0.8-0.1-1.4,0.3-1.4,1.1c0,0.7,0.6,1.5,1.4,1.6s1.4-0.3,1.4-1.1
			C245.7,740.5,245.1,739.8,244.4,739.7z"/>
		<path fill="#FCB813" d="M244.4,742.4c-0.8-0.1-1.4,0.3-1.4,1.1c0,0.7,0.6,1.5,1.4,1.6s1.4-0.3,1.4-1.1
			C245.7,743.2,245.1,742.5,244.4,742.4z"/>
		<path fill="#FCB813" d="M244.4,745.1c-0.8-0.1-1.4,0.3-1.4,1.1c0,0.7,0.6,1.5,1.4,1.6c0.8,0.1,1.4-0.3,1.4-1.1
			C245.7,745.9,245.1,745.2,244.4,745.1z"/>
		<path fill="#FCB813" d="M245.7,749.4c0-0.7-0.6-1.5-1.4-1.6c-0.8-0.1-1.4,0.3-1.4,1.1c0,0.7,0.6,1.4,1.3,1.6
			c-0.7-0.1-1.3,0.4-1.3,1.1c0,0.7,0.6,1.5,1.4,1.6s1.4-0.3,1.4-1.1c0-0.7-0.6-1.4-1.3-1.6C245.2,750.6,245.7,750.1,245.7,749.4z"/>
		<path fill="#FCB813" d="M247.3,740.1c-0.8-0.1-1.4,0.4-1.4,1.1c0,0.8,0.6,1.5,1.4,1.7c0.8,0.1,1.4-0.4,1.4-1.1
			C248.7,741,248.1,740.3,247.3,740.1z"/>
		<path fill="#FCB813" d="M301.3,750.4c-0.8-0.1-1.4,0.3-1.4,1.1s0.6,1.5,1.4,1.6s1.4-0.3,1.4-1.1
			C302.7,751.3,302,750.6,301.3,750.4z"/>
		<path fill="#FCB813" d="M301.3,753.1c-0.8-0.1-1.4,0.3-1.4,1.1c0,0.7,0.6,1.5,1.4,1.6s1.4-0.3,1.4-1.1
			C302.7,754,302,753.3,301.3,753.1z"/>
		<path fill="#FCB813" d="M301.3,755.8c-0.8-0.1-1.4,0.3-1.4,1.1c0,0.7,0.6,1.5,1.4,1.6s1.4-0.3,1.4-1.1
			C302.7,756.7,302,756,301.3,755.8z"/>
		<path fill="#FCB813" d="M302.7,760.1c0-0.7-0.6-1.5-1.4-1.6s-1.4,0.3-1.4,1.1c0,0.7,0.6,1.4,1.3,1.6c-0.7-0.1-1.3,0.4-1.3,1.1
			c0,0.7,0.6,1.5,1.4,1.6c0.8,0.1,1.4-0.3,1.4-1.1c0-0.7-0.6-1.4-1.3-1.6C302.1,761.3,302.7,760.8,302.7,760.1z"/>
		<path fill="#FCB813" d="M304.2,750.9c-0.8-0.1-1.4,0.4-1.4,1.1c0,0.8,0.6,1.5,1.4,1.7c0.8,0.1,1.4-0.4,1.4-1.1
			C305.6,751.8,305,751,304.2,750.9z"/>
	</g>
	<path fill="#262626" d="M171.6,699.3c-7.2,28.6-12.3,68.9-12.3,68.9s71.6,13.9,76.2,14.5c4.6,0.8,18-4.8,19-5.7
		c2.1-1.1,6-2.1,9.4-1.3c3.2,0.8,5.5,3.9,6.5,5.7c0.5,1,4.8,8.5,10.1,10c5.5,1.5,87.1,16.8,87.1,16.8c2.9-24,14.2-70.4,14.2-70.4
		L171.6,699.3z M356.5,756.5l-3.4,23.3c-0.7,6-6.6,10-12.8,8.8l-154.6-29.6c-6.2-1.1-10.6-7.2-9.8-13.2l3.4-22.1
		c1-6,6.6-10,12.8-8.9l154.6,28.3C352.9,744.4,357.2,750.4,356.5,756.5z"/>
	<path fill="#4C4C4C" d="M191.3,754.7c-4.1-0.8-7.2-4.8-6.5-8.9l3-20.4c0.4-3,2.9-5.3,5.7-5.8l-1-0.2c-4.1-0.8-8.1,1.9-8.7,5.8
		l-3,20.4c-0.5,3.9,2.2,7.9,6.5,8.9l152.3,29.3c1,0.2,1.9,0.2,2.9,0L191.3,754.7z"/>
</g>
</svg>
