<?xml version="1.0" encoding="utf-8"?>
<!-- Generator: Adobe Illustrator 18.1.1, SVG Export Plug-In . SVG Version: 6.00 Build 0)  -->
<svg version="1.1" id="Layer_1" xmlns="http://www.w3.org/2000/svg" xmlns:xlink="http://www.w3.org/1999/xlink" x="0px" y="0px"
	 viewBox="0 0 1920 1080" enable-background="new 0 0 1920 1080" xml:space="preserve">
<g id="Layer_05" display="none">
	<g id="_x31_0_Bottom_Layer__x28_Body_x29_" display="inline">
		<g>
			<path fill="#4C4C4C" d="M848.3,315.1l46.8-21.5l-6.9,25.5l23.2-11.9l9.8,1.1l7.6-20.2l6-2.6l10.2-20.8l51.7-23.7
				c4.5-8.3,7.4-12.3,20.9-19.7c13.5-7.4,382.8-190.3,382.8-190.3c1.7-0.7,8.5-3.6,22.1-2.6c149.4,9.8,134.5,8.4,149.4,9.8
				c18.2,1.7,20.6,21.1,26.9,52.8s8.7,97.9,8.7,97.9l-3.6,65.6l4.1,3.6l-0.5,17l-9.4,14.3l-3.7,52.9L1214,598.1l-0.7-19.2l0.2-27.3
				l-15.8,9.8l-0.5,10.3l-19.3,11.8l-35.6,23.5l-22.6,13l-1.2-5.8l-14.1,8.7l-4.6,51.9l-349.3,235l-6-25.1l-0.9-31.3l-39.4,23.7
				l0.9,10.2l-27.3,15.2l-1.7-8.5L651.3,910l-9.8-1.1v7.4L624,927.8v-7.4l-33.6,21.9l0.2,24.1c0,0-53.3,27.6-113.9,57.3
				c-16.7,8.3-64.3,19.2-100,19.2c-91.1,0-146-32.2-167.1-46.6c-3.7-2.4-14.3-5.6-15-9.1c-1.4-7.9-2.8-10.3-3.1-15.2
				c-0.4-4.6,0.4-8.5,5-13.2c0,0-17.8-99.6-12.3-204.8c5.4-105.2,55.6-156.8,77.5-167.9c31.1-15.4,587.2-289,587.2-289l4.6,1.9
				C853.3,298.9,848.3,304.1,848.3,315.1z"/>
		</g>
	</g>
	<g id="exploding_x5F_roof" display="inline">
		<g>
			<path fill="#262626" d="M1270.1,306.3c0-0.7,0-1.2,0-1.9C1270.1,305.1,1270.1,305.6,1270.1,306.3z"/>
		</g>
		<path fill="#4C4C4C" d="M1252.8,200l-9.3-0.7l0.2-6.1l-13.5-0.9l-7.4,4.5l-0.2,5.6l-7.8,1.6v3.6l-30.7-3.3l-0.4-3.9l6.1-2.8
			l-0.7-5.6l-3.7-0.7l-2.2-12.7l-40.7-3.7l23.2-71.9c8.3-0.2,10.2-3.9,10.2-3.9l-2.9-12.5c5.1-0.7,2-5.8,2-5.8l-39-47.3l4.1-2.6
			l16.1,13.7l3.9,5.6l3.6-2l-5.1-8.1l-14.8-13.2l1.1-10.2l7,2.9l21.8,17.8l1.1,3.9l3.6-2.2l-1.6-5.1l-28.5-21.2l-95.4-7.2h-25.3
			l-22.4,2.8l-6.5,4.3l-6.3,1.4l-2.6,2.6h-7l-4.3,3.9l6.3-0.4l-15.2,12.7l-0.5,5.4h1.9l0.4-4.5l21.3-15.6l-8.4,7.9l-0.2,6.1h2.2
			l0.2-5l12.8-10.3l0.2,12.1l5-0.2l1.2-2h2.4l2,3.9h7l11.7,7l104.2,45.1l0.5,1.7l6.7,2.2l3.9,0.7c-3.1,2-4.5,10.6-4.5,10.6l4.6-0.5
			l-56.2,137.5l-16.1-1.1v-7.2l-16.1-1.2l-21.3,10.8l-4.1,11.7l-13.9,13.9l-40.6-3.7l-16.8,8.4l-0.2,4.6l1.9,0.4l0.2,18
			c0,0,28.5,3.3,32.9,3.7c4.3,0.4,7.2-2.9,7.2-2.9s18.5-5.4,40.6,0.9c0.2,0-18.5,18-21.7,19.5c-3.1,1.6-25,1.1-25,1.1
			c-5,0.4-8.5,4.5-8.5,9.3c0,5.1,4.3,9.3,9.3,9.3c1.4,0,2.6-0.4,3.7-0.9l0,0l28.8-12.3c0,0,21.8-19.5,23-21.8c1.2-2.2,1.1-6.7,0-8.1
			c-1.1-1.4-4.1-2.4-10.3-2.9c-6.3-0.5-26.4-0.7-26.4-0.7l-0.9-5.8l102.8,7v10.3l46.1,3.7l-0.7-14.4l42.3-22.3c1.1-21.7-13-25-13-25
			l61.8-33.6L1252.8,200z M1013.2,13h-9.6l3.9-2.4l6-0.9L1013.2,13z M1170.2,87.3c0,0,3.6,8.7,2,10.8c-1.6,2-3.3,2-5-1.6
			c-1.6-3.6-3.3-7.4-1.1-9.4l2.6-0.7L1170.2,87.3z M1020.1,11.3l5.1-1.6l100.9,5.1l4.6,3.1l5.1,0.5l-1.9,2.6c0,0,0,0-4.3-0.5
			c-4.3-0.5-95-7.2-95-7.2l-14.8,0.2L1020.1,11.3z M1118.4,41.4l-6.7,18.6l-81.8-41.4l87.3,5.1c0,0,0,0,3.7,4.3
			C1116.9,35,1118.4,41.4,1118.4,41.4z M1139.1,82.2L1027.8,34l-6.1-5.6l-0.5-5.6l3.1-2l114.8,57.5V82.2L1139.1,82.2z M1115.2,61.9
			l8.3-26.9l1.6,2.6l4.3-1.1l1.1-3.1l3.1,1.1l20.6,26.6c0,0-18-2.2-22.1-2.2C1127.6,58.7,1115.2,61.9,1115.2,61.9l18.6-0.5l4.6,2.4
			l3.3,11.1L1115.2,61.9z M1140.4,62.7l17,2l9.1,13.2l-20.6-1.4L1140.4,62.7z M1128,173.2l-6.7,3.6l37.1-85.6c0,0,2.2,10.6,4.1,10.6
			l-23.9,72.6L1128,173.2z"/>
	</g>
	<g id="Pop-up_Text" display="inline">
	</g>
	<polygon display="inline" fill="#B2B2B2" points="482,619.8 482,630.2 300.1,597.4 300.1,587 	"/>
</g>
<g>
	<g>
		<polygon id="Panel_13_" fill="#7A7A7A" points="226.8,936.6 235.5,938.2 894.1,553.2 888,322.9 874.3,321.5 206.5,663.1 		"/>
		<polygon id="Panel_12_" fill="#4C4C4C" points="235.5,938.2 894.1,553.2 888,322.9 216.6,664.1 		"/>
		<polygon id="Panel_11_" fill="#E5E5E5" points="206.5,663.1 874.3,321.5 888,322.9 216.1,664.4 		"/>
	</g>
	<path fill="#7A7A7A" d="M808.9,362.9l93.7-48.2l6.4-26.7l-6.2-0.9l-46.7,21.5c0-11.7,5.1-16.5,5.1-16.5l-4.7-1.9L255.7,586.1
		c0,0-45.2,50.5-45.2,77.3l5.5,0.8L808.9,362.9z"/>
	<path fill="#7A7A7A" d="M255.7,586.1c0,0-45.2,23-45.2,77.3l5.5,0.8c0,0,2.3-52.7,47.1-77.3L255.7,586.1z"/>
	<path fill="#FFFFFF" stroke="#000000" stroke-width="0.9248" stroke-miterlimit="10" d="M210.6,662.4"/>
	<polygon fill="#CCCCCC" points="255.7,586.1 263.1,586.9 861.1,292.1 856.5,290.2 	"/>
	<polygon fill="#E5E5E5" points="856,312.2 909.9,287.9 903.7,287 856.1,308.7 	"/>
</g>
<polygon display="none" fill="#4C4C4C" points="802.3,333.4 964.3,354.3 482.5,619.8 300.6,587 "/>
<g display="none">
	<g display="inline">
		<g>
			<g>
				<polygon fill="#B2B2B2" points="802.3,338.6 305.2,587.2 313.7,589 809,339.2 				"/>
				<polygon fill="#B2B2B2" points="813,339.7 317,589.3 325.5,591.2 819.7,340.5 				"/>
				<polygon fill="#B2B2B2" points="823.5,341 328.7,591.6 337.3,593.4 830.3,341.8 				"/>
				<polygon fill="#B2B2B2" points="834.2,342.4 340.6,593.7 349.1,595.6 841,343 				"/>
				<polygon fill="#B2B2B2" points="844.9,343.6 352.4,595.9 360.9,597.8 851.7,344.4 				"/>
				<polygon fill="#B2B2B2" points="855.6,344.9 364.2,598.1 372.8,599.9 862.4,345.7 				"/>
				<polygon fill="#B2B2B2" points="866.4,346.2 376.1,600.3 384.6,602.2 873.1,347 				"/>
				<polygon fill="#B2B2B2" points="877.1,347.5 387.9,602.5 396.5,604.4 883.9,348.4 				"/>
				<polygon fill="#B2B2B2" points="887.8,348.9 399.8,604.8 408.4,606.6 894.6,349.6 				"/>
				<polygon fill="#B2B2B2" points="898.6,350.2 411.7,607 420.4,609 905.4,351 				"/>
				<polygon fill="#B2B2B2" points="909.4,351.6 423.7,609.2 432.3,611.2 916.2,352.5 				"/>
				<polygon fill="#B2B2B2" points="920.2,352.9 435.6,611.6 444.3,613.5 927,353.8 				"/>
				<polygon fill="#B2B2B2" points="931,354.4 447.6,613.8 456.2,615.8 937.9,355.2 				"/>
				<polygon fill="#B2B2B2" points="941.8,355.8 459.5,616.1 468.2,618.1 948.6,356.6 				"/>
				<polygon fill="#B2B2B2" points="952.7,357.2 471.5,618.5 480.2,620.4 959.5,358 				"/>
				<polygon fill="#B2B2B2" points="963.5,358.6 483.5,620.8 492.3,622.7 970.4,359.4 				"/>
			</g>
			<polygon fill="#7A7A7A" points="492.3,622.7 486.1,621.4 960.1,360 959.5,358 480.2,620.4 474.1,619.1 949.3,358.6 948.6,356.6 
				468.2,618.1 462.1,616.7 938.4,357.1 937.9,355.2 456.2,615.8 450.1,614.4 927.6,355.8 927,353.8 444.3,613.5 438.2,612.2 
				916.8,354.4 916.2,352.5 432.3,611.2 426.2,609.8 906,352.9 905.4,351 420.4,609 414.3,607.6 895.2,351.6 894.6,349.6 
				408.4,606.6 402.4,605.4 884.4,350.2 883.9,348.4 396.5,604.4 390.5,603.1 873.7,349 873.1,347 384.6,602.2 378.6,600.9 
				862.9,347.6 862.4,345.7 372.8,599.9 366.8,598.7 852.2,346.2 851.7,344.4 360.9,597.8 354.9,596.4 841.5,345 841,343 
				349.1,595.6 343.1,594.3 830.8,343.7 830.3,341.8 337.3,593.4 331.2,592.1 820.1,342.4 819.7,340.5 325.5,591.2 319.5,589.9 
				809.5,341.1 809,339.2 313.7,589 305.2,587.2 305.2,590 313.7,591.9 317,590.8 317,592.2 325.5,594 328.7,592.9 328.8,594.3 
				337.3,596.2 340.6,595.2 340.6,596.5 349.2,598.5 352.4,597.3 352.4,598.8 361,600.6 364.3,599.5 364.3,600.9 372.9,602.8 
				376.1,601.8 376.2,603.1 384.7,605.1 387.9,604 388,605.4 396.7,607.3 399.9,606.2 400,607.7 408.6,609.6 411.8,608.5 
				411.9,609.9 420.6,611.9 423.8,610.7 423.8,612.2 432.5,614.2 435.7,613 435.8,614.5 444.5,616.4 447.7,615.4 447.8,616.8 
				456.4,618.8 459.6,617.6 459.7,619.1 468.5,621.1 471.7,619.9 471.8,621.4 480.5,623.4 483.6,622.3 483.8,623.8 492.6,625.9 
				971.1,361.5 970.4,359.4 			"/>
		</g>
	</g>
</g>
<g id="Layer_03" display="none">
	<g display="inline">
		<polygon fill="#B2B2B2" points="723.6,406.9 662.1,400.1 452.5,505 485.5,492.2 487.2,488.7 553.1,495.4 553.1,497.7 580,516.4 
			580,544.1 754.9,449.2 754.9,424 723.6,408.4 		"/>
		<polygon fill="#E5E5E5" points="553.1,495.4 723.6,406.9 662.1,400.1 487.2,488.7 		"/>
		<polygon fill="#CCCCCC" points="553.1,495.4 487.2,488.7 485.5,492.2 452.5,505 452.5,525.2 580,544.1 580,516.4 553.1,497.7 		
			"/>
		<ellipse fill="#7A7A7A" cx="536.3" cy="483.3" rx="22.7" ry="6.4"/>
		<polygon fill="#7A7A7A" points="501.7,522.5 416.9,511.9 332.4,552.1 332.5,590.4 417.2,604.9 501.8,560 		"/>
		
			<polygon fill="#7A7A7A" stroke="#B2B2B2" stroke-width="1.5258" stroke-linecap="round" stroke-linejoin="round" stroke-miterlimit="10" points="
			416.9,511.9 416.9,549.8 420.8,550.4 420.8,515.9 495.6,525 495.6,559.1 501.7,560 501.7,522.5 		"/>
		
			<polygon fill="#B2B2B2" stroke="#7A7A7A" stroke-width="1.5258" stroke-linecap="round" stroke-linejoin="round" stroke-miterlimit="10" points="
			490.7,558.3 490.7,549.8 417,588.4 417,597.3 		"/>
		
			<polygon fill="#B2B2B2" stroke="#7A7A7A" stroke-width="1.5258" stroke-linecap="round" stroke-linejoin="round" stroke-miterlimit="10" points="
			417.2,591.6 490.1,552.7 497,553.4 497,533.7 417.2,575.2 		"/>
		
			<polygon fill="#B2B2B2" stroke="#7A7A7A" stroke-width="1.5258" stroke-linecap="round" stroke-linejoin="round" stroke-miterlimit="10" points="
			417.2,575.2 497,533.6 497,524.8 417.2,566.4 		"/>
		<path fill="#7A7A7A" d="M446.4,564.7c0,0.8-0.1,1.5-0.4,1.7c0,0-0.3,0-0.4,0c-0.4,0-0.8-0.8-0.8-1.7c0-1,0.4-1.7,0.8-1.7
			c0.1,0,0.3,0,0.3,0C446.1,563.2,446.4,564,446.4,564.7z"/>
		<path fill="#7A7A7A" d="M446.4,572.1c0,0.8-0.1,1.5-0.4,1.7c0,0-0.3,0-0.4,0c-0.4,0-0.8-0.8-0.8-1.7c0-1,0.4-1.7,0.8-1.7
			c0.1,0,0.3,0,0.3,0C446.1,570.6,446.4,571.5,446.4,572.1z"/>
		<path fill="#7A7A7A" d="M446.4,555.4c0,0.8-0.1,1.5-0.4,1.7c0,0-0.3,0-0.4,0c-0.4,0-0.8-0.8-0.8-1.7c0-1,0.4-1.7,0.8-1.7
			c0.1,0,0.3,0,0.3,0C446.1,554,446.4,554.8,446.4,555.4z"/>
		<path fill="#7A7A7A" d="M461.4,556.8c0,0.7-0.1,1.5-0.4,1.7c0,0-0.3,0-0.4,0c-0.4,0-0.8-0.8-0.8-1.7c0-1,0.4-1.7,0.8-1.7
			c0.1,0,0.3,0,0.3,0C461.2,555.3,461.4,556.1,461.4,556.8z"/>
		<path fill="#7A7A7A" d="M461.4,564.2c0,0.7-0.1,1.5-0.4,1.7c0,0-0.3,0-0.4,0c-0.4,0-0.8-0.8-0.8-1.7c0-1,0.4-1.7,0.8-1.7
			c0.1,0,0.3,0,0.3,0C461.2,562.7,461.4,563.5,461.4,564.2z"/>
		<path fill="#7A7A7A" d="M461.4,547.7c0,0.7-0.1,1.5-0.4,1.7c0,0-0.3,0-0.4,0c-0.4,0-0.8-0.8-0.8-1.7c0-1,0.4-1.7,0.8-1.7
			c0.1,0,0.3,0,0.3,0C461.2,546.1,461.4,547,461.4,547.7z"/>
		<path fill="#7A7A7A" d="M493.4,540.1c0,0.7-0.1,1.5-0.4,1.7c0,0-0.3,0-0.4,0c-0.4,0-0.8-0.8-0.8-1.7c0-1,0.4-1.7,0.8-1.7
			c0.1,0,0.3,0,0.3,0C493.1,538.5,493.4,539.3,493.4,540.1z"/>
		<path fill="#7A7A7A" d="M493.4,547.4c0,0.7-0.1,1.5-0.4,1.7c0,0-0.3,0-0.4,0c-0.4,0-0.8-0.8-0.8-1.7c0-1,0.4-1.7,0.8-1.7
			c0.1,0,0.3,0,0.3,0C493.1,545.9,493.4,546.7,493.4,547.4z"/>
		<path fill="#7A7A7A" d="M493.4,531c0,0.7-0.1,1.5-0.4,1.7c0,0-0.3,0-0.4,0c-0.4,0-0.8-0.8-0.8-1.7c0-1,0.4-1.7,0.8-1.7
			c0.1,0,0.3,0,0.3,0C493.1,529.5,493.4,530.3,493.4,531z"/>
		<polygon fill="#CCCCCC" points="342.3,557.9 338.3,559.8 410.8,571.9 411,568.9 		"/>
		<polygon fill="#CCCCCC" points="341.4,567.3 337.4,569.2 342.6,570 346.8,568.1 		"/>
		<polygon fill="#CCCCCC" points="404.4,576.1 400.5,578.2 405.6,578.8 409.8,576.9 		"/>
		<polygon fill="#CCCCCC" points="356,580.9 345.5,586.1 348.1,586.5 358.5,581.2 		"/>
		<polygon fill="#CCCCCC" points="350.8,580.1 340.4,585.4 342.9,585.7 353.3,580.4 		"/>
		
			<polygon fill="#CCCCCC" stroke="#B2B2B2" stroke-width="1.5258" stroke-linecap="round" stroke-linejoin="round" stroke-miterlimit="10" points="
			332.4,552.1 332.5,590.4 336.6,591 336.6,556.8 411,568.9 411,604 417.2,604.9 417.2,566.4 		"/>
		
			<polygon fill="#E5E5E5" stroke="#B2B2B2" stroke-width="1.5258" stroke-linecap="round" stroke-linejoin="round" stroke-miterlimit="10" points="
			501.7,522.5 416.9,511.9 332.4,552.1 417.2,566.4 		"/>
		<path fill="#7A7A7A" d="M349.8,547.6l-9.3,4.7l77.6,11.5l9-4.7L349.8,547.6z M345.5,551.8l6.1-3l1.8,0.3l-6.1,3L345.5,551.8z
			 M349.8,552.5l6.1-3l1.8,0.3l-6.1,3L349.8,552.5z M354.4,553.1l6.1-3l1.8,0.3l-6.1,3L354.4,553.1z M358.5,553.8l6.1-3l1.8,0.3
			l-6.1,3L358.5,553.8z M362.9,554.4l6.1-3l1.8,0.3l-6.1,3L362.9,554.4z M367.3,555.1l6.1-3l1.8,0.3l-6.1,3L367.3,555.1z
			 M371.4,555.6l6.1-3l1.8,0.3l-6.1,3L371.4,555.6z M375.9,556.2l6.1-3l1.8,0.3l-6.1,3L375.9,556.2z M380.1,556.9l6.1-3l1.8,0.3
			l-6.1,3L380.1,556.9z M384.6,557.6l6.1-3l1.8,0.3l-6.1,3L384.6,557.6z M388.6,558.2l6.1-3l1.8,0.3l-6.1,3L388.6,558.2z
			 M393.2,558.7l6.1-3l1.8,0.3l-6.1,3L393.2,558.7z M397.2,559.4l6.1-3l1.8,0.3l-6.1,3L397.2,559.4z M401.5,560.1l6.1-3l1.8,0.3
			l-6.1,3L401.5,560.1z M406.2,560.8l6.1-3l1.8,0.3l-6.1,3L406.2,560.8z M410.3,561.4l6.1-3l1.8,0.3l-6.1,3L410.3,561.4z
			 M416.3,562.3l-1.8-0.3l6.1-3l1.8,0.3L416.3,562.3z"/>
		<path fill="#7A7A7A" d="M363.2,540.9l-9.2,4.7l77.2,10.5l8.9-4.8L363.2,540.9z M359,545.1l6.1-3.1l1.8,0.3l-6.1,3.1L359,545.1z
			 M363.2,545.8l6.1-3.1l1.8,0.3l-6.1,3.1L363.2,545.8z M367.8,546.3l6.1-3.1l1.8,0.3l-6.1,3.1L367.8,546.3z M371.9,547l6.1-3.1
			l1.8,0.3l-6.1,3.1L371.9,547z M376.3,547.5l6.1-3.1l1.8,0.3l-6.1,3.1L376.3,547.5z M380.6,548.1l6.1-3.1l1.8,0.3l-6.1,3.1
			L380.6,548.1z M384.8,548.6l6.1-3.1l1.8,0.3l-6.1,3.1L384.8,548.6z M389.2,549.1l6.1-3.1l1.8,0.3l-6.1,3.1L389.2,549.1z
			 M393.4,549.8l6.1-3.1l1.8,0.3l-6.1,3.1L393.4,549.8z M398,550.4l6.1-3.1l1.8,0.3l-6.1,3.1L398,550.4z M401.8,551l6.1-3.1l1.8,0.3
			l-6.1,3.1L401.8,551z M406.5,551.6l6.1-3.1l1.8,0.3l-6.1,3.1L406.5,551.6z M410.4,552.1l6.1-3.1l1.8,0.3l-6.1,3.1L410.4,552.1z
			 M414.8,552.7l6.1-3.1l1.8,0.3l-6.1,3.1L414.8,552.7z M419.3,553.3l6.1-3.1l1.8,0.3l-6.1,3.1L419.3,553.3z M423.4,553.9l6.1-3.1
			l1.8,0.3l-6.1,3.1L423.4,553.9z M429.4,554.8l-1.8-0.3l6.1-3.1l1.8,0.3L429.4,554.8z"/>
		<path fill="#7A7A7A" d="M376.6,534.2l-9.2,4.7l76.8,10.5l8.9-4.7L376.6,534.2z M372.4,538.4l6.1-3.1l1.8,0.3l-6.1,3.1L372.4,538.4
			z M376.6,539l6.1-3.1l1.8,0.3l-6.1,3.1L376.6,539z M381.2,539.6l6.1-3.1l1.8,0.3l-6.1,3.1L381.2,539.6z M385.2,540.2l6.1-3.1
			l1.8,0.3l-6.1,3.1L385.2,540.2z M389.6,540.7l6.1-3.1l1.8,0.3l-6.1,3.1L389.6,540.7z M393.9,541.4l6.1-3.1l1.8,0.3l-6.1,3.1
			L393.9,541.4z M398.1,541.8l6.1-3.1l1.8,0.3l-6.1,3.1L398.1,541.8z M402.5,542.4l6.1-3.1l1.8,0.3l-6.1,3.1L402.5,542.4z
			 M406.6,543.1l6.1-3.1l1.8,0.3l-6.1,3.1L406.6,543.1z M411.2,543.7l6.1-3.1l1.8,0.3L413,544L411.2,543.7z M415,544.3l6.1-3.1
			l1.8,0.3l-6.1,3.1L415,544.3z M419.6,544.8l6.1-3.1l1.8,0.3l-6.1,3.1L419.6,544.8z M423.6,545.4l6.1-3.1l1.8,0.3l-6.1,3.1
			L423.6,545.4z M428,545.9l6.1-3.1l1.8,0.3l-6.1,3.1L428,545.9z M432.4,546.6l6.1-3.1l1.8,0.3l-6.1,3.1L432.4,546.6z M436.5,547.1
			l6.1-3.1l1.8,0.3l-6.1,3.1L436.5,547.1z M442.5,548l-1.8-0.3l6.1-3.1l1.8,0.3L442.5,548z"/>
		<path fill="#7A7A7A" d="M389.9,527.5l-9.1,4.7l76.5,10.1l8.9-4.8L389.9,527.5z M385.7,531.7l6-3.1l1.7,0.2l-6,3.1L385.7,531.7z
			 M389.9,532.4l6-3.1l1.7,0.2l-6,3.1L389.9,532.4z M394.5,532.9l6-3.1l1.7,0.2l-6,3.1L394.5,532.9z M398.5,533.5l6-3.1l1.7,0.2
			l-6,3.1L398.5,533.5z M402.8,534l6-3.1l1.7,0.2l-6,3.1L402.8,534z M407.1,534.6l6-3.1l1.7,0.2l-6,3.1L407.1,534.6z M411.3,535.1
			l6-3.1l1.7,0.2l-6,3.1L411.3,535.1z M415.6,535.6l6-3.1l1.7,0.2l-6,3.1L415.6,535.6z M419.7,536.2l6-3.1l1.7,0.2l-6,3.1
			L419.7,536.2z M424.3,536.8l6-3.1l1.7,0.2l-6,3.1L424.3,536.8z M428.3,537.4l6-3.1l1.7,0.2l-6,3.1L428.3,537.4z M432.7,537.9
			l6-3.1l1.7,0.2l-6,3.1L432.7,537.9z M436.7,538.5l6-3.1l1.7,0.2l-6,3.1L436.7,538.5z M441,539l6-3.1l1.7,0.2l-6,3.1L441,539z
			 M445.5,539.6l6-3.1l1.7,0.2l-6,3.1L445.5,539.6z M449.5,540.2l6-3.1l1.7,0.2l-6,3.1L449.5,540.2z M455.4,541.1l-1.7-0.2l6-3.1
			l1.7,0.2L455.4,541.1z"/>
		<path fill="#7A7A7A" d="M403.7,520.7l-9.1,4.7l76.1,10l8.8-4.7L403.7,520.7z M399.5,524.8l6-3.1l1.7,0.2l-6,3.1L399.5,524.8z
			 M403.7,525.4l6-3.1l1.7,0.2l-6,3.1L403.7,525.4z M408.2,526l6-3.1l1.7,0.2l-6,3.1L408.2,526z M412.2,526.6l6-3.1l1.7,0.2l-6,3.1
			L412.2,526.6z M416.5,527.1l6-3.1l1.7,0.2l-6,3.1L416.5,527.1z M420.8,527.7l6-3.1l1.7,0.2l-6,3.1L420.8,527.7z M425,528.2l6-3.1
			l1.7,0.2l-6,3.1L425,528.2z M429.3,528.7l6-3.1l1.7,0.2l-6,3.1L429.3,528.7z M433.4,529.3l6-3.1l1.7,0.2l-6,3.1L433.4,529.3z
			 M437.9,529.9l6-3.1l1.7,0.2l-6,3.1L437.9,529.9z M441.8,530.4l6-3.1l1.7,0.2l-6,3.1L441.8,530.4z M446.3,531l6-3.1l1.7,0.2
			l-6,3.1L446.3,531z M450.2,531.6l6-3.1l1.7,0.2l-6,3.1L450.2,531.6z M454.5,532l6-3.1l1.7,0.2l-6,3.1L454.5,532z M459,532.7l6-3.1
			l1.7,0.2l-6,3.1L459,532.7z M463,533.2l6-3.1l1.7,0.2l-6,3.1L463,533.2z M468.9,534.1l-1.7-0.2l6-3.1l1.7,0.2L468.9,534.1z"/>
		<path fill="#7A7A7A" d="M416.3,514.3l-9,4.7l75.8,9.8l8.8-4.7L416.3,514.3z M412.2,518.5l6-3.1l1.7,0.2l-6,3.1L412.2,518.5z
			 M416.3,519.1l6-3.1l1.7,0.2l-6,3.1L416.3,519.1z M420.9,519.6l6-3.1l1.7,0.2l-6,3.1L420.9,519.6z M424.9,520.2l6-3.1l1.7,0.2
			l-6,3.1L424.9,520.2z M429.1,520.7l6-3.1l1.7,0.2l-6,3.1L429.1,520.7z M433.4,521.3l6-3.1l1.7,0.2l-6,3.1L433.4,521.3z
			 M437.6,521.7l6-3.1l1.7,0.2l-6,3.1L437.6,521.7z M441.9,522.2l6-3.1l1.7,0.2l-6,3.1L441.9,522.2z M445.9,522.8l6-3.1l1.7,0.2
			l-6,3.1L445.9,522.8z M450.4,523.4l6-3.1l1.7,0.2l-6,3.1L450.4,523.4z M454.3,524l6-3.1l1.7,0.2l-6,3.1L454.3,524z M458.8,524.5
			l6-3.1l1.7,0.2l-6,3.1L458.8,524.5z M462.7,525l6-3.1l1.7,0.2l-6,3.1L462.7,525z M467,525.5l6-3.1l1.7,0.2l-6,3.1L467,525.5z
			 M471.5,526.1l6-3.1l1.7,0.2l-6,3.1L471.5,526.1z M475.5,526.7l6-3.1l1.7,0.2l-6,3.1L475.5,526.7z M481.4,527.5l-1.7-0.2l6-3.1
			l1.7,0.2L481.4,527.5z"/>
		<g>
			<polygon fill="#E5E5E5" points="517,485.9 518.7,486.5 529.2,484 			"/>
			<path fill="#E5E5E5" d="M556.9,483.1c0-0.4-0.3-0.8-0.7-1.2l-16.1,0.3l13.7-1.7c-0.7-0.3-1.5-0.6-2.4-0.8l-10.2,2l5.9-3
				c-1.7-0.3-3.7-0.5-5.7-0.6l-3.7,2.5l2.9-2.5c-1.4-0.1-2.8-0.1-4.3-0.1c-9.2,0-17,1.6-19.6,3.7l16.3,1c-0.1,0-0.4,0.1-0.6,0.3
				h-16.6c0,0.1-0.1,0.2-0.1,0.3c0,0.3,0.1,0.6,0.3,0.8l16.4-1.1c-0.2,0.3-0.2,0.6,1,0.8l-9.6,3.8c1.3,0.3,2.6,0.5,4.1,0.6l3-1.4
				l0.4,1.7c1.3,0.1,2.6,0.1,3.9,0.2l-0.2-2.4l1.7,2.4c2.9,0,5.7-0.2,8.3-0.5l-1-0.9c0,0,2.6,0.5,5.7,0.1c3.2-0.7,5.5-1.7,6.5-2.7
				c-8.7-0.6-15.2-1-15.2-1L556.9,483.1z M536.6,483.6c-1.7,0-3.1-0.4-3.1-0.8c0-0.5,1.4-0.8,3.1-0.8s3.1,0.4,3.1,0.8
				C539.8,483.3,538.4,483.6,536.6,483.6z"/>
		</g>
		<ellipse fill="#7A7A7A" cx="568.5" cy="466.8" rx="22.4" ry="6.3"/>
		<g>
			<polygon fill="#E5E5E5" points="587.9,469.4 586.3,470.1 575.9,467.5 			"/>
			<path fill="#E5E5E5" d="M564.1,467.2c0,0-6.4,0.4-15.1,1c1.1,1.1,3.3,2,6.5,2.7c3.1,0.4,5.7-0.1,5.7-0.1l-0.9,0.9
				c2.5,0.3,5.2,0.5,8.2,0.5l1.7-2.4l-0.2,2.3c1.4,0,2.6-0.1,3.9-0.2l0.4-1.7l3,1.4c1.5-0.2,2.8-0.4,4-0.6l-9.5-3.7
				c1.2-0.2,1.3-0.5,1-0.7l16.2,1.1c0.2-0.3,0.3-0.5,0.3-0.8c0-0.1,0-0.2-0.1-0.3h-16.4c-0.2-0.2-0.5-0.3-0.6-0.3l16.1-1
				c-2.6-2.1-10.3-3.7-19.4-3.7c-1.5,0-2.9,0-4.3,0.1l2.8,2.5l-3.6-2.4c-2,0.1-4,0.4-5.6,0.6l5.8,2.9l-10.1-2
				c-0.9,0.3-1.7,0.5-2.3,0.8l13.6,1.7l-15.9-0.3c-0.4,0.4-0.6,0.8-0.7,1.2L564.1,467.2z M565.4,466.4c0-0.4,1.4-0.8,3-0.8
				s3,0.4,3,0.8s-1.4,0.8-3,0.8C566.8,467.2,565.4,466.9,565.4,466.4z"/>
		</g>
		<g>
			<polygon fill="#CCCCCC" points="560.6,453.6 562.2,452.1 610.9,457.9 611.1,459.6 			"/>
			<g>
				<path fill="#CCCCCC" d="M562.5,452.9l47.8,5.6v0.2l-48-5.6L562.5,452.9 M562,451.3l-3,2.8l52.9,6.3l-0.3-3.2L562,451.3
					L562,451.3z"/>
			</g>
		</g>
		<g>
			<polygon fill="#7A7A7A" points="612.1,461.4 632.7,450.7 630.2,448.3 580.2,442.5 562,451.3 611.6,457.3 			"/>
		</g>
		<g>
			<polygon fill="#7A7A7A" points="557.8,455.7 612.9,462.3 632.7,452 632.7,450.7 612.1,461.4 611.9,460.5 559,454.1 			"/>
		</g>
		<polygon fill="#CCCCCC" points="754.9,424 723.6,408.4 553.1,497.7 580,516.4 		"/>
		<polygon fill="#7A7A7A" points="583.8,514.4 600.6,505.5 577.1,491.1 560.3,499.7 		"/>
		<polygon fill="#7A7A7A" points="605,503.3 621.8,494.4 598.3,480 581.6,488.6 		"/>
		<polygon fill="#7A7A7A" points="624.7,492.9 641.5,484.1 618,469.6 601.3,478.2 		"/>
	</g>
</g>
<g id="Layer_02" display="none">
	<g id="Side_Panel_Near_1_" display="inline">
		<g>
			<path fill="#B2B2B2" d="M1094,628c-0.9-17.2,6-35.4,15.2-40.6c9.1-5.3,17.6,4.3,18.5,21.5s-6,35.4-15.2,40.6
				C1103.4,654.7,1095.1,645,1094,628z"/>
			<path fill="#B2B2B2" d="M1112.9,611.3c-0.2-4.6,1.9-9.6,4.8-11.3c2.8-1.6,5.4,0.7,5.6,5.3c0.2,4.6-1.9,9.6-4.8,11.3
				C1115.7,618.3,1113.3,615.9,1112.9,611.3z"/>
			<path fill="#B2B2B2" d="M1107.2,621.9c-0.5-10.5,2.2-20.9,6.3-23.3c4.1-2.2,7.8,4.5,8.4,15c0.5,10.5-2.2,20.9-6.3,23.3
				C1111.7,639.1,1107.7,632.4,1107.2,621.9z"/>
			<path fill="#B2B2B2" d="M1097.8,627.2c-0.9-17.2,6-35.4,15.2-40.6c9.3-5.3,17.6,4.3,18.5,21.5c0.8,17.2-6,35.4-15.2,40.6
				C1107,653.9,1098.7,644.5,1097.8,627.2z"/>
		</g>
		<g>
			<path fill="#E5E5E5" stroke="#000000" stroke-width="0.7592" stroke-miterlimit="10" d="M691,889.8c-0.2-3.5,1.2-7.4,3.1-8.4
				s3.5,0.9,3.9,4.6c0.2,3.5-1.2,7.4-3.1,8.4C693,895.5,691.2,893.4,691,889.8z"/>
			<path fill="#B2B2B2" d="M660.8,914c-1.1-20.2,6.9-41.5,17.7-47.9c11-6.3,20.8,5.1,21.8,25.2c1.1,20.2-6.9,41.5-17.7,47.9
				C671.5,945.4,661.8,934.2,660.8,914z"/>
			<path fill="#B2B2B2" d="M682.7,894.4c-0.4-5.4,2.2-11.3,5.6-13.2c3.3-1.9,6.3,0.9,6.7,6.3c0.4,5.4-2.2,11.3-5.6,13.2
				C686.1,902.7,683.1,899.9,682.7,894.4z"/>
			<path fill="#B2B2B2" d="M676,906.9c-0.7-12.5,2.6-24.6,7.4-27.4c4.8-2.6,9.1,5.1,9.8,17.6c0.7,12.5-2.6,24.6-7.4,27.4
				C681.2,927.2,676.7,919.3,676,906.9z"/>
			<path fill="#B2B2B2" d="M665,913.2c-1.1-20.2,6.9-41.5,17.7-47.9c10.8-6.4,20.8,5.1,21.8,25.2c1.1,20.2-6.9,41.5-17.7,47.9
				C675.7,944.5,666,933.3,665,913.2z"/>
		</g>
		<g>
			<path fill="#B2B2B2" d="M610.4,944.7c-1.1-20.2,6.9-41.5,17.7-47.9c11-6.1,20.8,5.1,21.8,25.2c1.1,20.2-6.9,41.5-17.7,47.9
				C621.2,976.3,611.3,964.9,610.4,944.7z"/>
			<path fill="#B2B2B2" d="M632.3,925.2c-0.4-5.4,2.2-11.3,5.6-13.2c3.3-1.9,6.3,0.9,6.7,6.3c0.4,5.4-2.2,11.3-5.6,13.2
				C635.7,933.5,632.6,930.6,632.3,925.2z"/>
			<path fill="#B2B2B2" d="M625.6,937.5c-0.7-12.5,2.6-24.6,7.4-27.4c4.8-2.6,9.1,5.1,9.8,17.6s-2.6,24.6-7.4,27.4
				C630.8,957.9,626.3,950.1,625.6,937.5z"/>
			<path fill="#B2B2B2" d="M614.5,944c-1.1-20.2,6.9-41.5,17.7-47.9c11-6.1,20.8,5.1,21.8,25.2c1.1,20.2-6.9,41.5-17.7,47.9
				C625.4,975.5,615.6,964,614.5,944z"/>
		</g>
		<g id="Door_1_">
		</g>
		<g id="Window_1_">
		</g>
		<g>
			<polygon id="Panel_4_" fill="#4C4C4C" points="523.7,979.2 537,981.6 1155.2,577.8 1140.6,353.6 1128.7,341.6 505.4,702.9 			"/>
			<polygon id="Panel_3_" fill="#B2B2B2" points="537,981.6 1155.2,577.8 1140.6,353.6 518.6,704.9 			"/>
			<polygon id="Panel_2_" fill="#CCCCCC" points="518.6,704.9 1140.6,353.6 1140.6,353.6 1128.7,341.6 505.4,702.9 			"/>
			<path fill="#4C4C4C" d="M515.3,694.4l618.6-347.5l-3.5-23.3h-8.7l0,0l-9.8-12.7l-44.5,24.2c0,0-5.4-20.9-25.8-24.8l-569.8,302
				v4.1c0,0,20.9,9.4,33.4,48.4l7.4,2.9V693L515.3,694.4z"/>
			<polygon fill="#7A7A7A" points="1008.1,381.2 864,460.5 864,463.6 1008.1,384.1 			"/>
			<polygon fill="#7A7A7A" points="1021.5,376.7 1117.4,323.9 1116,321.9 1021.5,373.8 			"/>
			<polygon fill="#7A7A7A" points="697,555.5 850.4,471 850.4,467.8 697,552.2 			"/>
			<polygon fill="#7A7A7A" points="683.4,559.6 521.8,648.5 521.8,652.1 683.4,562.9 			"/>
			<polygon fill="#B2B2B2" points="508.1,662.4 515.3,666.3 515.3,694.4 1133.8,347.4 1130.3,323.5 1121.5,323.5 			"/>
			<polygon fill="#E5E5E5" points="518.6,704.9 1140.6,353.6 1133.8,346.9 515.3,694.4 			"/>
			<polygon fill="#4C4C4C" points="518.6,704.9 515.3,694.4 512.4,693.3 515.3,704.4 			"/>
			<path fill="#B2B2B2" d="M1017.4,376.7l5.3-2.8v4.3l42.2-23.2v-4.3l7-3.9v4.3l36.9-20.4v-4.1l7-3.9v4.1l5.6-3.1l-9.8-12.7
				l-44.6,24.4c0,0-6.1-21.9-25.8-25l-50.4,26.9c18.5,15.4,23,38.8,25,44.8l1.7-1.1L1017.4,376.7L1017.4,376.7z"/>
			<path fill="#B2B2B2" d="M1001.6,389.8v-4.4l7-3.9v4.5l5-2.9c-8.3-31.3-22.3-43-25-44.6l-156.5,83.1c15,10,25.3,39.7,27.3,46.1
				l10.2-5.1v-4.8l7-3.9v4.8l61.6-34v-4.6l7-3.9v4.6L1001.6,389.8z"/>
			<path fill="#B2B2B2" d="M774.8,515.1V510l7-3.9v5.1l61.6-34.1v-5l7-3.9v5l7-3.9c-11.8-36-25.3-45.6-27.4-47L663.4,511
				c16.1,8.4,26.7,33.2,29.1,49.5l11.8-6.7v-5.3l7-3.9v5.3L774.8,515.1z"/>
			<path fill="#B2B2B2" d="M667.7,574.4v-5.4l7-3.9v5.4l16.7-9.1c-10.8-40.8-29.7-48.7-30-49L471.9,612.5
				c12.7,6.7,27.4,19.5,36.4,50.1L522,655v-5.8l7-3.9v5.8l69.2-38.3v-5.6l7-3.9v5.6L667.7,574.4z"/>
			<polygon fill="#E5E5E5" points="1130.3,323.5 515.3,666.3 508.1,662.4 1121.5,323.5 			"/>
		</g>
		<polygon fill="#7A7A7A" points="958.8,612.3 669.5,797.2 673.4,857.6 960.3,674.5 		"/>
		<path fill="#CCCCCC" d="M957.9,667.5c-0.4,0.2-282.1,180-282.1,180c-1.6,1.1-3.1,3.1-2.9,5.4c0.4,2,1.6,3.5,3.3,2.6
			c0,0,279.8-179.1,281.8-180.4c1.9-1.2,2.9-2,2.9-4.3C961,668.9,959.4,666.6,957.9,667.5z"/>
		<path fill="#CCCCCC" d="M957.9,657c-0.4,0.2-282.6,180.4-282.6,180.4c-1.6,1.1-3.1,3.1-2.9,5.4c0.4,2,1.6,3.5,3.3,2.6
			c0,0,280.3-179.5,282.3-180.6c1.9-1.2,2.9-2,2.9-4.3C961,658.4,959.4,656.2,957.9,657z"/>
		<path fill="#CCCCCC" d="M957.9,646.4c-0.4,0.2-283.2,180.6-283.2,180.6c-1.6,1.1-3.1,3.1-2.9,5.4c0.4,2,1.6,3.5,3.3,2.6
			c0,0,280.9-179.8,282.8-181c1.8-1.3,2.9-2,2.9-4.3C961,647.8,959.4,645.6,957.9,646.4z"/>
		<path fill="#CCCCCC" d="M957.9,636c-0.4,0.2-283.7,181-283.7,181c-1.6,1.1-3.1,3.1-2.9,5.4c0.4,2,1.6,3.5,3.3,2.6
			c0,0,281.5-180.2,283.4-181.6c1.9-1.2,2.9-2,2.9-4.3C961,637.3,959.4,635.1,957.9,636z"/>
		<path fill="#CCCCCC" d="M902.4,519.8c0-3.1-2.4-6.9-5.6-5l-84.7,48.7c-3.1,1.9-5.6,6-5.6,9.1l6.9,106.7c0,3.1,2.9,7.2,6.1,5.3
			l84.2-51.3c3.1-1.9,5.6-6,5.6-9.1L902.4,519.8z M901.2,629.7l-79.7,49.7c-2.6,1.7-4.8,0.9-4.8-1.9l-6.5-102.7c0-2.8,2-6.7,4.8-8.4
			l79.9-45.8c2.6-1.7,4.8-0.9,4.8,1.9l6.1,98.6C906,624.1,903.7,628,901.2,629.7z"/>
		<path fill="#CCCCCC" d="M957.9,625.3c-0.4,0.4-284.1,181.6-284.1,181.6c-1.6,1.1-3.1,3.1-2.9,5.4c0.4,2,1.6,3.5,3.3,2.6
			c0,0,281.9-180.6,283.9-182c1.9-1.2,2.9-2,2.9-4.3C961,626.7,959.4,624.5,957.9,625.3z"/>
		<path fill="#CCCCCC" d="M957.9,614.8c-0.4,0.2-284.8,181.8-284.8,181.8c-1.6,1.1-3.1,3.1-2.9,5.4c0.4,2,1.6,3.5,3.3,2.6
			c0,0,282.5-181,284.3-182.3c1.9-1.2,2.9-2,2.9-4.3C961,616.2,959.4,613.9,957.9,614.8z"/>
		<polygon fill="#7A7A7A" points="1150,496.7 1020.6,576.8 1024.3,637.3 1153.8,557.4 		"/>
		<path fill="#CCCCCC" d="M1153.1,549.3c-14.1,8.5,1.9-1.2-126.5,78.1c-1.6,1.1-3.1,3.1-2.9,5.4c0.4,2,1.6,3.5,3.3,2.6
			c0,0,124-77.2,126.1-78.6c1.9-1.2,2.9-2,2.9-4.3C1156.3,550.5,1154.7,548.2,1153.1,549.3z"/>
		<path fill="#CCCCCC" d="M1152.4,539.2c-0.4,0.2-126.3,77.9-126.3,77.9c-1.6,1.1-3.1,3.1-2.9,5.4c0.4,2,1.6,3.5,3.3,2.6
			c0,0,123.9-77,125.9-78.2c1.9-1.2,2.9-2,2.9-4.3C1155.4,540.4,1154.1,538.2,1152.4,539.2z"/>
		<path fill="#CCCCCC" d="M1152.4,528.7c-0.4,0.2-126.7,78.2-126.7,78.2c-1.6,1.1-3.1,3.1-2.9,5.4c0.4,2,1.6,3.5,3.3,2.6
			c0,0,124.4-77.3,126.5-78.6c1.9-1.2,2.9-2,2.9-4.3S1154.1,527.6,1152.4,528.7z"/>
		<path fill="#CCCCCC" d="M1151.1,518.8c-0.4,0.2-126.1,77.9-126.1,77.9c-1.6,1.1-3.1,3.1-2.9,5.4c0.4,2,1.6,3.5,3.3,2.6
			c0,0,123.7-77.2,125.7-78.4c1.9-1.2,2.9-2,2.9-4.3C1154.4,520,1152.7,517.8,1151.1,518.8z"/>
		<path fill="#CCCCCC" d="M1150.3,508.8c-0.4,0.2-125.7,77.7-125.7,77.7c-1.6,1.1-3.1,3.1-2.9,5.4c0.4,2,1.6,3.5,3.3,2.6
			c0,0,123.3-76.8,125.4-78.1c1.9-1.2,2.9-2,2.9-4.3C1153.5,510,1152,507.9,1150.3,508.8z"/>
		<path fill="#CCCCCC" d="M1150,498.4c-0.4,0.2-125.9,77.9-125.9,77.9c-1.6,1.1-3.1,3.1-2.9,5.4c0.4,2,1.6,3.5,3.3,2.6
			c0,0,123.5-77,125.6-78.4c1.9-1.2,2.9-2,2.9-4.3C1152.9,499.7,1151.5,497.4,1150,498.4z"/>
		<path fill="#262626" d="M904.5,517.6c0-2.9-2.4-6.9-5.6-5l-83.3,48.1c-2.9,1.9-5.6,6-5.6,8.9l6.9,105c0,2.9,2.9,7.2,6.1,5.3
			l83-50.6c2.9-1.9,5.6-6,5.6-8.9L904.5,517.6z M903.2,625.5l-78.4,49c-2.6,1.7-4.6,0.9-4.6-1.9l-6.3-100.9c0-2.8,2-6.5,4.6-8.3
			l78.8-45.2c2.6-1.7,4.6-0.9,4.6,1.9l6.1,97C907.9,620,905.8,623.7,903.2,625.5z"/>
		<path fill="#CCCCCC" d="M795.1,581.8c0-3.1-2.4-6.9-5.6-5l-84.7,48.7c-3.1,1.9-5.6,6-5.6,9.1l7,111.1c0,3.1,2.9,7.2,6.1,5.3
			l84-51.9c3.1-1.9,5.6-6,5.6-9.1L795.1,581.8z M793.6,695.5L714,745.9c-2.6,1.7-4.8,0.9-4.8-1.9l-6.5-107c0-2.8,2-6.7,4.8-8.4
			l79.9-45.8c2.6-1.7,4.8-0.9,4.8,1.9l6.1,102.5C798.5,689.9,796.3,693.7,793.6,695.5z"/>
		<path fill="#262626" d="M796.9,579.3c0-2.9-2.4-6.9-5.6-5l-83.3,48c-2.9,1.9-5.6,6-5.6,8.9l6.9,109.3c0,2.9,2.9,7.2,6.1,5.3
			l82.8-51.1c2.9-1.9,5.6-6,5.6-8.9L796.9,579.3z M795.8,691.2l-78.4,48.2c-2.6,1.7-4.6,0.9-4.6-1.9l-6.6-103.9c0-2.8,2-6.5,4.6-8.3
			l78.8-45.2c2.6-1.7,4.6-0.9,4.6,1.9l6.1,100.9C800.3,685.9,798.2,689.5,795.8,691.2z"/>
		<polygon fill="#B2B2B2" points="863.5,777.6 863.3,832.3 754.6,907.1 748.7,882 747.9,853.1 		"/>
		<polygon fill="#B2B2B2" points="987.4,696.7 990.1,748.9 868.5,829.4 867,775.2 		"/>
		<polygon fill="#B2B2B2" points="1108.8,617.2 1106.1,656 1103.6,672.1 994.4,745.9 990.1,694.8 		"/>
		<polygon fill="#F6E8A2" points="1122.4,610.7 1155.8,588.9 1156.7,597.7 1123.6,617.4 		"/>
		<polygon fill="#F6E8A2" points="680.3,891.3 708.7,874.4 709.6,883.1 682,899.9 		"/>
	</g>
	<g id="exploding_x5F_roof_1_" display="inline">
		<path fill="#CCCCCC" d="M1092.3,521.4l-28.3,16.3c-2.8,1.6-5.6-2.2-5.6-5.1l-6.7-102.8c0-2.8,2.2-6.5,5.3-8.3l28.5-16.5
			c2.8-1.6,5.3,1.9,5.3,5l7,103.2C1097.6,516.2,1095.3,519.8,1092.3,521.4z"/>
		<path fill="#262626" d="M1093.2,409.2c0-2.8-2.2-6.5-5.3-5l-28.5,16.5c-2.8,1.6-5.3,5.3-5.3,8.3l6.7,102.8c0,2.8,2.8,6.9,5.6,5.1
			l28.3-16.3c2.8-1.6,5.3-5.3,5.3-8.3L1093.2,409.2z M1092.7,517.4l-24.2,14.8c-2.4,1.6-4.5,0.5-4.5-2l-6.1-99c0-2.6,1.9-6,4.5-7.6
			l23.9-13.9c2.4-1.6,4.5-0.5,4.5,2l6.5,98.3C1097.1,512.4,1095.1,515.8,1092.7,517.4z"/>
		<path fill="#B2B2B2" d="M574.4,687.9c0,0,56.2-32.2,59.3-33.8c3.1-1.6,11-0.2,11,10.8c0,10.5,12.3,222.3,12.3,222.3l-77.8,50.3
			c0,0-14.1-213.1-14.8-225C563.6,693.3,574.4,687.9,574.4,687.9z"/>
		<path fill="#E5E5E5" d="M580.2,917.1c0,0,55.9-35.4,59.3-38c3.5-2.6,9.6-5,8.4-17.2c-1.2-12.2-13.9-207.9-13.9-207.9
			c1.9-1.1,11-1.4,11,10.8c0,10.8,7.9,148.9,11.1,200.8c1.1,18.5-4.5,24.4-10.5,28.2c-5,2.9-58.2,37.1-58.2,37.1s1.4-5.3,1.6-6.1
			c0.2-0.9,0.5-3.3-1.6-4.5C585.6,919.7,580.2,917.1,580.2,917.1z"/>
		<polygon fill="#262626" points="607.9,899.4 611,897.2 596.5,675.4 593.3,677.2 		"/>
		<path fill="#CCCCCC" d="M587.1,818.8c5.6-2.9,10.8-10.3,9.8-21.5c-1.7-27.3-7.4-112.9-7.4-112.9c0-1.9-0.5-3.5-1.6-4.6
			c-7.2,4.1-13.5,7.8-13.5,7.8s-11.1,5.1-9.8,24.6c0.4,6,4.1,59.5,7.4,114.9L587.1,818.8z"/>
		<path fill="#CCCCCC" d="M629,792.3c5.6-2.9,7-13.9,6.5-21.5l-7.2-108.6c0-1.9-0.4-3.3-1.4-4.3c-7.2,4.1-7.6,4.3-13.2,7.6
			c-6.1,3.5-13.2,6.5-12.5,18.2c0.4,5.1,3.7,56,6.9,104.3c0.5,7.9,5.1,10.3,10.2,8.7C621.8,795.4,629,792.3,629,792.3z"/>
		<path fill="#262626" d="M633.5,767l-6.7-102.5c-0.2-2.4-1.6-4.1-3.3-4.6c0,0-2.2,1.4-3.5,2l-9.1,5.1c-2.8,1.6-10.5,5.8-10,15.4
			c0.4,6.5,6.9,104.3,6.9,104.3c0.5,11.5,6.7,11.3,10,10c2-0.9,7.8-4.6,7.8-4.6C633.3,787.8,634.2,777.3,633.5,767z M623.7,669.1
			c0,0,6.5,96.5,6.9,104.3c0.5,7.6-1.4,11.8-4.3,13.5c-1.1,0.7-7.6,4.6-9.6,5.8c-2.4,1.4-4.5-1.2-4.8-6.1c-0.4-5-6.9-106-6.9-106
			c-0.5-6.9,2.9-11.9,6-13.5c2.8-1.6,6.5-3.7,8.5-5C621.4,661,623.7,662.6,623.7,669.1z"/>
		<g>
			<path fill="#262626" d="M594.8,793.9l-7-105.3c-0.2-2.9-2.6-6.9-5-5.4c0,0-2.8,1.6-7,3.9c1.1-0.5,2.8-1.6,5-2.8
				c1.7,0.7,3.5,2.8,3.7,5.6c0.2,4.5,6.1,93.5,6.9,104.4c0.7,11-5.4,16.8-7.2,18.2c-1.9,1.1-5.3,3.1-7.2,4.5
				c-2.6,1.7-4.5,0.7-5.6-0.2c-2.6-44.1-5.8-84.9-6.5-99.4c0.9,15,4.1,58.7,6.9,105c2.2,0.2,4.3,0,6-0.9l6.7-4.1
				C591.6,812.9,595.6,804.1,594.8,793.9z"/>
			<path fill="#262626" d="M564.6,712.5c0-0.9,0-1.6,0-2.4C564.5,710.9,564.5,711.6,564.6,712.5z"/>
		</g>
		<path fill="#7A7A7A" d="M653.7,777.3l10.8-6.5c4.3,69.8,4.5,69.4,4.5,71.9c0,1.6-0.4,3.1-2,4.3c-1.7,1.1-8.4,5.3-8.4,5.3
			L653.7,777.3z"/>
		<path fill="#4C4C4C" d="M661.9,844c-0.7,0.4-3.5,2-4.1,2.4l0.4,5.6c0,0,6.7-4.5,8.4-5.3c1.7-1.1,2-2.6,2-4.3
			c0-1.7-4.5-71.9-4.5-71.9l-5,2.9c0.7,10.8,4.1,65.6,4.1,66.9C663.5,842.2,662.7,843.7,661.9,844z"/>
		<polygon fill="none" stroke="#FFFFFF" stroke-width="0.647" stroke-miterlimit="10" points="562.3,680.1 658.3,626.1 674.7,875.8 
			579.3,937.5 		"/>
		<path fill="#B2B2B2" d="M962.2,466.3c0,0,38.8-21.9,41.7-23.3s9.6-0.2,9.6,9.4c0,9.3,11,197.1,11,197.1l-58,38
			c0,0-12.5-188.8-13-199.3C952.5,471,962.2,466.3,962.2,466.3z"/>
		<path fill="#E5E5E5" d="M967.1,669.5c0,0,38.5-24.8,41.7-27.1c3.1-2.2,8.5-4.3,7.4-15.2c-1.2-11-12.3-184.2-12.3-184.2
			c1.7-0.9,9.6-1.2,9.6,9.4c0,9.4,7,131.9,9.8,177.9c1.1,16.3-3.9,21.7-9.3,25c-4.5,2.6-40.6,26.2-40.6,26.2s1.2-4.8,1.4-5.4
			c0.2-0.9,0.4-2.9-1.4-3.9C972,671.6,967.1,669.5,967.1,669.5z"/>
		<polygon fill="#262626" points="985.3,657.7 988.1,656 975.1,459.3 972.2,460.8 		"/>
		<path fill="#CCCCCC" d="M967,586.3c5.1-2.6,9.4-9.1,8.7-19c-1.6-24.1-6.7-100-6.7-100c0-1.7-0.5-3.1-1.4-4.1
			c-6.5,3.5-5.4,2.9-5.4,2.9s-9.8,4.6-8.7,21.8c0.4,5.3,3.7,52.7,6.5,101.8L967,586.3z"/>
		<path fill="#CCCCCC" d="M999.5,565.6c5.1-2.6,6.1-12.3,5.8-19l-6.5-96.3c0-1.7-0.4-2.9-1.2-3.7c-6.5,3.5-2.2,1.2-7.4,4.1
			c-5.4,3.1-11.7,5.8-11.1,15.9c0.4,4.5,3.1,49.5,6.1,92.3c0.5,7,4.6,9.3,8.9,7.8C997.6,565.6,999.5,565.6,999.5,565.6z"/>
		<path fill="#262626" d="M1003.5,543.1l-5.8-90.9c-0.2-2-1.4-3.5-2.8-4.1c0,0-2,1.2-3.1,1.7l-3.7,1.9c-2.6,1.4-9.3,5.3-8.7,13.7
			c0.4,5.6,6.1,92.3,6.1,92.3c0.5,10.2,6,10,8.9,8.9c1.9-0.7,2.4-1.4,2.4-1.4C1003.3,561.4,1004.2,552.2,1003.5,543.1z M994.9,456.4
			c0,0,5.6,85.5,6.1,92.3c0.4,6.7-1.2,10.3-3.9,11.9c-1.1,0.5-2.2,1.4-4.3,2.4c-2.2,1.2-3.9-1.1-4.3-5.4c-0.2-4.5-6-93.8-6-93.8
			c-0.4-6,2.6-10.5,5.3-11.9c2.6-1.4,1.4-0.7,3.1-1.7C993,449.2,994.9,450.5,994.9,456.4z"/>
		<g>
			<path fill="#262626" d="M973.8,564.2l-6.3-93.3c-0.2-2.6-0.7-7-2.9-5.8l-1.7,1.1c1.6,0.7,1.7,3.5,1.9,6
				c0.2,3.9,5.4,82.8,6.1,92.5c0.7,9.6-4.8,15-6.5,15.9c-1.7,1.1,1.9-1.1,0.2-0.2c-2.4,1.4-3.9,0.5-5,0c-2.2-38.9-5.1-75.3-5.8-87.9
				c0.7,13.4,3.7,52,6.1,92.9c2,0.2,3.7,0,5.3-0.7l-0.7,0.4C970.9,581.1,974.4,573.3,973.8,564.2z"/>
			<path fill="#262626" d="M953.4,488.2c0-0.7,0-1.4,0-2C953.4,486.9,953.4,487.6,953.4,488.2z"/>
		</g>
		<polygon fill="none" stroke="#FFFFFF" stroke-width="0.5733" stroke-miterlimit="10" points="951.5,459.6 1019.1,421.7 
			1033.4,643.1 966.6,687.4 		"/>
	</g>
	<g id="Branding_2_" display="inline">
		<g>
			<g>
				<path fill="#4C4C4C" d="M541.9,727.6c-0.5-8.3,2.8-17.2,7.4-20.2c4.6-2.9,8.7,1.2,9.3,9.3c0.5,8.3-2.8,17.2-7.4,20.2
					C546.6,740.1,542.6,735.9,541.9,727.6L541.9,727.6z"/>
				<g>
					<path fill="#E5E5E5" d="M552.3,711.8l-1.4,12.3l1.2,4.5c0.2-2.2,1.1-8.7,1.1-9.3c0.2,3.3,0.7,10,0.7,10l2-1.4l-1.2-17.7
						L552.3,711.8z"/>
					<path fill="#E5E5E5" d="M547.3,715l-2.6,1.7l1.2,17.7l2-1.4c0,0-0.4-6.7-0.7-10c0.2,0.5,2.6,8.7,2.6,8.7l1.9-1.2L547.3,715
						L547.3,715z"/>
				</g>
			</g>
		</g>
		<g>
			<path fill="#4C4C4C" d="M549.1,750.7l-0.2-4.5c0,0.4,0,0.4-0.2,1.1l-0.9,4.3l-0.9,0.5l-1.2-2.9c-0.2-0.4-0.2-0.4-0.2-0.9l0.4,4.5
				l-0.9,0.5l-0.4-6l1.1-0.7l1.6,3.5c0,0.2,0.2,0.2,0.2,0.4c0-0.4,0-0.4,0-0.5l1.1-5.1l1.1-0.7l0.4,6L549.1,750.7z"/>
			<path fill="#4C4C4C" d="M553.3,748.1c-0.4,0.4-0.7,0.7-1.1,0.9c-1.1,0.5-1.7,0.2-1.7-1.2c-0.2-1.4,0.5-2.8,1.6-3.3
				c0.9-0.5,1.4,0,1.6,1.1v0.5l-2.2,1.4c0,0.4,0,0.5,0.2,0.5c0.2,0.2,0.5,0.2,0.7,0c0.2,0,0.2-0.2,0.4-0.4c0.2-0.2,0.4-0.4,0.5-0.7
				l0.4,0.7C553.5,747.9,553.3,747.9,553.3,748.1z M552,745.4c-0.4,0.2-0.7,0.7-0.7,1.4l1.2-0.7C552.7,745.4,552.3,745.2,552,745.4z
				"/>
			<path fill="#4C4C4C" d="M555.8,746.6c-0.2,0.4-0.5,0.5-0.7,0.7c-0.5,0.4-0.7,0.2-0.7-0.5l-0.2-2.6l-0.5,0.4v-0.7l0.5-0.4
				l-0.2-1.2l0.9-0.5l0.2,1.2l0.7-0.4v0.9l-0.7,0.4l0.2,1.9c0,0.5,0,0.5,0.2,0.5c0.2,0,0.2-0.2,0.5-0.5l0.4,0.7
				C556,746.4,556,746.6,555.8,746.6z"/>
			<path fill="#4C4C4C" d="M558.5,742.3c-0.2,0-0.2,0-0.4,0c-0.2,0-0.4,0.4-0.4,0.5c-0.2,0.4-0.2,0.7-0.2,0.9l0.2,1.9l-0.9,0.5
				l-0.4-4.3l0.7-0.5l0.2,0.9c0.4-0.9,0.5-1.2,0.7-1.4c0.2-0.2,0.4-0.2,0.5,0L558.5,742.3z"/>
			<path fill="#4C4C4C" d="M560.9,744c-0.9,0.5-1.7,0-1.7-1.2c-0.2-1.2,0.5-2.6,1.6-3.1c0.9-0.5,1.7,0,1.7,1.2
				C562.5,742.1,561.8,743.5,560.9,744z M560.5,740.3c-0.4,0.2-0.7,1.1-0.7,1.9c0,0.7,0.5,1.2,0.9,0.9c0.4-0.2,0.7-1.1,0.7-1.9
				C561.4,740.5,561.1,740.1,560.5,740.3z"/>
		</g>
		<g>
			<path fill="#4C4C4C" d="M707.8,611.8l-0.2-8.4c0,0.5,0,0.7-0.2,1.7l-1.2,7.6l-1.1,0.5l-1.4-5.8c-0.2-0.5-0.2-0.7-0.4-1.7l0.2,8.4
				l-1.1,0.5l-0.4-11.5l1.4-0.9l1.9,7.2c0,0.4,0.2,0.4,0.2,0.9c0-0.5,0-0.7,0.2-0.9l1.6-9.1l1.4-0.9l0.4,11.5L707.8,611.8z"/>
			<path fill="#4C4C4C" d="M713.2,608.3c-0.5,0.7-0.9,1.1-1.4,1.4c-1.2,0.7-2-0.4-2.2-2.8c0-2.4,0.9-5,2-5.6
				c1.1-0.7,1.9,0.5,1.9,2.6v0.9l-2.8,1.6c0,0.7,0,0.9,0.2,1.2c0.2,0.5,0.5,0.7,1.1,0.4c0.2-0.2,0.4-0.2,0.5-0.4
				c0.2-0.4,0.4-0.5,0.9-1.2l0.5,1.4C713.5,608,713.4,608.3,713.2,608.3z M711.6,602.8c-0.5,0.4-0.9,1.1-0.9,2.2l1.7-1.1
				C712.4,602.8,712,602.4,711.6,602.8z"/>
			<path fill="#4C4C4C" d="M716.7,606.4c-0.4,0.5-0.7,0.9-0.9,1.1c-0.5,0.4-0.9,0-0.9-1.2l-0.2-5l-0.7,0.4v-1.2l0.7-0.5v-2.4
				l1.1-0.5v2.4l0.9-0.5v1.6l-0.9,0.5v3.5c0,0.9,0,1.1,0.2,1.1c0.2,0,0.4-0.4,0.5-0.9l0.4,1.2C717,606,716.8,606.2,716.7,606.4z"/>
			<path fill="#4C4C4C" d="M719.9,599.1c-0.2-0.2-0.2-0.2-0.4,0c-0.2,0.2-0.4,0.4-0.5,0.9c-0.2,0.5-0.4,1.1-0.4,1.7l0.2,3.7
				l-1.1,0.7l-0.2-8.1l1.1-0.5l0.2,1.7c0.4-1.6,0.7-2.2,1.1-2.4c0.2-0.2,0.4,0,0.7,0.2L719.9,599.1z"/>
			<path fill="#4C4C4C" d="M722.8,603.3c-1.2,0.7-2.2-0.5-2.2-2.9c0-2.4,0.9-4.8,2-5.4s2.2,0.5,2.2,2.9
				C725.1,600.4,724.2,602.6,722.8,603.3z M722.8,596.5c-0.5,0.4-1.1,1.7-1.1,3.1s0.5,2.2,1.1,1.9c0.5-0.4,1.1-1.7,1.1-3.1
				C723.9,597.2,723.3,596.3,722.8,596.5z"/>
			<path fill="#4C4C4C" d="M730.9,598.6l-1.6-3.7l-0.5,0.5l0.2,4.6l-1.2,0.7l-0.4-11.5l2-1.2c0.9-0.5,1.4-0.5,1.7-0.2
				c0.4,0.4,0.5,1.1,0.5,2c0,0.9,0,1.6-0.4,2.2c-0.2,0.7-0.4,1.1-0.9,1.6l1.6,4.1L730.9,598.6z M729.5,589.8l-0.7,0.5v3.1l0.7-0.5
				c0.7-0.4,1.1-1.1,1.1-2.2C730.6,589.6,730.2,589.3,729.5,589.8z"/>
			<path fill="#4C4C4C" d="M736.4,595.7l-0.2,0.2c-0.5,0.4-0.7,0.2-0.9-0.4c-0.4,0.9-0.7,1.4-1.2,1.7c-0.7,0.4-1.2-0.2-1.4-1.4
				c0-0.4,0-0.5,0-0.9c0.2-0.9,0.4-1.4,1.1-2l1.2-1.4v-0.7c0-0.9-0.2-1.2-0.5-0.9c-0.4,0.2-0.5,0.7-0.5,1.1v0.2l-1.1,1.1
				c0-0.2,0-0.4,0-0.5c0-1.4,0.7-2.6,1.7-3.3c1.1-0.5,1.6,0,1.6,1.7v3.3c0,0.7,0,0.9,0.4,0.7L736.4,595.7z M735,592.6l-1.1,1.2
				c0,0.4,0,0.5,0,0.7c0,0.5,0.2,0.7,0.5,0.5c0.2,0,0.4-0.4,0.5-0.5c0-0.2,0.2-0.2,0.4-0.5L735,592.6z"/>
			<path fill="#4C4C4C" d="M737.8,585.2c-0.4,0.2-0.7-0.2-0.7-1.1c0-0.7,0.2-1.6,0.5-1.7c0.3-0.2,0.7,0.2,0.7,1.1
				C738.5,584,738.1,585,737.8,585.2z M737.4,595l-0.2-8.1l1.1-0.7l0.2,8.1L737.4,595z"/>
			<path fill="#4C4C4C" d="M739.6,593.5l-0.4-12.7l1.1-0.7l0.4,12.7L739.6,593.5z"/>
		</g>
		<g>
			<path fill="#CCCCCC" d="M853.7,507.5l-7,3.9c-5.8-13.4-15-28.2-15-28.2s7,19,10.2,30.9l-7,3.7c-8.4-31.8-23.3-61.4-23.3-61.4
				l8.3-4.6c17.9,20.5,25.2,40,25.2,40s-2.4-19.5-11.3-47.5l8.1-4.5c0,0,11.7,19,23.9,60.4l-7.2,4.1l-9.6-32.9
				C849.4,471.5,853.3,494.9,853.7,507.5z"/>
			<path fill="#CCCCCC" d="M887,486.7c-1.4,3.1-3.1,5.4-5.4,6.7c-5.8,3.3-14.3-3.1-19-16.3c-5-13.7-4.5-28.2,1.2-31.3
				c5-2.6,12.8,5.3,17,17l1.7,4.8l-13,7.2c1.4,3.5,2,5,3.1,6.5c1.9,2.6,4.5,2,6.3,1.1c0.7-0.4,1.4-1.1,2-2c0.9-1.4,1.4-2.6,2.2-6.1
				l5,9.1C887.8,484.8,887.4,486,887,486.7z M868.3,456c-2.2,1.2-2.6,5.4-0.9,11.7l7.8-4.3C872.6,456.9,870.6,454.8,868.3,456z"/>
			<path fill="#CCCCCC" d="M873,427.3l4.8-4.6c0,0,4.1,5.4,7.6,15.4l4.3-2.4l2.9,8.3l-4.3,2.4l6.9,19.3c1.7,5,2.4,6.1,3.1,5.6
				c0.5-0.4,1.1-1.4,1.7-4.3l4.6,7.2c-0.4,1.2-0.7,2.4-1.1,3.5c-0.9,2.6-1.9,4.6-3.3,5.3c-2.6,1.4-5-0.9-7.2-7.2l-9.6-26.9l-2.9,1.6
				l-3.3-8.3l2.4-1.2C877.2,435.1,873,427.3,873,427.3z"/>
			<path fill="#CCCCCC" d="M908.9,440.9c-0.9-0.7-1.4-0.7-1.9-0.5c-0.9,0.5-1.2,2-1.2,4.6c0,2.9,0.4,5.8,1.6,8.9l7,19.9l-5.1,2.8
				l-15.4-43.4l4.5-2.4l3.7,9.4c-0.7-8.4-0.5-11.9,1.1-12.7c1.1-0.5,2.2,0,3.9,1.6L908.9,440.9z"/>
			<path fill="#CCCCCC" d="M932.5,464.9c-5.6,3.1-13.4-4.5-18.2-17.4c-4.6-13-3.9-25.2,1.7-28.3c5.6-3.1,13.4,4.5,18.2,17.2
				C939,449.4,938.1,461.7,932.5,464.9z M919.4,427.9c-2.4,1.4-2.4,8.9,0.4,16.5c2.8,7.8,7.2,12.8,9.6,11.5
				c2.4-1.4,2.4-8.9-0.4-16.7C926.4,431.6,922,426.5,919.4,427.9z"/>
			<path fill="#CCCCCC" d="M932.5,391.3c0,0,5.3-3.1,7-4.3c4.1-2.2,10.2-3.1,13.2-0.9c3.5,2.6,7.2,7.8,9.1,13.5
				c1.7,4.8,1.9,6.9,1.9,10.5c0,3.5-3.1,7.6-3.1,7.6l15.6,21.7l-5.8,3.3l-15.2-21.1l-2.6,1.4l8.7,24.6l-6.1,3.1
				C939,403.3,932.5,391.3,932.5,391.3z M946.9,395.5l-3.5,1.7l6.7,16.1l3.1-1.9c3.3-1.9,3.5-4.5,1.4-10.5
				C952.7,395.1,949.6,394.4,946.9,395.5z"/>
			<path fill="#CCCCCC" d="M995.4,429.6l-1.1,0.5c-2.4,1.4-3.7,0.9-6-2.4c-0.5,4.8-1.6,7.2-3.7,8.4c-3.3,1.9-7.4-1.6-9.8-8.5
				c-0.5-1.4-0.9-2.9-1.2-4.6c-0.7-4.5-0.4-7,1.9-10.5l5.3-6.7l-0.9-2.8c-1.6-4.6-3.1-6.3-5-5.4c-1.6,0.9-2,3.3-1.4,5.4
				c0.2,0.4,0.2,0.5,0.9,1.7l-5,5c-1.1-1.9-1.2-2.2-1.7-3.5c-2.8-7.6-1.2-13.7,4.1-16.7c4.8-2.6,9.3,0.4,12.7,9.8l5.1,17.4
				c1.4,3.9,1.7,4.5,3.3,4.1L995.4,429.6z M982.4,413c0,0-1.9,3.7-2.4,5.1c-0.9,1.7-0.5,5-0.2,6c1.1,2.8,2.2,3.3,3.5,2.6
				c0.7-0.4,1.2-1.2,1.6-2.4c0.2-0.5,0.4-1.1,0.7-2.6L982.4,413z"/>
			<path fill="#CCCCCC" d="M984.3,377.6c-1.6,0.7-4.1-1.6-5.6-5.1c-1.4-3.7-1.4-7.2,0.2-7.9c1.6-0.7,4.1,1.6,5.4,5.1
				C985.8,373.3,985.8,376.7,984.3,377.6z M984.3,383.9l5.6-2.9c0,0,4.8,11,14.6,42.9L999,427C992.4,405.1,984.3,383.9,984.3,383.9z
				"/>
			<path fill="#CCCCCC" d="M1008,422.2c-10-40.5-21.3-59.9-21.3-59.9l6-3.3c0,0,7.6,9.1,21.7,59.7L1008,422.2"/>
		</g>
		<g>
			<path fill="#4C4C4C" d="M537.7,656.8l0.7,2l0.2,14.1l-2,1.1v-13.4l0,0l-3.9,1.9l-0.9-2.8L537.7,656.8z"/>
			<path fill="#4C4C4C" d="M543.2,670.5l-0.5-2l0.5-2.2c1.1-3.7,1.4-5.8,0.9-7.6c-0.4-1.2-1.1-1.9-2-1.4c-0.7,0.4-1.2,1.2-1.4,2
				l-1.2-2c0.4-1.1,1.2-2.2,2.2-2.8c1.9-1.1,3.5,0.4,4.5,2.9c0.7,2.4,0.4,5-0.4,7.4l-0.6,1.5l0,0l3.1-1.6l0.9,2.8L543.2,670.5z"/>
			<path fill="#4C4C4C" d="M554.6,656.4c1.4,4.5,1.2,8.1-1.1,9.1c-2.2,1.1-4.3-1.7-5.4-5.8c-1.2-4.3-1.2-7.9,1.1-9.1
				C551.5,649.5,553.3,652.4,554.6,656.4z M550.2,658.8c1.1,3.3,1.9,4.6,2.6,4.3c0.7-0.4,0.7-2.2-0.4-5.4c-0.9-3.1-1.9-4.6-2.6-4.3
				C549.1,653.6,549.1,655.4,550.2,658.8z"/>
		</g>
		<polygon fill="#FFFFFF" points="531.2,676.5 519.1,683.4 516.4,673 528.8,666.5 		"/>
		<polygon fill="#7A7A7A" points="531.2,676.5 519.1,683.2 518.8,681.9 531,675.2 		"/>
		<polygon fill="#7A7A7A" points="530.7,674.4 518.4,680.9 518.2,679.7 530.3,673.2 		"/>
		<polygon fill="#7A7A7A" points="530.2,672.1 517.9,678.6 517.5,677.4 529.8,670.9 		"/>
		<polygon fill="#7A7A7A" points="529.7,669.8 517.3,676.5 517,675.2 529.4,668.6 		"/>
		<polygon fill="#7A7A7A" points="529,667.7 516.8,674.2 516.4,673 528.8,666.5 		"/>
		<polygon fill="#4C4C4C" points="516.4,673 520.4,670.7 522,676 517.7,678.3 		"/>
	</g>
	<g id="_x30_1_Highlights_2_" display="inline">
		<path opacity="0.8" fill="#FFFFFF" enable-background="new    " d="M903.2,625.5l-78.4,49c-2.6,1.7-4.6,0.9-4.6-1.9l-6.3-100.9
			c0-2.8,2-6.5,4.6-8.3l78.8-45.2c2.6-1.7,4.6-0.9,4.6,1.9l6.1,97C907.9,620,905.8,623.7,903.2,625.5z"/>
		<path opacity="0.8" fill="#FFFFFF" enable-background="new    " d="M795.4,691.5l-78.1,47.9c-2.6,1.7-4.8,0.9-4.8-2l-6.9-103.9
			c0-2.9,2-6.7,4.8-8.4l78.2-45.6c2.6-1.7,4.8-0.9,4.8,2l6.5,100.9C800,685.1,797.8,689.7,795.4,691.5z"/>
		<path opacity="0.8" fill="#FFFFFF" enable-background="new    " d="M1092.7,517.4l-24.2,14.8c-2.4,1.6-4.5,0.5-4.5-2l-6.1-99
			c0-2.6,1.9-6,4.5-7.6l23.9-13.9c2.4-1.6,4.5-0.5,4.5,2l6.5,98.3C1097.1,512.4,1095.1,515.8,1092.7,517.4z"/>
	</g>
</g>
<g id="Layer_01" display="none">
	<g id="_x31_0_Bottom_Layer__x28_Body_x29__1_" display="inline">
		<path fill="#FFFFFF" stroke="#000000" stroke-width="0.2342" stroke-miterlimit="10" d="M398.4,716.3l-207.6-31.1
			c-26.9,69.1-12.8,207-12.8,207l199.7,35.4C377.7,927.7,373.3,796.4,398.4,716.3z"/>
		<path fill="#FFFFFF" stroke="#000000" stroke-width="0.2342" stroke-miterlimit="10" d="M512.1,884.9l-10.5-178.2
			c-56.2,14.1-91.6,49.4-91.6,216.7L512.1,884.9z"/>
		<path fill="#FFFFFF" stroke="#000000" stroke-width="0.2342" stroke-miterlimit="10" d="M269,936.2c-73.2-16.5-91-43.9-91-43.9
			l199.7,35.4C377.7,927.7,330.8,950.1,269,936.2z"/>
	</g>
	<g id="Cannister_Headlight_1_" display="inline">
		<g>
			<g>
				<path fill="#FFFFFF" stroke="#000000" stroke-width="0.2342" stroke-miterlimit="10" d="M273.7,907.2c-0.4-1.7-2-3.1-3.5-3.1
					c-0.2,0-0.4,0-0.8,0.2c-0.2,0.2-30.4,16.8-31.3,17.5c-1,0.5-1.7,1.7-1.3,3.1c0.4,1.7,2,3.1,3.5,3.1c0.2,0,1,0,1.7-0.5
					c0.5-0.2,30.6-17.2,30.8-17.5C273.5,909.6,274.1,908.5,273.7,907.2z"/>
			</g>
			<g>
				<path fill="#FFFFFF" stroke="#000000" stroke-width="0.2342" stroke-miterlimit="10" d="M293.3,886.1c-0.4-1.7-2-3.1-3.5-3.1
					c-0.2,0-0.4,0-0.8,0.2c-0.2,0.2-30.4,16.8-31.3,17.5c-1.1,0.5-1.7,1.7-1.3,3.1c0.4,1.7,1.8,2.8,3.5,3.1c0.2,0,1,0,1.7-0.5
					c0.5-0.2,30.6-17.2,30.8-17.5C293.2,888.5,293.7,887.4,293.3,886.1z"/>
			</g>
			<g>
				<path fill="#FFFFFF" stroke="#000000" stroke-width="0.2342" stroke-miterlimit="10" d="M242.8,925.5c-0.8-2.9-3.3-5.1-5.8-5.1
					c-0.4,0-0.8,0-1.3,0.2c-0.4,0.2-4.7,2.6-6.4,3.7c-1.7,1.1-2.6,2.8-2,5.1c0.8,2.9,3.3,5.1,5.8,5.1c0.4,0,1.7-0.2,2.8-0.8
					c0.8-0.4,5-3.1,5.3-3.3C242.4,929.6,243.3,927.7,242.8,925.5z"/>
				<polygon fill="#FFFFFF" stroke="#000000" stroke-width="0.2342" stroke-miterlimit="10" points="230.1,931.6 229.5,931.4 
					229.5,926.4 230.1,926.6 				"/>
				<polygon fill="#FFFFFF" stroke="#000000" stroke-width="0.2342" stroke-miterlimit="10" points="232.4,931.8 231.7,931.8 
					231.7,926.8 232.4,926.9 				"/>
				<path fill="#FFFFFF" stroke="#000000" stroke-width="0.2342" stroke-miterlimit="10" d="M236.1,929.4c0.8,2.8-0.8,5.1-3.3,5.1
					c-2.6,0-5.1-2.3-5.8-5.1c-0.8-2.8,0.8-5.1,3.3-5.1C232.8,924.3,235.7,926.4,236.1,929.4z"/>
				<polygon fill="#FFFFFF" stroke="#000000" stroke-width="0.2342" stroke-miterlimit="10" points="230.1,931.6 230.1,926.8 
					229.8,926.8 229.8,931.4 				"/>
				<polygon fill="#FFFFFF" stroke="#000000" stroke-width="0.2342" stroke-miterlimit="10" points="232.4,931.8 232.4,927.1 
					232,927.1 232,931.8 				"/>
				<g>
					<g>
						<polygon fill="#FFFFFF" points="228.5,931.9 228.5,927.7 230.5,926.4 230.5,926.4 230.5,930.6 						"/>
						<path d="M230.1,927.1v3.3l-1.1,0.8v-3.3L230.1,927.1 M230.3,926.1l-2.3,1.3v5l0.5,0.2l2.3-1.3v-5L230.3,926.1L230.3,926.1z"/>
					</g>
					<g>
						<polygon fill="#FFFFFF" points="228.7,932.3 228,932.3 228,927.3 228.7,927.5 						"/>
						<polygon points="228,927.3 228,932.3 228.7,932.3 228.7,927.5 						"/>
					</g>
					<g>
						<polygon fill="#FFFFFF" points="228.7,927.5 231,926.1 230.3,926.1 228,927.3 						"/>
						<polygon points="230.3,926.1 228,927.3 228.7,927.5 231,926.1 						"/>
					</g>
					<g>
						<polygon fill="#FFFFFF" points="229.1,927.7 230.5,926.9 230.5,930.6 229.1,931.6 						"/>
						<path d="M230.1,927.7v2.8l-0.5,0.4v-2.8L230.1,927.7 M231,926.1l-2.3,1.3v5l2.3-1.3V926.1L231,926.1z"/>
					</g>
				</g>
				<g>
					<g>
						<polygon fill="#FFFFFF" points="230.3,932.3 230.3,928.1 232.4,926.9 232.4,926.9 232.4,931.1 230.5,932.3 						"/>
						<path d="M232,927.7v3.3l-1.1,0.8v-3.5L232,927.7 M232.4,926.4l-2.3,1.3v5l0.5,0.2l2.3-1.3v-5L232.4,926.4L232.4,926.4z"/>
					</g>
					<g>
						<polygon fill="#FFFFFF" points="230.5,932.8 230,932.7 230,927.9 230.5,927.9 						"/>
						<polygon points="230,927.9 230,932.7 230.5,932.8 230.5,927.9 						"/>
					</g>
					<g>
						<polygon fill="#FFFFFF" points="230.5,927.9 232.8,926.6 232.4,926.4 230,927.9 						"/>
						<polygon points="232.4,926.4 230,927.9 230.5,927.9 232.8,926.6 						"/>
					</g>
					<g>
						<polygon fill="#FFFFFF" points="231,928.3 232.4,927.3 232.4,931.1 231,931.9 						"/>
						<path d="M232,928.1v2.8l-0.5,0.4v-2.8L232,928.1 M232.8,926.6l-2.3,1.3v5l2.3-1.3V926.6L232.8,926.6z"/>
					</g>
				</g>
			</g>
			<path fill="#FFFFFF" stroke="#000000" stroke-width="0.2342" stroke-miterlimit="10" d="M236.1,929.4c-0.8-2.9-3.3-5.1-5.8-5.1
				c-0.4,0-0.8,0-1.3,0.2c-0.4,0.2-4.7,2.6-6.4,3.7c-1.7,1.1-2.6,2.8-2,5.1c0.8,2.9,3.3,5.1,5.8,5.1c0.4,0,1.7-0.2,2.8-0.8
				c0.8-0.4,5-3.1,5.3-3.3C236.1,933.4,236.7,931.6,236.1,929.4z"/>
			<path fill="#FFFFFF" stroke="#000000" stroke-width="0.2342" stroke-miterlimit="10" d="M233.6,935.8c0-7-6.8-13-13.8-11.4
				c-2.3,0.5-11,3.1-11,3.1l10.8,26.2c0,0,7.2-6.3,10.8-9.5C232.7,942.3,233.6,939.3,233.6,935.8z"/>
			<path fill="#B2B2B2" d="M223.7,942.1c1.5,5.5,0,10.3-3.3,12.8l-3.7,2.1c-0.8,0.2-2.1,0-2.9,0c-7.5,0-15.3-6.6-17.6-14.9
				c-1.3-4.7-0.2-9.5,2.1-12.3l3.8-2.3c1.1-0.2,2.3-0.4,3.8-0.4C213.7,927.3,221.6,933.9,223.7,942.1z"/>
			<path fill="#CCCCCC" d="M220.7,943.9c2.1,8.3-2.1,14.9-9.8,14.9c-7.5,0-15.3-6.6-17.6-14.9c-2.1-8.3,2.1-14.9,9.8-14.9
				C210.7,929,218.6,935.6,220.7,943.9z"/>
			<path fill="#E5E5E5" d="M217.1,943.6c1.7,6.3-1.7,11.4-7.2,11.4s-11.4-5.1-12.8-11.4c-1.5-6.3,1.7-11.4,7.2-11.4
				C209.8,932.3,215.6,937.4,217.1,943.6z"/>
			<path fill="#FFFFFF" d="M263.4,901.7l4.2,1.1c5.8,1.5,5.8,4.2,5.8,4.2l-6.8,2.6c0,0-0.5-2.8-6.6-2.8L263.4,901.7z"/>
			
				<path fill="none" stroke="#000000" stroke-width="0.2342" stroke-linecap="round" stroke-linejoin="round" stroke-miterlimit="10" d="
				M266.8,909.6c0,0-0.5-2.8-6.6-2.8"/>
			<path fill="none" stroke="#000000" stroke-width="0.2342" stroke-linecap="round" stroke-miterlimit="10" d="M267.8,902.8
				c5.6,1.3,5.8,4.5,5.8,4.5"/>
			
				<line fill="none" stroke="#000000" stroke-width="0.2342" stroke-linecap="round" stroke-miterlimit="10" x1="263.4" y1="901.7" x2="267.8" y2="902.8"/>
		</g>
		<g>
			<g>
				<path fill="#FFFFFF" stroke="#000000" stroke-width="0.2504" stroke-miterlimit="10" d="M430.5,934.8c-0.5-1.7-2.1-3.1-4-3.1
					c-0.4,0-0.5,0-1,0.2c-0.4,0.2-34.8,16.8-35.9,17.5c-1.1,0.5-1.8,1.7-1.5,3.1c0.5,1.7,2.1,3.1,4,3.1c0.4,0,1.1,0,1.8-0.5
					c0.5-0.2,35-17.2,35.2-17.5C430.4,937.2,430.9,936.2,430.5,934.8z"/>
			</g>
			<g>
				<path fill="#FFFFFF" stroke="#000000" stroke-width="0.2504" stroke-miterlimit="10" d="M453,913.8c-0.5-1.7-2.1-3.1-4-3.1
					c-0.4,0-0.5,0-1,0.2c-0.4,0.2-34.8,16.8-35.9,17.5c-1.1,0.5-1.8,1.7-1.5,3.1c0.5,1.7,2,2.8,4,3.1c0.4,0,1.1,0,1.8-0.5
					c0.5-0.2,35-17.2,35.2-17.5C452.6,916.2,453.4,915,453,913.8z"/>
			</g>
			<g>
				<path fill="#FFFFFF" stroke="#000000" stroke-width="0.2504" stroke-miterlimit="10" d="M394.9,953.3c-0.8-2.9-3.8-5.1-6.6-5.1
					c-0.5,0-1,0-1.5,0.2c-0.5,0.2-5.3,2.6-7.3,3.7c-2,1.1-3.1,2.8-2.3,5.1c0.8,2.9,3.8,5.1,6.6,5.1c0.5,0,1.8-0.2,3.1-0.8
					c1-0.4,5.6-3.1,6-3.3C394.7,957.2,395.7,955.4,394.9,953.3z"/>
				<polygon fill="#FFFFFF" stroke="#000000" stroke-width="0.2504" stroke-miterlimit="10" points="380.7,959.2 380,959.1 
					380,954.2 380.7,954.2 				"/>
				<polygon fill="#FFFFFF" stroke="#000000" stroke-width="0.2504" stroke-miterlimit="10" points="383.1,959.4 382.3,959.4 
					382.3,954.4 383.1,954.6 				"/>
				<path fill="#FFFFFF" stroke="#000000" stroke-width="0.2504" stroke-miterlimit="10" d="M387.7,957c0.8,2.8-1,5.1-3.7,5.1
					c-2.8,0-5.8-2.3-6.6-5.1c-0.8-2.8,1-5.1,3.7-5.1C383.8,951.9,386.8,954.2,387.7,957z"/>
				<polygon fill="#FFFFFF" stroke="#000000" stroke-width="0.2504" stroke-miterlimit="10" points="380.7,959.2 380.7,954.4 
					380.3,954.4 380.3,959.1 				"/>
				<polygon fill="#FFFFFF" stroke="#000000" stroke-width="0.2504" stroke-miterlimit="10" points="383.1,959.4 383.1,954.8 
					382.8,954.8 382.8,959.4 				"/>
				<g>
					<g>
						<polygon fill="#FFFFFF" points="378.6,959.4 378.6,955.4 381.1,954.2 381.1,954.2 381.1,958.3 378.8,959.6 						"/>
						<path d="M380.7,955v3.1l-1.5,0.8v-3.2L380.7,955 M381,953.7l-2.8,1.3v5l0.8,0.2l2.8-1.3v-5L381,953.7L381,953.7z"/>
					</g>
					<g>
						<polygon fill="#FFFFFF" points="378.8,960 378.1,960 378.1,955 378.8,955.2 						"/>
						<polygon points="378.1,955 378.1,960 378.8,960 378.8,955.2 						"/>
					</g>
					<g>
						<polygon fill="#FFFFFF" points="378.8,955.2 381.6,953.7 381,953.7 378.1,955 						"/>
						<polygon points="381,953.7 378.1,955 378.8,955.2 381.6,953.7 						"/>
					</g>
					<g>
						<polygon fill="#FFFFFF" points="379.4,955.4 381.1,954.6 381.1,958.3 379.4,959.2 						"/>
						<path d="M380.7,955.4v2.8l-0.8,0.4v-2.8L380.7,955.4 M381.6,953.7l-2.8,1.3v5l2.8-1.3V953.7L381.6,953.7z"/>
					</g>
				</g>
				<g>
					<g>
						<polygon fill="#FFFFFF" points="381,960 381,955.8 383.1,954.6 383.3,954.6 383.3,958.9 381.1,960 						"/>
						<path d="M382.8,955.4v3.1l-1.5,0.8v-3.1L382.8,955.4 M383.1,954l-2.8,1.3v5l0.8,0.2l2.8-1.3v-5L383.1,954L383.1,954z"/>
					</g>
					<g>
						<polygon fill="#FFFFFF" points="381.1,960.5 380.3,960.2 380.3,955.6 381.1,955.6 						"/>
						<polygon points="380.3,955.6 380.3,960.2 381.1,960.5 381.1,955.6 						"/>
					</g>
					<g>
						<polygon fill="#FFFFFF" points="381.1,955.6 383.8,954.2 383.1,954 380.3,955.6 						"/>
						<polygon points="383.1,954 380.3,955.6 381.1,955.6 383.8,954.2 						"/>
					</g>
					<g>
						<polygon fill="#FFFFFF" points="381.6,955.9 383.3,955 383.3,958.9 381.6,959.8 						"/>
						<path d="M382.8,955.9v2.8l-0.8,0.4v-2.8L382.8,955.9 M383.8,954.2l-2.8,1.3v5l2.8-1.3V954.2L383.8,954.2z"/>
					</g>
				</g>
			</g>
			<path fill="#FFFFFF" stroke="#000000" stroke-width="0.2504" stroke-miterlimit="10" d="M387.7,957c-0.8-2.9-3.8-5.1-6.6-5.1
				c-0.5,0-1,0-1.5,0.2c-0.5,0.2-5.3,2.6-7.3,3.7c-2,1.1-3.1,2.8-2.3,5.1c0.8,2.9,3.8,5.1,6.6,5.1c0.5,0,1.8-0.2,3.1-0.8
				c1-0.4,5.6-3.1,6-3.3C387.3,961,388.2,959.2,387.7,957z"/>
			<path fill="#FFFFFF" stroke="#000000" stroke-width="0.2504" stroke-miterlimit="10" d="M384.7,963.5c0-7-7.7-13-15.8-11.4
				c-2.8,0.5-12.6,3.1-12.6,3.1l12.4,26.2c0,0,8.3-6.3,12.4-9.5C383.6,970.1,384.7,966.9,384.7,963.5z"/>
			<path fill="#B2B2B2" d="M373.2,969.9c1.7,5.5,0,10.3-3.8,12.8l-4,2.1c-0.8,0.2-2.6,0-3.3,0c-8.6,0-17.8-6.6-20.1-14.9
				c-1.5-4.7-0.2-9.5,2.3-12.3l4.5-2.3c1.3-0.2,2.8-0.4,4.5-0.4C361.8,955,370.8,961.6,373.2,969.9z"/>
			<path fill="#CCCCCC" d="M369.9,971.4c2.3,8.3-2.6,14.9-11.2,14.9s-17.8-6.6-20.1-14.9c-2.3-8.3,2.6-14.9,11.2-14.9
				C358.5,956.6,367.5,963.3,369.9,971.4z"/>
			<path fill="#E5E5E5" d="M365.6,971.2c1.8,6.3-1.8,11.4-8.3,11.4c-6.4,0-13-5.1-14.7-11.4c-1.8-6.3,1.8-11.4,8.3-11.4
				C357.5,960,363.9,965.1,365.6,971.2z"/>
			<path fill="#FFFFFF" d="M418.7,929.6l4.7,1.1c6.8,1.5,6.6,4.2,6.6,4.2l-7.9,2.6c0,0-0.8-2.8-7.5-2.8L418.7,929.6z"/>
			
				<path fill="none" stroke="#000000" stroke-width="0.2504" stroke-linecap="round" stroke-linejoin="round" stroke-miterlimit="10" d="
				M422.4,937.2c0,0-0.8-2.8-7.5-2.8"/>
			<path fill="none" stroke="#000000" stroke-width="0.2504" stroke-linecap="round" stroke-miterlimit="10" d="M423.7,930.4
				c6.4,1.3,6.8,4.5,6.8,4.5"/>
			
				<line fill="none" stroke="#000000" stroke-width="0.2504" stroke-linecap="round" stroke-miterlimit="10" x1="418.7" y1="929.6" x2="423.7" y2="930.4"/>
		</g>
		<path fill="#FFFFFF" stroke="#000000" stroke-width="0.2342" stroke-miterlimit="10" d="M229.8,933.2c0.8,2.8-0.8,5.1-3.3,5.1
			c-2.5,0-5.1-2.3-5.8-5.1c-0.8-2.8,0.8-5.1,3.3-5.1C226.4,928.1,229.1,930.2,229.8,933.2z"/>
		<path fill="#4C4C4C" d="M207.2,974.5c-1.3-5.3-6-10.1-10.7-10.7c-4.7-0.6-7.2,3.5-5.8,8.8c0.5,2,1.5,4,2.8,5.6
			c2,1.8,4.7,2.9,7.2,2.8c3.1,0,5.6-1.8,7-4.5C207.6,976.2,207.4,975.5,207.2,974.5z"/>
		<path fill="#4C4C4C" d="M228.9,978.7c-1.3-5.3-6-10.1-10.7-10.7c-4.7-0.5-7.2,3.5-5.8,8.8c0.5,2,1.5,4,2.8,5.6
			c2,1.8,4.7,2.9,7.2,2.8c3.1,0,5.6-1.8,7-4.5C229.1,980.1,229.1,979.4,228.9,978.7z"/>
		<path fill="#E5E5E5" d="M194.6,971.4c-1.1-3.8,1.1-7,4.7-7c3.7,0,7.3,3.1,8.4,7c1.1,3.8-1.1,7-4.7,7
			C199.5,978.5,195.7,975.5,194.6,971.4z"/>
		<path fill="#F7AFAD" d="M215.3,976.7c-1.1-3.8,1.1-7,4.7-7s7.3,3.1,8.4,7c1.1,3.9-1.1,7-4.7,7C220,983.6,216.4,980.5,215.3,976.7z
			"/>
		<path fill="#4C4C4C" d="M373.7,1004.6c-1.3-5.3-6-10.1-10.7-10.7c-4.7-0.5-7.2,3.5-5.8,8.8c0.5,2,1.5,4,2.8,5.6
			c2,1.8,4.7,2.9,7.2,2.8c3.1,0,5.6-1.8,7-4.5C374,1006,374,1005.3,373.7,1004.6z"/>
		<path fill="#4C4C4C" d="M352.5,1000.8c-1.3-5.3-6-10.1-10.7-10.7c-4.7-0.5-7.2,3.5-5.8,8.8c0.5,2,1.5,4,2.8,5.6
			c2,1.8,4.7,2.9,7.2,2.8c3.1,0,5.6-1.8,7-4.5C352.9,1002.2,352.7,1001.5,352.5,1000.8z"/>
		<path fill="#E5E5E5" d="M361.1,1001.5c-1.1-3.8,1.1-7,4.7-7c3.7,0,7.3,3.1,8.4,7c1.1,3.8-1.1,7-4.7,7S362.2,1005.3,361.1,1001.5z"
			/>
		<path fill="#F7AFAD" d="M339.1,998.8c-1.1-3.8,1.1-7,4.7-7c3.5,0,7.3,3.1,8.4,7c1.1,3.8-1.1,7-4.7,7
			C344.1,1005.8,340.1,1002.7,339.1,998.8z"/>
	</g>
	<g id="_x30_1_Front_Panel_1_" display="inline">
		<path fill="#4C4C4C" d="M175.9,781.7c-2.1-0.4-9.5-1.5-9.5-1.5s-0.4-30-0.5-33.7c-0.1-3.6-3.1-5.5-5.3-6.8
			c-2.1-1.3-6.4-3.1-7.7-3.7c-1.4-0.6-8.9-0.2-8.8,12.6c0.1,12.8,0.5,18.8,1.3,23.6c0.8,4.7,10.3,14,16.3,14.9
			c6.4,1.1,13.5,2,13.8,2.1c2.1,0.4,3.8-1.7,3.8-3.8C179.2,783.7,177.8,782,175.9,781.7z"/>
		<path fill="#CCCCCC" d="M511.6,703.7c0,0-18.4-72.8-36.6-81.9l-10.5-2.3c-23.1-4.7-129.5-22.3-214.8-30.4
			c-33.6,19.6-75.9,76.5-80.7,174.9c-5.6,109.6,13.3,215.7,13.3,215.7s3.7,8.3,14.5,14.5c16.6,9.5,46.3,19,77.9,25.8
			c51.8,11,98.9,16.5,119.7,14.1c9.3-1.1,22.5-5,31.8-8.6c9.1-3.7,103.8-42.6,103.8-42.6L511.6,703.7z M201.4,983.4
			c-4.7-0.5-9.3-5.3-10.7-10.7c-1.3-5.3,1.3-9.1,5.8-8.8c4.7,0.5,9.3,5.3,10.7,10.7C208.6,979.9,205.9,983.8,201.4,983.4z
			 M190.6,943.9c-2.1-9.7,2.3-17.5,10.5-17.5s16.3,7.9,18.5,17.5c2.1,9.7-2.3,17.5-10.5,17.5C201.2,961.2,192.7,953.5,190.6,943.9z
			 M222.6,987.3c-4.7-0.8-9.3-5.6-10.7-11c-1.3-5.3,1.3-9.1,5.8-8.4c4.7,0.8,9.3,5.6,10.7,11C229.8,984.5,227,988.2,222.6,987.3z
			 M346,1010.8c-4.7-0.5-9.7-5.3-11-11c-1.3-5.5,1.5-9.7,6.3-9.1c4.7,0.5,9.7,5.3,11,11C353.7,1007.2,350.8,1011.1,346,1010.8z
			 M346,951.7c8.3,0,16.8,8.2,19.2,18.2c2.3,10.1-2.6,18.2-10.8,18.2c-8.3,0-16.8-8.2-19.2-18.2C332.9,959.8,337.6,951.7,346,951.7z
			 M368.1,1015.1c-4.7-1-9.7-6.3-11-11.7c-1.3-5.6,1.5-9.5,6.3-8.8c4.7,1,9.7,6.3,11,11.7C375.8,1012.1,373,1016,368.1,1015.1z
			 M377.7,927.7c0,0-46.9,22.5-108.7,8.6c-73.2-16.5-91.6-49.8-91.6-49.8S166.1,748.3,193,679.3l205.5,37.1
			C373.3,796.4,377.7,927.7,377.7,927.7z"/>
		<path fill="#262626" d="M475.7,1014.6v-6.4h-2.1l-0.2,0.2v-2.3c0,0-28.9,12.1-53.6,21.7c-9.7,3.8-17.8,5.3-25.3,6.3
			c-26.3,3.5-76-4.7-119.7-14.1c-24.5-5.3-62.9-16.8-77.9-25.8c-12.1-7.3-15.3-17.6-15.3-17.6s-9.3,2.1-8.4,7.7c0,0.2,0,0.4,0,0.4
			h-1.1v3.8l2,1.5c0.2,1.3,0.5,2.6,0.8,3.8h-1v3.8l2,1.5c0.2,1.1,0.4,2,0.5,3.1H176v3.8l1.5,1.1c0.4,1.7,0.5,2.8,0.5,2.8
			s8.3,12.6,14.1,15.9c6,3.5,47.1,18,85.7,30.3c37.4,11.9,65.1,16.3,78.2,18.6c26.9,5,61.4-5.6,72.4-10.7c11-5,45.1-20,45.1-20v-5
			l2.1-1v-6.4h-2.1l-0.2,0.2v-4.7l2.1-1v-6.4h-2.1l-0.2,0.2v-4.7L475.7,1014.6z"/>
	</g>
	<path display="inline" fill="#4C4C4C" d="M241.3,660.7c0.5,0.8,0.8,1.8,0.4,2.8l-2.6,7.3c-0.5,1.8-2.8,2.9-4.7,2.6l-16.6-3.1
		c-0.5-0.2-1-0.4-1.3-0.5c0.4,0.5,1.1,1.1,2,1.3l16.6,3.1c2,0.4,4-1,4.7-2.6l2.6-7.3C242.9,662.7,242.4,661.4,241.3,660.7z"/>
	<path display="inline" fill="#4C4C4C" d="M321.2,639.7c3.8,4.2,5,12.4,1.3,22.6c-4.7,13.8-14,23.3-24.4,24.2
		c-3.7,0.4-6.8-1-9.1-2.9c2.3,2.6,5.6,4,9.8,3.7c10.7-0.8,19.6-10.5,24.4-24.2C327.1,652.4,325.6,643.8,321.2,639.7z"/>
	<path display="inline" fill="#4C4C4C" d="M387.3,686.7c0.5,0.8,0.8,1.8,0.4,2.9l-2.6,7.7c-0.5,1.8-2.8,3.1-4.7,2.8l-16.1-2.9
		c-0.4,0-1-0.2-1.3-0.5c0.4,0.5,1.1,1.1,1.8,1.1l16.1,2.9c1.8,0.4,3.8-1,4.7-2.8l2.6-7.7C388.9,688.7,388.4,687.3,387.3,686.7z"/>
	<path display="inline" fill="#4C4C4C" d="M336.4,617.4c0,0.2,0,0.2,0,0.4c0,2.1-3.5,4.7-7.7,5.5c-3.3,0.8-6,0.2-7.2-1.1
		c0.4,1.8,3.7,2.8,7.5,2c4.2-1,7.7-3.3,7.7-5.5C337,618.4,336.7,617.8,336.4,617.4z"/>
	<path display="inline" fill="#262626" d="M512.1,884.9l-10.5-178.2c-56.2,14.1-91.6,49.4-91.6,216.7L512.1,884.9z"/>
	<polygon display="inline" fill="#CCCCCC" points="499.5,775.9 504.7,886.5 509.6,884.5 499.9,708.8 497.6,709.8 501.1,771.7 	"/>
	<path display="inline" fill="#4C4C4C" d="M398.4,716.3l-205.5-37.1c-26.9,69.1-15.6,207.2-15.6,207.2s18.4,33.3,91.6,49.8
		c61.9,14,108.7-8.6,108.7-8.6S373.3,796.4,398.4,716.3z"/>
	<path display="inline" fill="#4C4C4C" d="M436.9,786.3l8.3,113.7l57.6-21.7l-2.3-43.9l-24.2,7.3l26.9-9.1l3.5,45.6l4.7,2l0.2,4.2
		L410,923.6c0,0-20-202,91.6-216.9l0.2,2.1c0,0-60.1,11.2-74.4,74.9l73.8-26.6v2.1L427,785.5c0,0-5.5,20-5.5,21.1
		c0,1.1,0.8,15.6,1.1,17.2c0.4,1.7-0.8,1.7-1.7,1.7c-1,0-2.8,0.2-2.8,0.2c-6.3,37.1-5.8,91.8-5.8,91.8l95.2-36.6l-3.7-1.7l-62.4,24
		L435,786.5l-8.2,3.1l0.2-1l72.4-26.8v1L436.9,786.3z"/>
	<polygon display="inline" fill="#CCCCCC" points="481.6,893.6 471.5,897.5 471.5,896.1 481.6,892.2 	"/>
	<polygon display="inline" fill="#E5E5E5" points="445.3,901.7 449,902.8 506.5,880.4 503.9,879.3 	"/>
	<polygon display="inline" fill="#CCCCCC" points="497.2,776.6 495.4,777.4 495.4,768.7 497.2,768.2 	"/>
	<path display="inline" fill="#E5E5E5" d="M322.4,662.6c-4.7,13.8-14,23.3-24.4,24.2c-10.7,0.8-16.5-9.7-12.1-23.6
		c5-15.8,16.6-25.2,27.1-26.2C322.7,636,327.9,647.1,322.4,662.6z"/>
	<path display="inline" fill="#E5E5E5" d="M380.7,699.9l-16.1-2.9c-1.8-0.4-2.9-2.1-2.1-4l2.6-7.7c0.5-1.8,2.8-3.1,4.7-2.8l16.1,2.9
		c1.8,0.4,2.9,2.1,2.1,4l-2.6,7.7C384.6,699,382.5,700.2,380.7,699.9z"/>
	<path display="inline" fill="#CCCCCC" d="M310.5,642.1c-7.7,0.5-17,9.8-20.5,20.9c-3.7,11-0.2,19.4,7.5,18.6
		c7.7-0.5,17-9.8,20.5-20.9C321.7,649.8,318.4,641.4,310.5,642.1z M315.4,661c-2.9,8.9-10.5,16.5-16.8,17c-6.4,0.5-9.1-6.4-6.3-15.2
		c2.9-8.9,10.5-16.5,16.8-17C315.7,645.3,318.4,652.1,315.4,661z"/>
	<path display="inline" fill="#B2B2B2" d="M309.4,645.9c-4.7,0.4-9.7,4.5-13.3,9.8l15.9,12.8c1.5-2.1,2.8-4.7,3.7-7.5
		C318.4,652.1,315.7,645.3,309.4,645.9z"/>
	<path display="inline" fill="#B2B2B2" d="M378.8,694.7l-9.3-1.7c-1-0.2-1.5-1.1-1.1-2.1l0.5-1.8c0.4-1,1.5-1.7,2.3-1.5l9.3,1.7
		c1,0.2,1.5,1.1,1.1,2.1l-0.5,1.8C381,694.1,379.8,695,378.8,694.7z"/>
	<path display="inline" fill="#E5E5E5" d="M269,936.2c-73.2-16.5-91.6-49.8-91.6-49.8l200.2,41.2C377.7,927.7,330.8,950.1,269,936.2
		z"/>
	<path display="inline" fill="#4C4C4C" d="M461.3,738.1c0,0-1.3,0.2-1.8,0.4c-0.6,0.2-1.5,1-1.8,4c-0.4,3-1,15-1,16.6
		c0,1.7,0,3.3,1.8,3.3c1.8,0,1.8,0,1.8,0s-3.1,7.9-3.8,9.8c-0.8,2-2.6,11.5-2.6,11.5s-2.9,0.2-4.5,0.4c-1.5,0.2-3.5,1.7-3.5,7.5
		s1,32.9,1.5,37c0.5,4.1,1.3,5.3,4.7,5.3c3.5,0,16.5,0.2,18.5,0c2-0.2,6-1.7,5.8-6.6c-0.2-5-1.5-35-1.8-38.1
		c-0.4-3.1-2.1-5.6-5.1-5.6c-3,0-7-0.2-7-0.2l0.4-7.9c0,0,2.8-5.3,3.3-6.4c0.5-1.1,0.5-2.3,0.5-3.5s0.2-2.8,0.2-2.8s1.1-0.5,1.7-1
		c0.5-0.4,1.8-0.8,1.7-2.8c-0.2-2,0-9.8,0-9.8l-1.5-0.8c0,0,0.2-1.7-0.2-3.1c-0.4-1.5-2-1.1-2-1.1s-1.7-0.4-1.8,1.5h-1.7
		c0,0-0.2-5-0.2-5.8C462.7,739.3,462.3,737.5,461.3,738.1z"/>
	<path display="inline" fill="#7A7A7A" d="M473.3,829.6l-7.7-7.2c0,0-0.5-16.5-0.5-17.2c0-0.8-0.5-1-1.8-1s-7.9,0.5-7.9,0.5
		s-6.3-8.2-6.6-9.3c-0.4-1.3-0.4-4-0.4-5.3s1.1-4.7,1.1-4.7s-3.5-0.2-3.5,6c0,6.3,1.1,33.6,1.5,37c0.4,3.5,1.1,5.1,4.7,5.3
		c3.7,0.2,14.5,0.2,18.5,0C474.8,833.8,473.3,829.6,473.3,829.6z"/>
	<path display="inline" fill="#E5E5E5" d="M234.7,672.9l-16.6-3.1c-2-0.4-2.9-2.1-2.3-4l2.6-7.3c0.5-1.8,2.8-2.9,4.7-2.6l16.6,3.1
		c2,0.4,2.9,2.1,2.3,4l-2.6,7.3C238.7,671.9,236.5,673.1,234.7,672.9z"/>
	<path display="inline" fill="#E5E5E5" d="M336.6,618c0,2.1-3.5,4.7-7.7,5.5c-4.2,1-7.7-0.2-7.7-2.3s3.5-4.7,7.7-5.5
		C333.1,614.8,336.6,615.8,336.6,618z"/>
	<path display="inline" fill="#C1272D" d="M332.5,615.7c0-1-1.5-1.7-3.5-1.7s-3.5,0.8-3.5,1.7l-1.8,3.8c0.2,1,1.7,1.5,3.5,1.5
		c1.8,0,2.8-0.2,3.5-1.7L332.5,615.7z"/>
	<path display="inline" fill="#CCCCCC" d="M232.6,668.4l-9.5-1.8c-1-0.2-1.5-1.1-1.3-2l0.5-1.8c0.4-1,1.5-1.7,2.3-1.5l9.5,1.8
		c1,0.2,1.5,1.1,1.3,2l-0.5,1.7C234.5,668,233.5,668.5,232.6,668.4z"/>
	<ellipse display="inline" fill="#C1272D" cx="378.1" cy="692" rx="3.1" ry="2.3"/>
	<ellipse display="inline" fill="#CCCCCC" cx="371.8" cy="690.8" rx="3.1" ry="2.3"/>
	<ellipse display="inline" fill="#CCCCCC" cx="231.9" cy="665.2" rx="3.1" ry="2.3"/>
	<ellipse display="inline" fill="#C1272D" cx="225.6" cy="664.2" rx="3.1" ry="2.3"/>
	<path display="inline" fill="#262626" d="M194.3,679.2c-7,27.8-11.9,66.9-11.9,66.9s69.5,13.5,74,14.1c4.5,0.8,17.5-4.7,18.5-5.5
		c2-1.1,5.8-2,9.1-1.3c3.1,0.8,5.3,3.8,6.3,5.5c0.5,1,4.7,8.3,9.8,9.7c5.3,1.5,84.6,16.3,84.6,16.3c2.8-23.3,13.8-68.4,13.8-68.4
		L194.3,679.2z"/>
	<path display="inline" fill="#FFFFFF" d="M512.1,884.9c0,0-21.7,29.1-64.7,44.8c-33.8,12.3-37.4-6.3-37.4-6.3L512.1,884.9z"/>
	<path display="inline" fill="#4C4C4C" d="M180.5,883l197.2,40.6l1.5-87.9l-2.8-1l-3.7,83.3c0,0-159.8-32.9-168.7-34.6
		c-8.9-1.7-17.5-4.7-17.5-15.2c0-10.1,0.2-114.3,0.2-114.3l84.2,16.5l-39.9,60.6l-14.7,29.6c0,0,0.5,0.5,1.5,1.3
		c0.4,0.4,26.2-39.2,26.2-39.2l36.8-50.9l98.5,18.9l-3.3,40.3l3.7,1.5l3.7-44.9l-201.8-38.5C181.6,749.3,175.6,808,180.5,883z"/>
	<path display="inline" fill="#262626" d="M379.8,832.6l3.7-44.9l-201.8-38.5c0,0-5.1,51.3-1,133.7l197,40.6l1.5-87.9l-2.8-1
		l-3.7,83.3c0,0-153.7-31.8-168.7-34.6c-12.6-2.3-17.5-6.8-17.5-15.2c0-8.6,0.2-73.4,0.2-73.4l60.4,11.9l23.8-36.2l9.7,1.5
		l-26.2,36.2L379.8,832.6z"/>
	<path display="inline" fill="#262626" d="M247.2,806.6l-16.1,24.5l-14.7,29.6c0,0,0.5,0.5,1.5,1.3c0.4,0.4,26.2-39.2,26.2-39.2
		l10.7-14.7L247.2,806.6z"/>
	<path display="inline" fill="#E5E5E5" d="M238.2,821.3L238.2,821.3l44.9-61.6l0,0c0.2-0.4,0.4-0.8,0.4-1.3c0-1.5-1.1-2.6-2.6-2.6
		c-1,0-1.7,0.5-2.1,1.3l0,0l-43.1,62.1l0,0c-0.2,0.2-0.4,0.5-0.4,1c0,0.2,0,0.5,0.2,0.8l-3.5,5.8v1.8h3.1l4-1.3c0,0,2.9-5,3.1-5.1
		c0.1-0.2-0.2-0.8-0.4-1c-0.2-0.2-1.1-0.2-1.3,0.2c-0.2,0.4-2.1,3.7-2.1,3.7s-1-1.1-1.1-1.1c-0.2,0,0-1.3,0-2
		C237.7,821.8,238,821.7,238.2,821.3z"/>
	<path display="inline" fill="none" stroke="#4C4C4C" stroke-width="0.2342" stroke-miterlimit="10" d="M358.1,765.9L208,737.2
		c-6-1.1-10.3-7-9.5-12.8l3.3-21.5c1-5.8,6.4-9.7,12.4-8.6l150.2,27.5c6,1.1,10.3,7,9.5,12.8l-3.3,22.6
		C369.9,763.2,364.2,767.1,358.1,765.9z"/>
	<g id="Branding_1_" display="inline">
		<g>
			<g>
				<path fill="#262626" d="M260.3,955.8c-1.1-9.1,4.7-15.2,12.4-13.8c7.9,1.5,15.2,10.1,16.3,19.2c1.1,9.1-4.7,15.2-12.4,13.8
					C268.8,973.6,261.5,964.9,260.3,955.8L260.3,955.8z"/>
				<g>
					<path fill="#E5E5E5" d="M277.8,949.6l-2.1,11.5l2.1,5.8c0.4-2,1.7-8.3,1.7-8.6c0.4,3.8,1.3,11.2,1.3,11.2l3.7,0.8l-2.3-19.8
						L277.8,949.6z"/>
					<path fill="#E5E5E5" d="M269.4,948.1l-4.5-1l2.3,19.8l3.7,0.8c0,0-1-7.3-1.3-11.2c0.2,0.5,4.7,11.9,4.7,11.9l3.3,0.5
						L269.4,948.1L269.4,948.1z"/>
				</g>
			</g>
		</g>
		<g opacity="0.59">
			<path fill="#FFFFFF" d="M320.4,883.2v1.3l-2.9,6.8l-1.8-0.4l2.9-6.3l0,0l-3.3-0.5v-1.7L320.4,883.2z"/>
			<path fill="#FFFFFF" d="M321.3,892v-1.3l1-0.8c1.7-1.3,2.3-2.1,2.3-3.1c0-0.8-0.4-1.3-1.1-1.5c-0.5-0.2-1.1,0.2-1.5,0.4l-0.5-1.5
				c0.5-0.4,1.3-0.5,2.3-0.4c1.7,0.4,2.6,1.7,2.6,3.1s-1,2.3-1.8,3.3l-0.8,0.5l0,0l2.8,0.5v1.7L321.3,892z"/>
			<path fill="#FFFFFF" d="M332.7,889.8c0,2.6-1,4.2-2.8,3.8c-1.8-0.4-2.8-2.3-2.8-5c0-2.3,1-4.2,2.8-3.8
				C332,885.2,332.7,887.4,332.7,889.8z M329,889.1c0,2,0.4,2.9,1.1,3.1c0.7,0.2,1-0.8,1-2.8c0-1.8-0.4-2.9-1.1-3.1
				C329.4,886.3,329,887,329,889.1z"/>
			<path fill="#FFFFFF" d="M333.4,892c0-1.1,0.5-1.7,1.3-1.8l0,0c-0.8-0.5-1.1-1.3-1.1-2c0-1.5,1.1-2.1,2.6-2
				c1.7,0.4,2.3,1.7,2.3,2.6c0,0.8-0.4,1.5-1.1,1.7l0,0c0.8,0.4,1.3,1.3,1.3,2.3c0,1.5-1.1,2.3-2.8,2
				C334.3,894.4,333.4,893.1,333.4,892z M337.1,892.6c0-0.8-0.5-1.3-1.1-1.7c-0.5,0-1,0.5-1,1.1c0,0.5,0.4,1.3,1.1,1.5
				C336.7,893.5,337.1,893.1,337.1,892.6z M335.2,888.2c0,0.5,0.4,1.1,1.1,1.3c0.4,0,0.8-0.4,0.8-1s-0.2-1.1-1-1.3
				C335.4,887.2,335.2,887.6,335.2,888.2z"/>
		</g>
		<path fill="#FFFFFF" d="M511.6,905.9c-12.3,7.9-72.8,30.8-86.8,33.8c-1.3,0.4-1.8,1.8-1.5,3.1l0,0c0.4,1.3,1.8,1.7,3.1,1.5
			c14-3.3,74.6-25.9,86.8-33.8c1.1-0.8,1.8-1.8,1.5-3.1l0,0C514.2,906.2,512.9,905.4,511.6,905.9z"/>
		<path fill="#FFFFFF" d="M512.3,914.9c-12.3,7.9-96.2,37.5-110,40.6c-1.3,0.4-1.8,1.8-1.5,3.1l0,0c0.4,1.3,1.8,1.7,3.1,1.5
			c14-3.3,97.8-32.8,110-40.6c1.1-0.8,1.8-1.8,1.5-3.1l0,0C514.8,915,513.4,914.3,512.3,914.9z"/>
		<path fill="#FFFFFF" d="M514.4,950.7c-12.3,7.9-96.2,37.5-110,40.6c-1.3,0.4-1.8,1.8-1.5,3.1l0,0c0.4,1.3,1.8,1.7,3.1,1.5
			c14-3.3,97.8-32.8,110-40.6c1.1-0.8,1.8-1.8,1.5-3.1l0,0C517.1,950.9,515.8,950.4,514.4,950.7z"/>
		<path fill="#FFFFFF" d="M515.2,959.8c-12.3,7.9-74,30.3-88.2,33.6c-1.3,0.4-1.8,1.8-1.5,3.1l0,0c0.4,1.3,1.8,1.7,3.1,1.5
			c14-3.3,75.9-25.6,88.2-33.6c1.1-0.8,1.8-1.8,1.5-3.1l0,0C517.9,960,516.4,959.4,515.2,959.8z"/>
		<path fill="#FFFFFF" d="M515.8,925.3L515.8,925.3c-0.5-1.3-1.8-1.8-3.1-1.5c-12.3,7.9-96.2,37.5-110,40.6
			c-2,0.5-13.2,0.5-13.2,0.5c-1.3,0-2.1,1.1-2.1,2.1c0,1.1,1.1,2.1,2.1,2.1c0,0,12.4-0.2,14.5-0.5l0,0c0.2,0,0.2,0,0.4,0
			c14-3.3,97.8-32.8,110-40.6C515.5,927.7,516.2,926.6,515.8,925.3z"/>
		<path fill="#FFFFFF" d="M516.4,934.3L516.4,934.3c-0.5-1.3-1.8-1.8-3.1-1.5c-12.3,7.9-96.2,37.5-110,40.6c-2,0.5-20-0.2-20-0.2
			c-1.3,0-2.1,1.1-2.1,2.1l0,0c0,1.3,1.1,2.1,2.1,2.1c0,0,19.2,0.8,21.3,0.2l0,0c0.2,0,0.2,0,0.4,0c14-3.3,97.8-32.8,110-40.6
			C516.1,936.6,516.7,935.6,516.4,934.3z"/>
		<path fill="#FFFFFF" d="M517,943.3L517,943.3c-0.5-1.3-1.8-1.8-3.1-1.5c-12.3,7.9-96.2,37.5-110,40.6c-2,0.5-14,0.2-14,0.2
			c-1.3,0-2.1,1.1-2.1,2.1c0,1.1,1.1,2.1,2.1,2.1c0,0,13.2,0.2,15.2-0.2l0,0c0.2,0,0.2,0,0.4,0c14-3.3,97.8-32.8,110-40.6
			C516.7,945.6,517.5,944.6,517,943.3z"/>
	</g>
	<g id="_x30_1_Highlights_1_" display="inline">
		<path opacity="0.4" fill="#FFFFFF" enable-background="new    " d="M219.5,809l-17.5-2.8c0,0,0,35.2,0,37.4c0,2.1,2.1,2.8,3.8,1.7
			c1.7-1.1,8.6-5.6,9.8-6.6c1.3-1,3.7-3.5,3.7-6.4C219.5,829.6,219.5,809,219.5,809z"/>
		<path opacity="0.8" fill="#FFFFFF" enable-background="new    " d="M232.4,829.6L232.4,829.6c-0.5-0.4-0.8-1.1-0.4-1.7l49.4-72.8
			c0.4-0.5,1.1-0.8,1.7-0.4l0,0c0.5,0.4,0.8,1.1,0.4,1.7L234,829.2C233.6,829.6,232.8,829.9,232.4,829.6z"/>
	</g>
	<g display="inline">
		<path fill="#FCB813" d="M236.6,711.8c0,0.8,0.6,1.5,1.4,1.7c0.8,0.2,1.4-0.4,1.4-1.1c0-0.8-0.6-1.5-1.4-1.7
			C237.2,710.5,236.6,711,236.6,711.8z"/>
		<path fill="#FCB813" d="M236.2,710.9c0.8,0.1,1.4-0.4,1.4-1.1c0-0.8-0.6-1.5-1.4-1.7c-0.8-0.1-1.4,0.4-1.4,1.1
			C234.9,710.1,235.5,710.8,236.2,710.9z"/>
		<path fill="#FCB813" d="M233.5,710.7c0.8,0.1,1.4-0.4,1.4-1.1c0-0.8-0.6-1.5-1.4-1.7c-0.8-0.1-1.4,0.4-1.4,1.1
			C232.2,709.9,232.7,710.5,233.5,710.7z"/>
		<path fill="#FCB813" d="M232.2,712.8c0.8,0.1,1.4-0.4,1.4-1.1c0-0.8-0.6-1.5-1.4-1.7c-0.8-0.1-1.4,0.4-1.4,1.1
			C230.8,711.9,231.4,712.7,232.2,712.8z"/>
		<path fill="#FCB813" d="M232.4,712.8c-0.8-0.1-1.4,0.4-1.4,1.1c0,0.8,0.6,1.5,1.4,1.7c0.8,0.1,1.4-0.4,1.4-1.1
			C233.7,713.7,233,713,232.4,712.8z"/>
		<path fill="#FCB813" d="M234.5,717.6c0.8,0.1,1.4-0.4,1.4-1.1c0-0.8-0.6-1.5-1.4-1.7c-0.8-0.1-1.4,0.4-1.4,1.1
			C233.1,716.8,233.7,717.5,234.5,717.6z"/>
		<path fill="#FCB813" d="M237,719.3c0.8,0.1,1.4-0.4,1.4-1.1c0-0.8-0.6-1.5-1.4-1.7c-0.8-0.2-1.4,0.4-1.4,1.1
			C235.7,718.4,236.2,719.1,237,719.3z"/>
		<path fill="#FCB813" d="M238.2,719.3c-0.8-0.1-1.4,0.4-1.4,1.1c0,0.8,0.6,1.5,1.4,1.7c0.8,0.2,1.4-0.4,1.4-1.1
			C239.5,720.2,238.9,719.4,238.2,719.3z"/>
		<path fill="#FCB813" d="M238,722c-0.8-0.1-1.4,0.4-1.4,1.1c0,0.8,0.6,1.5,1.4,1.7c0.8,0.1,1.4-0.4,1.4-1.1
			C239.4,722.8,238.8,722.1,238,722z"/>
		<path fill="#FCB813" d="M236,723.5c-0.8-0.1-1.4,0.4-1.4,1.1c0,0.8,0.6,1.5,1.4,1.7c0.8,0.1,1.4-0.4,1.4-1.1
			C237.3,724.2,236.7,723.6,236,723.5z"/>
		<path fill="#FCB813" d="M233.3,722.7c-0.8-0.1-1.4,0.4-1.4,1.1c0,0.8,0.6,1.5,1.4,1.7c0.8,0.1,1.4-0.4,1.4-1.1
			C234.7,723.6,234,722.8,233.3,722.7z"/>
		<path fill="#FCB813" d="M233.3,721.6c0-0.8-0.6-1.5-1.4-1.7c-0.8-0.1-1.4,0.4-1.4,1.1c0,0.8,0.6,1.5,1.4,1.7
			C232.7,722.9,233.3,722.4,233.3,721.6z"/>
		<path fill="#FCB813" d="M351.9,730.4c-0.8-0.1-1.4,0.4-1.4,1.1c0,0.8,0.6,1.5,1.4,1.7c0.8,0.1,1.4-0.4,1.4-1.1
			C353.3,731.2,352.6,730.5,351.9,730.4z"/>
		<path fill="#FCB813" d="M351.9,735.1c-0.8-0.1-1.4,0.3-1.4,1.1c0,0.7,0.6,1.4,1.4,1.6c0.8,0.1,1.4-0.3,1.4-1.1
			C353.3,735.9,352.6,735.2,351.9,735.1z"/>
		<path fill="#FCB813" d="M351.9,737.6c-0.8-0.1-1.4,0.3-1.4,1.1c0,0.8,0.6,1.4,1.4,1.6c0.8,0.1,1.4-0.3,1.4-1.1
			C353.3,738.5,352.6,737.8,351.9,737.6z"/>
		<path fill="#FCB813" d="M351.9,740.3c-0.8-0.1-1.4,0.3-1.4,1.1c0,0.7,0.6,1.4,1.4,1.6s1.4-0.3,1.4-1.1S352.6,740.4,351.9,740.3z"
			/>
		<path fill="#FCB813" d="M353.3,744.3c0-0.7-0.6-1.4-1.4-1.6s-1.4,0.3-1.4,1.1c0,0.7,0.6,1.4,1.3,1.5c-0.7-0.1-1.3,0.4-1.3,1.1
			c0,0.7,0.6,1.4,1.4,1.6c0.8,0.2,1.4-0.3,1.4-1.1c0-0.7-0.6-1.4-1.3-1.5C352.7,745.4,353.3,745,353.3,744.3z"/>
		<path fill="#FCB813" d="M242.9,709.8c-0.8-0.1-1.4,0.4-1.4,1.1c0,0.8,0.6,1.5,1.4,1.7c0.8,0.2,1.4-0.4,1.4-1.1
			C244.3,710.6,243.7,709.9,242.9,709.8z"/>
		<path fill="#FCB813" d="M242.9,714.5c-0.8-0.1-1.4,0.3-1.4,1.1c0,0.7,0.6,1.4,1.4,1.6c0.8,0.1,1.4-0.3,1.4-1.1
			S243.7,714.6,242.9,714.5z"/>
		<path fill="#FCB813" d="M242.9,717.1c-0.8-0.1-1.4,0.3-1.4,1.1c0,0.7,0.6,1.4,1.4,1.6c0.8,0.1,1.4-0.3,1.4-1.1
			C244.3,717.9,243.7,717.2,242.9,717.1z"/>
		<path fill="#FCB813" d="M242.9,719.7c-0.8-0.1-1.4,0.3-1.4,1.1s0.6,1.4,1.4,1.6c0.8,0.2,1.4-0.3,1.4-1.1
			C244.3,720.5,243.7,719.8,242.9,719.7z"/>
		<path fill="#FCB813" d="M244.3,723.8c0-0.7-0.6-1.4-1.4-1.6c-0.8-0.2-1.4,0.3-1.4,1.1c0,0.7,0.6,1.4,1.3,1.5
			c-0.7-0.1-1.3,0.4-1.3,1.1c0,0.7,0.6,1.4,1.4,1.6c0.8,0.2,1.4-0.3,1.4-1.1c0-0.7-0.6-1.4-1.3-1.5
			C243.7,724.8,244.3,724.4,244.3,723.8z"/>
		<path fill="#FCB813" d="M257.7,717.1c-0.8-0.1-1.4,0.3-1.4,1.1c0,0.7,0.6,1.5,1.4,1.6c0.8,0.1,1.4-0.3,1.4-1.1
			C259.1,717.8,258.4,717.2,257.7,717.1z"/>
		<path fill="#FCB813" d="M257.7,719.7c-0.8-0.1-1.4,0.3-1.4,1.1c0,0.7,0.6,1.5,1.4,1.6c0.8,0.1,1.4-0.3,1.4-1.1
			C259.1,720.5,258.4,719.8,257.7,719.7z"/>
		<path fill="#FCB813" d="M257.7,722.3c-0.8-0.1-1.4,0.3-1.4,1.1c0,0.7,0.6,1.5,1.4,1.6c0.8,0.1,1.4-0.3,1.4-1.1
			C259.1,723.1,258.4,722.4,257.7,722.3z"/>
		<path fill="#FCB813" d="M259.1,726.5c0-0.7-0.6-1.5-1.4-1.6c-0.8-0.1-1.4,0.3-1.4,1.1c0,0.7,0.6,1.4,1.3,1.6
			c-0.7-0.1-1.3,0.4-1.3,1.1c0,0.7,0.6,1.5,1.4,1.6c0.8,0.1,1.4-0.3,1.4-1.1c0-0.7-0.6-1.4-1.3-1.6
			C258.5,727.5,259.1,727.2,259.1,726.5z"/>
		<path fill="#FCB813" d="M286.4,722.5c0.7,0.1,1.3-0.4,1.3-1.1c0-0.7-0.6-1.4-1.3-1.6c0.7,0.1,1.3-0.4,1.3-1.1
			c0-0.7-0.6-1.5-1.4-1.6c-0.8-0.1-1.4,0.3-1.4,1.1c0,0.7,0.6,1.4,1.3,1.6c-0.7-0.1-1.3,0.4-1.3,1.1c0,0.7,0.6,1.4,1.3,1.6
			c-0.7-0.1-1.3,0.4-1.3,1.1c0,0.7,0.6,1.5,1.4,1.6c0.8,0.1,1.4-0.3,1.4-1.1C287.6,723.3,287,722.6,286.4,722.5z"/>
		<path fill="#FCB813" d="M290.1,723.2c0-0.7-0.6-1.5-1.4-1.6c-0.8-0.1-1.4,0.3-1.4,1.1c0,0.7,0.6,1.5,1.4,1.6
			C289.4,724.4,290.1,723.9,290.1,723.2z"/>
		<path fill="#FCB813" d="M290.6,730c-0.8-0.1-1.4,0.3-1.4,1.1c0,0.7,0.6,1.5,1.4,1.6s1.4-0.3,1.4-1.1
			C292,730.8,291.3,730.2,290.6,730z"/>
		<path fill="#FCB813" d="M291.9,724.9c-0.7-0.1-1.2,0.2-1.3,0.8c-0.1-0.6-0.7-1.2-1.3-1.3c-0.8-0.1-1.4,0.3-1.4,1.1
			c0,0.7,0.6,1.5,1.4,1.6c0.7,0.1,1.2-0.2,1.3-0.8c0.1,0.6,0.7,1.2,1.3,1.3c0.8,0.1,1.4-0.3,1.4-1.1
			C293.3,725.8,292.7,725,291.9,724.9z"/>
		<path fill="#FCB813" d="M292.6,722.4c-0.8-0.1-1.4,0.3-1.4,1.1c0,0.7,0.6,1.5,1.4,1.6c0.8,0.1,1.4-0.3,1.4-1.1
			C293.9,723.2,293.4,722.5,292.6,722.4z"/>
		<path fill="#FCB813" d="M291.2,727.4c-0.2,0-0.5,0-0.7,0.1c-0.2-0.1-0.4-0.3-0.7-0.3c-0.8-0.1-1.4,0.3-1.4,1.1
			c0,0.7,0.6,1.5,1.4,1.6c0.2,0,0.5,0,0.7-0.1c0.2,0.1,0.4,0.3,0.7,0.3c0.8,0.1,1.4-0.3,1.4-1.1C292.6,728.3,292,727.6,291.2,727.4z
			"/>
		<path fill="#FCB813" d="M344,744c-0.1,0-0.2,0-0.3,0s-0.2-0.1-0.3-0.1c-0.8-0.2-1.4,0.3-1.4,1s0.6,1.5,1.4,1.6c0.1,0,0.3,0,0.4,0
			c0.1,0.1,0.2,0.1,0.4,0.1c0.8,0.1,1.4-0.4,1.4-1.1C345.3,744.7,344.7,744.1,344,744z"/>
		<path fill="#FCB813" d="M345.1,738.9c-0.8-0.1-1.4,0.4-1.4,1.1c0,0.7,0.7,1.5,1.4,1.6c0.8,0.1,1.4-0.4,1.4-1.1
			C346.5,739.7,345.8,739,345.1,738.9z"/>
		<path fill="#FCB813" d="M345.7,736.3c-0.8-0.1-1.4,0.4-1.4,1.1c0,0.7,0.7,1.5,1.4,1.6c0.8,0.1,1.4-0.4,1.4-1.1
			S346.4,736.5,345.7,736.3z"/>
		<path fill="#FCB813" d="M346.2,733.8c-0.8-0.1-1.4,0.4-1.4,1.1c0,0.7,0.7,1.5,1.4,1.6c0.8,0.1,1.4-0.4,1.4-1.1
			S347,734,346.2,733.8z"/>
		<path fill="#FCB813" d="M346.8,731.2c-0.8-0.1-1.4,0.4-1.4,1.1c0,0.7,0.7,1.5,1.4,1.6c0.8,0.1,1.4-0.4,1.4-1.1
			C348.1,732.1,347.5,731.4,346.8,731.2z"/>
		<path fill="#FCB813" d="M347.4,728.7c-0.8-0.1-1.4,0.4-1.4,1.1c0,0.7,0.7,1.5,1.4,1.6c0.8,0.1,1.4-0.4,1.4-1.1
			C348.7,729.5,348,728.8,347.4,728.7z"/>
		<path fill="#FCB813" d="M344.5,741.4c-0.4-0.1-0.7,0-0.9,0.2c-0.2-0.3-0.5-0.5-0.9-0.5c-0.8-0.2-1.4,0.3-1.4,1s0.6,1.5,1.4,1.6
			c0.4,0.1,0.7,0,1-0.2c0.3,0.3,0.6,0.5,1,0.5c0.8,0.1,1.4-0.4,1.4-1.1C345.9,742.2,345.3,741.5,344.5,741.4z"/>
		<path fill="#FCB813" d="M343.6,739.9c0-0.7-0.6-1.5-1.4-1.6c-0.8-0.2-1.4,0.3-1.4,1s0.6,1.5,1.4,1.6
			C342.9,741,343.6,740.7,343.6,739.9z"/>
		<path fill="#FCB813" d="M343,737.2c0-0.7-0.6-1.5-1.4-1.6c-0.8-0.2-1.4,0.3-1.4,1s0.6,1.5,1.4,1.6
			C342.4,738.3,343,737.8,343,737.2z"/>
		<path fill="#FCB813" d="M342.4,734.4c0-0.7-0.6-1.5-1.4-1.6c-0.8-0.2-1.4,0.3-1.4,1s0.6,1.5,1.4,1.6
			C341.8,735.6,342.4,735.1,342.4,734.4z"/>
		<path fill="#FCB813" d="M341.9,731.6c0-0.7-0.6-1.5-1.4-1.6c-0.8-0.2-1.4,0.3-1.4,1s0.6,1.5,1.4,1.6
			C341.2,732.9,341.9,732.4,341.9,731.6z"/>
		<path fill="#FCB813" d="M341.3,728.9c0-0.7-0.6-1.5-1.4-1.6c-0.8-0.2-1.4,0.3-1.4,1s0.6,1.5,1.4,1.6
			C340.7,730.1,341.3,729.7,341.3,728.9z"/>
		<path fill="#FCB813" d="M286.3,725c-0.8-0.1-1.4,0.3-1.4,1.1c0,0.7,0.6,1.5,1.4,1.6c0.8,0.1,1.4-0.3,1.4-1.1
			C287.6,725.9,287,725.2,286.3,725z"/>
		<path fill="#FCB813" d="M286.3,727.6c-0.8-0.1-1.4,0.3-1.4,1.1c0,0.7,0.6,1.5,1.4,1.6c0.8,0.1,1.4-0.3,1.4-1.1
			C287.6,728.5,287,727.8,286.3,727.6z"/>
		<path fill="#FCB813" d="M287.6,731.8c0-0.7-0.6-1.5-1.4-1.6c-0.8-0.1-1.4,0.3-1.4,1.1c0,0.7,0.6,1.4,1.3,1.6
			c-0.7-0.1-1.3,0.4-1.3,1.1c0,0.7,0.6,1.5,1.4,1.6c0.8,0.1,1.4-0.3,1.4-1.1c0-0.7-0.6-1.4-1.3-1.6C287,733,287.6,732.5,287.6,731.8
			z"/>
		<path fill="#FCB813" d="M296.6,720.5c0-0.7-0.6-1.5-1.4-1.6c-0.8-0.1-1.4,0.3-1.4,1.1c0,0.7,0.6,1.4,1.3,1.6
			c-0.7-0.1-1.3,0.4-1.3,1.1c0,0.7,0.6,1.4,1.3,1.6c-0.7-0.1-1.3,0.4-1.3,1.1c0,0.7,0.6,1.5,1.4,1.6c0.8,0.1,1.4-0.3,1.4-1.1
			c0-0.7-0.6-1.4-1.3-1.6c0.7,0.1,1.3-0.4,1.3-1.1c0-0.7-0.6-1.4-1.3-1.6C296,721.6,296.6,721.1,296.6,720.5z"/>
		<path fill="#FCB813" d="M295.2,726.7c-0.8-0.1-1.4,0.3-1.4,1.1c0,0.7,0.6,1.5,1.4,1.6c0.8,0.1,1.4-0.3,1.4-1.1
			C296.6,727.5,295.9,726.9,295.2,726.7z"/>
		<path fill="#FCB813" d="M295.2,729.3c-0.8-0.1-1.4,0.3-1.4,1.1c0,0.7,0.6,1.5,1.4,1.6c0.8,0.1,1.4-0.3,1.4-1.1
			C296.6,730.2,295.9,729.5,295.2,729.3z"/>
		<path fill="#FCB813" d="M296.6,733.6c0-0.7-0.6-1.5-1.4-1.6c-0.8-0.1-1.4,0.3-1.4,1.1c0,0.7,0.6,1.4,1.3,1.6
			c-0.7-0.1-1.3,0.4-1.3,1.1c0,0.7,0.6,1.5,1.4,1.6c0.8,0.1,1.4-0.3,1.4-1.1c0-0.7-0.6-1.4-1.3-1.6
			C296,734.6,296.6,734.2,296.6,733.6z"/>
		<path fill="#FCB813" d="M316.4,724.2c0-0.7-0.6-1.5-1.4-1.6c-0.8-0.1-1.4,0.3-1.4,1.1c0,0.7,0.6,1.4,1.3,1.6
			c-0.7-0.1-1.3,0.4-1.3,1.1c0,0.7,0.6,1.4,1.3,1.6c-0.7-0.1-1.3,0.4-1.3,1.1c0,0.7,0.6,1.5,1.4,1.6c0.8,0.1,1.4-0.3,1.4-1.1
			c0-0.7-0.6-1.4-1.3-1.6c0.7,0.1,1.3-0.4,1.3-1.1c0-0.7-0.6-1.4-1.3-1.6C315.8,725.4,316.4,724.9,316.4,724.2z"/>
		<path fill="#FCB813" d="M315,730.5c-0.8-0.1-1.4,0.3-1.4,1.1c0,0.7,0.6,1.5,1.4,1.6c0.8,0.1,1.4-0.3,1.4-1.1
			C316.4,731.3,315.7,730.7,315,730.5z"/>
		<path fill="#FCB813" d="M315,733.1c-0.8-0.1-1.4,0.3-1.4,1.1c0,0.7,0.6,1.5,1.4,1.6c0.8,0.1,1.4-0.3,1.4-1.1
			C316.4,734,315.7,733.2,315,733.1z"/>
		<path fill="#FCB813" d="M316.4,737.3c0-0.7-0.6-1.5-1.4-1.6c-0.8-0.1-1.4,0.3-1.4,1.1c0,0.7,0.6,1.4,1.3,1.6
			c-0.7-0.1-1.3,0.4-1.3,1.1c0,0.7,0.6,1.5,1.4,1.6c0.8,0.1,1.4-0.3,1.4-1.1c0-0.7-0.6-1.4-1.3-1.6
			C315.8,738.4,316.4,737.9,316.4,737.3z"/>
		<path fill="#FCB813" d="M312.2,737.9c-0.8-0.1-1.4,0.3-1.4,1.1c0,0.7,0.6,1.5,1.4,1.6c0.8,0.1,1.4-0.3,1.4-1.1
			C313.6,738.8,313,738.1,312.2,737.9z"/>
		<path fill="#FCB813" d="M311.3,737.5c0-0.7-0.6-1.5-1.4-1.6c-0.8-0.1-1.4,0.3-1.4,1.1c0,0.7,0.6,1.5,1.4,1.6
			C310.7,738.7,311.3,738.3,311.3,737.5z"/>
		<path fill="#FCB813" d="M309.8,736c0.8,0.1,1.4-0.3,1.4-1.1c0-0.7-0.6-1.5-1.4-1.6c-0.8-0.1-1.4,0.3-1.4,1.1
			C308.4,735.1,309,735.8,309.8,736z"/>
		<path fill="#FCB813" d="M309.9,733.4c0.8,0.1,1.4-0.3,1.4-1.1c0-0.7-0.6-1.5-1.4-1.6c-0.8-0.1-1.4,0.3-1.4,1.1
			C308.5,732.5,309.1,733.2,309.9,733.4z"/>
		<path fill="#FCB813" d="M310.1,730.7c0.8,0.1,1.4-0.3,1.4-1.1c0-0.7-0.6-1.5-1.4-1.6c-0.8-0.1-1.4,0.3-1.4,1.1
			C308.7,729.9,309.3,730.7,310.1,730.7z"/>
		<path fill="#FCB813" d="M312.2,729.5c0.8,0.1,1.4-0.3,1.4-1.1c0-0.7-0.6-1.5-1.4-1.6c-0.8-0.1-1.4,0.3-1.4,1.1
			S311.4,729.4,312.2,729.5z"/>
		<path fill="#FCB813" d="M329,741.1c-0.8-0.1-1.4,0.3-1.4,1.1c0,0.7,0.6,1.5,1.4,1.6s1.4-0.3,1.4-1.1
			C330.4,742,329.7,741.2,329,741.1z"/>
		<path fill="#FCB813" d="M328.1,740.8c0-0.7-0.6-1.5-1.4-1.6c-0.8-0.1-1.4,0.3-1.4,1.1c0,0.7,0.6,1.5,1.4,1.6
			C327.5,741.9,328.1,741.4,328.1,740.8z"/>
		<path fill="#FCB813" d="M326.6,739.1c0.8,0.1,1.4-0.3,1.4-1.1c0-0.7-0.6-1.5-1.4-1.6c-0.8-0.1-1.4,0.3-1.4,1.1
			S325.8,739,326.6,739.1z"/>
		<path fill="#FCB813" d="M326.6,736.5c0.8,0.1,1.4-0.3,1.4-1.1c0-0.7-0.6-1.5-1.4-1.6c-0.8-0.1-1.4,0.3-1.4,1.1
			S325.9,736.4,326.6,736.5z"/>
		<path fill="#FCB813" d="M326.8,734c0.8,0.1,1.4-0.3,1.4-1.1c0-0.7-0.6-1.5-1.4-1.6c-0.8-0.1-1.4,0.3-1.4,1.1
			C325.4,733.1,326.1,733.8,326.8,734z"/>
		<path fill="#FCB813" d="M328.9,732.7c0.5,0.1,1-0.1,1.2-0.5c-0.1,0.1-0.1,0.3-0.1,0.5c0,0.7,0.6,1.5,1.4,1.6s1.4-0.3,1.4-1.1
			c0-0.7-0.6-1.5-1.4-1.6c-0.5-0.1-1,0.1-1.2,0.5c0.1-0.1,0.1-0.3,0.1-0.5c0-0.7-0.6-1.5-1.4-1.6c-0.8-0.1-1.4,0.3-1.4,1.1
			C327.5,731.8,328.2,732.5,328.9,732.7z"/>
		<path fill="#FCB813" d="M331.9,734.3c-0.8-0.1-1.4,0.3-1.4,1.1c0,0.7,0.6,1.5,1.4,1.6s1.4-0.3,1.4-1.1
			C333.3,735.1,332.6,734.4,331.9,734.3z"/>
		<path fill="#FCB813" d="M328,736.6c0,0.7,0.6,1.5,1.4,1.6c0.8,0.1,1.4-0.3,1.4-1.1c0-0.7-0.6-1.5-1.4-1.6
			C328.7,735.4,328,735.9,328,736.6z"/>
		<path fill="#FCB813" d="M331.5,740.6c-0.8-0.1-1.4,0.3-1.4,1.1c0,0.7,0.6,1.5,1.4,1.6c0.8,0.1,1.4-0.3,1.4-1.1
			C332.9,741.4,332.2,740.8,331.5,740.6z"/>
		<path fill="#FCB813" d="M358.1,732.1c0-0.7-0.6-1.5-1.4-1.6c-0.8-0.1-1.4,0.3-1.4,1.1c0,0.7,0.6,1.4,1.3,1.6
			c-0.7-0.1-1.3,0.4-1.3,1.1c0,0.7,0.6,1.4,1.3,1.6c-0.7-0.1-1.3,0.4-1.3,1.1c0,0.7,0.6,1.5,1.4,1.6c0.8,0.1,1.4-0.3,1.4-1.1
			c0-0.7-0.6-1.4-1.3-1.6c0.7,0.1,1.3-0.4,1.3-1.1c0-0.7-0.6-1.4-1.3-1.6C357.6,733.3,358.1,732.8,358.1,732.1z"/>
		<path fill="#FCB813" d="M356.8,738.3c-0.8-0.1-1.4,0.3-1.4,1.1c0,0.7,0.6,1.5,1.4,1.6c0.8,0.1,1.4-0.3,1.4-1.1
			C358.1,739.2,357.6,738.5,356.8,738.3z"/>
		<path fill="#FCB813" d="M356.8,740.9c-0.8-0.1-1.4,0.3-1.4,1.1c0,0.7,0.6,1.5,1.4,1.6c0.8,0.1,1.4-0.3,1.4-1.1
			C358.1,741.8,357.6,741.1,356.8,740.9z"/>
		<path fill="#FCB813" d="M358.1,745.2c0-0.7-0.6-1.5-1.4-1.6c-0.8-0.1-1.4,0.3-1.4,1.1c0,0.7,0.6,1.4,1.3,1.6
			c-0.7-0.1-1.3,0.4-1.3,1.1c0,0.7,0.6,1.5,1.4,1.6c0.8,0.1,1.4-0.3,1.4-1.1c0-0.7-0.6-1.4-1.3-1.6
			C357.6,746.3,358.1,745.9,358.1,745.2z"/>
		<path fill="#FCB813" d="M364.1,733.3c0-0.7-0.6-1.5-1.4-1.6s-1.4,0.3-1.4,1.1c0,0.7,0.6,1.4,1.3,1.6c-0.7-0.1-1.3,0.4-1.3,1.1
			s0.6,1.4,1.3,1.6c-0.7-0.1-1.3,0.4-1.3,1.1c0,0.7,0.6,1.5,1.4,1.6s1.4-0.3,1.4-1.1c0-0.7-0.6-1.4-1.3-1.6c0.7,0.1,1.3-0.4,1.3-1.1
			c0-0.7-0.6-1.4-1.3-1.6C363.5,734.4,364.1,734,364.1,733.3z"/>
		<path fill="#FCB813" d="M362.8,739.5c-0.8-0.1-1.4,0.3-1.4,1.1c0,0.7,0.6,1.5,1.4,1.6c0.8,0.1,1.4-0.3,1.4-1.1
			C364.1,740.4,363.5,739.6,362.8,739.5z"/>
		<path fill="#FCB813" d="M362.8,742.1c-0.8-0.1-1.4,0.3-1.4,1.1c0,0.7,0.6,1.5,1.4,1.6c0.8,0.1,1.4-0.3,1.4-1.1
			C364.1,743,363.5,742.2,362.8,742.1z"/>
		<path fill="#FCB813" d="M364.1,746.3c0-0.7-0.6-1.5-1.4-1.6s-1.4,0.3-1.4,1.1c0,0.7,0.6,1.4,1.3,1.6c-0.7-0.1-1.3,0.4-1.3,1.1
			c0,0.7,0.6,1.5,1.4,1.6s1.4-0.3,1.4-1.1c0-0.7-0.6-1.4-1.3-1.6C363.6,747.5,364.1,747,364.1,746.3z"/>
		<path fill="#FCB813" d="M305.3,728.6c-0.8-0.1-1.4,0.3-1.4,1.1c0,0.7,0.6,1.5,1.4,1.6c0.8,0.1,1.4-0.3,1.4-1.1
			C306.7,729.5,306,728.8,305.3,728.6z"/>
		<path fill="#FCB813" d="M304.3,728.6c0.8,0.1,1.4-0.3,1.4-1.1c0-0.7-0.6-1.5-1.4-1.6c-0.8-0.1-1.4,0.3-1.4,1.1
			C303,727.7,303.6,728.4,304.3,728.6z"/>
		<path fill="#FCB813" d="M301.6,727.8c0.8,0.1,1.4-0.3,1.4-1.1c0-0.7-0.6-1.5-1.4-1.6c-0.8-0.1-1.4,0.3-1.4,1.1
			C300.2,727,300.8,727.7,301.6,727.8z"/>
		<path fill="#FCB813" d="M300.1,729.7c0.8,0.1,1.4-0.3,1.4-1.1c0-0.7-0.6-1.5-1.4-1.6c-0.8-0.1-1.4,0.3-1.4,1.1
			C298.7,728.8,299.4,729.6,300.1,729.7z"/>
		<path fill="#FCB813" d="M299,732.6c0,0.7,0.6,1.5,1.4,1.6c0.8,0.1,1.4-0.3,1.4-1.1c0-0.7-0.6-1.5-1.4-1.6
			C299.6,731.4,299,731.9,299,732.6z"/>
		<path fill="#FCB813" d="M301.6,735.7c0-0.7-0.6-1.5-1.4-1.6c-0.8-0.1-1.4,0.3-1.4,1.1c0,0.7,0.6,1.5,1.4,1.6
			C300.9,737,301.6,736.5,301.6,735.7z"/>
		<path fill="#FCB813" d="M302.5,736c-0.8-0.1-1.4,0.3-1.4,1.1c0,0.7,0.6,1.5,1.4,1.6s1.4-0.3,1.4-1.1
			C303.8,736.9,303.3,736.2,302.5,736z"/>
		<path fill="#FCB813" d="M305.3,731.2c-0.7-0.1-1.3,0.3-1.4,0.9c0-0.7-0.6-1.5-1.4-1.6c-0.8-0.1-1.4,0.3-1.4,1.1
			c0,0.7,0.6,1.5,1.4,1.6c0.7,0.1,1.3-0.3,1.4-0.9c0,0.7,0.6,1.5,1.4,1.6c0.8,0.1,1.4-0.3,1.4-1.1
			C306.7,732.1,306,731.4,305.3,731.2z"/>
		<path fill="#FCB813" d="M306.7,735.4c0-0.7-0.6-1.5-1.4-1.6c-0.8-0.1-1.4,0.3-1.4,1.1c0,0.7,0.6,1.4,1.3,1.6
			c-0.7-0.1-1.3,0.4-1.3,1.1c0,0.7,0.6,1.5,1.4,1.6c0.8,0.1,1.4-0.3,1.4-1.1c0-0.7-0.6-1.4-1.3-1.6
			C306.1,736.6,306.7,736.1,306.7,735.4z"/>
		<path fill="#FCB813" d="M276.7,723.3c-0.8-0.1-1.4,0.3-1.4,1.1c0,0.7,0.6,1.5,1.4,1.6c0.8,0.1,1.4-0.3,1.4-1.1
			C278.1,724,277.5,723.4,276.7,723.3z"/>
		<path fill="#FCB813" d="M275.9,723.2c0.8,0.1,1.4-0.3,1.4-1.1c0-0.7-0.6-1.5-1.4-1.6s-1.4,0.3-1.4,1.1
			C274.5,722.3,275.1,723.1,275.9,723.2z"/>
		<path fill="#FCB813" d="M273.2,722.5c0.8,0.1,1.4-0.3,1.4-1.1c0-0.7-0.6-1.5-1.4-1.6s-1.4,0.3-1.4,1.1
			C271.8,721.6,272.4,722.3,273.2,722.5z"/>
		<path fill="#FCB813" d="M271.6,724.3c0.8,0.1,1.4-0.3,1.4-1.1c0-0.7-0.6-1.5-1.4-1.6c-0.8-0.1-1.4,0.3-1.4,1.1
			C270.2,723.5,270.8,724.1,271.6,724.3z"/>
		<path fill="#FCB813" d="M270.4,727.3c0,0.7,0.6,1.5,1.4,1.6c0.8,0.1,1.4-0.3,1.4-1.1c0-0.7-0.6-1.5-1.4-1.6
			C271.1,726,270.4,726.5,270.4,727.3z"/>
		<path fill="#FCB813" d="M273.1,730.4c0-0.7-0.6-1.5-1.4-1.6c-0.8-0.1-1.4,0.3-1.4,1.1c0,0.7,0.6,1.5,1.4,1.6
			C272.5,731.5,273.1,731,273.1,730.4z"/>
		<path fill="#FCB813" d="M274,730.7c-0.8-0.1-1.4,0.3-1.4,1.1c0,0.7,0.6,1.5,1.4,1.6c0.8,0.1,1.4-0.3,1.4-1.1
			C275.3,731.5,274.7,730.7,274,730.7z"/>
		<path fill="#FCB813" d="M276.7,725.9c-0.7-0.1-1.3,0.3-1.4,0.9c0-0.7-0.6-1.5-1.4-1.6c-0.8-0.1-1.4,0.3-1.4,1.1
			c0,0.7,0.6,1.5,1.4,1.6c0.7,0.1,1.3-0.3,1.4-0.9c0,0.7,0.6,1.5,1.4,1.6c0.8,0.1,1.4-0.3,1.4-1.1
			C278.1,726.7,277.5,726,276.7,725.9z"/>
		<path fill="#FCB813" d="M278.1,730.1c0-0.7-0.6-1.5-1.4-1.6c-0.8-0.1-1.4,0.3-1.4,1.1c0,0.7,0.6,1.4,1.3,1.6
			c-0.7-0.1-1.3,0.4-1.3,1.1c0,0.7,0.6,1.5,1.4,1.6c0.8,0.1,1.4-0.3,1.4-1.1c0-0.7-0.6-1.4-1.3-1.6
			C277.5,731.2,278.1,730.7,278.1,730.1z"/>
		<path fill="#FCB813" d="M371.9,742.5c0,0.7,0.6,1.5,1.4,1.6c0.8,0.1,1.4-0.3,1.4-1.1c0-0.7-0.6-1.5-1.4-1.6
			C372.6,741.3,371.9,741.8,371.9,742.5z"/>
		<path fill="#FCB813" d="M372.4,741.4c0.8,0.1,1.4-0.3,1.4-1.1c0-0.7-0.6-1.5-1.4-1.6c-0.8-0.1-1.4,0.3-1.4,1.1
			C371.1,740.6,371.6,741.2,372.4,741.4z"/>
		<path fill="#FCB813" d="M369.7,740.7c0.8,0.1,1.4-0.3,1.4-1.1c0-0.7-0.6-1.5-1.4-1.6c-0.8-0.1-1.4,0.3-1.4,1.1
			C368.3,739.9,368.9,740.6,369.7,740.7z"/>
		<path fill="#FCB813" d="M368.1,742.5c0.8,0.1,1.4-0.3,1.4-1.1c0-0.7-0.6-1.5-1.4-1.6c-0.8-0.1-1.4,0.3-1.4,1.1
			S367.4,742.4,368.1,742.5z"/>
		<path fill="#FCB813" d="M367.1,745.5c0,0.7,0.6,1.5,1.4,1.6c0.8,0.1,1.4-0.3,1.4-1.1c0-0.7-0.6-1.5-1.4-1.6
			C367.7,744.3,367.1,744.7,367.1,745.5z"/>
		<path fill="#FCB813" d="M369.6,748.6c0-0.7-0.6-1.5-1.4-1.6c-0.8-0.1-1.4,0.3-1.4,1.1c0,0.7,0.6,1.5,1.4,1.6
			C369,749.8,369.6,749.3,369.6,748.6z"/>
		<path fill="#FCB813" d="M370.6,748.9c-0.8-0.1-1.4,0.3-1.4,1.1c0,0.7,0.6,1.5,1.4,1.6s1.4-0.3,1.4-1.1S371.2,749,370.6,748.9z"/>
		<path fill="#FCB813" d="M373.3,744.2c-0.7-0.1-1.3,0.3-1.4,0.9c0-0.7-0.6-1.5-1.4-1.6s-1.4,0.3-1.4,1.1c0,0.7,0.6,1.5,1.4,1.6
			c0.7,0.1,1.3-0.3,1.4-0.9c0,0.7,0.6,1.5,1.4,1.6c0.8,0.1,1.4-0.3,1.4-1.1S374.1,744.2,373.3,744.2z"/>
		<path fill="#FCB813" d="M374.6,748.3c0-0.7-0.6-1.5-1.4-1.6c-0.8-0.1-1.4,0.3-1.4,1.1c0,0.7,0.6,1.4,1.3,1.6
			c-0.7-0.1-1.3,0.4-1.3,1.1c0,0.7,0.6,1.5,1.4,1.6c0.8,0.1,1.4-0.3,1.4-1.1c0-0.7-0.6-1.4-1.3-1.6
			C374.1,749.4,374.6,749,374.6,748.3z"/>
		<path fill="#FCB813" d="M252.7,725.2c-0.8-0.1-1.4,0.4-1.4,1.1s0.6,1.5,1.4,1.7s1.4-0.4,1.4-1.1
			C254,726.1,253.4,725.4,252.7,725.2z"/>
		<path fill="#FCB813" d="M250.4,726.4c-0.8-0.1-1.4,0.4-1.4,1.1c0,0.8,0.6,1.5,1.4,1.7c0.8,0.1,1.4-0.4,1.4-1.1
			S251.2,726.5,250.4,726.4z"/>
		<path fill="#FCB813" d="M249.5,726.2c0-0.8-0.6-1.5-1.4-1.7s-1.4,0.4-1.4,1.1c0,0.8,0.6,1.5,1.4,1.7S249.5,727,249.5,726.2z"/>
		<path fill="#FCB813" d="M249.1,723.5c0-0.8-0.6-1.5-1.4-1.7c-0.8-0.1-1.4,0.4-1.4,1.1c0,0.8,0.6,1.5,1.4,1.7
			C248.5,724.7,249.1,724.2,249.1,723.5z"/>
		<path fill="#FCB813" d="M247.7,721.8c0.8,0.1,1.4-0.4,1.4-1.1c0-0.8-0.6-1.5-1.4-1.7c-0.8-0.1-1.4,0.4-1.4,1.1
			C246.3,720.9,247,721.7,247.7,721.8z"/>
		<path fill="#FCB813" d="M248,719.2c0.8,0.1,1.4-0.4,1.4-1.1c0-0.3-0.1-0.6-0.3-0.9c0.2,0.3,0.6,0.5,0.9,0.5
			c0.8,0.1,1.4-0.4,1.4-1.1c0-0.8-0.6-1.5-1.4-1.7c-0.8-0.2-1.4,0.4-1.4,1.1c0,0.3,0.1,0.6,0.3,0.9c-0.2-0.3-0.6-0.5-0.9-0.5
			c-0.8-0.1-1.4,0.4-1.4,1.1C246.6,718.3,247.2,719.1,248,719.2z"/>
		<path fill="#FCB813" d="M252.4,719.4c0.8,0.1,1.4-0.4,1.4-1.1c0-0.8-0.6-1.5-1.4-1.7c-0.8-0.1-1.4,0.4-1.4,1.1
			C251,718.5,251.7,719.3,252.4,719.4z"/>
		<path fill="#FCB813" d="M252.9,719.5c-0.8-0.1-1.4,0.4-1.4,1.1c0,0.8,0.6,1.5,1.4,1.7c0.8,0.2,1.4-0.4,1.4-1.1
			C254.3,720.4,253.6,719.7,252.9,719.5z"/>
		<path fill="#FCB813" d="M249,721.6c0,0.8,0.6,1.5,1.4,1.7c0.8,0.1,1.4-0.4,1.4-1.1c0-0.8-0.6-1.5-1.4-1.7
			C249.6,720.4,249,720.8,249,721.6z"/>
		<path fill="#FCB813" d="M260.6,717.4c-0.8-0.1-1.4,0.4-1.4,1.1c0,0.8,0.6,1.5,1.4,1.7c0.8,0.2,1.4-0.4,1.4-1.1
			C261.9,718.3,261.3,717.6,260.6,717.4z"/>
		<path fill="#FCB813" d="M265,718.4c-0.8-0.1-1.4,0.3-1.4,1.1c0,0.7,0.6,1.5,1.4,1.6c0.8,0.1,1.4-0.3,1.4-1.1
			C266.3,719.2,265.7,718.5,265,718.4z"/>
		<path fill="#FCB813" d="M265,721c-0.8-0.1-1.4,0.3-1.4,1.1c0,0.7,0.6,1.5,1.4,1.6c0.8,0.1,1.4-0.3,1.4-1.1
			C266.3,721.8,265.7,721.1,265,721z"/>
		<path fill="#FCB813" d="M265,723.7c-0.8-0.1-1.4,0.3-1.4,1.1c0,0.7,0.6,1.5,1.4,1.6c0.8,0.1,1.4-0.3,1.4-1.1
			C266.3,724.4,265.7,723.8,265,723.7z"/>
		<path fill="#FCB813" d="M266.3,727.8c0-0.7-0.6-1.5-1.4-1.6c-0.8-0.1-1.4,0.3-1.4,1.1c0,0.7,0.6,1.4,1.3,1.6
			c-0.7-0.1-1.3,0.4-1.3,1.1c0,0.7,0.6,1.5,1.4,1.6c0.8,0.1,1.4-0.3,1.4-1.1c0-0.7-0.6-1.4-1.3-1.6
			C265.8,729,266.3,728.5,266.3,727.8z"/>
		<path fill="#FCB813" d="M267.8,718.8c-0.8-0.1-1.4,0.4-1.4,1.1c0,0.8,0.6,1.5,1.4,1.7c0.8,0.1,1.4-0.4,1.4-1.1
			C269.2,719.7,268.6,719,267.8,718.8z"/>
		<path fill="#FCB813" d="M320.3,728.8c-0.8-0.1-1.4,0.3-1.4,1.1s0.6,1.5,1.4,1.6c0.8,0.1,1.4-0.3,1.4-1.1
			C321.6,729.7,320.9,729,320.3,728.8z"/>
		<path fill="#FCB813" d="M320.3,731.4c-0.8-0.1-1.4,0.3-1.4,1.1c0,0.7,0.6,1.5,1.4,1.6c0.8,0.1,1.4-0.3,1.4-1.1
			C321.6,732.3,320.9,731.6,320.3,731.4z"/>
		<path fill="#FCB813" d="M320.3,734.1c-0.8-0.1-1.4,0.3-1.4,1.1c0,0.7,0.6,1.5,1.4,1.6c0.8,0.1,1.4-0.3,1.4-1.1
			C321.6,734.9,320.9,734.2,320.3,734.1z"/>
		<path fill="#FCB813" d="M321.6,738.2c0-0.7-0.6-1.5-1.4-1.6c-0.8-0.1-1.4,0.3-1.4,1.1c0,0.7,0.6,1.4,1.3,1.6
			c-0.7-0.1-1.3,0.4-1.3,1.1c0,0.7,0.6,1.5,1.4,1.6c0.8,0.1,1.4-0.3,1.4-1.1c0-0.7-0.6-1.4-1.3-1.6
			C321,739.4,321.6,738.9,321.6,738.2z"/>
		<path fill="#FCB813" d="M323.1,729.3c-0.8-0.1-1.4,0.4-1.4,1.1c0,0.8,0.6,1.5,1.4,1.7c0.8,0.1,1.4-0.4,1.4-1.1
			C324.4,730.2,323.8,729.4,323.1,729.3z"/>
	</g>
	<path display="inline" fill="#262626" d="M194.3,679.2c-7,27.8-11.9,66.9-11.9,66.9s69.5,13.5,74,14.1c4.5,0.8,17.5-4.7,18.5-5.5
		c2-1.1,5.8-2,9.1-1.3c3.1,0.8,5.3,3.8,6.3,5.5c0.5,1,4.7,8.3,9.8,9.7c5.3,1.5,84.6,16.3,84.6,16.3c2.8-23.3,13.8-68.4,13.8-68.4
		L194.3,679.2z M373.9,734.7l-3.3,22.6c-0.7,5.8-6.4,9.7-12.4,8.5L208,737.2c-6-1.1-10.3-7-9.5-12.8l3.3-21.5
		c1-5.8,6.4-9.7,12.4-8.6l150.2,27.5C370.4,723,374.5,728.8,373.9,734.7z"/>
	<path display="inline" fill="#4C4C4C" d="M213.4,733c-4-0.8-7-4.7-6.3-8.6l2.9-19.8c0.4-2.9,2.8-5.1,5.5-5.6l-1-0.2
		c-4-0.8-7.9,1.8-8.4,5.6l-2.9,19.8c-0.5,3.8,2.1,7.7,6.3,8.6l147.9,28.5c1,0.2,1.8,0.2,2.8,0L213.4,733z"/>
</g>
</svg>
