<?xml version="1.0" encoding="utf-8"?>
<!-- Generator: Adobe Illustrator 18.1.1, SVG Export Plug-In . SVG Version: 6.00 Build 0)  -->
<svg version="1.1" xmlns="http://www.w3.org/2000/svg" xmlns:xlink="http://www.w3.org/1999/xlink" x="0px" y="0px"
	 viewBox="0 0 1280 800" enable-background="new 0 0 1280 800" xml:space="preserve">
<g id="Layer_15" display="none">
	<rect display="inline" fill="#E5E5E5" stroke="#000000" stroke-miterlimit="10" width="1280" height="800"/>
</g>
<g id="_x31_1_Background_LAyer" display="none">
	<path display="inline" fill="#4C4C4C" d="M1328.6-45.4c-129-87-555.8-97.1-699-101c-222-6-570-4.5-570-4.5v57.5
		c0,0,46.7,0.3,116.7,1.5c9.3,25.1,9.3,73.5,9.3,73.5l-33,13.5l21,1.5l3,21c96,0,429,34.5,429,34.5l25.5-18l30,4.5l3,36
		c103.6,12,234.3,59.2,262.8,69.8L-321.4,809.6v190.5h598.5c0,0,920.6-705.8,966-741C1363.1,166.1,1414.5,12.6,1328.6-45.4z"/>
	<path display="inline" fill="#4C4C4C" d="M1419.4-29c-129-87-555.8-97.1-699-101c-222-6-570-4.5-570-4.5V-77
		c0,0,46.7,0.3,116.7,1.5c9.3,25.1,9.3,73.5,9.3,73.5l-33,13.5l21,1.5l3,21c96,0,429,34.5,429,34.5l25.5-18l30,4.5l3,36
		c103.6,12,234.3,59.2,262.8,69.8L-230.5,825.9v190.5H368c0,0,920.6-705.8,966-741C1453.9,182.5,1505.3,28.9,1419.4-29z"/>
	<path display="inline" fill="#E5E5E5" d="M653.6,23.6L244.1-6.9v-14.5h-33c0-40.1,1.8-61.9,2.6-69.9c130.1,2.4,315.1,7.3,443.1,17
		c5.8,29.1,5.8,96.4,5.8,96.4L653.6,23.6z"/>
	<path display="inline" fill="#E5E5E5" d="M1011.6,98.6l-292-55.5v-30l-19.5-3l-1.4-80.9c208.9,20.1,470.9,83.9,470.9,83.9
		L1011.6,98.6z"/>
</g>
<g id="_x31_0_Bottom_Layer__x28_Body_x29_">
	<path fill="#FFFFFF" stroke="#000000" stroke-width="0.7789" stroke-miterlimit="10" d="M306.2,485.8l-176.5-26.5
		c-22.8,58.7-10.9,176.1-10.9,176.1l169.8,30.1C288.5,665.5,284.9,553.8,306.2,485.8z"/>
	<path fill="#FFFFFF" stroke="#000000" stroke-width="0.7789" stroke-miterlimit="10" d="M402.8,629.1l-8.8-151.6
		c-47.8,11.9-77.9,42.1-77.9,184.3L402.8,629.1z"/>
	<path fill="#FFFFFF" stroke="#000000" stroke-width="0.7789" stroke-miterlimit="10" d="M196.1,672.7c-62.3-14-77.4-37.3-77.4-37.3
		l169.8,30.1C288.5,665.5,248.7,684.6,196.1,672.7z"/>
	<g>
		<path fill="#CCCCCC" d="M699.5,136.7l41.4-19l-6,22.6l20.6-10.5l8.8,0.9l6.6-17.9l5.3-2.3l9-18.3l45.7-21.2
			c3.9-7.3,6.5-10.9,18.6-17.4s339.1-168.7,339.1-168.7c1.5-0.6,7.6-3.1,19.6-2.3c132.4,8.7,119.2,7.4,132.4,8.7
			c16.1,1.6,18.2,18.7,23.9,46.7c5.7,28,7.8,86.7,7.8,86.7l-3.1,58.2l3.6,3.1l-0.5,15.1l-8.5,12.6l-3.3,46.9l-337,226.7l-0.6-17
			l0.2-24.1l-14,8.8l-0.4,9.2l-17.1,10.5l-31.7,20.8l-20.1,11.5l-1.1-5.2l-12.5,7.8l-4,45.9L612.9,663.6l-5.4-22.2l-0.8-27.7
			l-34.8,21l0.8,9.1l-24.1,13.6l-1.6-7.6l-21.8,14.1l-8.9-1v6.5l-15.6,10.2v-6.6l-29.7,19.7l0.1,21.4c0,0-47.3,24.4-101,50.8
			c-14.8,7.3-57,17-88.7,17c-80.7,0-129.3-28.5-148-41.3c-3.2-2.2-12.7-5-13.2-8.2c-1.2-7-2.5-9.2-2.9-13.4c-0.3-4,0.4-7.6,4.4-11.7
			c0,0-15.8-88.4-11-181.5c4.8-93.1,49.2-139,68.7-148.7c27.5-13.6,520.3-256.2,520.3-256.2l4,1.6
			C703.8,122.4,699.4,127,699.5,136.7z"/>
	</g>
</g>
<g id="Side_Panel_Far_1_">
	<g id="Door_copy">
	</g>
	<g id="Window_copy">
	</g>
	<g>
		<g>
			<polygon id="Panel_4_" fill="#7A7A7A" points="153.8,681.3 161.3,682.7 732.4,348.8 727.1,149.1 715.3,147.8 136.1,444 			"/>
			<polygon id="Panel_5_" fill="#4C4C4C" points="161.3,682.7 732.4,348.8 727.1,149.1 144.9,445 			"/>
			<polygon id="Panel_3_" fill="#E5E5E5" points="136.1,444 715.3,147.8 727.1,149.1 144.5,445.2 			"/>
		</g>
		<path fill="#7A7A7A" d="M658.5,183.8l81.2-41.8l5.6-23.2L740,118l-40.5,18.7c0-10.1,4.3-14.3,4.3-14.3l-4-1.6l-521,256.6
			c0,0-39.2,43.8-39.2,67l4.8,0.7L658.5,183.8z"/>
		<path fill="#7A7A7A" d="M178.8,377.3c0,0-39.2,19.9-39.2,67l4.8,0.7c0,0,2-45.8,40.8-67L178.8,377.3z"/>
		<path fill="#FFFFFF" stroke="#000000" stroke-width="0.7789" stroke-miterlimit="10" d="M139.7,443.4"/>
		<polygon fill="#CCCCCC" points="178.8,377.3 185.3,378 703.8,122.4 699.8,120.7 		"/>
		<polygon fill="#E5E5E5" points="699.4,139.8 746.1,118.7 740.7,117.9 699.5,136.7 		"/>
	</g>
</g>
<g id="Seats">
</g>
<g id="Roof">
	<polygon fill="#E5E5E5" points="765,125.2 935.3,147.3 935.3,158.2 428.8,437.2 237.7,402.7 237.7,391.8 	"/>
	<polygon fill="#262626" points="765,125.2 935.3,147.3 428.8,426.3 237.7,391.8 	"/>
	<polygon fill="#B2B2B2" points="428.8,426.3 428.8,437.2 237.7,402.7 237.7,391.8 	"/>
	<g>
		<g>
			<g>
				<g>
					<polygon fill="#B2B2B2" points="767,127 244.5,388.4 253.4,390.3 774.1,127.8 					"/>
					<polygon fill="#B2B2B2" points="778.2,128.3 256.9,390.7 265.8,392.6 785.3,129.1 					"/>
					<polygon fill="#B2B2B2" points="789.4,129.6 269.2,392.9 278.2,394.9 796.5,130.4 					"/>
					<polygon fill="#B2B2B2" points="800.6,131 281.7,395.2 290.6,397.2 807.7,131.8 					"/>
					<polygon fill="#B2B2B2" points="811.9,132.3 294.1,397.5 303.1,399.5 819,133.1 					"/>
					<polygon fill="#B2B2B2" points="823.1,133.7 306.5,399.8 315.5,401.8 830.2,134.5 					"/>
					<polygon fill="#B2B2B2" points="834.4,135.1 319,402.2 328,404.1 841.5,135.9 					"/>
					<polygon fill="#B2B2B2" points="845.7,136.5 331.5,404.5 340.5,406.5 852.8,137.3 					"/>
					<polygon fill="#B2B2B2" points="857,137.9 344,406.9 353,408.9 864.1,138.7 					"/>
					<polygon fill="#B2B2B2" points="868.3,139.3 356.5,409.2 365.6,411.2 875.4,140.1 					"/>
					<polygon fill="#B2B2B2" points="879.6,140.7 369,411.6 378.1,413.6 886.8,141.6 					"/>
					<polygon fill="#B2B2B2" points="891,142.2 381.6,414 390.7,416 898.1,143 					"/>
					<polygon fill="#B2B2B2" points="902.3,143.6 394.1,416.4 403.3,418.4 909.5,144.5 					"/>
					<polygon fill="#B2B2B2" points="913.7,145.1 406.7,418.8 415.9,420.9 920.9,146 					"/>
					<polygon fill="#B2B2B2" points="925.1,146.6 419.3,421.2 428.5,423.3 932.3,147.5 					"/>
					<polygon fill="#B2B2B2" points="936.5,148.1 432,423.7 441.1,425.8 943.7,149 					"/>
				</g>
				<polygon fill="#7A7A7A" points="441.1,425.8 434.7,424.3 933,149.6 932.3,147.5 428.5,423.3 422.1,421.9 921.5,148.1 920.9,146 
					415.9,420.9 409.4,419.4 910.1,146.6 909.5,144.5 403.3,418.4 396.9,417 898.7,145.1 898.1,143 390.7,416 384.3,414.6 
					887.4,143.6 886.8,141.6 378.1,413.6 371.7,412.2 876,142.2 875.4,140.1 365.6,411.2 359.2,409.8 864.7,140.7 864.1,138.7 
					353,408.9 346.7,407.4 853.4,139.3 852.8,137.3 340.5,406.5 334.2,405.1 842.1,137.9 841.5,135.9 328,404.1 321.7,402.7 
					830.8,136.5 830.2,134.5 315.5,401.8 309.2,400.4 819.5,135.1 819,133.1 303.1,399.5 296.8,398.1 808.3,133.8 807.7,131.8 
					290.6,397.2 284.3,395.8 797,132.4 796.5,130.4 278.2,394.9 271.9,393.5 785.8,131.1 785.3,129.1 265.8,392.6 259.5,391.3 
					774.6,129.7 774.1,127.8 253.4,390.3 244.5,388.4 244.5,391.3 253.4,393.3 256.9,392.1 256.9,393.6 265.8,395.6 269.3,394.4 
					269.3,395.9 278.3,397.9 281.7,396.7 281.7,398.2 290.7,400.2 294.1,399 294.2,400.5 303.2,402.5 306.6,401.3 306.6,402.8 
					315.7,404.8 319.1,403.7 319.1,405.2 328.2,407.2 331.5,406 331.6,407.5 340.7,409.6 344.1,408.4 344.1,409.9 353.2,411.9 
					356.6,410.7 356.7,412.3 365.8,414.3 369.1,413.1 369.2,414.7 378.3,416.7 381.7,415.5 381.8,417.1 390.9,419.2 394.3,417.9 
					394.4,419.5 403.5,421.6 406.9,420.4 407,421.9 416.1,424 419.5,422.8 419.6,424.4 428.8,426.5 432.1,425.3 432.2,426.8 
					441.4,429 944.4,151.1 943.7,149 				"/>
			</g>
		</g>
	</g>
	<polygon fill="#B2B2B2" points="684.3,198.9 619.7,191.8 399.4,302 434,288.5 435.9,284.9 505.1,291.9 505.1,294.2 533.4,313.9 
		533.4,343 717.2,243.3 717.2,216.8 684.3,200.4 	"/>
	<polygon fill="#E5E5E5" points="505.1,291.9 684.3,198.9 619.7,191.8 435.9,284.9 	"/>
	<polygon fill="#CCCCCC" points="505.1,291.9 435.9,284.9 434,288.5 399.4,302 399.4,323.3 533.4,343 533.4,313.9 505.1,294.2 	"/>
	<ellipse fill="#7A7A7A" cx="487.4" cy="279.1" rx="23.9" ry="6.8"/>
	<polygon fill="#7A7A7A" points="451.1,320.4 361.9,309.3 273.1,351.6 273.2,391.7 362.3,407 451.1,359.8 	"/>
	
		<polygon fill="#7A7A7A" stroke="#B2B2B2" stroke-width="1.5578" stroke-linecap="round" stroke-linejoin="round" stroke-miterlimit="10" points="
		361.9,309.3 361.9,349.1 366,349.7 366,313.5 444.6,323 444.6,358.8 451.1,359.8 451.1,320.4 	"/>
	
		<polygon fill="#B2B2B2" stroke="#7A7A7A" stroke-width="1.5578" stroke-linecap="round" stroke-linejoin="round" stroke-miterlimit="10" points="
		439.5,358 439.5,349.1 362,389.6 362,399 	"/>
	
		<polygon fill="#B2B2B2" stroke="#7A7A7A" stroke-width="1.5578" stroke-linecap="round" stroke-linejoin="round" stroke-miterlimit="10" points="
		362.3,393 438.9,352.1 446.1,352.9 446.1,332.1 362.3,375.7 	"/>
	
		<polygon fill="#B2B2B2" stroke="#7A7A7A" stroke-width="1.5578" stroke-linecap="round" stroke-linejoin="round" stroke-miterlimit="10" points="
		362.3,375.7 446.2,332.1 446.2,322.8 362.3,366.5 	"/>
	<path fill="#7A7A7A" d="M392.9,364.7c0,0.8-0.1,1.6-0.4,1.9c0,0-0.3,0-0.4,0c-0.5,0-0.8-0.8-0.8-1.9s0.4-1.9,0.8-1.9
		c0.1,0,0.3,0,0.3,0C392.7,363.1,392.9,364,392.9,364.7z"/>
	<path fill="#7A7A7A" d="M392.9,372.5c0,0.8-0.1,1.6-0.4,1.9c0,0-0.3,0-0.4,0c-0.5,0-0.8-0.8-0.8-1.9s0.4-1.9,0.8-1.9
		c0.1,0,0.3,0,0.3,0C392.7,371,392.9,371.8,392.9,372.5z"/>
	<path fill="#7A7A7A" d="M392.9,355c0,0.8-0.1,1.6-0.4,1.9c0,0-0.3,0-0.4,0c-0.5,0-0.8-0.8-0.8-1.9s0.4-1.9,0.8-1.9
		c0.1,0,0.3,0,0.3,0C392.7,353.4,392.9,354.3,392.9,355z"/>
	<path fill="#7A7A7A" d="M408.7,356.4c0,0.8-0.1,1.6-0.4,1.8c0,0-0.3,0-0.4,0c-0.5,0-0.8-0.8-0.8-1.9c0-1,0.4-1.9,0.8-1.9
		c0.1,0,0.3,0,0.3,0C408.5,354.9,408.7,355.7,408.7,356.4z"/>
	<path fill="#7A7A7A" d="M408.7,364.2c0,0.8-0.1,1.6-0.4,1.8c0,0-0.3,0-0.4,0c-0.5,0-0.8-0.8-0.8-1.9c0-1,0.4-1.9,0.8-1.9
		c0.1,0,0.3,0,0.3,0C408.5,362.7,408.7,363.5,408.7,364.2z"/>
	<path fill="#7A7A7A" d="M408.7,346.8c0,0.8-0.1,1.6-0.4,1.8c0,0-0.3,0-0.4,0c-0.5,0-0.8-0.8-0.8-1.9c0-1,0.4-1.9,0.8-1.9
		c0.1,0,0.3,0,0.3,0C408.5,345.2,408.7,346.1,408.7,346.8z"/>
	<path fill="#7A7A7A" d="M442.3,338.8c0,0.8-0.1,1.5-0.4,1.8c0,0-0.3,0-0.4,0c-0.4,0-0.8-0.8-0.8-1.9c0-1,0.4-1.9,0.8-1.9
		c0.1,0,0.3,0,0.3,0C442.1,337.3,442.3,338.1,442.3,338.8z"/>
	<path fill="#7A7A7A" d="M442.3,346.5c0,0.8-0.1,1.5-0.4,1.8c0,0-0.3,0-0.4,0c-0.4,0-0.8-0.8-0.8-1.9s0.4-1.9,0.8-1.9
		c0.1,0,0.3,0,0.3,0C442.1,345,442.3,345.8,442.3,346.5z"/>
	<path fill="#7A7A7A" d="M442.3,329.3c0,0.8-0.1,1.5-0.4,1.8c0,0-0.3,0-0.4,0c-0.4,0-0.8-0.8-0.8-1.9c0-1,0.4-1.9,0.8-1.9
		c0.1,0,0.3,0,0.3,0C442.1,327.8,442.3,328.6,442.3,329.3z"/>
	<polygon fill="#CCCCCC" points="283.5,357.5 279.3,359.6 355.5,372.2 355.6,369.2 	"/>
	<polygon fill="#CCCCCC" points="282.6,367.4 278.4,369.5 283.8,370.3 288.2,368.3 	"/>
	<polygon fill="#CCCCCC" points="348.8,376.8 344.6,378.8 350,379.7 354.4,377.6 	"/>
	<polygon fill="#CCCCCC" points="297.9,381.7 286.9,387.2 289.7,387.6 300.6,382.1 	"/>
	<polygon fill="#CCCCCC" points="292.4,380.9 281.5,386.4 284.2,386.9 295.1,381.3 	"/>
	
		<polygon fill="#CCCCCC" stroke="#B2B2B2" stroke-width="1.5578" stroke-linecap="round" stroke-linejoin="round" stroke-miterlimit="10" points="
		273.1,351.6 273.2,391.7 277.5,392.3 277.5,356.4 355.6,369.2 355.6,406.1 362.3,407 362.3,366.5 	"/>
	
		<polygon fill="#E5E5E5" stroke="#B2B2B2" stroke-width="1.5578" stroke-linecap="round" stroke-linejoin="round" stroke-miterlimit="10" points="
		451.1,320.4 361.9,309.3 273.1,351.6 362.3,366.5 	"/>
	<path fill="#7A7A7A" d="M291.4,346.8l-9.8,4.9l81.5,12l9.5-4.9L291.4,346.8z M286.9,351.2l6.5-3.2l1.9,0.3l-6.5,3.2L286.9,351.2z
		 M291.4,351.9l6.5-3.2l1.9,0.3l-6.5,3.2L291.4,351.9z M296.3,352.6l6.5-3.2l1.9,0.3l-6.5,3.2L296.3,352.6z M300.5,353.3l6.5-3.2
		l1.9,0.3l-6.5,3.2L300.5,353.3z M305.1,353.8l6.5-3.2l1.9,0.3l-6.5,3.2L305.1,353.8z M309.7,354.6l6.5-3.2l1.9,0.3l-6.5,3.2
		L309.7,354.6z M314.2,355.2l6.5-3.2l1.9,0.3l-6.5,3.2L314.2,355.2z M318.8,355.8l6.5-3.2l1.9,0.3l-6.5,3.2L318.8,355.8z
		 M323.2,356.5l6.5-3.2l1.9,0.3l-6.5,3.2L323.2,356.5z M328,357.2l6.5-3.2l1.9,0.3l-6.5,3.2L328,357.2z M332.2,357.9l6.5-3.2
		l1.9,0.3l-6.5,3.2L332.2,357.9z M337,358.5l6.5-3.2l1.9,0.3l-6.5,3.2L337,358.5z M341.2,359.2l6.5-3.2l1.9,0.3l-6.5,3.2
		L341.2,359.2z M345.8,359.9l6.5-3.2l1.9,0.3l-6.5,3.2L345.8,359.9z M350.7,360.6l6.5-3.2l1.9,0.3l-6.5,3.2L350.7,360.6z
		 M354.9,361.2l6.5-3.2l1.9,0.3l-6.5,3.2L354.9,361.2z M361.3,362.2l-1.9-0.3l6.5-3.2l1.9,0.3L361.3,362.2z"/>
	<path fill="#7A7A7A" d="M305.5,339.7l-9.7,4.9l81.1,11l9.4-5L305.5,339.7z M301.1,344.2l6.4-3.3l1.9,0.3l-6.4,3.3L301.1,344.2z
		 M305.5,344.8l6.4-3.3l1.9,0.3l-6.4,3.3L305.5,344.8z M310.4,345.4l6.4-3.3l1.9,0.3l-6.4,3.3L310.4,345.4z M314.6,346.1l6.4-3.3
		l1.9,0.3l-6.4,3.3L314.6,346.1z M319.2,346.6l6.4-3.3l1.9,0.3l-6.4,3.3L319.2,346.6z M323.8,347.2l6.4-3.3l1.9,0.3l-6.4,3.3
		L323.8,347.2z M328.2,347.8l6.4-3.3l1.9,0.3l-6.4,3.3L328.2,347.8z M332.8,348.4l6.4-3.3l1.9,0.3l-6.4,3.3L332.8,348.4z
		 M337.2,349.1l6.4-3.3l1.9,0.3l-6.4,3.3L337.2,349.1z M342,349.7l6.4-3.3l1.9,0.3l-6.4,3.3L342,349.7z M346.1,350.3l6.4-3.3
		l1.9,0.3l-6.4,3.3L346.1,350.3z M351,350.9l6.4-3.3l1.9,0.3l-6.4,3.3L351,350.9z M355.1,351.5l6.4-3.3l1.9,0.3l-6.4,3.3
		L355.1,351.5z M359.7,352.1l6.4-3.3l1.9,0.3l-6.4,3.3L359.7,352.1z M364.5,352.8l6.4-3.3l1.9,0.3l-6.4,3.3L364.5,352.8z
		 M368.8,353.4l6.4-3.3l1.9,0.3l-6.4,3.3L368.8,353.4z M375.1,354.3l-1.9-0.3l6.4-3.3l1.9,0.3L375.1,354.3z"/>
	<path fill="#7A7A7A" d="M319.6,332.7l-9.7,4.9l80.8,11l9.4-4.9L319.6,332.7z M315.1,337.1l6.4-3.3l1.9,0.3l-6.4,3.3L315.1,337.1z
		 M319.5,337.8l6.4-3.3l1.9,0.3l-6.4,3.3L319.5,337.8z M324.4,338.4l6.4-3.3l1.9,0.3l-6.4,3.3L324.4,338.4z M328.6,339l6.4-3.3
		l1.9,0.3l-6.4,3.3L328.6,339z M333.2,339.5l6.4-3.3l1.9,0.3l-6.4,3.3L333.2,339.5z M337.7,340.2l6.4-3.3l1.9,0.3l-6.4,3.3
		L337.7,340.2z M342.1,340.8l6.4-3.3l1.9,0.3L344,341L342.1,340.8z M346.8,341.3l6.4-3.3l1.9,0.3l-6.4,3.3L346.8,341.3z M351.1,342
		l6.4-3.3l1.9,0.3l-6.4,3.3L351.1,342z M355.9,342.6l6.4-3.3l1.9,0.3l-6.4,3.3L355.9,342.6z M360,343.2l6.4-3.3l1.9,0.3l-6.4,3.3
		L360,343.2z M364.8,343.8l6.4-3.3l1.9,0.3l-6.4,3.3L364.8,343.8z M369,344.5l6.4-3.3l1.9,0.3l-6.4,3.3L369,344.5z M373.5,345
		l6.4-3.3l1.9,0.3l-6.4,3.3L373.5,345z M378.3,345.7l6.4-3.3l1.9,0.3l-6.4,3.3L378.3,345.7z M382.5,346.3l6.4-3.3l1.9,0.3l-6.4,3.3
		L382.5,346.3z M388.8,347.2l-1.9-0.3l6.4-3.3l1.9,0.3L388.8,347.2z"/>
	<path fill="#7A7A7A" d="M333.6,325.6l-9.6,4.9l80.4,10.6l9.3-5L333.6,325.6z M329.2,330.1l6.4-3.3l1.9,0.3l-6.4,3.3L329.2,330.1z
		 M333.5,330.8l6.4-3.3l1.9,0.3l-6.4,3.3L333.5,330.8z M338.4,331.3l6.4-3.3l1.9,0.3l-6.4,3.3L338.4,331.3z M342.6,331.9l6.4-3.3
		l1.9,0.3l-6.4,3.3L342.6,331.9z M347.1,332.4l6.4-3.3l1.9,0.3l-6.4,3.3L347.1,332.4z M351.7,333.1l6.4-3.3l1.9,0.3l-6.4,3.3
		L351.7,333.1z M356,333.6l6.4-3.3l1.9,0.3l-6.4,3.3L356,333.6z M360.6,334.2l6.4-3.3l1.9,0.3l-6.4,3.3L360.6,334.2z M364.9,334.8
		l6.4-3.3l1.9,0.3l-6.4,3.3L364.9,334.8z M369.7,335.4l6.4-3.3l1.9,0.3l-6.4,3.3L369.7,335.4z M373.8,336l6.4-3.3l1.9,0.3l-6.4,3.3
		L373.8,336z M378.6,336.6l6.4-3.3l1.9,0.3l-6.4,3.3L378.6,336.6z M382.7,337.2l6.4-3.3l1.9,0.3l-6.4,3.3L382.7,337.2z M387.3,337.8
		l6.4-3.3l1.9,0.3l-6.4,3.3L387.3,337.8z M392,338.4l6.4-3.3l1.9,0.3l-6.4,3.3L392,338.4z M396.2,338.9l6.4-3.3l1.9,0.3l-6.4,3.3
		L396.2,338.9z M402.5,339.8l-1.9-0.3l6.4-3.3l1.9,0.3L402.5,339.8z"/>
	<path fill="#7A7A7A" d="M348,318.4l-9.6,4.9l80,10.5l9.3-4.9L348,318.4z M343.6,322.9l6.3-3.3l1.9,0.3l-6.3,3.3L343.6,322.9z
		 M348,323.5l6.3-3.3l1.9,0.3l-6.3,3.3L348,323.5z M352.8,324l6.3-3.3l1.9,0.3l-6.3,3.3L352.8,324z M357,324.7l6.3-3.3l1.9,0.3
		l-6.3,3.3L357,324.7z M361.5,325.2l6.3-3.3l1.9,0.3l-6.3,3.3L361.5,325.2z M366,325.8l6.3-3.3l1.9,0.3l-6.3,3.3L366,325.8z
		 M370.4,326.3l6.3-3.3l1.9,0.3l-6.3,3.3L370.4,326.3z M375,326.9l6.3-3.3l1.9,0.3l-6.3,3.3L375,326.9z M379.2,327.5l6.3-3.3
		l1.9,0.3l-6.3,3.3L379.2,327.5z M384,328.1l6.3-3.3l1.9,0.3l-6.3,3.3L384,328.1z M388.1,328.7l6.3-3.3l1.9,0.3L390,329L388.1,328.7
		z M392.8,329.3l6.3-3.3l1.9,0.3l-6.3,3.3L392.8,329.3z M397,329.9l6.3-3.3l1.9,0.3l-6.3,3.3L397,329.9z M401.5,330.4l6.3-3.3
		l1.9,0.3l-6.3,3.3L401.5,330.4z M406.2,331.1l6.3-3.3l1.9,0.3l-6.3,3.3L406.2,331.1z M410.4,331.6l6.3-3.3l1.9,0.3l-6.3,3.3
		L410.4,331.6z M416.6,332.5l-1.9-0.3l6.3-3.3l1.9,0.3L416.6,332.5z"/>
	<path fill="#7A7A7A" d="M361.4,311.7l-9.5,4.9l79.7,10.3l9.3-4.9L361.4,311.7z M357,316.2l6.3-3.3l1.9,0.2l-6.3,3.3L357,316.2z
		 M361.3,316.8l6.3-3.3l1.9,0.2l-6.3,3.3L361.3,316.8z M366.1,317.3l6.3-3.3l1.9,0.2l-6.3,3.3L366.1,317.3z M370.3,317.9l6.3-3.3
		l1.9,0.2l-6.3,3.3L370.3,317.9z M374.8,318.4l6.3-3.3l1.9,0.2l-6.3,3.3L374.8,318.4z M379.3,319l6.3-3.3l1.9,0.2l-6.3,3.3
		L379.3,319z M383.6,319.6l6.3-3.3l1.9,0.2l-6.3,3.3L383.6,319.6z M388.2,320.1l6.3-3.3l1.9,0.2l-6.3,3.3L388.2,320.1z M392.4,320.7
		l6.3-3.3l1.9,0.2l-6.3,3.3L392.4,320.7z M397.2,321.3l6.3-3.3l1.9,0.2l-6.3,3.3L397.2,321.3z M401.3,321.9l6.3-3.3l1.9,0.2
		l-6.3,3.3L401.3,321.9z M406,322.4l6.3-3.3l1.9,0.2l-6.3,3.3L406,322.4z M410.1,323.1l6.3-3.3l1.9,0.2l-6.3,3.3L410.1,323.1z
		 M414.6,323.6l6.3-3.3l1.9,0.2l-6.3,3.3L414.6,323.6z M419.3,324.2l6.3-3.3l1.9,0.2l-6.3,3.3L419.3,324.2z M423.5,324.8l6.3-3.3
		l1.9,0.2l-6.3,3.3L423.5,324.8z M429.7,325.6l-1.9-0.2l6.3-3.3l1.9,0.2L429.7,325.6z"/>
	<g>
		<polygon fill="#E5E5E5" points="467.1,281.9 468.9,282.5 479.9,279.9 		"/>
		<path fill="#E5E5E5" d="M509.1,279c0-0.4-0.3-0.8-0.7-1.2l-17,0.3l14.4-1.8c-0.7-0.3-1.6-0.6-2.5-0.9l-10.7,2.2l6.2-3.1
			c-1.8-0.3-3.9-0.5-6-0.7l-3.9,2.6l3-2.7c-1.5-0.1-3-0.1-4.5-0.1c-9.7,0-17.9,1.6-20.7,3.9l17.1,1c-0.1,0-0.4,0.1-0.6,0.3l-17.5,0
			c0,0.1-0.1,0.2-0.1,0.3c0,0.3,0.1,0.6,0.3,0.8l17.2-1.1c-0.2,0.3-0.2,0.6,1.1,0.8l-10.1,4c1.3,0.3,2.7,0.5,4.3,0.7l3.2-1.5
			l0.4,1.8c1.3,0.1,2.7,0.1,4.1,0.2l-0.2-2.5l1.8,2.5c3.1,0,6-0.2,8.7-0.5l-1-0.9c0,0,2.7,0.5,6,0.1c3.3-0.7,5.8-1.7,6.9-2.9
			c-9.2-0.6-16-1.1-16-1.1L509.1,279z M487.8,279.5c-1.8,0-3.2-0.4-3.2-0.8c0-0.5,1.5-0.8,3.2-0.8c1.8,0,3.2,0.4,3.2,0.8
			C491.1,279.1,489.6,279.5,487.8,279.5z"/>
	</g>
	<ellipse fill="#7A7A7A" cx="521.3" cy="261.8" rx="23.6" ry="6.7"/>
	<g>
		<polygon fill="#E5E5E5" points="541.7,264.6 539.9,265.2 529.1,262.6 		"/>
		<path fill="#E5E5E5" d="M516.7,262.2c0,0-6.7,0.4-15.8,1c1.1,1.1,3.5,2.1,6.8,2.8c3.3,0.4,6-0.1,6-0.1l-1,0.9
			c2.6,0.3,5.5,0.5,8.6,0.5l1.8-2.5l-0.2,2.5c1.4,0,2.8-0.1,4.1-0.2l0.4-1.8l3.1,1.4c1.5-0.2,2.9-0.4,4.2-0.7l-10-3.9
			c1.2-0.2,1.3-0.5,1.1-0.8l17,1.1c0.2-0.3,0.3-0.5,0.3-0.8c0-0.1,0-0.2-0.1-0.3l-17.3,0c-0.2-0.2-0.5-0.3-0.6-0.3l16.9-1
			c-2.8-2.2-10.9-3.8-20.4-3.8c-1.5,0-3,0-4.5,0.1l3,2.6l-3.8-2.6c-2.1,0.1-4.1,0.4-6,0.7l6.1,3.1l-10.6-2.2
			c-0.9,0.3-1.8,0.5-2.5,0.8l14.3,1.8l-16.8-0.3c-0.4,0.4-0.6,0.8-0.7,1.2L516.7,262.2z M518,261.4c0-0.5,1.4-0.8,3.2-0.8
			c1.8,0,3.2,0.4,3.2,0.8c0,0.5-1.4,0.8-3.2,0.8C519.5,262.2,518,261.8,518,261.4z"/>
	</g>
	<g>
		<polygon fill="#CCCCCC" points="513,247.9 514.7,246.4 565.9,252.5 566.1,254.2 		"/>
		<g>
			<path fill="#CCCCCC" d="M514.9,247.2l50.3,6l0,0.2l-50.4-6L514.9,247.2 M514.4,245.6l-3.2,2.9l55.7,6.6l-0.3-3.3L514.4,245.6
				L514.4,245.6z"/>
		</g>
	</g>
	<g>
		<polygon fill="#7A7A7A" points="567.1,256.1 588.8,244.9 586.2,242.4 533.5,236.3 514.4,245.6 566.6,251.8 		"/>
	</g>
	<g>
		<polygon fill="#7A7A7A" points="510,250.1 567.9,257.1 588.8,246.3 588.8,244.9 567.1,256.1 566.9,255.1 511.2,248.5 		"/>
	</g>
	<polygon fill="#CCCCCC" points="717.2,216.8 684.3,200.4 505.1,294.2 533.4,313.9 	"/>
	<polygon fill="#7A7A7A" points="537.4,311.9 555,302.5 530.3,287.3 512.7,296.4 	"/>
	<polygon fill="#7A7A7A" points="559.7,300.2 577.3,290.9 552.7,275.7 535.1,284.8 	"/>
	<polygon fill="#7A7A7A" points="580.4,289.2 598,279.9 573.4,264.7 555.8,273.8 	"/>
</g>
<g id="Side_Panel_Near">
	<g>
		<path fill="#E5E5E5" stroke="#000000" stroke-width="1.5578" stroke-miterlimit="10" d="M974.7,374.8c-0.1-2.7,0.9-5.6,2.3-6.4
			c1.4-0.8,2.7,0.7,2.9,3.4s-0.9,5.6-2.3,6.4C976.1,379,974.8,377.5,974.7,374.8z"/>
		<path fill="#B2B2B2" d="M951.8,393c-0.8-15.2,5.2-31.3,13.5-36c8.3-4.7,15.6,3.8,16.4,19c0.8,15.2-5.2,31.3-13.5,36
			S952.6,408.2,951.8,393z"/>
		<path fill="#B2B2B2" d="M968.4,378.3c-0.2-4.1,1.7-8.5,4.2-10c2.5-1.5,4.8,0.7,5,4.7s-1.7,8.5-4.2,10S968.6,382.4,968.4,378.3z"/>
		<path fill="#B2B2B2" d="M963.4,387.6c-0.5-9.4,2-18.6,5.6-20.7c3.6-2,6.9,3.9,7.4,13.2c0.5,9.4-2,18.6-5.6,20.7
			C967.2,402.9,963.9,397,963.4,387.6z"/>
		<path fill="#B2B2B2" d="M955,392.4c-0.8-15.2,5.2-31.3,13.5-36s15.6,3.8,16.4,19c0.8,15.2-5.2,31.3-13.5,36
			C963.1,416.2,955.8,407.6,955,392.4z"/>
	</g>
	<g>
		<path fill="#B2B2B2" d="M913.7,416.3c-0.8-15.2,5.2-31.3,13.5-36c8.3-4.7,15.6,3.8,16.4,19s-5.2,31.3-13.5,36
			C921.8,440,914.5,431.5,913.7,416.3z"/>
		<path fill="#B2B2B2" d="M930.3,401.6c-0.2-4.1,1.7-8.5,4.2-10c2.5-1.5,4.8,0.7,5,4.7s-1.7,8.5-4.2,10
			C932.8,407.7,930.5,405.6,930.3,401.6z"/>
		<path fill="#B2B2B2" d="M925.3,410.9c-0.5-9.4,2-18.6,5.6-20.7s6.9,3.9,7.4,13.2c0.5,9.4-2,18.6-5.6,20.7
			C929.1,426.2,925.8,420.2,925.3,410.9z"/>
		<path fill="#B2B2B2" d="M916.9,415.7c-0.8-15.2,5.2-31.3,13.5-36c8.3-4.7,15.6,3.8,16.4,19c0.8,15.2-5.2,31.3-13.5,36
			C925,439.4,917.7,430.9,916.9,415.7z"/>
	</g>
	<g>
		<path fill="#E5E5E5" stroke="#000000" stroke-width="1.8281" stroke-miterlimit="10" d="M556.5,648.3c-0.2-3.2,1.1-6.5,2.7-7.5
			c1.7-1,3.2,0.8,3.4,4c0.2,3.2-1.1,6.5-2.7,7.5C558.1,653.3,556.6,651.5,556.5,648.3z"/>
		<path fill="#B2B2B2" d="M529.6,669.8c-1-17.8,6.1-36.8,15.8-42.3s18.3,4.5,19.3,22.3c1,17.8-6.1,36.8-15.8,42.3
			S530.5,687.6,529.6,669.8z"/>
		<path fill="#B2B2B2" d="M549.1,652.5c-0.3-4.8,2-10,5-11.7c3-1.7,5.6,0.8,5.9,5.5c0.3,4.8-2,10-5,11.7
			C552,659.7,549.4,657.3,549.1,652.5z"/>
		<path fill="#B2B2B2" d="M543.2,663.4c-0.6-11,2.4-21.8,6.6-24.2s8.1,4.6,8.7,15.5c0.6,11-2.4,21.8-6.6,24.2
			S543.8,674.4,543.2,663.4z"/>
		<path fill="#B2B2B2" d="M533.3,669.1c-1-17.8,6.1-36.8,15.8-42.3s18.3,4.5,19.3,22.3c1,17.8-6.1,36.8-15.8,42.3
			C542.9,696.9,534.3,686.9,533.3,669.1z"/>
	</g>
	<g>
		<path fill="#B2B2B2" d="M484.9,697c-1-17.8,6.1-36.8,15.8-42.3S519,659.2,520,677s-6.1,36.8-15.8,42.3S485.8,714.9,484.9,697z"/>
		<path fill="#B2B2B2" d="M504.4,679.8c-0.3-4.8,2-10,5-11.7c3-1.7,5.6,0.8,5.9,5.5c0.3,4.8-2,10-5,11.7
			C507.3,687,504.7,684.5,504.4,679.8z"/>
		<path fill="#B2B2B2" d="M498.5,690.7c-0.6-11,2.4-21.8,6.6-24.2s8.1,4.6,8.7,15.5c0.6,11-2.4,21.8-6.6,24.2
			C503,708.6,499.1,701.7,498.5,690.7z"/>
		<path fill="#B2B2B2" d="M488.6,696.3c-1-17.8,6.1-36.8,15.8-42.3c9.7-5.5,18.3,4.5,19.3,22.3c1,17.8-6.1,36.8-15.8,42.3
			C498.2,724.2,489.6,714.2,488.6,696.3z"/>
	</g>
	<g id="Door">
	</g>
	<g id="Window">
	</g>
	<g>
		<polygon id="Panel_7_" fill="#4C4C4C" points="408.1,727.5 419.9,729.7 967.8,371.7 954.7,173 944.4,162.5 391.9,482.7 		"/>
		<polygon id="Panel_6_" fill="#B2B2B2" points="419.9,729.7 967.8,371.7 954.7,173 403.7,484.5 		"/>
		<polygon id="Panel_2_" fill="#CCCCCC" points="403.7,484.5 954.7,173 954.7,173 944.4,162.5 391.9,482.7 		"/>
		<path fill="#4C4C4C" d="M400.7,475.2l548.2-308l-3.2-20.7h-7.8l0,0l-8.8-11.2l-39.4,21.5c0,0-4.8-18.6-22.9-22L362.1,402.5v3.6
			c0,0,18.5,8.4,29.5,42.8l6.5,2.7l0,22.5L400.7,475.2z"/>
		<polygon fill="#7A7A7A" points="837.4,197.5 709.7,267.8 709.7,270.6 837.4,200.3 		"/>
		<polygon fill="#7A7A7A" points="849.3,193.7 934.4,146.9 933.1,144.9 849.3,191 		"/>
		<polygon fill="#7A7A7A" points="561.7,352.1 697.7,277.2 697.7,274.3 561.7,349.2 		"/>
		<polygon fill="#7A7A7A" points="549.7,355.7 406.4,434.6 406.4,437.6 549.7,358.7 		"/>
		<polygon fill="#B2B2B2" points="394.3,446.9 400.7,450.3 400.7,475.2 948.9,167.6 945.7,146.5 937.9,146.5 		"/>
		<polygon fill="#E5E5E5" points="403.7,484.5 954.7,173 948.9,167.2 400.7,475.2 		"/>
		<polygon fill="#4C4C4C" points="403.7,484.5 400.7,475.2 398.2,474.1 400.7,484 		"/>
		<path fill="#B2B2B2" d="M845.7,193.6l4.7-2.6v3.8l37.4-20.6v-3.7l6.2-3.4v3.7l32.7-18.1v-3.6l6.3-3.4v3.6l5-2.8l-8.8-11.2
			l-39.5,21.6c0,0-5.5-19.5-22.8-22.1l-44.7,23.9c16.4,13.8,20.5,34.5,22.1,39.7l1.6-1V193.6z"/>
		<path fill="#B2B2B2" d="M831.7,205.2v-3.9l6.2-3.4v3.9l4.4-2.6c-7.3-27.8-19.9-38.1-22.1-39.6l-138.6,73.6
			c13.2,8.8,22.4,35.2,24.1,41l9.1-4.5v-4.3l6.2-3.4v4.2l54.5-30.1v-4l6.2-3.4v4L831.7,205.2z"/>
		<path fill="#B2B2B2" d="M630.7,316.2v-4.5l6.2-3.4v4.5l54.5-30.2v-4.3l6.2-3.4v4.3l6.3-3.5c-10.5-31.9-22.5-40.5-24.2-41.6
			L532,312.6c14.3,7.5,23.6,29.4,25.9,44l10.5-5.9V346l6.2-3.4v4.7L630.7,316.2z"/>
		<path fill="#B2B2B2" d="M535.7,368.7V364l6.2-3.4v4.8l14.8-8.2c-9.5-36.1-26.3-43.2-26.7-43.4l-167.9,88.7
			c11.2,5.9,24.3,17.3,32.2,44.4l12.1-6.7V435l6.2-3.4v5.1l61.4-33.9v-5l6.3-3.4v4.9L535.7,368.7z"/>
		<polygon fill="#E5E5E5" points="945.7,146.5 400.7,450.3 394.3,446.9 937.9,146.5 		"/>
	</g>
	<polygon fill="#7A7A7A" points="793.9,402.5 537.4,566.3 540.8,619.7 795.1,457.6 	"/>
	<path fill="#CCCCCC" d="M792.9,451.4c-0.3,0.2-250,159.5-250,159.5c-1.4,0.9-2.9,2.9-2.6,4.8c0.2,1.9,1.4,3,3,2.4
		c0,0,248-158.8,249.6-159.9c1.7-1.1,2.7-1.9,2.7-3.8C795.7,452.5,794.4,450.5,792.9,451.4z"/>
	<path fill="#CCCCCC" d="M792.9,442.1c-0.3,0.2-250.4,159.8-250.4,159.8c-1.4,0.9-2.9,2.9-2.6,4.8c0.2,1.9,1.4,3,3,2.4
		c0,0,248.4-159.1,250.1-160.2c1.7-1.1,2.7-1.9,2.7-3.8C795.7,443.2,794.4,441.2,792.9,442.1z"/>
	<path fill="#CCCCCC" d="M792.9,432.7C792.6,432.9,542,592.9,542,592.9c-1.4,0.9-2.9,2.9-2.6,4.8c0.2,1.9,1.4,3,3,2.4
		c0,0,248.9-159.4,250.6-160.5c1.7-1.1,2.7-1.9,2.7-3.8C795.7,433.8,794.4,431.8,792.9,432.7z"/>
	<path fill="#CCCCCC" d="M792.9,423.4c-0.3,0.2-251.4,160.5-251.4,160.5c-1.4,0.9-2.9,2.9-2.6,4.8c0.2,1.9,1.4,3,3,2.4
		c0,0,249.4-159.7,251-160.8c1.7-1.1,2.7-1.9,2.7-3.8C795.7,424.5,794.4,422.5,792.9,423.4z"/>
	<path fill="#CCCCCC" d="M743.9,320.5c0-2.8-2.3-6.1-5-4.4l-75.1,43.2c-2.8,1.7-5,5.4-5,8.1l6.1,94.5c0,2.8,2.7,6.4,5.5,4.7
		l74.6-45.5c2.8-1.7,5-5.4,5-8.1L743.9,320.5z M742.7,417.8L672,461.9c-2.3,1.6-4.2,0.8-4.2-1.8l-5.7-90.9c0-2.5,1.9-5.9,4.2-7.4
		l70.8-40.6c2.3-1.6,4.2-0.8,4.2,1.8l5.5,87.4C746.9,412.9,745,416.2,742.7,417.8z"/>
	<path fill="#CCCCCC" d="M792.9,414c-0.3,0.2-251.8,160.8-251.8,160.8c-1.4,0.9-2.9,2.9-2.6,4.8c0.2,1.9,1.4,3,3,2.4
		c0,0,249.8-160.1,251.5-161.2c1.7-1.1,2.7-1.9,2.7-3.8C795.7,415.2,794.4,413.1,792.9,414z"/>
	<path fill="#CCCCCC" d="M792.9,404.7c-0.3,0.2-252.3,161.1-252.3,161.1c-1.4,0.9-2.9,2.9-2.6,4.8c0.2,1.9,1.4,3,3,2.4
		c0,0,250.3-160.4,252-161.5c1.7-1.1,2.7-1.9,2.7-3.8C795.7,405.8,794.4,403.8,792.9,404.7z"/>
	<polygon fill="#7A7A7A" points="963.2,299.9 848.4,371 851.8,424.5 966.6,353.6 	"/>
	<path fill="#CCCCCC" d="M966,346.4c-12.5,7.7,1.7-1.1-112,69.2c-1.4,0.9-2.9,2.9-2.6,4.8c0.2,1.9,1.4,3,3,2.4
		c0,0,110-68.5,111.7-69.6c1.7-1.1,2.7-1.9,2.7-3.8C968.7,347.5,967.4,345.5,966,346.4z"/>
	<path fill="#CCCCCC" d="M965.3,337.6c-0.3,0.2-111.8,69-111.8,69c-1.4,0.9-2.9,2.9-2.6,4.8c0.2,1.9,1.4,3,3,2.4
		c0,0,109.8-68.2,111.5-69.3c1.7-1.1,2.7-1.9,2.7-3.8C968,338.7,966.7,336.7,965.3,337.6z"/>
	<path fill="#CCCCCC" d="M965.3,328.3C965,328.4,853,397.6,853,397.6c-1.4,0.9-2.9,2.9-2.6,4.8c0.2,1.9,1.4,3,3,2.4
		c0,0,110.3-68.6,112-69.7c1.7-1.1,2.7-1.9,2.7-3.8C968,329.4,966.7,327.4,965.3,328.3z"/>
	<path fill="#CCCCCC" d="M964.2,319.5c-0.3,0.2-111.7,69.1-111.7,69.1c-1.4,0.9-2.9,2.9-2.6,4.8c0.2,1.9,1.4,3,3,2.4
		c0,0,109.7-68.3,111.3-69.4c1.7-1.1,2.7-1.9,2.7-3.8C967,320.6,965.7,318.6,964.2,319.5z"/>
	<path fill="#CCCCCC" d="M963.5,310.7c-0.3,0.2-111.4,68.8-111.4,68.8c-1.4,0.9-2.9,2.9-2.6,4.8c0.2,1.9,1.4,3,3,2.4
		c0,0,109.4-68.1,111.1-69.2c1.7-1.1,2.7-1.9,2.7-3.8C966.2,311.8,965,309.8,963.5,310.7z"/>
	<path fill="#CCCCCC" d="M963.1,301.5c-0.3,0.2-111.5,69-111.5,69c-1.4,0.9-2.9,2.9-2.6,4.8c0.2,1.9,1.4,3,3,2.4
		c0,0,109.5-68.3,111.1-69.4c1.7-1.1,2.7-1.9,2.7-3.8C965.8,302.6,964.6,300.6,963.1,301.5z"/>
	<path fill="#262626" d="M745.6,318.4c0-2.7-2.2-6-4.9-4.3l-73.9,42.5c-2.7,1.7-4.9,5.3-4.9,8l6,93c0,2.7,2.7,6.3,5.4,4.6l73.5-44.8
		c2.7-1.7,4.9-5.3,4.9-8L745.6,318.4z M744.5,414l-69.5,43.5c-2.3,1.5-4.1,0.7-4.1-1.7l-5.6-89.4c0-2.5,1.8-5.8,4.1-7.3l69.7-40
		c2.3-1.5,4.1-0.7,4.1,1.7l5.4,85.9C748.6,409.2,746.7,412.5,744.5,414z"/>
	<path fill="#CCCCCC" d="M648.6,375.3c0-2.8-2.3-6.1-5-4.4l-75.1,43.2c-2.8,1.7-5,5.4-5,8.1l6.2,98.5c0,2.8,2.7,6.4,5.5,4.7l74.5-46
		c2.8-1.7,5-5.4,5-8.1L648.6,375.3z M647.4,476.1l-70.5,44.7c-2.3,1.6-4.2,0.8-4.2-1.8l-5.8-94.9c0-2.5,1.9-5.9,4.2-7.4l70.8-40.6
		c2.3-1.6,4.2-0.8,4.2,1.8l5.5,90.9C651.6,471.2,649.7,474.5,647.4,476.1z"/>
	<path fill="#262626" d="M650.4,373.2c0-2.7-2.2-6-4.9-4.3l-73.9,42.5c-2.7,1.7-4.9,5.3-4.9,8l6.1,97c0,2.7,2.7,6.3,5.4,4.6
		l73.3-45.3c2.7-1.7,4.9-5.3,4.9-8L650.4,373.2z M649.2,472.3L579.8,515c-2.3,1.5-4.1,0.7-4.1-1.7l-5.7-92.1c0-2.5,1.8-5.8,4.1-7.3
		l69.7-40c2.3-1.5,4.1-0.7,4.1,1.7l5.4,89.4C653.3,467.5,651.5,470.8,649.2,472.3z"/>
	<path fill="#B2B2B2" d="M1268.8,18.1c0-2.2-1.8-4.9-4-3.5l-42,23.9c-2.2,1.4-4,4.3-4,6.5l4.9,75.5c0,2.2,2.2,5.1,4.4,3.8l41.6-25.7
		c2.2-1.4,4-4.3,4-6.5L1268.8,18.1z M1267.9,95.8l-38.4,24.6c-1.8,1.2-3.3,0.6-3.3-1.4l-4.6-72.6c0-2,1.5-4.7,3.3-5.9l38.6-21.8
		c1.8-1.2,3.3-0.6,3.3,1.4l4.4,69.8C1271.2,91.9,1269.7,94.5,1267.9,95.8z"/>
	<path fill="#B2B2B2" d="M1270.3,16.4c0-2.2-1.8-4.8-3.9-3.5l-41,23.3c-2.2,1.3-3.9,4.2-3.9,6.4l4.8,74.3c0,2.2,2.1,5.1,4.3,3.7
		l40.7-25.1c2.2-1.3,3.9-4.2,3.9-6.4L1270.3,16.4z M1269.3,92.8l-37.6,24.1c-1.8,1.2-3.3,0.6-3.3-1.4l-4.5-71.4c0-2,1.5-4.6,3.3-5.8
		L1265,17c1.8-1.2,3.3-0.6,3.3,1.4l4.3,68.6C1272.6,89,1271.1,91.6,1269.3,92.8z"/>
	<path fill="#B2B2B2" d="M1208.3,52.5c0-2.2-1.8-4.9-4-3.5l-43.7,25.3c-2.2,1.4-4,4.3-4,6.5l5,78.7c0,2.2,2.2,5.1,4.4,3.8l43.3-27.6
		c2.2-1.4,4-4.3,4-6.5L1208.3,52.5z M1207.4,133l-40.1,26.5c-1.8,1.2-3.3,0.6-3.3-1.4l-4.7-75.8c0-2,1.5-4.7,3.3-5.9l40.3-23.3
		c1.8-1.2,3.3-0.6,3.3,1.4l4.4,72.6C1210.7,129.1,1209.2,131.8,1207.4,133z"/>
	<path fill="#B2B2B2" d="M1209.8,50.8c0-2.2-1.8-4.8-3.9-3.5l-42.8,24.8c-2.2,1.3-3.9,4.2-3.9,6.4l4.9,77.5c0,2.2,2.1,5.1,4.3,3.7
		l42.3-27c2.2-1.3,3.9-4.2,3.9-6.4L1209.8,50.8z M1208.8,130l-39.2,24.9c-1.8,1.2-3.3,0.6-3.3-1.4l-4.6-73.6c0-2,1.5-4.6,3.3-5.8
		l39.4-22.8c1.8-1.2,3.3-0.6,3.3,1.4l4.3,71.4C1212.1,126.2,1210.7,128.8,1208.8,130z"/>
	<polygon fill="#B2B2B2" points="709.3,548.8 709.1,597.4 612.9,663.6 607.5,641.4 606.9,615.8 	"/>
	<polygon fill="#B2B2B2" points="819,477.1 821.6,523.4 713.8,594.8 712.4,546.8 	"/>
	<polygon fill="#B2B2B2" points="926.7,406.7 924.2,441.1 922.2,455.4 825.3,520.8 821.6,475.4 	"/>
	<polygon fill="#F6E8A2" points="938.7,401 968.2,381.7 969.1,389.5 939.7,406.9 	"/>
	<polygon fill="#F6E8A2" points="547,649.7 572.2,634.6 573,642.5 548.5,657.3 	"/>
	<polyline fill="#CCCCCC" points="1008.6,364.1 969.1,389.5 968.7,349.5 1008.6,328.1 1008.6,364.1 	"/>
</g>
<g id="Top_Flap_Near">
</g>
<g id="Air_Conditioning_Unit">
</g>
<g id="exploding_x5F_roof">
	<path fill="#CCCCCC" d="M912.1,322L887,336.4c-2.5,1.5-5.1-2-5.1-4.6l-5.8-91.1c0-2.5,2.1-5.8,4.6-7.3l25.2-14.6
		c2.5-1.5,4.6,1.7,4.6,4.3l6.2,91.5C916.7,317.2,914.7,320.5,912.1,322z"/>
	<path fill="#262626" d="M912.8,222.4c0-2.5-2.1-5.7-4.6-4.3L883,232.7c-2.5,1.5-4.6,4.7-4.6,7.3l5.8,91.1c0,2.5,2.5,6.1,5.1,4.6
		l25.1-14.5c2.5-1.5,4.6-4.7,4.6-7.3L912.8,222.4z M912.4,318.3l-21.5,13c-2.1,1.3-3.9,0.5-3.9-1.8l-5.5-87.7c0-2.3,1.7-5.3,3.9-6.7
		l21.2-12.3c2.1-1.3,3.9-0.5,3.9,1.8l5.7,87C916.2,314,914.5,317,912.4,318.3z"/>
	<path fill="#CCCCCC" d="M1050.6,236.6l-23.7,13.7c-2.4,1.4-4.8-1.9-4.8-4.3l-5.5-86c0-2.4,2-5.5,4.4-6.9l23.8-13.8
		c2.4-1.4,4.4,1.6,4.4,4l5.9,86.3C1055,232.1,1053,235.2,1050.6,236.6z"/>
	<path fill="#B2B2B2" d="M1051.3,142.6c0-2.4-2-5.4-4.4-4l-23.8,13.8c-2.4,1.4-4.4,4.5-4.4,6.9l5.5,86c0,2.4,2.4,5.7,4.8,4.3
		l23.7-13.7c2.4-1.4,4.4-4.5,4.4-6.9L1051.3,142.6z M1050.9,233.2l-20.3,12.3c-2,1.3-3.6,0.5-3.6-1.7l-5.2-82.8c0-2.2,1.6-5,3.6-6.3
		l20.1-11.7c2-1.3,3.6-0.5,3.6,1.7l5.4,82.2C1054.5,229.1,1052.9,231.9,1050.9,233.2z"/>
	<path fill="#B2B2B2" d="M453.2,469.4c0,0,49.9-28.5,52.7-29.9s9.7-0.2,9.7,9.5c0,9.3,10.9,197,10.9,197l-69.1,44.5
		c0,0-12.5-188.8-13.1-199.3C443.4,474,453.2,469.4,453.2,469.4z"/>
	<path fill="#E5E5E5" d="M458.1,672.6c0,0,49.6-31.3,52.7-33.7c3.1-2.3,8.6-4.3,7.4-15.2s-12.3-184.3-12.3-184.3
		c1.7-0.9,9.7-1.2,9.7,9.5c0,9.6,7.1,131.9,9.8,178c1,16.4-3.9,21.7-9.4,24.9c-4.4,2.6-51.5,32.8-51.5,32.8s1.2-4.7,1.4-5.5
		c0.2-0.8,0.4-3-1.4-3.8C463,674.7,458.1,672.6,458.1,672.6z"/>
	<polygon fill="#262626" points="482.8,656.8 485.6,654.9 472.6,458.3 469.8,459.9 	"/>
	<path fill="#CCCCCC" d="M464.4,585.5c5.1-2.7,9.4-9.2,8.8-19c-1.6-24.1-6.6-100-6.6-100c0-1.7-0.5-3.2-1.4-4
		c-6.4,3.6-12.1,6.9-12.1,6.9s-9.8,4.6-8.8,21.8c0.3,5.3,3.6,52.8,6.6,101.8L464.4,585.5z"/>
	<path fill="#CCCCCC" d="M501.4,561.9c5.1-2.7,6.2-12.3,5.8-19l-6.4-96.3c0-1.7-0.3-2.9-1.2-3.8c-6.4,3.6-6.7,3.8-11.8,6.7
		c-5.4,3.1-11.7,5.8-11,16c0.3,4.5,3.2,49.7,6.1,92.4c0.5,7,4.5,9.2,9,7.7C495.1,564.7,501.4,561.9,501.4,561.9z"/>
	<path fill="#262626" d="M505.5,539.5l-5.9-90.9c-0.2-2.2-1.4-3.6-2.9-4.1c0,0-2.1,1.2-3.1,1.8l-8.1,4.6c-2.6,1.5-9.3,5.2-8.8,13.7
		c0.3,5.7,6.1,92.3,6.1,92.3c0.5,10.2,5.9,10,8.9,8.9c1.9-0.8,6.9-4,6.9-4C505.3,557.9,506.1,548.6,505.5,539.5z M496.8,452.8
		c0,0,5.7,85.5,6.1,92.3c0.4,6.7-1.2,10.4-3.8,11.9c-1,0.6-6.8,4.1-8.6,5.1c-2.2,1.2-3.9-1-4.2-5.5c-0.3-4.4-6-93.9-6-93.9
		c-0.4-6,2.7-10.6,5.2-12c2.6-1.4,5.8-3.3,7.6-4.3C494.8,445.6,496.8,446.9,496.8,452.8z"/>
	<g>
		<path fill="#262626" d="M471.3,563.3L465,470c-0.1-2.6-2.3-6.1-4.4-4.8c0,0-2.5,1.4-6.2,3.5c1-0.5,2.5-1.4,4.4-2.4
			c1.6,0.7,3.2,2.4,3.3,5c0.2,3.9,5.5,82.9,6.1,92.5c0.6,9.7-4.8,15-6.4,16c-1.7,1-4.7,2.8-6.4,3.8c-2.4,1.5-3.9,0.6-5-0.1
			c-2.3-39.1-5.1-75.3-5.8-87.9c0.7,13.3,3.6,52,6.1,93.1c2.1,0.2,3.8,0.1,5.2-0.7l5.9-3.6C468.4,580.2,471.8,572.4,471.3,563.3z"/>
		<path fill="#262626" d="M444.4,491.2c0-0.8,0-1.4-0.1-2.1C444.3,489.8,444.3,490.5,444.4,491.2z"/>
	</g>
	<path fill="#7A7A7A" d="M523.3,548.5l9.4-5.8c3.8,61.8,3.8,61.5,3.9,63.8c0.1,1.4-0.3,2.8-1.9,3.8c-1.6,0.9-7.4,4.7-7.4,4.7
		L523.3,548.5z"/>
	<path fill="#4C4C4C" d="M530.8,607.7c-0.6,0.4-3.2,1.9-3.6,2.2l0.3,5c0,0,5.9-3.8,7.4-4.7c1.6-0.9,1.9-2.4,1.9-3.8
		c0-1.4-3.9-63.8-3.9-63.8l-4.3,2.7c0.6,9.5,3.5,58.1,3.5,59.3C532,606.1,531.4,607.3,530.8,607.7z"/>
	<polygon fill="none" stroke="#FFFFFF" stroke-width="1.5578" stroke-miterlimit="10" points="442.4,462.6 527.4,414.5 541.9,636 
		457.4,690.5 	"/>
	<path fill="#B2B2B2" d="M796.8,273c0,0,34.5-19.4,36.9-20.6c2.5-1.2,8.6-0.2,8.6,8.4c0,8.3,9.7,174.6,9.7,174.6L800.6,469
		c0,0-11.1-167.3-11.6-176.6C788.2,277.2,796.8,273,796.8,273z"/>
	<path fill="#E5E5E5" d="M801.2,453.1c0,0,34.2-21.9,36.9-24c2.8-2.1,7.6-3.8,6.6-13.5c-1-9.7-10.9-163.3-10.9-163.3
		c1.5-0.8,8.6-1,8.6,8.4c0,8.5,6.3,116.9,8.7,157.7c0.9,14.5-3.5,19.2-8.3,22.1c-3.9,2.3-35.9,23.2-35.9,23.2s1.1-4.2,1.2-4.9
		c0.2-0.7,0.4-2.7-1.3-3.4C805.5,455,801.2,453.1,801.2,453.1z"/>
	<polygon fill="#262626" points="817.3,442.6 819.7,441 808.2,266.8 805.7,268.2 	"/>
	<path fill="#CCCCCC" d="M801,379.4c4.5-2.4,8.4-8.1,7.8-16.9c-1.4-21.4-5.9-88.6-5.9-88.6c0-1.5-0.5-2.8-1.2-3.5
		c-5.7,3.2-4.8,2.6-4.8,2.6s-8.6,4-7.8,19.4c0.3,4.7,3.2,46.8,5.8,90.2L801,379.4z"/>
	<path fill="#CCCCCC" d="M829.9,360.9c4.5-2.4,5.5-10.9,5.1-16.8l-5.7-85.4c0-1.5-0.3-2.6-1-3.3c-5.7,3.2-2,1-6.5,3.6
		c-4.8,2.8-10.3,5.2-9.8,14.2c0.2,4,2.9,44,5.4,81.8c0.4,6.2,4,8.2,8,6.9C828.2,361,829.9,360.9,829.9,360.9z"/>
	<path fill="#262626" d="M833.5,341l-5.2-80.5c-0.2-1.9-1.3-3.2-2.6-3.6c0,0-1.8,1.1-2.7,1.6l-3.2,1.7c-2.3,1.3-8.2,4.6-7.8,12.1
		c0.3,5,5.4,81.8,5.4,81.8c0.5,9,5.3,8.9,7.9,7.9c1.7-0.7,2.2-1.2,2.2-1.2C833.3,357.3,834,349.1,833.5,341z M825.7,264.2
		c0,0,5.1,75.8,5.4,81.8c0.4,6-1.1,9.2-3.4,10.6c-0.9,0.5-2.1,1.3-3.7,2.2c-2,1.1-3.5-0.9-3.7-4.8c-0.2-3.9-5.3-83.2-5.3-83.2
		c-0.4-5.3,2.4-9.3,4.7-10.6c2.3-1.3,1.2-0.6,2.8-1.5C824,257.8,825.7,259,825.7,264.2z"/>
	<g>
		<path fill="#262626" d="M807,359.8l-5.6-82.7c-0.1-2.3-0.7-6.3-2.6-5.2l-1.6,0.9c1.4,0.6,1.5,3.1,1.7,5.4c0.2,3.5,4.8,73.4,5.4,82
			c0.6,8.6-4.2,13.3-5.7,14.2c-1.5,0.9,1.6-1,0.2-0.1c-2.1,1.3-3.5,0.5-4.4-0.1c-2.1-34.6-4.5-66.7-5.1-77.9
			c0.6,11.8,3.2,46.1,5.4,82.5c1.8,0.2,3.3,0,4.6-0.7l-0.7,0.3C804.5,374.7,807.5,367.9,807,359.8z"/>
		<path fill="#262626" d="M789,292.4c0-0.7,0-1.3-0.1-1.9C789,291.1,789,291.8,789,292.4z"/>
	</g>
	<polygon fill="none" stroke="#FFFFFF" stroke-width="1.3803" stroke-miterlimit="10" points="787.3,267 847.1,233.4 859.9,429.6 
		800.6,469 	"/>
	<path fill="#B2B2B2" d="M1080.1,111.6c0,0,30.7-17.3,32.9-18.4c2.2-1.1,7.7-0.1,7.7,7.5c0,7.4,8.6,155.5,8.6,155.5l-45.8,29.9
		c0,0-9.9-149-10.3-157.3C1072.4,115.3,1080.1,111.6,1080.1,111.6z"/>
	<path fill="#E5E5E5" d="M1084,272c0,0,30.4-19.5,32.9-21.4c2.5-1.8,6.8-3.4,5.8-12c-0.9-8.6-9.7-145.4-9.7-145.4
		c1.3-0.7,7.7-0.9,7.7,7.5c0,7.6,5.6,104.1,7.8,140.4c0.8,12.9-3.1,17.1-7.4,19.7c-3.4,2-32,20.7-32,20.7s1-3.7,1.1-4.3
		c0.1-0.6,0.3-2.4-1.1-3C1087.8,273.6,1084,272,1084,272z"/>
	<polygon fill="#262626" points="1098.3,262.6 1100.5,261.2 1090.2,106 1088,107.3 	"/>
	<path fill="#CCCCCC" d="M1083.8,206.4c4-2.1,7.4-7.2,6.9-15c-1.3-19-5.2-78.9-5.2-78.9c0-1.4-0.4-2.5-1.1-3.2
		c-5.1,2.8-4.3,2.3-4.3,2.3s-7.7,3.6-6.9,17.2c0.2,4.2,2.9,41.7,5.2,80.4L1083.8,206.4z"/>
	<path fill="#CCCCCC" d="M1109.5,189.9c4-2.1,4.9-9.7,4.5-15l-5.1-76c0-1.4-0.3-2.3-0.9-3c-5.1,2.8-1.8,0.9-5.8,3.2
		c-4.3,2.5-9.2,4.6-8.7,12.6c0.2,3.5,2.5,39.2,4.8,72.9c0.4,5.5,3.6,7.3,7.1,6.1C1108,190,1109.5,189.9,1109.5,189.9z"/>
	<path fill="#262626" d="M1112.7,172.2l-4.6-71.7c-0.2-1.7-1.1-2.8-2.3-3.2c0,0-1.6,1-2.4,1.4l-2.9,1.5c-2,1.2-7.3,4.1-7,10.8
		c0.2,4.5,4.8,72.8,4.8,72.8c0.4,8,4.7,7.9,7,7c1.5-0.6,2-1.1,2-1.1C1112.5,186.7,1113.1,179.3,1112.7,172.2z M1105.8,103.7
		c0,0,4.5,67.5,4.8,72.8c0.3,5.3-1,8.2-3,9.4c-0.8,0.5-1.9,1.2-3.3,2c-1.8,1-3.1-0.8-3.3-4.3c-0.2-3.5-4.8-74.1-4.8-74.1
		c-0.3-4.7,2.1-8.3,4.1-9.4c2-1.1,1.1-0.5,2.5-1.3C1104.3,98.1,1105.8,99.1,1105.8,103.7z"/>
	<g>
		<path fill="#262626" d="M1089.2,188.9l-5-73.7c-0.1-2-0.6-5.6-2.3-4.6l-1.4,0.8c1.3,0.5,1.4,2.8,1.5,4.8c0.2,3.1,4.3,65.4,4.8,73
			c0.5,7.6-3.8,11.8-5.1,12.6c-1.3,0.8,1.5-0.9,0.2-0.1c-1.9,1.2-3.1,0.5-3.9-0.1c-1.8-30.8-4-59.4-4.6-69.4
			c0.6,10.5,2.9,41,4.8,73.4c1.6,0.2,3,0,4.1-0.6l-0.6,0.3C1086.9,202.2,1089.6,196.1,1089.2,188.9z"/>
		<path fill="#262626" d="M1073.2,128.9c0-0.6,0-1.1,0-1.7C1073.1,127.7,1073.1,128.3,1073.2,128.9z"/>
	</g>
	<polygon fill="#B2B2B2" points="1071.6,106.3 1124.8,76.3 1136.2,251.1 1083.5,286.1 	"/>
	<path fill="#B2B2B2" d="M1292.4-9.4c0,0,27.9-15.7,29.9-16.7c2-1,6.9-0.1,6.9,6.8c0,6.7,7.8,141.1,7.8,141.1l-41.6,27.2
		c0,0-8.9-135.3-9.4-142.8C1285.4-6,1292.4-9.4,1292.4-9.4z"/>
	<path fill="#B2B2B2" d="M1295.9,136.2c0,0,27.6-17.7,29.9-19.4c2.2-1.7,6.1-3.1,5.3-10.9c-0.8-7.8-8.8-132-8.8-132
		c1.2-0.6,6.9-0.8,6.9,6.8c0,6.9,5.1,94.5,7,127.5c0.7,11.7-2.8,15.5-6.7,17.9c-3.1,1.9-29,18.8-29,18.8s0.9-3.4,1-3.9
		c0.1-0.6,0.3-2.2-1-2.8C1299.4,137.7,1295.9,136.2,1295.9,136.2z"/>
	<polygon fill="#B2B2B2" points="1308.9,127.7 1310.9,126.4 1301.6,-14.5 1299.6,-13.3 	"/>
	<path fill="#B2B2B2" d="M1295.7,76.6c3.6-1.9,6.8-6.6,6.3-13.6c-1.1-17.3-4.7-71.7-4.7-71.7c0-1.2-0.4-2.3-1-2.9
		c-4.6,2.6-3.9,2.1-3.9,2.1s-7,3.3-6.3,15.6c0.2,3.8,2.6,37.8,4.7,72.9L1295.7,76.6z"/>
	<path fill="#B2B2B2" d="M1319.1,61.7c3.6-1.9,4.4-8.8,4.1-13.6l-4.6-69c0-1.2-0.2-2.1-0.8-2.7c-4.6,2.6-1.6,0.8-5.3,2.9
		c-3.9,2.2-8.4,4.2-7.9,11.5c0.2,3.2,2.3,35.6,4.4,66.2c0.3,5,3.3,6.6,6.5,5.5C1317.7,61.7,1319.1,61.7,1319.1,61.7z"/>
	<path fill="#B2B2B2" d="M1322,45.6l-4.2-65.1c-0.2-1.6-1-2.6-2.1-2.9c0,0-1.5,0.9-2.2,1.3l-2.6,1.4c-1.8,1-6.7,3.7-6.3,9.8
		c0.2,4.1,4.4,66.1,4.4,66.1c0.4,7.3,4.3,7.2,6.4,6.4c1.4-0.5,1.8-1,1.8-1C1321.9,58.7,1322.4,52.1,1322,45.6z M1315.8-16.5
		c0,0,4.1,61.3,4.4,66.1c0.3,4.8-0.9,7.4-2.7,8.6c-0.7,0.4-1.7,1.1-3,1.8c-1.6,0.9-2.8-0.7-3-3.9c-0.2-3.2-4.3-67.2-4.3-67.2
		c-0.3-4.3,1.9-7.6,3.8-8.6c1.8-1,1-0.5,2.3-1.2C1314.4-21.7,1315.8-20.7,1315.8-16.5z"/>
	<g>
		<path fill="#B2B2B2" d="M1300.6,60.8l-4.5-66.9c-0.1-1.9-0.5-5.1-2.1-4.2l-1.3,0.7c1.1,0.5,1.2,2.5,1.4,4.3
			c0.2,2.8,3.9,59.4,4.4,66.3c0.5,6.9-3.4,10.7-4.6,11.5c-1.2,0.7,1.3-0.8,0.1-0.1c-1.7,1.1-2.8,0.4-3.6-0.1
			c-1.7-28-3.7-53.9-4.1-63c0.5,9.5,2.6,37.2,4.4,66.7c1.5,0.1,2.7,0,3.8-0.5l-0.5,0.3C1298.6,72.8,1301,67.3,1300.6,60.8z"/>
		<path fill="#B2B2B2" d="M1286.1,6.3c0-0.5,0-1,0-1.5C1286.1,5.2,1286.1,5.8,1286.1,6.3z"/>
	</g>
	<polygon fill="#B2B2B2" points="1284.7,-14.3 1333,-41.4 1343.4,117.2 1295.5,149 	"/>
	<path fill="#B2B2B2" d="M1057.9,34.7l-8.2-0.7l0.2-5.4l-12.1-0.8l-6.6,3.9l-0.2,5l-6.8,1.4v3.1l-27.3-2.9l-0.2-3.5l5.5-2.5l-0.6-5
		l-3.3-0.7l-2-11.2l-36-3.2l20.6-63.7c7.3-0.2,9-3.5,9-3.5l-2.6-11c4.5-0.6,1.9-5.2,1.9-5.2l-34.6-41.9l3.6-2.3l14.3,12.2l3.4,4.9
		l3.1-1.8l-4.5-7.1l-13-11.7l0.9-9l6.2,2.6l19.3,15.7l0.9,3.5l3.1-2.1l-1.4-4.5l-25.2-18.6l-84.4-6.3h-22.4l-20,2.4l-5.8,3.8
		l-5.6,1.3l-2.4,2l-6.3,0l-3.8,3.4l5.7-0.3l-13.5,11.2l-0.4,4.8l1.8,0l0.3-3.9l18.9-13.8l-7.5,7l-0.2,5.4l2,0l0.2-4.3l11.3-9.2
		l0.1,10.8l4.3-0.1l1.1-1.9h2.2l1.8,3.5h6.2l10.3,6.2L951.4-69l0.5,1.6l5.9,2l3.4,0.6c-2.9,1.8-3.9,9.3-3.9,9.3l4-0.5L911.4,65.9
		L897.1,65l-0.1-6.4l-14.3-1.1L863.9,67l-3.4,10.1l-12.3,12.3l-35.9-3.3l-15,7.4l-0.2,4.1l1.8,0.4l0.2,16c0,0,25.3,2.9,29.1,3.3
		c3.8,0.3,6.5-2.6,6.5-2.6s16.3-4.9,35.9,0.8c0.2,0.1-16.3,15.9-19.1,17.4c-2.8,1.4-22.1,0.9-22.1,0.9c-4.3,0.3-7.7,3.9-7.7,8.3
		c0,4.6,3.7,8.3,8.3,8.3c1.2,0,2.3-0.3,3.3-0.7l0,0l25.5-11c0,0,19.2-17.3,20.4-19.3c1.2-2,0.9-6,0-7.2s-3.6-2.2-9.1-2.6
		c-5.5-0.4-23.4-0.6-23.4-0.6l-0.8-5.2l91,6.2v9.3l40.7,3.3l-0.6-12.7l37.5-19.7c1-19.1-11.5-22.2-11.5-22.2l54.7-29.7L1057.9,34.7z
		 M845.5-131h-8.6l3.4-2.1l5.3-0.8L845.5-131z M984.6-65c0,0,3.2,7.7,1.8,9.6c-1.4,1.8-3,1.8-4.3-1.4c-1.4-3.2-3-6.6-0.9-8.4
		l2.3-0.7L984.6-65z M851.6-132.5l4.6-1.4l89.4,4.6l4.1,2.7l4.6,0.5l-1.8,2.3c0,0,0,0-3.7-0.5c-3.7-0.5-84.1-6.4-84.1-6.4l-13.1,0.2
		L851.6-132.5z M938.7-105.9l-6,16.5l-72.4-36.7l77.5,4.6c0,0,0,0,3.2,3.7C937.3-111.4,938.7-105.9,938.7-105.9z M957-69.7
		l-98.5-42.6l-5.5-5l-0.5-5l2.7-1.8L957-73.4V-69.7z M936-87.6l7.3-23.8l1.4,2.3l3.7-0.9l0.9-2.7l2.7,0.9l18.2,23.6
		c0,0-15.9-2-19.6-2C947-90.3,936-87.6,936-87.6l16.5-0.5l4.1,2.2l2.9,9.9L936-87.6z M958.1-86.9l15.2,1.9l8.1,11.6l-18.2-1.2
		L958.1-86.9z M947.2,11l-5.9,3.2l32.8-75.8c0,0,2,9.3,3.6,9.3L956.5,12L947.2,11z"/>
	<polygon fill="#CCCCCC" points="797.2,93.5 832.8,96.6 845.3,88.8 845.3,93.5 833.4,100.5 797,97.6 	"/>
</g>
<g id="Pop-up_Text">
</g>
<g id="Cannister_Headlight">
	<g>
		<g>
			<path fill="#FFFFFF" stroke="#000000" stroke-width="0.7789" stroke-miterlimit="10" d="M200.2,648.1c-0.4-1.5-1.7-2.6-3-2.6
				c-0.2,0-0.4,0-0.6,0.1c-0.2,0.1-25.8,14.4-26.7,14.9c-0.9,0.5-1.4,1.4-1.1,2.6c0.4,1.5,1.7,2.6,3,2.6c0.2,0,0.8-0.1,1.4-0.4
				c0.4-0.2,26-14.6,26.1-14.7C200,650.1,200.4,649.2,200.2,648.1z"/>
		</g>
		<g>
			<path fill="#FFFFFF" stroke="#000000" stroke-width="0.7789" stroke-miterlimit="10" d="M216.9,630.2c-0.4-1.5-1.7-2.6-3-2.6
				c-0.2,0-0.4,0-0.6,0.1c-0.2,0.1-25.8,14.4-26.7,14.9c-0.9,0.5-1.4,1.4-1.1,2.6c0.4,1.5,1.6,2.4,3,2.6c0.2,0,0.8-0.1,1.4-0.4
				c0.4-0.2,26-14.6,26.1-14.7C216.7,632.2,217.2,631.3,216.9,630.2z"/>
		</g>
		<g>
			<path fill="#FFFFFF" stroke="#000000" stroke-width="0.7789" stroke-miterlimit="10" d="M173.8,663.7c-0.6-2.4-2.8-4.4-4.9-4.4
				c-0.4,0-0.6,0-1,0.2c-0.4,0.2-4,2.2-5.5,3.1c-1.5,0.9-2.3,2.3-1.8,4.3c0.6,2.4,2.8,4.4,4.9,4.4c0.4,0,1.4-0.1,2.3-0.7
				c0.7-0.4,4.2-2.7,4.5-2.8C173.5,667.1,174.3,665.5,173.8,663.7z"/>
			<polygon fill="#FFFFFF" stroke="#000000" stroke-width="0.7789" stroke-miterlimit="10" points="163.1,668.7 162.6,668.6 
				162.6,664.5 163.1,664.6 			"/>
			<polygon fill="#FFFFFF" stroke="#000000" stroke-width="0.7789" stroke-miterlimit="10" points="164.9,669 164.4,668.9 
				164.4,664.8 164.9,664.8 			"/>
			<path fill="#FFFFFF" stroke="#000000" stroke-width="0.7789" stroke-miterlimit="10" d="M168.3,666.9c0.6,2.4-0.6,4.4-2.8,4.4
				c-2.1,0-4.3-2-4.9-4.4c-0.6-2.4,0.6-4.4,2.8-4.4S167.7,664.5,168.3,666.9z"/>
			<polygon fill="#FFFFFF" stroke="#000000" stroke-width="0.7789" stroke-miterlimit="10" points="163.1,668.7 163.1,664.8 
				162.9,664.7 162.9,668.7 			"/>
			<polygon fill="#FFFFFF" stroke="#000000" stroke-width="0.7789" stroke-miterlimit="10" points="164.9,669 164.9,665 164.7,665 
				164.7,668.9 			"/>
			<g>
				<g>
					<polygon fill="#FFFFFF" points="161.7,669 161.7,665.4 163.4,664.5 163.4,664.5 163.4,668.1 161.7,669 					"/>
					<path d="M163,665.1v2.7l-1,0.6v-2.7L163,665.1 M163.3,664.1l-2,1.1v4.1l0.5,0.1l2-1.1v-4.1L163.3,664.1L163.3,664.1z"/>
				</g>
				<g>
					<polygon fill="#FFFFFF" points="161.8,669.4 161.3,669.4 161.3,665.2 161.8,665.3 					"/>
					<polygon points="161.3,665.2 161.3,669.4 161.8,669.4 161.8,665.3 161.3,665.2 					"/>
				</g>
				<g>
					<polygon fill="#FFFFFF" points="161.8,665.3 163.8,664.2 163.3,664.1 161.3,665.2 					"/>
					<polygon points="163.3,664.1 161.3,665.2 161.8,665.3 163.8,664.2 163.3,664.1 					"/>
				</g>
				<g>
					<polygon fill="#FFFFFF" points="162.2,665.5 163.4,664.8 163.4,668.1 162.2,668.8 					"/>
					<path d="M163,665.5v2.3l-0.4,0.2v-2.3L163,665.5 M163.8,664.2l-2,1.1v4.1l2-1.1V664.2L163.8,664.2z"/>
				</g>
			</g>
			<g>
				<g>
					<polygon fill="#FFFFFF" points="163.3,669.4 163.3,665.8 165,664.9 165,664.9 165,668.5 163.4,669.4 					"/>
					<path d="M164.6,665.5v2.7l-1,0.6v-2.7L164.6,665.5 M164.9,664.5l-2,1.1v4.1l0.5,0.1l2-1.1v-4.1L164.9,664.5L164.9,664.5z"/>
				</g>
				<g>
					<polygon fill="#FFFFFF" points="163.4,669.8 162.9,669.7 162.9,665.6 163.4,665.7 					"/>
					<polygon points="162.9,665.6 162.9,669.7 163.4,669.8 163.4,665.7 162.9,665.6 					"/>
				</g>
				<g>
					<polygon fill="#FFFFFF" points="163.4,665.7 165.4,664.6 164.9,664.5 162.9,665.6 					"/>
					<polygon points="164.9,664.5 162.9,665.6 163.4,665.7 165.4,664.6 164.9,664.5 					"/>
				</g>
				<g>
					<polygon fill="#FFFFFF" points="163.8,665.9 165,665.2 165,668.5 163.8,669.2 					"/>
					<path d="M164.6,665.9v2.3l-0.4,0.2v-2.3L164.6,665.9 M165.4,664.6l-2,1.1v4.1l2-1.1V664.6L165.4,664.6z"/>
				</g>
			</g>
		</g>
		<path fill="#FFFFFF" stroke="#000000" stroke-width="0.7789" stroke-miterlimit="10" d="M168.3,667c-0.6-2.4-2.8-4.4-4.9-4.4
			c-0.4,0-0.6,0-1,0.2c-0.4,0.2-4,2.2-5.5,3.1c-1.5,0.9-2.3,2.3-1.8,4.3c0.6,2.4,2.8,4.4,4.9,4.4c0.4,0,1.4-0.1,2.3-0.7
			c0.7-0.4,4.2-2.7,4.5-2.8C168,670.4,168.7,668.8,168.3,667z"/>
		<path fill="#FFFFFF" stroke="#000000" stroke-width="0.7789" stroke-miterlimit="10" d="M166.1,672.3c0-5.9-5.8-11-11.7-9.6
			c-2.1,0.5-9.4,2.7-9.4,2.7l9.2,22.3c0,0,6.1-5.3,9.2-8C165.3,678,166.1,675.4,166.1,672.3z"/>
		<path fill="#B2B2B2" d="M157.6,677.9c1.2,4.6,0,8.7-2.8,10.9l-3.1,1.9c-0.6,0.1-1.9-0.1-2.5-0.1c-6.4,0-13.1-5.7-15-12.7
			c-1-3.9-0.2-8.1,1.8-10.4l3.3-2c1-0.2,2-0.3,3.2-0.3C149.1,665.2,155.8,670.9,157.6,677.9z"/>
		<path fill="#CCCCCC" d="M155.2,679.3c1.8,7-1.9,12.7-8.4,12.7s-13.1-5.7-15-12.7s1.9-12.7,8.4-12.7S153.3,672.3,155.2,679.3z"/>
		<path fill="#E5E5E5" d="M152,679.1c1.3,5.4-1.4,9.7-6.1,9.7s-9.6-4.3-11-9.7s1.4-9.7,6.1-9.7C145.8,669.4,150.7,673.7,152,679.1z"
			/>
		<path fill="#FFFFFF" d="M191.5,643.5l3.6,0.9c5,1.2,4.9,3.6,4.9,3.6l-5.8,2.2c0,0-0.5-2.3-5.6-2.3L191.5,643.5z"/>
		
			<path fill="none" stroke="#000000" stroke-width="0.7789" stroke-linecap="round" stroke-linejoin="round" stroke-miterlimit="10" d="
			M194.2,650.1c0,0-0.5-2.3-5.6-2.3"/>
		<path fill="none" stroke="#000000" stroke-width="0.7789" stroke-linecap="round" stroke-miterlimit="10" d="M195.1,644.3
			c4.8,1,5,3.8,5,3.8"/>
		
			<line fill="none" stroke="#000000" stroke-width="0.7789" stroke-linecap="round" stroke-miterlimit="10" x1="191.5" y1="643.5" x2="195.1" y2="644.3"/>
	</g>
	<g>
		<g>
			<path fill="#FFFFFF" stroke="#000000" stroke-width="0.8329" stroke-miterlimit="10" d="M333.5,671.6c-0.4-1.5-1.9-2.6-3.4-2.6
				c-0.3,0-0.4,0-0.7,0.1c-0.3,0.1-29.5,14.4-30.5,14.9c-1,0.5-1.6,1.4-1.2,2.6c0.4,1.5,1.9,2.6,3.4,2.6c0.3,0,1-0.1,1.6-0.4
				c0.5-0.2,29.7-14.6,29.9-14.7C333.3,673.7,333.8,672.7,333.5,671.6z"/>
		</g>
		<g>
			<path fill="#FFFFFF" stroke="#000000" stroke-width="0.8329" stroke-miterlimit="10" d="M352.6,653.7c-0.4-1.5-1.9-2.6-3.4-2.6
				c-0.3,0-0.4,0-0.7,0.1c-0.3,0.1-29.5,14.4-30.5,14.9c-1,0.5-1.6,1.4-1.2,2.6c0.4,1.5,1.8,2.4,3.4,2.6c0.3,0,1-0.1,1.6-0.4
				c0.5-0.2,29.7-14.6,29.9-14.7C352.4,655.8,352.9,654.8,352.6,653.7z"/>
		</g>
		<g>
			<path fill="#FFFFFF" stroke="#000000" stroke-width="0.8329" stroke-miterlimit="10" d="M303.4,687.2c-0.7-2.4-3.2-4.4-5.6-4.4
				c-0.4,0-0.7,0-1.2,0.2c-0.4,0.2-4.6,2.2-6.3,3.1s-2.6,2.3-2,4.3c0.7,2.4,3.2,4.4,5.6,4.4c0.4,0,1.6-0.1,2.7-0.7
				c0.8-0.4,4.9-2.7,5.2-2.8C303,690.6,303.9,689.1,303.4,687.2z"/>
			<polygon fill="#FFFFFF" stroke="#000000" stroke-width="0.8329" stroke-miterlimit="10" points="291.1,692.3 290.5,692.2 
				290.5,688 291.1,688.1 			"/>
			<polygon fill="#FFFFFF" stroke="#000000" stroke-width="0.8329" stroke-miterlimit="10" points="293.2,692.5 292.6,692.4 
				292.6,688.3 293.2,688.4 			"/>
			<path fill="#FFFFFF" stroke="#000000" stroke-width="0.8329" stroke-miterlimit="10" d="M297,690.5c0.7,2.4-0.7,4.4-3.2,4.4
				c-2.4,0-4.9-2-5.6-4.4c-0.7-2.4,0.7-4.4,3.2-4.4C293.8,686.1,296.4,688,297,690.5z"/>
			<polygon fill="#FFFFFF" stroke="#000000" stroke-width="0.8329" stroke-miterlimit="10" points="291.1,692.3 291.1,688.3 
				290.8,688.3 290.8,692.2 			"/>
			<polygon fill="#FFFFFF" stroke="#000000" stroke-width="0.8329" stroke-miterlimit="10" points="293.2,692.5 293.2,688.6 
				292.9,688.6 292.9,692.5 			"/>
			<g>
				<g>
					<polygon fill="#FFFFFF" points="289.4,692.5 289.4,689 291.4,688.1 291.5,688.1 291.5,691.6 289.6,692.6 					"/>
					<path d="M291.1,688.7v2.7l-1.2,0.6v-2.7L291.1,688.7 M291.3,687.6l-2.3,1.1v4.1l0.6,0.1l2.3-1.1v-4.1L291.3,687.6L291.3,687.6z
						"/>
				</g>
				<g>
					<polygon fill="#FFFFFF" points="289.6,693 289,692.9 289,688.8 289.6,688.8 					"/>
					<polygon points="289,688.8 289,692.9 289.6,693 289.6,688.8 289,688.8 					"/>
				</g>
				<g>
					<polygon fill="#FFFFFF" points="289.6,688.8 291.9,687.7 291.3,687.6 289,688.8 					"/>
					<polygon points="291.3,687.6 289,688.8 289.6,688.8 291.9,687.7 291.3,687.6 					"/>
				</g>
				<g>
					<polygon fill="#FFFFFF" points="290,689.1 291.5,688.4 291.5,691.6 290,692.3 					"/>
					<path d="M291.1,689.1v2.3l-0.6,0.3v-2.3L291.1,689.1 M291.9,687.7l-2.3,1.1v4.1l2.3-1.1V687.7L291.9,687.7z"/>
				</g>
			</g>
			<g>
				<g>
					<polygon fill="#FFFFFF" points="291.3,692.9 291.3,689.4 293.2,688.4 293.3,688.5 293.3,692 291.4,692.9 					"/>
					<path d="M292.9,689.1v2.7l-1.2,0.6v-2.7L292.9,689.1 M293.1,688l-2.3,1.1v4.1l0.6,0.1l2.3-1.1v-4.1L293.1,688L293.1,688z"/>
				</g>
				<g>
					<polygon fill="#FFFFFF" points="291.5,693.4 290.9,693.3 290.9,689.2 291.5,689.2 					"/>
					<polygon points="290.9,689.2 290.9,693.3 291.5,693.4 291.5,689.2 290.9,689.2 					"/>
				</g>
				<g>
					<polygon fill="#FFFFFF" points="291.5,689.2 293.8,688.1 293.1,688 290.9,689.2 					"/>
					<polygon points="293.1,688 290.9,689.2 291.5,689.2 293.8,688.1 293.1,688 					"/>
				</g>
				<g>
					<polygon fill="#FFFFFF" points="291.9,689.5 293.3,688.8 293.3,692 291.9,692.7 					"/>
					<path d="M292.9,689.4v2.3l-0.6,0.3v-2.3L292.9,689.4 M293.8,688.1l-2.3,1.1v4.1l2.3-1.1V688.1L293.8,688.1z"/>
				</g>
			</g>
		</g>
		<path fill="#FFFFFF" stroke="#000000" stroke-width="0.8329" stroke-miterlimit="10" d="M297,690.5c-0.7-2.4-3.2-4.4-5.6-4.4
			c-0.4,0-0.7,0-1.2,0.2c-0.4,0.2-4.6,2.2-6.3,3.1c-1.7,0.9-2.6,2.3-2,4.3c0.7,2.4,3.2,4.4,5.6,4.4c0.4,0,1.6-0.1,2.7-0.7
			c0.8-0.4,4.9-2.7,5.2-2.8C296.7,693.9,297.5,692.3,297,690.5z"/>
		<path fill="#FFFFFF" stroke="#000000" stroke-width="0.8329" stroke-miterlimit="10" d="M294.5,695.9c0-5.9-6.6-11-13.4-9.6
			c-2.3,0.5-10.7,2.7-10.7,2.7l10.6,22.3c0,0,7-5.3,10.5-8C293.6,701.5,294.5,698.9,294.5,695.9z"/>
		<path fill="#B2B2B2" d="M284.8,701.4c1.4,4.6,0,8.7-3.2,10.9l-3.5,1.9c-0.6,0.1-2.1-0.1-2.8-0.1c-7.4,0-15-5.7-17.1-12.7
			c-1.2-3.9-0.2-8.1,2.1-10.4l3.8-2c1.1-0.2,2.3-0.3,3.7-0.3C275.1,688.7,282.7,694.4,284.8,701.4z"/>
		<path fill="#CCCCCC" d="M282,702.8c2.1,7-2.2,12.7-9.6,12.7c-7.4,0-15-5.7-17.1-12.7s2.2-12.7,9.6-12.7
			C272.3,690.1,279.9,695.8,282,702.8z"/>
		<path fill="#E5E5E5" d="M278.4,702.6c1.5,5.4-1.6,9.7-7,9.7c-5.4,0-11-4.3-12.5-9.7c-1.5-5.4,1.6-9.7,7-9.7
			C271.3,692.9,276.9,697.3,278.4,702.6z"/>
		<path fill="#FFFFFF" d="M323.6,667l4.1,0.9c5.7,1.2,5.7,3.6,5.7,3.6l-6.7,2.2c0,0-0.6-2.3-6.5-2.3L323.6,667z"/>
		
			<path fill="none" stroke="#000000" stroke-width="0.8329" stroke-linecap="round" stroke-linejoin="round" stroke-miterlimit="10" d="
			M326.7,673.6c0,0-0.6-2.3-6.5-2.3"/>
		<path fill="none" stroke="#000000" stroke-width="0.8329" stroke-linecap="round" stroke-miterlimit="10" d="M327.7,667.9
			c5.5,1,5.8,3.8,5.8,3.8"/>
		
			<line fill="none" stroke="#000000" stroke-width="0.8329" stroke-linecap="round" stroke-miterlimit="10" x1="323.6" y1="667" x2="327.7" y2="667.9"/>
	</g>
	<path fill="#FFFFFF" stroke="#000000" stroke-width="0.7789" stroke-miterlimit="10" d="M162.8,670.2c0.6,2.4-0.6,4.4-2.8,4.4
		s-4.3-2-4.9-4.4s0.6-4.4,2.8-4.4S162.2,667.8,162.8,670.2z"/>
	<path fill="#4C4C4C" d="M143.7,705.4c-1.1-4.5-5.1-8.5-9-9s-6.1,2.9-5,7.4c0.4,1.7,1.3,3.4,2.4,4.8c1.7,1.5,3.8,2.4,6,2.4
		c2.7,0,4.8-1.5,5.9-3.7C143.9,706.7,143.9,706.1,143.7,705.4z"/>
	<path fill="#4C4C4C" d="M161.9,708.8c-1.1-4.5-5.1-8.5-9-9s-6.1,2.9-5,7.4c0.4,1.7,1.3,3.4,2.4,4.8c1.7,1.5,3.8,2.4,6,2.4
		c2.7,0,4.8-1.5,5.9-3.7C162.2,710.1,162.1,709.5,161.9,708.8z"/>
	<path fill="#E5E5E5" d="M132.9,702.8c-0.9-3.3,0.9-6,4-6s6.3,2.7,7.1,6c0.9,3.3-0.9,6-4,6S133.8,706.1,132.9,702.8z"/>
	<path fill="#F7AFAD" d="M150.5,707.1c-0.9-3.3,0.9-6,4-6s6.3,2.7,7.1,6c0.9,3.3-0.9,6-4,6S151.4,710.4,150.5,707.1z"/>
	<path fill="#4C4C4C" d="M285.2,730.9c-1.1-4.5-5.1-8.5-9-9c-3.9-0.4-6.1,2.9-5,7.4c0.4,1.7,1.3,3.4,2.4,4.8c1.7,1.5,3.8,2.4,6,2.4
		c2.7,0,4.8-1.5,5.9-3.7C285.4,732.2,285.4,731.6,285.2,730.9z"/>
	<path fill="#4C4C4C" d="M267.2,727.7c-1.1-4.5-5.1-8.5-9-9s-6.1,2.9-5,7.4c0.4,1.7,1.3,3.4,2.4,4.8c1.7,1.5,3.8,2.4,6,2.4
		c2.7,0,4.8-1.5,5.9-3.7C267.4,729,267.3,728.3,267.2,727.7z"/>
	<path fill="#E5E5E5" d="M274.5,728.3c-0.9-3.3,0.9-6,4-6c3.1,0,6.3,2.7,7.1,6s-0.9,6-4,6C278.5,734.3,275.3,731.6,274.5,728.3z"/>
	<path fill="#F7AFAD" d="M255.7,726c-0.9-3.3,0.9-6,4-6c3.1,0,6.3,2.7,7.1,6s-0.9,6-4,6S256.6,729.3,255.7,726z"/>
</g>
<g id="_x30_1_Front_Panel">
	<path fill="#4C4C4C" d="M116.9,541.4c-1.9-0.3-8.1-1.2-8.1-1.2s-0.3-25.6-0.5-28.7c-0.2-3.1-2.6-4.7-4.5-5.8
		c-1.9-1.1-5.4-2.6-6.5-3.1c-1.1-0.5-7.6-0.2-7.5,10.7c0.2,10.9,0.5,16,1.1,20.1c0.6,4,8.8,11.9,13.9,12.7
		c5.5,0.9,11.5,1.8,11.6,1.8c1.8,0.2,3.3-1.4,3.3-3.2C119.7,543,118.5,541.6,116.9,541.4z"/>
	<path fill="#CCCCCC" d="M402.6,475c0,0-15.5-61.9-31.2-69.6l-8.8-2.1c-19.6-4.1-110.2-19-182.8-25.8
		c-28.5,16.7-64.4,65.1-68.7,148.7c-4.8,93.1,11.4,183.5,11.4,183.5s3.2,7.1,12.3,12.3c14.1,8.1,39.5,16.3,66.3,21.9
		c44.1,9.3,84.1,14,101.8,11.9c7.9-0.9,19.2-4.2,27-7.3s88.3-36.3,88.3-36.3L402.6,475z M138.7,712.8c-3.9-0.4-7.9-4.4-9-9
		c-1.1-4.5,1.2-7.8,5-7.4c3.9,0.4,7.9,4.4,9,9C144.8,709.9,142.5,713.3,138.7,712.8z M129.5,679.2c-1.9-8.2,2-14.8,8.8-14.8
		c6.8,0,13.8,6.6,15.7,14.8c1.9,8.2-2,14.8-8.8,14.8C138.4,694.1,131.4,687.4,129.5,679.2z M156.6,716.4c-3.9-0.6-7.9-4.8-9-9.4
		c-1.1-4.6,1.2-7.8,5-7.2c3.9,0.6,7.9,4.8,9,9.4C162.7,713.7,160.5,717,156.6,716.4z M261.7,736.2c-4.1-0.4-8.3-4.5-9.4-9.3
		c-1.1-4.7,1.2-8.2,5.3-7.8c4.1,0.4,8.3,4.5,9.4,9.3C268.1,733.1,265.7,736.6,261.7,736.2z M261.6,685.9c7.1,0,14.4,6.9,16.4,15.4
		c2,8.5-2.1,15.4-9.2,15.4c-7.1,0-14.4-6.9-16.4-15.4C250.5,692.8,254.6,685.9,261.6,685.9z M280.5,739.9c-4.1-0.7-8.3-5.2-9.4-10
		c-1.1-4.8,1.2-8.1,5.3-7.4c4.1,0.7,8.3,5.2,9.4,10C286.9,737.3,284.5,740.6,280.5,739.9z M288.5,665.5c0,0-39.8,19.1-92.4,7.3
		c-62.3-14-77.8-42.4-77.8-42.4s-9.7-117.6,13.2-176.2l174.7,31.7C284.9,553.8,288.5,665.5,288.5,665.5z"/>
	<path fill="#262626" d="M372,739.6v-5.5l-1.8,0.1l-0.1,0.1l0-2.1c0,0-24.7,10.3-45.7,18.4c-8.3,3.2-15.1,4.5-21.5,5.4
		c-22.4,2.9-64.6-4-101.8-11.9c-21-4.5-53.5-14.3-66.3-21.9c-10.4-6.2-13.1-14.9-13.1-14.9s-8,1.8-7.1,6.6c0,0.1,0,0.2,0.1,0.4h-0.9
		v3.3l1.7,1.2c0.2,1,0.4,2.2,0.6,3.3h-0.9v3.3l1.7,1.2c0.2,0.9,0.3,1.8,0.5,2.6H117v3.3l1.3,0.9c0.3,1.4,0.4,2.3,0.4,2.3
		s7,10.7,11.9,13.5c5.2,2.9,40,15.3,72.9,25.7c31.8,10.1,55.3,13.8,66.5,15.8c22.8,4.2,52.2-4.9,61.6-9c9.3-4.2,38.4-17,38.4-17
		l0-4.2l1.9-0.8v-5.5l-1.8,0.1l-0.1,0.1l0-3.9l1.9-0.8v-5.5l-1.8,0.1l-0.1,0.1l0-3.9L372,739.6z"/>
</g>
<g id="_x30_3_-_Front_Panel_Windows">
	<path fill="#4C4C4C" d="M172.6,438.4c0.5,0.6,0.6,1.5,0.3,2.3l-2.2,6.3c-0.5,1.5-2.3,2.6-4,2.3l-14.1-2.7c-0.4-0.1-0.8-0.2-1.1-0.4
		c0.4,0.5,0.9,0.9,1.7,1l14.1,2.7c1.6,0.3,3.4-0.7,4-2.3l2.2-6.3C173.9,440.2,173.5,439,172.6,438.4z"/>
	<path fill="#4C4C4C" d="M240.5,420.7c3.3,3.6,4.2,10.6,1.1,19.3c-4.1,11.7-11.8,19.8-20.7,20.5c-3.2,0.2-5.8-0.7-7.8-2.6
		c2,2.2,4.9,3.4,8.4,3.2c9-0.7,16.6-8.8,20.7-20.5C245.5,431.4,244.3,424,240.5,420.7z"/>
	<path fill="#4C4C4C" d="M296.8,460.4c0.5,0.7,0.6,1.5,0.3,2.4l-2.1,6.5c-0.5,1.6-2.3,2.7-3.9,2.4l-13.7-2.5c-0.4-0.1-0.7-0.2-1-0.4
		c0.4,0.5,0.9,0.9,1.6,1l13.7,2.5c1.6,0.3,3.3-0.8,3.9-2.4l2.1-6.5C298.1,462.3,297.7,461.1,296.8,460.4z"/>
	<path fill="#4C4C4C" d="M253.5,401.7c0,0.1,0.1,0.2,0.1,0.3c0,1.8-2.9,3.9-6.5,4.6c-2.8,0.6-5.1,0.2-6-0.9c0.3,1.6,3.1,2.3,6.4,1.7
		c3.6-0.7,6.5-2.8,6.5-4.6C253.9,402.4,253.8,402,253.5,401.7z"/>
	<path fill="#262626" d="M402.8,629.1l-8.8-151.6c-47.8,11.9-77.9,42.1-77.9,184.3L402.8,629.1z"/>
	<polygon fill="#CCCCCC" points="392.3,536.4 396.5,630.4 400.9,628.7 392.5,479.4 390.6,480.1 393.7,532.8 	"/>
	<path fill="#4C4C4C" d="M306.2,485.8l-174.7-31.7c-22.8,58.7-13.2,176.2-13.2,176.2s15.5,28.3,77.8,42.4
		c52.6,11.8,92.4-7.3,92.4-7.3S284.9,553.8,306.2,485.8z"/>
	<path fill="#4C4C4C" d="M339,545.2l7,96.7l49-18.3l-2-37.3l-20.5,6.2l22.9-7.8l3,38.7l4,1.7l0.2,3.6L316.1,662
		c0,0-16.9-171.7,77.8-184.5l0.1,1.9c0,0-51,9.5-63.2,63.7l62.8-22.6v1.8l-63.1,22.3c0,0-4.7,16.9-4.7,17.9c0,0.9,0.6,13.2,0.9,14.6
		s-0.6,1.4-1.4,1.4s-2.3,0.2-2.3,0.2c-5.3,31.6-5,78.1-5,78.1l81-31.1l-3.1-1.4l-53.2,20.4l-5.3-99.2l-6.8,2.7l0.2-0.8l61.6-22.8
		v0.8L339,545.2z"/>
	<polygon fill="#CCCCCC" points="376.9,636.5 368.4,639.8 368.4,638.6 376.9,635.4 	"/>
	<polygon fill="#E5E5E5" points="346.1,643.4 349.3,644.3 398.2,625.4 396,624.3 	"/>
	<polygon fill="#CCCCCC" points="390.2,537.1 388.6,537.6 388.6,530.4 390.2,529.9 	"/>
	<path fill="#E5E5E5" d="M241.6,440c-4.1,11.7-11.8,19.8-20.7,20.5s-14-8.2-10.3-20c4.1-13.4,14.2-21.3,23.1-22.2
		C241.8,417.4,246.3,426.8,241.6,440z"/>
	<path fill="#E5E5E5" d="M291.1,471.8l-13.7-2.5c-1.6-0.3-2.5-1.8-1.9-3.4l2.1-6.5c0.5-1.6,2.3-2.7,3.9-2.4l13.7,2.5
		c1.6,0.3,2.5,1.8,1.9,3.4l-2.1,6.5C294.4,471,292.7,472.1,291.1,471.8z"/>
	<path fill="#CCCCCC" d="M231.5,422.6c-6.6,0.5-14.5,8.4-17.5,17.7c-3.1,9.3-0.2,16.4,6.4,15.9c6.6-0.5,14.5-8.4,17.5-17.7
		C241,429.2,238.1,422.1,231.5,422.6z M235.8,438.7c-2.5,7.6-8.9,14.1-14.3,14.5c-5.4,0.4-7.7-5.4-5.3-13
		c2.5-7.6,8.9-14.1,14.3-14.5S238.2,431.1,235.8,438.7z"/>
	<path fill="#B2B2B2" d="M230.5,425.7c-3.9,0.3-8.3,3.7-11.4,8.5l13.5,10.9c1.3-1.9,2.4-4.1,3.1-6.3
		C238.2,431.1,235.9,425.3,230.5,425.7z"/>
	<path fill="#B2B2B2" d="M289.5,467.4l-7.9-1.4c-0.8-0.2-1.3-1-1-1.8l0.5-1.5c0.3-0.8,1.2-1.4,2-1.2l7.9,1.4c0.8,0.2,1.3,1,1,1.8
		l-0.5,1.5C291.2,467,290.3,467.5,289.5,467.4z"/>
	<path fill="#E5E5E5" d="M196.1,672.7c-62.3-14-77.8-42.4-77.8-42.4l170.2,35.1C288.5,665.5,248.7,684.6,196.1,672.7z"/>
	<path fill="#4C4C4C" d="M359.7,504.3c0,0-1.1,0.2-1.6,0.3c-0.5,0.2-1.2,0.8-1.6,3.4c-0.3,2.6-0.8,12.8-0.8,14.2
		c0,1.4,0,2.7,1.6,2.7s1.6,0,1.6,0s-2.6,6.8-3.3,8.5c-0.6,1.7-2.2,9.8-2.2,9.8s-2.5,0.1-3.7,0.3c-1.2,0.2-3,1.4-3,6.4
		s0.8,28,1.2,31.4c0.5,3.4,1.1,4.5,4,4.5c3,0,14,0.2,15.7,0c1.7-0.2,5.1-1.4,5-5.6c-0.2-4.2-1.2-29.7-1.6-32.3
		c-0.3-2.6-1.9-4.8-4.4-4.8s-5.9-0.2-5.9-0.2l0.3-6.7c0,0,2.3-4.5,2.8-5.4c0.5-0.9,0.5-2,0.5-3c0-0.9,0.2-2.3,0.2-2.3
		s0.9-0.5,1.4-0.8c0.5-0.3,1.6-0.6,1.4-2.3s0-8.4,0-8.4l-1.2-0.6c0,0,0.2-1.4-0.2-2.6c-0.3-1.2-1.7-0.9-1.7-0.9s-1.4-0.3-1.6,1.2
		h-1.7c0,0-0.2-4.2-0.2-5S360.6,503.8,359.7,504.3z"/>
	<path fill="#7A7A7A" d="M369.9,582.2l-6.5-6.1c0,0-0.5-14-0.5-14.6c0-0.6-0.5-0.8-1.6-0.8s-6.7,0.5-6.7,0.5s-5.3-6.8-5.6-7.9
		c-0.3-1.1-0.3-3.4-0.3-4.5s0.9-4,0.9-4s-3-0.2-3,5.1c0,5.3,0.9,28.5,1.2,31.4c0.3,3,0.9,4.4,4,4.5c3.1,0.2,12.3,0.2,15.7,0
		S369.9,582.2,369.9,582.2z"/>
	<path fill="#E5E5E5" d="M167,448.7l-14.1-2.7c-1.6-0.3-2.5-1.8-2-3.4l2.2-6.3c0.5-1.5,2.3-2.6,4-2.3l14.1,2.7
		c1.6,0.3,2.5,1.8,2,3.4l-2.2,6.3C170.4,448,168.6,449,167,448.7z"/>
	<path fill="#E5E5E5" d="M253.5,402c0,1.8-2.9,3.9-6.5,4.6c-3.6,0.7-6.5-0.2-6.5-2s2.9-3.9,6.5-4.6
		C250.6,399.3,253.5,400.2,253.5,402z"/>
	<path fill="#C1272D" d="M250.2,400.1c0-0.8-1.3-1.5-2.9-1.5c-1.6,0-2.9,0.7-2.9,1.5l-1.5,3.3c0.2,0.7,1.4,1.3,2.9,1.3
		c1.6,0,2.3-0.2,2.9-1.4L250.2,400.1z"/>
	<path fill="#CCCCCC" d="M165.1,444.9l-8.2-1.5c-0.9-0.2-1.3-1-1-1.8l0.5-1.5c0.3-0.8,1.2-1.3,2.1-1.2l8.2,1.5c0.9,0.2,1.3,1,1,1.8
		l-0.5,1.5C166.9,444.6,166,445.1,165.1,444.9z"/>
	<ellipse fill="#C1272D" cx="289" cy="465" rx="2.6" ry="2"/>
	<ellipse fill="#CCCCCC" cx="283.6" cy="464" rx="2.6" ry="2"/>
	<ellipse fill="#CCCCCC" cx="164.5" cy="442.3" rx="2.6" ry="2"/>
	<ellipse fill="#C1272D" cx="159.1" cy="441.4" rx="2.6" ry="2"/>
	<path fill="#262626" d="M132.5,454.1c-6,23.6-10.1,56.9-10.1,56.9s59.2,11.5,63,12.1s14.8-4.1,15.8-4.7c1.8-1,5.1-1.8,7.8-1.2
		c2.7,0.6,4.5,3.3,5.2,4.7c0.4,0.8,3.9,7,8.4,8.3c4.5,1.2,72,13.8,72,13.8c2.3-19.7,11.7-58.2,11.7-58.2L132.5,454.1z"/>
	<path fill="#FFFFFF" d="M402.8,629.1c0,0-18.4,24.7-54.9,38.1c-28.8,10.5-31.7-5.2-31.7-5.2L402.8,629.1z"/>
	<path fill="#4C4C4C" d="M120.9,627.6l167.6,34.5l1.3-74.8l-2.3-0.8l-3.1,70.9c0,0-135.9-28-143.4-29.4c-7.6-1.5-14.8-3.8-14.8-13
		c0-8.6,0.1-97.3,0.1-97.3l71.7,14l-34,51.7l-12.5,25.2c0,0,0.5,0.5,1.3,1c0.4,0.2,22.2-33.4,22.2-33.4l31.2-43.2l83.9,16.1
		l-2.9,34.3l3.1,1.3l3.1-38.2l-171.7-32.7C121.7,513.8,116.7,563.7,120.9,627.6z"/>
	<path fill="#262626" d="M290.4,584.7l3.1-38.2l-171.7-32.7c0,0-4.4,43.6-0.8,113.7l167.6,34.5l1.3-74.8l-2.3-0.8l-3.1,70.9
		c0,0-130.7-27-143.4-29.4c-10.8-2.1-14.8-5.7-14.8-13c0-7.3,0.1-62.5,0.1-62.5l51.4,10.1l20.3-30.8l8.3,1.3L184,563.9L290.4,584.7z
		"/>
	<path fill="#262626" d="M177.6,562.6l-13.7,20.8l-12.5,25.2c0,0,0.5,0.5,1.3,1c0.4,0.2,22.2-33.4,22.2-33.4l9-12.4L177.6,562.6z"/>
	<path fill="#E5E5E5" d="M169.9,575.1L169.9,575.1l38.1-52.3l0,0c0.2-0.3,0.3-0.7,0.3-1.1c0-1.2-1-2.1-2.1-2.1
		c-0.8,0-1.5,0.4-1.8,1.1l0,0l-36.6,52.7l0,0c-0.2,0.2-0.3,0.5-0.3,0.8c0,0.2,0.1,0.4,0.2,0.6l-3,5v1.5h2.7l3.4-1.1
		c0,0,2.6-4.2,2.7-4.4c0.1-0.2-0.1-0.7-0.3-0.8s-0.9-0.2-1.1,0.1c-0.2,0.4-1.9,3.1-1.9,3.1s-0.8-1-0.9-1c-0.1,0,0-1.1,0-1.7
		C169.4,575.5,169.7,575.3,169.9,575.1z"/>
	<path fill="none" stroke="#4C4C4C" stroke-width="0.7789" stroke-miterlimit="10" d="M272,527.9l-127.8-24.5
		c-5.1-1-8.8-5.9-8.1-10.9l2.8-18.3c0.7-5,5.5-8.3,10.6-7.3l127.8,23.4c5.1,1,8.8,5.9,8.1,10.9l-2.8,19.3
		C282,525.6,277.2,528.9,272,527.9z"/>
	<path fill="#4C4C4C" d="M148.9,500c-3.4-0.7-5.8-3.9-5.4-7.3l2.5-16.8c0.4-2.5,2.3-4.4,4.7-4.9L150,471c-3.4-0.7-6.6,1.5-7.1,4.9
		l-2.5,16.8c-0.5,3.3,1.9,6.6,5.4,7.3l125.8,24.1c0.8,0.2,1.6,0.1,2.4,0L148.9,500z"/>
</g>
<g id="Branding">
	<g>
		<g>
			<path fill="#262626" d="M188.7,689.4c-0.9-7.7,3.8-13,10.6-11.7c6.8,1.3,13,8.6,13.9,16.4c0.9,7.7-3.8,13-10.6,11.7
				C195.9,704.5,189.7,697.2,188.7,689.4L188.7,689.4z"/>
			<g>
				<path fill="#E5E5E5" d="M203.6,684.1l-1.8,9.8l1.9,5c0.3-1.8,1.4-7,1.4-7.3c0.4,3.2,1.1,9.5,1.1,9.5l3.1,0.6l-2-16.8
					L203.6,684.1z"/>
				<path fill="#E5E5E5" d="M196.5,682.8l-3.8-0.7l2,16.8l3.1,0.6c0,0-0.7-6.3-1.1-9.5c0.2,0.5,4,10,4,10l2.8,0.5L196.5,682.8
					L196.5,682.8z"/>
			</g>
		</g>
	</g>
	<g>
		<g>
			<path fill="#4C4C4C" d="M424.4,504.7c-0.5-7.3,2.5-15.3,6.6-18c4.1-2.7,7.8,1,8.3,8.3c0.5,7.3-2.5,15.3-6.6,18
				C428.6,515.6,424.8,511.9,424.4,504.7L424.4,504.7z"/>
			<g>
				<path fill="#E5E5E5" d="M433.5,490.6l-1.2,10.9l1.1,3.9c0.2-2,0.9-7.8,1-8.2c0.2,3,0.6,8.9,0.6,8.9l1.9-1.2l-1-15.8L433.5,490.6
					z"/>
				<path fill="#E5E5E5" d="M429.2,493.4l-2.3,1.5l1,15.8l1.9-1.2c0,0-0.4-5.9-0.6-8.9c0.1,0.4,2.3,7.7,2.3,7.7l1.7-1.1L429.2,493.4
					L429.2,493.4z"/>
			</g>
		</g>
	</g>
	<g>
		<path fill="#4C4C4C" d="M430.8,525.1l-0.3-3.9c0,0.3,0,0.3-0.1,0.9l-0.7,3.7l-0.7,0.4l-1.1-2.6c-0.1-0.3-0.1-0.3-0.2-0.8l0.3,4
			l-0.7,0.4l-0.4-5.4l1-0.6l1.4,3.2c0.1,0.1,0.1,0.2,0.1,0.4c0-0.3,0-0.3,0-0.5l0.9-4.5l1-0.6l0.4,5.4L430.8,525.1z"/>
		<path fill="#4C4C4C" d="M434.4,522.8c-0.3,0.4-0.6,0.6-1,0.8c-0.9,0.5-1.5,0.1-1.6-1c-0.1-1.2,0.5-2.5,1.3-3c0.7-0.4,1.3,0,1.4,1
			l0,0.4l-2,1.2c0,0.3,0.1,0.4,0.1,0.5c0.1,0.2,0.4,0.2,0.7,0.1c0.1-0.1,0.2-0.2,0.3-0.3c0.2-0.2,0.3-0.3,0.5-0.7l0.3,0.6
			C434.6,522.6,434.5,522.7,434.4,522.8z M433.2,520.4c-0.3,0.2-0.5,0.6-0.6,1.2l1.2-0.7C433.8,520.3,433.6,520.2,433.2,520.4z"/>
		<path fill="#4C4C4C" d="M436.7,521.5c-0.2,0.3-0.4,0.5-0.6,0.6c-0.4,0.2-0.6,0.1-0.6-0.5l-0.2-2.3l-0.4,0.3l0-0.6l0.4-0.4
			l-0.1-1.1l0.7-0.4l0.1,1.1l0.6-0.4l0,0.7l-0.6,0.4l0.1,1.7c0,0.4,0.1,0.5,0.2,0.5c0.1-0.1,0.2-0.2,0.4-0.5l0.3,0.6
			C436.9,521.2,436.8,521.4,436.7,521.5z"/>
		<path fill="#4C4C4C" d="M438.9,517.6c-0.1,0-0.2,0-0.2,0c-0.1,0.1-0.2,0.3-0.4,0.5c-0.1,0.3-0.2,0.6-0.2,0.8l0.1,1.7l-0.8,0.5
			l-0.3-3.8l0.7-0.4l0.1,0.8c0.2-0.8,0.4-1.2,0.6-1.3c0.2-0.1,0.3-0.1,0.4,0L438.9,517.6z"/>
		<path fill="#4C4C4C" d="M441.1,519.1c-0.8,0.5-1.6,0-1.6-1.1c-0.1-1.1,0.5-2.4,1.4-2.9c0.8-0.5,1.6,0,1.6,1.1
			C442.5,517.4,441.9,518.6,441.1,519.1z M440.9,515.9c-0.4,0.2-0.7,1-0.6,1.6c0,0.7,0.4,1,0.8,0.8c0.4-0.2,0.7-1,0.6-1.6
			C441.6,516,441.3,515.7,440.9,515.9z"/>
	</g>
	<g>
		<g>
			<path fill="#B2B2B2" d="M1338.8-25.2c0-5.2,2.4-10.8,5.2-12.4c2.8-1.6,5.1,1.3,5.1,6.6c0,5.2-2.3,10.8-5.2,12.4
				C1341.1-17,1338.8-20,1338.8-25.2L1338.8-25.2z"/>
			<g>
				<path fill="#CCCCCC" d="M1345.5-34.6l-1.3,7.8l0.6,2.9c0.2-1.4,1-5.5,1-5.8c0,2.2,0,6.4,0,6.4l1.3-0.7l0-11.4L1345.5-34.6z"/>
				<path fill="#CCCCCC" d="M1342.5-32.9l-1.6,0.9l0,11.4l1.3-0.7c0,0,0-4.3,0-6.4c0.1,0.3,1.2,5.7,1.2,5.7l1.2-0.7L1342.5-32.9
					L1342.5-32.9z"/>
			</g>
		</g>
	</g>
	<g>
		<path fill="#B2B2B2" d="M1342.1-9.5V-12c0,0.2,0,0.2-0.1,0.5l-0.7,2.4l-0.5,0.3l-0.6-1.6c-0.1-0.2-0.1-0.2-0.1-0.5v2.5l-0.5,0.3
			v-3.4l0.7-0.4l0.8,1.9c0,0.1,0,0.1,0.1,0.2c0-0.2,0-0.2,0.1-0.3l0.8-2.9l0.7-0.4v3.4L1342.1-9.5z"/>
		<path fill="#B2B2B2" d="M1344.6-11.1c-0.2,0.2-0.4,0.4-0.7,0.6c-0.6,0.4-1,0.1-1-0.6c0-0.8,0.4-1.6,1-1.9c0.5-0.3,0.9-0.1,0.9,0.6
			v0.3l-1.4,0.8c0,0.2,0,0.3,0.1,0.3c0.1,0.1,0.3,0.1,0.5,0c0.1,0,0.2-0.1,0.2-0.2c0.1-0.1,0.2-0.2,0.4-0.5l0.2,0.3
			C1344.8-11.2,1344.7-11.1,1344.6-11.1z M1344-12.6c-0.2,0.1-0.4,0.4-0.4,0.8l0.8-0.5C1344.3-12.6,1344.2-12.7,1344-12.6z"/>
		<path fill="#B2B2B2" d="M1346.2-12c-0.2,0.2-0.3,0.3-0.5,0.4c-0.3,0.2-0.4,0.1-0.4-0.3v-1.5l-0.3,0.2v-0.4l0.3-0.2v-0.7l0.5-0.3
			v0.7l0.4-0.3v0.4l-0.4,0.3v1.1c0,0.3,0,0.3,0.1,0.3c0.1,0,0.1-0.1,0.3-0.3l0.2,0.3C1346.3-12.2,1346.3-12.1,1346.2-12z"/>
		<path fill="#B2B2B2" d="M1347.9-14.6c-0.1,0-0.1,0-0.2,0c-0.1,0-0.2,0.2-0.3,0.3c-0.1,0.2-0.1,0.4-0.1,0.5v1.1l-0.5,0.3v-2.4
			l0.5-0.3l0,0.5c0.2-0.5,0.3-0.8,0.5-0.8c0.1-0.1,0.2-0.1,0.3,0L1347.9-14.6z"/>
		<path fill="#B2B2B2" d="M1349.2-13.7c-0.6,0.3-1,0.1-1-0.6c0-0.7,0.4-1.5,1-1.9c0.6-0.3,1-0.1,1,0.6
			C1350.3-14.8,1349.8-14,1349.2-13.7z M1349.2-15.7c-0.3,0.2-0.5,0.6-0.5,1.1c0,0.4,0.2,0.6,0.5,0.5c0.3-0.2,0.5-0.6,0.5-1.1
			C1349.7-15.6,1349.5-15.8,1349.2-15.7z"/>
	</g>
	<g>
		<path fill="#4C4C4C" d="M571.3,402l-0.2-7.4c0,0.5,0,0.6-0.2,1.6l-1.1,6.7l-0.9,0.5l-1.3-5.2c-0.1-0.5-0.1-0.7-0.2-1.5l0.2,7.5
			l-1,0.5l-0.2-10.1l1.3-0.7l1.6,6.4c0.1,0.3,0.1,0.4,0.1,0.7c0-0.5,0-0.6,0.1-0.8l1.4-8.1l1.3-0.7l0.2,10.1L571.3,402z"/>
		<path fill="#4C4C4C" d="M576.1,398.9c-0.4,0.6-0.8,1-1.3,1.2c-1.2,0.7-1.9-0.3-2-2.5c-0.1-2.3,0.7-4.4,1.8-5.1
			c1-0.5,1.7,0.4,1.7,2.3l0,0.8l-2.6,1.5c0,0.6,0.1,0.8,0.2,1.1c0.2,0.4,0.5,0.6,0.9,0.4c0.2-0.1,0.3-0.2,0.5-0.4
			c0.2-0.3,0.4-0.5,0.7-1.1l0.4,1.2C576.4,398.6,576.2,398.8,576.1,398.9z M574.7,394c-0.4,0.3-0.7,1-0.8,2l1.5-0.9
			C575.4,394,575.2,393.7,574.7,394z"/>
		<path fill="#4C4C4C" d="M579.2,397.2c-0.3,0.5-0.6,0.8-0.9,1c-0.5,0.3-0.8-0.1-0.8-1.1l-0.1-4.4l-0.6,0.3l0-1.2l0.6-0.5l-0.1-2.1
			l0.9-0.5l0.1,2.1l0.8-0.5l0,1.3l-0.8,0.5l0.1,3.2c0,0.8,0.1,1,0.2,0.9c0.1-0.1,0.3-0.3,0.5-0.8l0.3,1.2
			C579.4,396.8,579.3,397,579.2,397.2z"/>
		<path fill="#4C4C4C" d="M582.2,390.8c-0.1-0.1-0.2-0.1-0.3,0c-0.2,0.1-0.3,0.4-0.5,0.8c-0.2,0.5-0.2,1-0.2,1.5l0.1,3.3l-1,0.6
			l-0.2-7.1l0.9-0.5l0.1,1.5c0.3-1.4,0.6-2,0.9-2.2c0.2-0.1,0.4-0.1,0.6,0.2L582.2,390.8z"/>
		<path fill="#4C4C4C" d="M584.7,394.5c-1.1,0.6-2-0.5-2-2.7c-0.1-2.1,0.8-4.2,1.9-4.9c1.1-0.6,2,0.5,2,2.6
			C586.6,391.8,585.8,393.9,584.7,394.5z M584.5,388.5c-0.5,0.3-0.9,1.6-0.9,2.8c0,1.3,0.5,2.1,1,1.8c0.5-0.3,0.9-1.6,0.9-2.8
			C585.5,389,585,388.2,584.5,388.5z"/>
		<path fill="#4C4C4C" d="M591.8,390.3l-1.4-3.3l-0.5,0.3l0.1,4l-1.1,0.6l-0.2-10.1l1.8-1c0.8-0.5,1.2-0.5,1.5-0.1
			c0.3,0.3,0.5,1,0.5,1.9c0,0.8-0.1,1.5-0.3,2.1c-0.2,0.6-0.4,0.9-0.8,1.4l1.5,3.6L591.8,390.3z M590.5,382.4l-0.7,0.4l0.1,2.8
			l0.7-0.4c0.7-0.4,0.9-1,0.9-2C591.4,382.3,591.2,382,590.5,382.4z"/>
		<path fill="#4C4C4C" d="M596.6,387.6l-0.2,0.1c-0.5,0.3-0.7,0.2-0.9-0.3c-0.4,0.8-0.7,1.3-1.1,1.5c-0.7,0.4-1.1-0.2-1.2-1.3
			c0-0.2,0-0.5,0-0.8c0.1-0.7,0.3-1.2,0.9-1.8l1.1-1.2l0-0.6c0-0.8-0.2-1-0.5-0.8c-0.3,0.2-0.5,0.6-0.5,1c0,0.1,0,0.1,0,0.2
			l-0.9,0.9c0-0.2-0.1-0.3-0.1-0.5c0-1.3,0.6-2.3,1.6-2.9c0.9-0.5,1.4-0.1,1.4,1.5l0.1,3c0,0.6,0.1,0.7,0.3,0.6L596.6,387.6z
			 M595.4,385l-1,1.2c-0.1,0.3-0.1,0.5-0.1,0.6c0,0.5,0.2,0.6,0.4,0.5c0.1-0.1,0.3-0.2,0.4-0.4c0.1-0.1,0.1-0.2,0.3-0.5L595.4,385z"
			/>
		<path fill="#4C4C4C" d="M597.9,378.2c-0.3,0.2-0.6-0.2-0.6-0.9c0-0.7,0.2-1.4,0.5-1.6c0.3-0.2,0.6,0.2,0.6,0.9
			C598.4,377.4,598.2,378.1,597.9,378.2z M597.6,387l-0.2-7.1l1-0.6l0.2,7.1L597.6,387z"/>
		<path fill="#4C4C4C" d="M599.6,385.8l-0.3-11.2l1-0.6l0.3,11.2L599.6,385.8z"/>
	</g>
	<g>
		<path fill="#B2B2B2" d="M1244.9,17.9l-0.1-5.6c0,0.4,0,0.5-0.1,1.2l-0.8,5.1l-0.7,0.4l-1-4c-0.1-0.4-0.1-0.5-0.2-1.1l0.1,5.7
			l-0.7,0.4l-0.2-7.7l1-0.5l1.3,4.8c0,0.2,0.1,0.3,0.1,0.5c0-0.4,0-0.4,0.1-0.6l1-6.1l1-0.5l0.2,7.7L1244.9,17.9z"/>
		<path fill="#B2B2B2" d="M1248.6,15.5c-0.3,0.4-0.6,0.7-1,0.9c-0.9,0.5-1.5-0.2-1.5-1.9c0-1.7,0.6-3.4,1.4-3.8
			c0.7-0.4,1.3,0.3,1.3,1.8l0,0.6l-2,1.1c0,0.4,0,0.6,0.1,0.8c0.1,0.3,0.4,0.4,0.7,0.3c0.1-0.1,0.2-0.2,0.3-0.3
			c0.2-0.2,0.3-0.4,0.6-0.8l0.3,0.9C1248.8,15.3,1248.7,15.4,1248.6,15.5z M1247.5,11.8c-0.3,0.2-0.6,0.7-0.6,1.5l1.2-0.7
			C1248,11.8,1247.9,11.6,1247.5,11.8z"/>
		<path fill="#B2B2B2" d="M1250.9,14.2c-0.2,0.4-0.4,0.6-0.7,0.7c-0.4,0.2-0.6,0-0.6-0.8l-0.1-3.4l-0.4,0.2l0-0.9l0.4-0.4l0-1.6
			l0.7-0.4l0,1.6l0.6-0.4l0,1l-0.6,0.4l0.1,2.4c0,0.6,0.1,0.8,0.2,0.7c0.1-0.1,0.2-0.2,0.4-0.6l0.3,0.9
			C1251.1,13.9,1251,14.1,1250.9,14.2z"/>
		<path fill="#B2B2B2" d="M1253.2,9.3c-0.1-0.1-0.1-0.1-0.2,0c-0.1,0.1-0.3,0.3-0.4,0.6c-0.1,0.4-0.2,0.7-0.2,1.2l0.1,2.5l-0.8,0.4
			l-0.1-5.4l0.7-0.4l0.1,1.2c0.3-1.1,0.4-1.5,0.7-1.7c0.2-0.1,0.3,0,0.4,0.1L1253.2,9.3z"/>
		<path fill="#B2B2B2" d="M1255.1,12.2c-0.8,0.5-1.5-0.4-1.6-2c0-1.6,0.6-3.2,1.4-3.7c0.8-0.5,1.5,0.4,1.6,2
			C1256.6,10.1,1255.9,11.7,1255.1,12.2z M1255,7.6c-0.4,0.2-0.7,1.2-0.7,2.1c0,1,0.4,1.6,0.7,1.4c0.4-0.2,0.7-1.2,0.7-2.2
			C1255.7,8,1255.4,7.4,1255,7.6z"/>
		<path fill="#B2B2B2" d="M1260.5,9l-1-2.5l-0.4,0.2l0.1,3.1l-0.8,0.5l-0.2-7.7l1.4-0.8c0.6-0.3,0.9-0.4,1.2-0.1
			c0.2,0.3,0.4,0.7,0.4,1.5c0,0.6-0.1,1.1-0.2,1.6c-0.1,0.5-0.3,0.7-0.6,1.1l1.1,2.7L1260.5,9z M1259.5,3l-0.5,0.3l0.1,2.1l0.5-0.3
			c0.5-0.3,0.7-0.7,0.7-1.5C1260.2,2.9,1260,2.7,1259.5,3z"/>
		<path fill="#B2B2B2" d="M1264.2,7L1264,7c-0.4,0.2-0.5,0.2-0.6-0.2c-0.3,0.6-0.5,1-0.8,1.1c-0.5,0.3-0.9-0.1-0.9-1
			c0-0.2,0-0.4,0-0.6c0.1-0.6,0.3-0.9,0.7-1.4l0.8-0.9l0-0.5c0-0.6-0.1-0.8-0.4-0.6c-0.2,0.1-0.4,0.5-0.4,0.7c0,0,0,0.1,0,0.1
			l-0.7,0.7c0-0.1,0-0.2,0-0.3c0-1,0.4-1.8,1.2-2.2c0.7-0.4,1,0,1.1,1.1l0.1,2.3c0,0.5,0,0.6,0.2,0.5L1264.2,7z M1263.2,5l-0.7,0.9
			c0,0.2,0,0.3,0,0.5c0,0.3,0.1,0.5,0.3,0.4c0.1-0.1,0.2-0.2,0.3-0.3c0-0.1,0.1-0.1,0.2-0.4L1263.2,5z"/>
		<path fill="#B2B2B2" d="M1265.1-0.2c-0.2,0.1-0.4-0.2-0.5-0.7c0-0.5,0.2-1.1,0.4-1.2c0.2-0.1,0.4,0.2,0.4,0.7
			C1265.5-0.8,1265.4-0.3,1265.1-0.2z M1264.9,6.5l-0.1-5.4l0.8-0.4l0.1,5.4L1264.9,6.5z"/>
		<path fill="#B2B2B2" d="M1266.4,5.6l-0.2-8.5l0.8-0.4l0.2,8.5L1266.4,5.6z"/>
	</g>
	<g>
		<path fill="#CCCCCC" d="M700.7,309.4l-6.2,3.4c-5.1-11.8-13.2-24.9-13.2-24.9s6.2,16.7,9.1,27.4l-6.3,3.3
			c-7.6-28.2-20.7-54.3-20.7-54.3l7.4-4c15.9,18,22.4,35.3,22.4,35.3s-2.3-17.2-9.9-42l7.2-3.9c0,0,10.3,16.8,21.2,53.5l-6.4,3.6
			l-8.5-29.1C696.8,277.6,700.2,298.4,700.7,309.4z"/>
		<path fill="#CCCCCC" d="M730.2,291.1c-1.2,2.8-2.7,4.8-4.8,5.9c-5.2,2.9-12.7-2.8-16.9-14.5c-4.3-12.1-3.8-24.9,1.2-27.7
			c4.3-2.4,11.4,4.7,15.2,15.1l1.5,4.2l-11.6,6.4c1.2,3.2,1.8,4.4,2.8,5.8c1.8,2.4,3.9,1.8,5.6,0.9c0.7-0.4,1.3-0.9,1.8-1.8
			c0.8-1.2,1.2-2.4,2-5.5l4.3,8.1C730.8,289.4,730.4,290.5,730.2,291.1z M713.6,263.9c-2,1.1-2.3,4.8-0.8,10.2l6.8-3.8
			C717.4,264.6,715.7,262.8,713.6,263.9z"/>
		<path fill="#CCCCCC" d="M717.6,238.6l4.2-4.1c0,0,3.5,4.9,6.7,13.6l3.8-2.1l2.6,7.3l-3.8,2.1l6.1,17.1c1.5,4.3,2.2,5.4,2.9,5
			c0.5-0.3,1-1.2,1.5-3.7l4,6.4c-0.3,1.2-0.6,2.2-0.9,3.1c-0.7,2.4-1.8,4.1-3,4.7c-2.3,1.3-4.4-0.7-6.4-6.4l-8.5-23.8l-2.6,1.4
			l-3-7.2l2.2-1.2C721.5,245.3,717.6,238.6,717.6,238.6z"/>
		<path fill="#CCCCCC" d="M749.6,250.6c-0.8-0.6-1.3-0.7-1.8-0.4c-0.7,0.4-1.1,1.9-1.1,4.1c0,2.7,0.4,5.1,1.4,8l6.3,17.6l-4.5,2.5
			l-13.7-38.5l3.9-2.1l3.2,8.4c-0.6-7.5-0.4-10.5,0.9-11.3c0.9-0.5,2-0.1,3.4,1.4L749.6,250.6z"/>
		<path fill="#CCCCCC" d="M770.5,271.7c-5,2.8-11.9-3.9-16-15.4c-4.1-11.5-3.4-22.3,1.6-25.1c5-2.8,11.9,3.9,16,15.3
			C776.2,258.1,775.5,268.9,770.5,271.7z M758.8,239c-2.3,1.3-2.1,7.9,0.3,14.7c2.4,6.9,6.3,11.4,8.6,10.2c2.3-1.3,2.1-7.9-0.3-14.8
			C765,242.3,761.1,237.8,758.8,239z"/>
		<path fill="#B2B2B2" d="M1162.3,49.5l-5.2,2.8c-4.2-9.8-11-20.6-11-20.6s5.2,13.9,7.5,22.7l-5.2,2.7c-6.3-23.4-17.1-45-17.1-45
			l6.1-3.3c13.2,14.9,18.6,29.2,18.6,29.2s-1.9-14.3-8.2-34.8l6-3.2c0,0,8.5,13.9,17.6,44.3l-5.3,2.9l-7-24.1
			C1159,23.2,1161.8,40.4,1162.3,49.5z"/>
		<path fill="#B2B2B2" d="M1186.7,34.4c-1,2.4-2.3,4-4,4.9c-4.3,2.4-10.5-2.3-14-12c-3.6-10-3.2-20.6,1-22.9
			c3.6-2,9.5,3.9,12.5,12.5l1.2,3.5l-9.6,5.3c1,2.6,1.5,3.7,2.3,4.8c1.5,2,3.2,1.5,4.6,0.7c0.6-0.3,1.1-0.8,1.5-1.5
			c0.7-1,1-2,1.7-4.5l3.6,6.7C1187.2,33,1186.9,33.9,1186.7,34.4z M1172.9,11.9c-1.6,0.9-1.9,4-0.7,8.5l5.7-3.1
			C1176.1,12.4,1174.7,10.9,1172.9,11.9z"/>
		<path fill="#B2B2B2" d="M1176.3-9.1l3.4-3.4c0,0,2.9,4.1,5.5,11.3l3.1-1.7l2.2,6.1l-3.1,1.7l5,14.1c1.3,3.5,1.8,4.5,2.4,4.2
			c0.4-0.2,0.8-1,1.3-3.1l3.3,5.3c-0.3,1-0.5,1.8-0.7,2.6c-0.6,2-1.4,3.4-2.5,3.9c-1.9,1.1-3.6-0.6-5.3-5.3l-7.1-19.7l-2.1,1.2
			l-2.5-6l1.8-1C1179.5-3.5,1176.3-9.1,1176.3-9.1z"/>
		<path fill="#B2B2B2" d="M1202.7,0.8c-0.7-0.5-1.1-0.6-1.5-0.3c-0.6,0.3-0.9,1.6-0.9,3.4c0,2.2,0.3,4.2,1.2,6.6l5.2,14.6l-3.7,2.1
			l-11.4-31.9l3.2-1.8l2.6,6.9c-0.5-6.2-0.4-8.7,0.8-9.3c0.8-0.4,1.7-0.1,2.8,1.1L1202.7,0.8z"/>
		<path fill="#B2B2B2" d="M1220.1,18.3c-4.1,2.3-9.9-3.2-13.3-12.8c-3.4-9.5-2.8-18.5,1.3-20.8c4.1-2.3,9.9,3.2,13.2,12.7
			C1224.7,7,1224.2,16,1220.1,18.3z M1210.4-8.7c-1.9,1-1.8,6.6,0.2,12.1c2,5.7,5.2,9.4,7.1,8.4c1.9-1,1.8-6.5-0.3-12.2
			C1215.5-6,1212.3-9.8,1210.4-8.7z"/>
		<path fill="#CCCCCC" d="M770.5,206.6c0,0,4.7-2.8,6.2-3.7c3.6-2,9-2.8,11.8-0.7c3.1,2.3,6.3,6.9,8.2,12c1.5,4.2,1.7,6.2,1.8,9.3
			c0,3.2-2.7,6.6-2.7,6.6l13.9,19.1l-5.2,2.9L791,233.5l-2.4,1.3l7.8,21.8l-5.4,2.8C776.3,217.2,770.5,206.6,770.5,206.6z
			 M783.3,210.2l-3.1,1.6l6,14.3l2.9-1.7c3-1.7,3.1-4,1.2-9.4C788.3,209.9,785.5,209.2,783.3,210.2z"/>
		<path fill="#CCCCCC" d="M826.2,240.5l-0.9,0.5c-2.3,1.3-3.3,0.8-5.3-2.1c-0.5,4.2-1.4,6.4-3.2,7.4c-3,1.7-6.6-1.5-8.8-7.6
			c-0.5-1.3-0.8-2.7-1.1-4c-0.7-3.9-0.3-6.3,1.7-9.4l4.6-5.9l-0.8-2.4c-1.5-4.1-2.8-5.7-4.3-4.8c-1.4,0.8-1.9,2.9-1.2,4.8
			c0.1,0.3,0.2,0.5,0.8,1.6l-4.3,4.4c-1-1.7-1.2-2.1-1.5-3.2c-2.4-6.8-1.1-12.1,3.6-14.8c4.2-2.3,8.2,0.3,11.2,8.7l4.6,15.4
			c1.2,3.5,1.6,3.9,2.9,3.5L826.2,240.5z M814.8,225.8c0,0-1.7,3.3-2.2,4.4c-0.8,1.6-0.5,4.3-0.1,5.3c0.9,2.5,2,3,3.1,2.3
			c0.6-0.3,1.1-1.1,1.4-2.2c0.2-0.5,0.3-1,0.5-2.4L814.8,225.8z"/>
		<path fill="#CCCCCC" d="M816.3,194.4c-1.4,0.7-3.6-1.4-4.9-4.6s-1.2-6.3,0.2-7c1.4-0.7,3.6,1.4,4.9,4.6
			C817.7,190.6,817.6,193.7,816.3,194.4z M816.3,200.1l5.1-2.7c0,0,4.2,9.7,12.9,38l-4.8,2.8C823.6,218.8,816.3,200.1,816.3,200.1z"
			/>
		<path fill="#CCCCCC" d="M837.3,233.9c-8.8-35.8-18.9-53.2-18.9-53.2l5.3-2.9c0,0,6.7,8.1,19.1,53L837.3,233.9"/>
	</g>
	<g>
		<path fill="#4C4C4C" d="M420.5,441.8l0.6,1.9l0.2,12.4l-1.9,0.9l0-11.8l0,0l-3.5,1.8l-0.7-2.4L420.5,441.8z"/>
		<path fill="#4C4C4C" d="M425.4,453.9l-0.5-1.8l0.5-2c0.9-3.3,1.3-5.1,0.8-6.6c-0.3-1-0.9-1.7-1.8-1.2c-0.7,0.3-1.1,1.2-1.3,1.9
			l-1.1-1.9c0.4-1,1.1-2,2.1-2.6c1.7-0.9,3.2,0.3,3.9,2.6c0.6,2.1,0.2,4.3-0.4,6.5l-0.4,1.3l0,0l2.9-1.4l0.7,2.4L425.4,453.9z"/>
		<path fill="#4C4C4C" d="M435.5,441.4c1.2,3.9,1.1,7.1-0.9,8.1c-2,1-3.7-1.5-4.8-5.1c-1.1-3.7-1.1-7.1,0.9-8
			C432.8,435.3,434.5,438,435.5,441.4z M431.6,443.5c0.9,2.9,1.7,4.1,2.4,3.7c0.7-0.3,0.6-2-0.3-4.9c-0.9-2.8-1.7-4.1-2.4-3.8
			C430.7,438.9,430.7,440.6,431.6,443.5z"/>
	</g>
	<polygon fill="#FFFFFF" points="414.9,459.3 404,465.3 401.7,456.2 412.6,450.3 	"/>
	<polygon fill="#7A7A7A" points="414.9,459.3 404,465.2 403.7,464.1 414.6,458.3 	"/>
	<polygon fill="#7A7A7A" points="414.4,457.4 403.5,463.2 403.2,462.1 414.1,456.3 	"/>
	<polygon fill="#7A7A7A" points="413.9,455.4 403,461.2 402.7,460.1 413.6,454.3 	"/>
	<polygon fill="#7A7A7A" points="413.4,453.4 402.5,459.2 402.2,458.1 413.1,452.3 	"/>
	<polygon fill="#7A7A7A" points="412.9,451.4 402,457.2 401.7,456.2 412.6,450.3 	"/>
	<polygon fill="#4C4C4C" points="401.7,456.2 405.4,454.2 406.6,458.8 402.9,460.8 	"/>
	<g opacity="0.59">
		<path fill="#FFFFFF" d="M239.8,627.7v1.1l-2.5,5.7l-1.5-0.3l2.5-5.4v0l-2.8-0.5v-1.4L239.8,627.7z"/>
		<path fill="#FFFFFF" d="M240.7,635.1v-1l0.8-0.7c1.3-1.2,2-1.9,2-2.7c0-0.6-0.3-1.1-1-1.2c-0.5-0.1-1,0.1-1.3,0.4l-0.4-1.3
			c0.5-0.3,1.2-0.5,2-0.4c1.4,0.3,2.1,1.4,2.1,2.7c0,1.2-0.7,2-1.6,2.8l-0.6,0.5v0l2.3,0.4v1.4L240.7,635.1z"/>
		<path fill="#FFFFFF" d="M250.3,633.2c0,2.2-0.8,3.6-2.3,3.3c-1.6-0.3-2.3-2.1-2.3-4.1c0-2.1,0.7-3.6,2.3-3.3
			C249.7,629.4,250.3,631.3,250.3,633.2z M247.2,632.7c0,1.7,0.3,2.5,0.9,2.6c0.6,0.1,0.9-0.7,0.9-2.3c0-1.6-0.3-2.5-0.9-2.6
			C247.5,630.3,247.2,631,247.2,632.7z"/>
		<path fill="#FFFFFF" d="M250.9,635.1c0-0.9,0.4-1.4,1.1-1.6v0c-0.6-0.5-0.9-1.1-0.9-1.7c0-1.2,0.9-1.9,2.1-1.6
			c1.4,0.3,2,1.3,2,2.2c0,0.6-0.3,1.2-0.9,1.4v0c0.6,0.4,1.1,1.1,1.1,2c0,1.3-0.9,2-2.3,1.8C251.7,637.2,250.9,636.1,250.9,635.1z
			 M254.1,635.6c0-0.6-0.4-1.1-1-1.4c-0.5,0.1-0.7,0.4-0.7,0.9c0,0.5,0.3,1.1,0.9,1.2C253.8,636.5,254.1,636.1,254.1,635.6z
			 M252.5,631.9c0,0.5,0.4,0.9,0.9,1.1c0.3,0,0.6-0.4,0.6-0.8c0-0.4-0.2-0.9-0.7-1C252.7,631.1,252.5,631.4,252.5,631.9z"/>
	</g>
	<path fill="#FFFFFF" d="M402.5,647c-10.5,6.8-62,26.2-73.9,28.9c-1,0.4-1.6,1.6-1.2,2.6l0,0c0.4,1,1.5,1.4,2.6,1.2
		c11.9-2.7,63.4-22.1,73.9-28.9c0.9-0.6,1.6-1.6,1.2-2.6l0,0C404.7,647.1,403.5,646.6,402.5,647z"/>
	<path fill="#FFFFFF" d="M403,654.6c-10.5,6.8-81.7,31.9-93.6,34.6c-1,0.4-1.6,1.6-1.2,2.6l0,0c0.4,1,1.5,1.4,2.6,1.2
		c11.9-2.7,83.1-27.9,93.6-34.6c0.9-0.6,1.6-1.6,1.2-2.6l0,0C405.2,654.7,404,654.2,403,654.6z"/>
	<path fill="#FFFFFF" d="M404.9,685.2c-10.5,6.8-81.7,31.9-93.6,34.6c-1,0.4-1.6,1.6-1.2,2.6l0,0c0.4,1,1.5,1.4,2.6,1.2
		c11.9-2.7,83.1-27.9,93.6-34.6c0.9-0.6,1.6-1.6,1.2-2.6l0,0C407.1,685.3,406,684.8,404.9,685.2z"/>
	<path fill="#FFFFFF" d="M405.5,692.8c-10.5,6.8-63,25.8-74.9,28.5c-1,0.4-1.6,1.6-1.2,2.6l0,0c0.4,1,1.5,1.4,2.6,1.2
		c11.9-2.7,64.4-21.7,74.9-28.5c0.9-0.6,1.6-1.6,1.2-2.6l0,0C407.8,692.9,406.6,692.4,405.5,692.8z"/>
	<path fill="#FFFFFF" d="M406,663.5L406,663.5c-0.4-1.1-1.6-1.6-2.6-1.2c-10.5,6.8-81.7,31.9-93.6,34.6c-1.7,0.4-11.2,0.5-11.2,0.5
		c-1.1,0-1.9,0.9-1.9,1.9c0,1.1,0.9,1.9,1.9,1.9c0,0,10.6-0.1,12.3-0.5l0,0c0.1,0,0.2,0,0.3,0c11.9-2.7,83.1-27.9,93.6-34.6
		C405.7,665.5,406.4,664.5,406,663.5z"/>
	<path fill="#FFFFFF" d="M406.6,671.1L406.6,671.1c-0.4-1.1-1.6-1.6-2.6-1.2c-10.5,6.8-81.7,31.9-93.6,34.6
		c-1.7,0.4-16.9-0.2-16.9-0.2c-1.1,0-1.9,0.9-1.9,1.9v0c0,1.1,0.9,1.9,1.9,1.9c0,0,16.3,0.6,18,0.2l0,0c0.1,0,0.2,0,0.3,0
		c11.9-2.7,83.1-27.9,93.6-34.6C406.3,673.1,406.9,672.2,406.6,671.1z"/>
	<path fill="#FFFFFF" d="M407.1,678.7L407.1,678.7c-0.4-1.1-1.6-1.6-2.6-1.2c-10.5,6.8-81.7,31.9-93.6,34.6
		c-1.7,0.4-11.8,0.2-11.8,0.2c-1.1,0-1.9,0.9-1.9,1.9s0.9,1.9,1.9,1.9c0,0,11.2,0.2,12.9-0.2l0,0c0.1,0,0.2,0,0.3,0
		c11.9-2.7,83.1-27.9,93.6-34.6C406.9,680.7,407.5,679.8,407.1,678.7z"/>
</g>
<g id="_x30_1_Highlights">
	<path opacity="0.4" fill="#FFFFFF" d="M154.1,564.6l-14.8-2.3c0,0,0,29.9,0,31.8s1.8,2.3,3.2,1.4s7.3-4.8,8.4-5.6s3.1-3,3.1-5.5
		C154.1,582,154.1,564.6,154.1,564.6z"/>
	<path opacity="0.8" fill="#FFFFFF" d="M164.9,582L164.9,582c-0.5-0.3-0.6-0.9-0.3-1.4l42-61.9c0.3-0.5,0.9-0.6,1.4-0.3l0,0
		c0.5,0.3,0.6,0.9,0.3,1.4l-42,61.9C166,582.2,165.4,582.3,164.9,582z"/>
	<path opacity="0.8" fill="#FFFFFF" d="M744.5,414l-69.5,43.5c-2.3,1.5-4.1,0.7-4.1-1.7l-5.6-89.4c0-2.5,1.8-5.8,4.1-7.3l69.7-40
		c2.3-1.5,4.1-0.7,4.1,1.7l5.4,85.9C748.6,409.2,746.7,412.5,744.5,414z"/>
	<path opacity="0.8" fill="#FFFFFF" d="M648.9,472.5l-69,42.4c-2.3,1.6-4.2,0.8-4.2-1.8l-6.1-92c0-2.6,1.9-6,4.2-7.6l69.3-40.5
		c2.3-1.6,4.2-0.8,4.2,1.8l5.8,89.4C653,466.9,651.2,470.9,648.9,472.5z"/>
	<path fill="#B2B2B2" d="M1269.3,92.8l-37.6,24.1c-1.8,1.2-3.3,0.6-3.3-1.4l-4.5-71.4c0-2,1.5-4.6,3.3-5.8L1265,17
		c1.8-1.2,3.3-0.6,3.3,1.4l4.3,68.6C1272.6,89,1271.1,91.6,1269.3,92.8z"/>
	<path fill="#B2B2B2" d="M1208.6,130.2l-38.9,24.7c-1.8,1.3-3.3,0.6-3.3-1.4l-4.9-73.5c0-2.1,1.5-4.8,3.3-6l39.1-23.1
		c1.8-1.3,3.3-0.6,3.3,1.4l4.6,71.4C1211.9,125.7,1210.4,128.9,1208.6,130.2z"/>
	<path opacity="0.8" fill="#FFFFFF" d="M912.4,318.3l-21.5,13c-2.1,1.3-3.9,0.5-3.9-1.8l-5.5-87.7c0-2.3,1.7-5.3,3.9-6.7l21.2-12.3
		c2.1-1.3,3.9-0.5,3.9,1.8l5.7,87C916.2,314,914.5,317,912.4,318.3z"/>
	<path fill="#B2B2B2" d="M1050.9,233.2l-20.3,12.3c-2,1.3-3.6,0.5-3.6-1.7l-5.2-82.8c0-2.2,1.6-5,3.6-6.3l20.1-11.7
		c2-1.3,3.6-0.5,3.6,1.7l5.4,82.2C1054.5,229.1,1052.9,231.9,1050.9,233.2z"/>
</g>
</svg>
